%TF.GenerationSoftware,KiCad,Pcbnew,10.0.6*%
%TF.CreationDate,2026-09-13T19:24:56-05:00*%
%TF.ProjectId,owasso1,6f776173-736f-4312-9e6b-696361645f70,rev?*%
%TF.SameCoordinates,Original*%
%TF.FileFunction,Soldermask,Bot*%
%TF.FilePolarity,Negative*%
%FSLAX46Y46*%
G04 Gerber Fmt 4.6, Leading zero omitted, Abs format (unit mm)*
G04 Created by KiCad (PCBNEW 10.0.6) date 2026-09-13 19:24:56*
%MOMM*%
%LPD*%
G01*
G04 APERTURE LIST*
G04 Aperture macros list*
%AMRoundRect*
0 Rectangle with rounded corners*
0 $1 Rounding radius*
0 $2 $3 $4 $5 $6 $7 $8 $9 X,Y pos of 4 corners*
0 Add a 4 corners polygon primitive as box body*
4,1,4,$2,$3,$4,$5,$6,$7,$8,$9,$2,$3,0*
0 Add four circle primitives for the rounded corners*
1,1,$1+$1,$2,$3*
1,1,$1+$1,$4,$5*
1,1,$1+$1,$6,$7*
1,1,$1+$1,$8,$9*
0 Add four rect primitives between the rounded corners*
20,1,$1+$1,$2,$3,$4,$5,0*
20,1,$1+$1,$4,$5,$6,$7,0*
20,1,$1+$1,$6,$7,$8,$9,0*
20,1,$1+$1,$8,$9,$2,$3,0*%
G04 Aperture macros list end*
%ADD10R,1.700000X1.700000*%
%ADD11C,1.700000*%
%ADD12C,2.200000*%
%ADD13O,2.200000X3.500000*%
%ADD14R,1.500000X2.500000*%
%ADD15O,1.500000X2.500000*%
%ADD16R,1.800000X1.800000*%
%ADD17C,1.800000*%
%ADD18R,1.000000X1.000000*%
%ADD19C,1.000000*%
%ADD20RoundRect,0.250200X0.649800X-0.649800X0.649800X0.649800X-0.649800X0.649800X-0.649800X-0.649800X0*%
%ADD21C,0.650000*%
%ADD22O,2.100000X1.000000*%
%ADD23O,1.800000X1.000000*%
G04 APERTURE END LIST*
D10*
%TO.C,J2*%
X8000000Y-78000000D03*
D11*
X8000000Y-80540000D03*
X8000000Y-83080000D03*
X8000000Y-85620000D03*
X8000000Y-88160000D03*
X8000000Y-90700000D03*
X8000000Y-93240000D03*
X8000000Y-95780000D03*
%TD*%
D12*
%TO.C,H1*%
X6000000Y-6000000D03*
%TD*%
D10*
%TO.C,J4*%
X8000000Y-110000000D03*
D11*
X8000000Y-112540000D03*
X8000000Y-115080000D03*
X8000000Y-117620000D03*
%TD*%
D12*
%TO.C,H2*%
X70000000Y-6000000D03*
%TD*%
D13*
%TO.C,SW1*%
X37900000Y-75000000D03*
X46100000Y-75000000D03*
D14*
X40000000Y-75000000D03*
D15*
X42000000Y-75000000D03*
X44000000Y-75000000D03*
%TD*%
D16*
%TO.C,J1*%
X40030000Y-44050000D03*
D17*
X42570000Y-44050000D03*
X45110000Y-44050000D03*
X47650000Y-44050000D03*
X50190000Y-44050000D03*
X52730000Y-44050000D03*
X55270000Y-44050000D03*
X57810000Y-44050000D03*
X60350000Y-44050000D03*
X62890000Y-44050000D03*
X65430000Y-44050000D03*
X67970000Y-44050000D03*
D16*
X41300000Y-5950000D03*
D17*
X43840000Y-5950000D03*
X46380000Y-5950000D03*
X48920000Y-5950000D03*
X51460000Y-5950000D03*
X54000000Y-5950000D03*
X56540000Y-5950000D03*
X59080000Y-5950000D03*
X61620000Y-5950000D03*
X64160000Y-5950000D03*
X66700000Y-5950000D03*
%TD*%
D10*
%TO.C,J5*%
X68000000Y-115000000D03*
D11*
X68000000Y-117540000D03*
X68000000Y-120080000D03*
X68000000Y-122620000D03*
X68000000Y-125160000D03*
%TD*%
D12*
%TO.C,H4*%
X70000000Y-154000000D03*
%TD*%
D10*
%TO.C,J6*%
X20000000Y-85000000D03*
D11*
X22540000Y-85000000D03*
X25080000Y-85000000D03*
X27620000Y-85000000D03*
X30160000Y-85000000D03*
%TD*%
D18*
%TO.C,U6*%
X50000000Y-120000000D03*
D19*
X50000000Y-121270000D03*
X50000000Y-122540000D03*
X50000000Y-123810000D03*
%TD*%
D20*
%TO.C,U7*%
X50000000Y-60000000D03*
D17*
X50000000Y-57460000D03*
X50000000Y-54920000D03*
%TD*%
D12*
%TO.C,H3*%
X6000000Y-154000000D03*
%TD*%
D10*
%TO.C,J3*%
X25000000Y-65000000D03*
D11*
X27540000Y-65000000D03*
X30080000Y-65000000D03*
X32620000Y-65000000D03*
X35160000Y-65000000D03*
X37700000Y-65000000D03*
X40240000Y-65000000D03*
X42780000Y-65000000D03*
X45320000Y-65000000D03*
%TD*%
D21*
%TO.C,USB1*%
X63395000Y-52890000D03*
X63395000Y-47110000D03*
D22*
X62895000Y-54320000D03*
D23*
X67075000Y-54320000D03*
D22*
X62895000Y-45680000D03*
D23*
X67075000Y-45680000D03*
%TD*%
M02*
