%TF.GenerationSoftware,KiCad,Pcbnew,10.0.6*%
%TF.CreationDate,2026-09-14T19:57:30-05:00*%
%TF.ProjectId,owasso1,6f776173-736f-4312-9e6b-696361645f70,rev?*%
%TF.SameCoordinates,Original*%
%TF.FileFunction,Soldermask,Bot*%
%TF.FilePolarity,Negative*%
%FSLAX46Y46*%
G04 Gerber Fmt 4.6, Leading zero omitted, Abs format (unit mm)*
G04 Created by KiCad (PCBNEW 10.0.6) date 2026-09-14 19:57:30*
%MOMM*%
%LPD*%
G01*
G04 APERTURE LIST*
G04 Aperture macros list*
%AMRoundRect*
0 Rectangle with rounded corners*
0 $1 Rounding radius*
0 $2 $3 $4 $5 $6 $7 $8 $9 X,Y pos of 4 corners*
0 Add a 4 corners polygon primitive as box body*
4,1,4,$2,$3,$4,$5,$6,$7,$8,$9,$2,$3,0*
0 Add four circle primitives for the rounded corners*
1,1,$1+$1,$2,$3*
1,1,$1+$1,$4,$5*
1,1,$1+$1,$6,$7*
1,1,$1+$1,$8,$9*
0 Add four rect primitives between the rounded corners*
20,1,$1+$1,$2,$3,$4,$5,0*
20,1,$1+$1,$4,$5,$6,$7,0*
20,1,$1+$1,$6,$7,$8,$9,0*
20,1,$1+$1,$8,$9,$2,$3,0*%
G04 Aperture macros list end*
%ADD10C,2.200000*%
%ADD11R,1.700000X1.700000*%
%ADD12C,1.700000*%
%ADD13R,1.800000X1.800000*%
%ADD14C,1.800000*%
%ADD15C,0.650000*%
%ADD16O,2.100000X1.000000*%
%ADD17O,1.800000X1.000000*%
%ADD18RoundRect,0.250200X0.649800X0.649800X-0.649800X0.649800X-0.649800X-0.649800X0.649800X-0.649800X0*%
%ADD19R,1.000000X1.000000*%
%ADD20C,1.000000*%
%ADD21O,3.500000X2.200000*%
%ADD22R,2.500000X1.500000*%
%ADD23O,2.500000X1.500000*%
%ADD24RoundRect,0.250000X-0.262500X-0.450000X0.262500X-0.450000X0.262500X0.450000X-0.262500X0.450000X0*%
%ADD25RoundRect,0.150000X0.700000X-0.150000X0.700000X0.150000X-0.700000X0.150000X-0.700000X-0.150000X0*%
%ADD26RoundRect,0.250000X1.100000X-0.250000X1.100000X0.250000X-1.100000X0.250000X-1.100000X-0.250000X0*%
%ADD27RoundRect,0.250000X-0.325000X-0.650000X0.325000X-0.650000X0.325000X0.650000X-0.325000X0.650000X0*%
%ADD28RoundRect,0.150000X-0.512500X-0.150000X0.512500X-0.150000X0.512500X0.150000X-0.512500X0.150000X0*%
%ADD29RoundRect,0.225000X-0.225000X-0.375000X0.225000X-0.375000X0.225000X0.375000X-0.225000X0.375000X0*%
%ADD30RoundRect,0.087500X-0.250000X-0.087500X0.250000X-0.087500X0.250000X0.087500X-0.250000X0.087500X0*%
%ADD31RoundRect,0.137500X-0.662500X-0.137500X0.662500X-0.137500X0.662500X0.137500X-0.662500X0.137500X0*%
%ADD32RoundRect,0.150000X-0.825000X-0.150000X0.825000X-0.150000X0.825000X0.150000X-0.825000X0.150000X0*%
%ADD33R,2.300000X2.300000*%
%ADD34RoundRect,0.250000X-0.375000X-1.075000X0.375000X-1.075000X0.375000X1.075000X-0.375000X1.075000X0*%
G04 APERTURE END LIST*
D10*
%TO.C,H2*%
X177500000Y-35000000D03*
%TD*%
D11*
%TO.C,J2*%
X150000000Y-35460000D03*
D12*
X150000000Y-38000000D03*
X150000000Y-40540000D03*
X150000000Y-43080000D03*
X150000000Y-45620000D03*
X150000000Y-48160000D03*
X150000000Y-50700000D03*
X150000000Y-53240000D03*
%TD*%
D13*
%TO.C,J1*%
X117030000Y-125550000D03*
D14*
X119570000Y-125550000D03*
X122110000Y-125550000D03*
X124650000Y-125550000D03*
X127190000Y-125550000D03*
X129730000Y-125550000D03*
X132270000Y-125550000D03*
X134810000Y-125550000D03*
X137350000Y-125550000D03*
X139890000Y-125550000D03*
X142430000Y-125550000D03*
X144970000Y-125550000D03*
D13*
X118300000Y-87450000D03*
D14*
X120840000Y-87450000D03*
X123380000Y-87450000D03*
X125920000Y-87450000D03*
X128460000Y-87450000D03*
X131000000Y-87450000D03*
X133540000Y-87450000D03*
X136080000Y-87450000D03*
X138620000Y-87450000D03*
X141160000Y-87450000D03*
X143700000Y-87450000D03*
%TD*%
D11*
%TO.C,J5*%
X109500000Y-104920000D03*
D12*
X109500000Y-107460000D03*
X109500000Y-110000000D03*
X109500000Y-112540000D03*
X109500000Y-115080000D03*
%TD*%
D15*
%TO.C,USB1*%
X173645000Y-80640000D03*
X173645000Y-74860000D03*
D16*
X173145000Y-82070000D03*
D17*
X177325000Y-82070000D03*
D16*
X173145000Y-73430000D03*
D17*
X177325000Y-73430000D03*
%TD*%
D18*
%TO.C,U7*%
X110540000Y-36425000D03*
D14*
X108000000Y-36425000D03*
X105460000Y-36425000D03*
%TD*%
D10*
%TO.C,H1*%
X96500000Y-35000000D03*
%TD*%
D19*
%TO.C,U6*%
X149500000Y-60690000D03*
D20*
X149500000Y-61960000D03*
X149500000Y-63230000D03*
X149500000Y-64500000D03*
%TD*%
D21*
%TO.C,SW1*%
X176500000Y-68100000D03*
X176500000Y-59900000D03*
D22*
X176500000Y-66000000D03*
D23*
X176500000Y-64000000D03*
X176500000Y-62000000D03*
%TD*%
D11*
%TO.C,J4*%
X104500000Y-105500000D03*
D12*
X104500000Y-108040000D03*
X104500000Y-110580000D03*
X104500000Y-113120000D03*
%TD*%
D11*
%TO.C,J6*%
X132500000Y-134000000D03*
D12*
X135040000Y-134000000D03*
X137580000Y-134000000D03*
X140120000Y-134000000D03*
X142660000Y-134000000D03*
%TD*%
D10*
%TO.C,H4*%
X177500000Y-183000000D03*
%TD*%
%TO.C,H3*%
X96500000Y-183000000D03*
%TD*%
D24*
%TO.C,R3*%
X169187500Y-117250000D03*
X171012500Y-117250000D03*
%TD*%
D25*
%TO.C,J13*%
X159200000Y-60350000D03*
X159200000Y-59100000D03*
D26*
X156000000Y-62200000D03*
X156000000Y-57250000D03*
%TD*%
D27*
%TO.C,C1*%
X158600000Y-124250000D03*
X161550000Y-124250000D03*
%TD*%
%TO.C,C2*%
X169550000Y-87500000D03*
X172500000Y-87500000D03*
%TD*%
D28*
%TO.C,U5*%
X155500000Y-86950000D03*
X155500000Y-86000000D03*
X155500000Y-85050000D03*
X157775000Y-85050000D03*
X157775000Y-86950000D03*
%TD*%
D29*
%TO.C,D15*%
X127300000Y-182700000D03*
X130600000Y-182700000D03*
%TD*%
%TO.C,D3*%
X127250000Y-146900000D03*
X130550000Y-146900000D03*
%TD*%
%TO.C,D9*%
X155300000Y-158700000D03*
X158600000Y-158700000D03*
%TD*%
D24*
%TO.C,R2*%
X159187500Y-117250000D03*
X161012500Y-117250000D03*
%TD*%
D29*
%TO.C,D11*%
X127300000Y-170700000D03*
X130600000Y-170700000D03*
%TD*%
D30*
%TO.C,U8*%
X136825000Y-67250000D03*
X136825000Y-66750000D03*
X136825000Y-66250000D03*
X138250000Y-66250000D03*
X138250000Y-66750000D03*
X138250000Y-67250000D03*
%TD*%
D28*
%TO.C,U4*%
X141500000Y-73900000D03*
X141500000Y-72950000D03*
X141500000Y-72000000D03*
X143775000Y-72000000D03*
X143775000Y-72950000D03*
X143775000Y-73900000D03*
%TD*%
D29*
%TO.C,D2*%
X113300000Y-146700000D03*
X116600000Y-146700000D03*
%TD*%
%TO.C,D7*%
X127300000Y-158700000D03*
X130600000Y-158700000D03*
%TD*%
D31*
%TO.C,U2*%
X166500000Y-162945000D03*
X166500000Y-161675000D03*
X166500000Y-160405000D03*
X166500000Y-159135000D03*
X166500000Y-157865000D03*
X166500000Y-156595000D03*
X166500000Y-155325000D03*
X166500000Y-154055000D03*
X173000000Y-154055000D03*
X173000000Y-155325000D03*
X173000000Y-156595000D03*
X173000000Y-157865000D03*
X173000000Y-159135000D03*
X173000000Y-160405000D03*
X173000000Y-161675000D03*
X173000000Y-162945000D03*
%TD*%
D29*
%TO.C,D14*%
X113300000Y-182700000D03*
X116600000Y-182700000D03*
%TD*%
%TO.C,D5*%
X155300000Y-146700000D03*
X158600000Y-146700000D03*
%TD*%
%TO.C,D12*%
X141300000Y-170700000D03*
X144600000Y-170700000D03*
%TD*%
%TO.C,D10*%
X113100000Y-171400000D03*
X116400000Y-171400000D03*
%TD*%
D24*
%TO.C,R1*%
X155675000Y-105250000D03*
X157500000Y-105250000D03*
%TD*%
D29*
%TO.C,D6*%
X113300000Y-158700000D03*
X116600000Y-158700000D03*
%TD*%
%TO.C,D13*%
X155300000Y-170700000D03*
X158600000Y-170700000D03*
%TD*%
D28*
%TO.C,Q1*%
X149725000Y-77700000D03*
X149725000Y-76750000D03*
X149725000Y-75800000D03*
X152000000Y-75800000D03*
X152000000Y-76750000D03*
X152000000Y-77700000D03*
%TD*%
D32*
%TO.C,U3*%
X160450000Y-70480000D03*
X160450000Y-69210000D03*
X160450000Y-67940000D03*
X160450000Y-66670000D03*
X165400000Y-66670000D03*
X165400000Y-67940000D03*
X165400000Y-69210000D03*
X165400000Y-70480000D03*
D33*
X162925000Y-68575000D03*
%TD*%
D29*
%TO.C,D16*%
X141300000Y-182700000D03*
X144600000Y-182700000D03*
%TD*%
%TO.C,D8*%
X141300000Y-158700000D03*
X144600000Y-158700000D03*
%TD*%
D34*
%TO.C,L1*%
X168700000Y-109250000D03*
X171500000Y-109250000D03*
%TD*%
D29*
%TO.C,D17*%
X155300000Y-182700000D03*
X158600000Y-182700000D03*
%TD*%
%TO.C,D4*%
X141300000Y-146700000D03*
X144600000Y-146700000D03*
%TD*%
D27*
%TO.C,C3*%
X168625000Y-125250000D03*
X171575000Y-125250000D03*
%TD*%
M02*
