%TF.GenerationSoftware,KiCad,Pcbnew,10.0.6*%
%TF.CreationDate,2026-09-14T19:57:30-05:00*%
%TF.ProjectId,owasso1,6f776173-736f-4312-9e6b-696361645f70,rev?*%
%TF.SameCoordinates,Original*%
%TF.FileFunction,Other,User*%
%FSLAX46Y46*%
G04 Gerber Fmt 4.6, Leading zero omitted, Abs format (unit mm)*
G04 Created by KiCad (PCBNEW 10.0.6) date 2026-09-14 19:57:30*
%MOMM*%
%LPD*%
G01*
G04 APERTURE LIST*
%ADD10C,0.050000*%
G04 APERTURE END LIST*
%TO.C,H2*%
D10*
X179950000Y-35000000D02*
G75*
G02*
X175050000Y-35000000I-2450000J0D01*
G01*
X175050000Y-35000000D02*
G75*
G02*
X179950000Y-35000000I2450000J0D01*
G01*
%TO.C,J2*%
X148230000Y-33690000D02*
X151770000Y-33690000D01*
X151770000Y-55010000D01*
X148230000Y-55010000D01*
X148230000Y-33690000D01*
%TO.C,SW12*%
X140150000Y-163400000D02*
X145750000Y-163400000D01*
X140150000Y-167000000D02*
X140150000Y-163400000D01*
X145750000Y-163400000D02*
X145750000Y-167000000D01*
X145750000Y-167000000D02*
X140150000Y-167000000D01*
%TO.C,J7*%
X97550000Y-65800000D02*
X105450000Y-65800000D01*
X105450000Y-80900000D01*
X97550000Y-80900000D01*
X97550000Y-65800000D01*
%TO.C,J10*%
X165040000Y-93980000D02*
X165040000Y-105980000D01*
X165040000Y-105980000D02*
X180190000Y-105980000D01*
X180190000Y-93980000D02*
X165040000Y-93980000D01*
X180190000Y-105980000D02*
X180190000Y-93980000D01*
%TO.C,J5*%
X107730000Y-103150000D02*
X111270000Y-103150000D01*
X111270000Y-116850000D01*
X107730000Y-116850000D01*
X107730000Y-103150000D01*
%TO.C,SW11*%
X126150000Y-163400000D02*
X131750000Y-163400000D01*
X126150000Y-167000000D02*
X126150000Y-163400000D01*
X131750000Y-163400000D02*
X131750000Y-167000000D01*
X131750000Y-167000000D02*
X126150000Y-167000000D01*
%TO.C,D1*%
X114132500Y-33800000D02*
X117492500Y-33800000D01*
X117492500Y-35700000D01*
X114132500Y-35700000D01*
X114132500Y-33800000D01*
%TO.C,USB1*%
X171490000Y-72430000D02*
X180430000Y-72430000D01*
X180430000Y-83070000D01*
X171490000Y-83070000D01*
X171490000Y-72430000D01*
%TO.C,SW16*%
X140150000Y-175400000D02*
X145750000Y-175400000D01*
X140150000Y-179000000D02*
X140150000Y-175400000D01*
X145750000Y-175400000D02*
X145750000Y-179000000D01*
X145750000Y-179000000D02*
X140150000Y-179000000D01*
%TO.C,SW10*%
X112150000Y-163400000D02*
X117750000Y-163400000D01*
X112150000Y-167000000D02*
X112150000Y-163400000D01*
X117750000Y-163400000D02*
X117750000Y-167000000D01*
X117750000Y-167000000D02*
X112150000Y-167000000D01*
%TO.C,SW6*%
X112150000Y-151400000D02*
X117750000Y-151400000D01*
X112150000Y-155000000D02*
X112150000Y-151400000D01*
X117750000Y-151400000D02*
X117750000Y-155000000D01*
X117750000Y-155000000D02*
X112150000Y-155000000D01*
%TO.C,SW15*%
X126150000Y-175400000D02*
X131750000Y-175400000D01*
X126150000Y-179000000D02*
X126150000Y-175400000D01*
X131750000Y-175400000D02*
X131750000Y-179000000D01*
X131750000Y-179000000D02*
X126150000Y-179000000D01*
%TO.C,SW17*%
X154150000Y-175400000D02*
X159750000Y-175400000D01*
X154150000Y-179000000D02*
X154150000Y-175400000D01*
X159750000Y-175400000D02*
X159750000Y-179000000D01*
X159750000Y-179000000D02*
X154150000Y-179000000D01*
%TO.C,R4*%
X160820000Y-90050000D02*
X164180000Y-90050000D01*
X164180000Y-91950000D01*
X160820000Y-91950000D01*
X160820000Y-90050000D01*
%TO.C,U7*%
X104310000Y-32275000D02*
X104310000Y-37725000D01*
X104310000Y-32275000D02*
X111690000Y-32275000D01*
X111690000Y-37725000D02*
X104310000Y-37725000D01*
X111690000Y-37725000D02*
X111690000Y-32275000D01*
%TO.C,J9*%
X97500000Y-84660000D02*
X110550000Y-84660000D01*
X97500000Y-98340000D02*
X97500000Y-84660000D01*
X110550000Y-84660000D02*
X110550000Y-98340000D01*
X110550000Y-98340000D02*
X97500000Y-98340000D01*
%TO.C,SW13*%
X154150000Y-163400000D02*
X159750000Y-163400000D01*
X154150000Y-167000000D02*
X154150000Y-163400000D01*
X159750000Y-163400000D02*
X159750000Y-167000000D01*
X159750000Y-167000000D02*
X154150000Y-167000000D01*
%TO.C,H1*%
X98950000Y-35000000D02*
G75*
G02*
X94050000Y-35000000I-2450000J0D01*
G01*
X94050000Y-35000000D02*
G75*
G02*
X98950000Y-35000000I2450000J0D01*
G01*
%TO.C,U6*%
X147950000Y-59550000D02*
X151050000Y-59550000D01*
X151050000Y-65640000D01*
X147950000Y-65640000D01*
X147950000Y-59550000D01*
%TO.C,SW1*%
X173800000Y-58300000D02*
X183200000Y-58300000D01*
X173800000Y-69700000D02*
X173800000Y-58300000D01*
X183200000Y-58300000D02*
X183200000Y-69700000D01*
X183200000Y-69700000D02*
X173800000Y-69700000D01*
%TO.C,U1*%
X96500000Y-40390000D02*
X96500000Y-61390000D01*
X96500000Y-61390000D02*
X110750000Y-61390000D01*
X110750000Y-81590000D02*
X110750000Y-61390000D01*
X110750000Y-81590000D02*
X130250000Y-81590000D01*
X130250000Y-61390000D02*
X130250000Y-81590000D01*
X130250000Y-61390000D02*
X144500000Y-61390000D01*
X144500000Y-40390000D02*
X96500000Y-40390000D01*
X144500000Y-61390000D02*
X144500000Y-40390000D01*
%TO.C,SW4*%
X140150000Y-139400000D02*
X145750000Y-139400000D01*
X140150000Y-143000000D02*
X140150000Y-139400000D01*
X145750000Y-139400000D02*
X145750000Y-143000000D01*
X145750000Y-143000000D02*
X140150000Y-143000000D01*
%TO.C,J4*%
X102730000Y-103730000D02*
X106270000Y-103730000D01*
X106270000Y-114890000D01*
X102730000Y-114890000D01*
X102730000Y-103730000D01*
%TO.C,SW3*%
X126150000Y-139400000D02*
X131750000Y-139400000D01*
X126150000Y-143000000D02*
X126150000Y-139400000D01*
X131750000Y-139400000D02*
X131750000Y-143000000D01*
X131750000Y-143000000D02*
X126150000Y-143000000D01*
%TO.C,C4*%
X164975000Y-73600000D02*
X169575000Y-73600000D01*
X169575000Y-75900000D01*
X164975000Y-75900000D01*
X164975000Y-73600000D01*
%TO.C,SW5*%
X154150000Y-139400000D02*
X159750000Y-139400000D01*
X154150000Y-143000000D02*
X154150000Y-139400000D01*
X159750000Y-139400000D02*
X159750000Y-143000000D01*
X159750000Y-143000000D02*
X154150000Y-143000000D01*
%TO.C,SW14*%
X112150000Y-175400000D02*
X117750000Y-175400000D01*
X112150000Y-179000000D02*
X112150000Y-175400000D01*
X117750000Y-175400000D02*
X117750000Y-179000000D01*
X117750000Y-179000000D02*
X112150000Y-179000000D01*
%TO.C,SW2*%
X112150000Y-139400000D02*
X117750000Y-139400000D01*
X112150000Y-143000000D02*
X112150000Y-139400000D01*
X117750000Y-139400000D02*
X117750000Y-143000000D01*
X117750000Y-143000000D02*
X112150000Y-143000000D01*
%TO.C,J6*%
X130730000Y-132230000D02*
X144430000Y-132230000D01*
X144430000Y-135770000D01*
X130730000Y-135770000D01*
X130730000Y-132230000D01*
%TO.C,J14*%
X156990000Y-58000000D02*
X161340000Y-58000000D01*
X161340000Y-63000000D01*
X156990000Y-63000000D01*
X156990000Y-58000000D01*
%TO.C,SW8*%
X140150000Y-151400000D02*
X145750000Y-151400000D01*
X140150000Y-155000000D02*
X140150000Y-151400000D01*
X145750000Y-151400000D02*
X145750000Y-155000000D01*
X145750000Y-155000000D02*
X140150000Y-155000000D01*
%TO.C,SW9*%
X154150000Y-151400000D02*
X159750000Y-151400000D01*
X154150000Y-155000000D02*
X154150000Y-151400000D01*
X159750000Y-151400000D02*
X159750000Y-155000000D01*
X159750000Y-155000000D02*
X154150000Y-155000000D01*
%TO.C,SW7*%
X126150000Y-151400000D02*
X131750000Y-151400000D01*
X126150000Y-155000000D02*
X126150000Y-151400000D01*
X131750000Y-151400000D02*
X131750000Y-155000000D01*
X131750000Y-155000000D02*
X126150000Y-155000000D01*
%TO.C,H4*%
X179950000Y-183000000D02*
G75*
G02*
X175050000Y-183000000I-2450000J0D01*
G01*
X175050000Y-183000000D02*
G75*
G02*
X179950000Y-183000000I2450000J0D01*
G01*
%TO.C,R5*%
X160820000Y-94050000D02*
X164180000Y-94050000D01*
X164180000Y-95950000D01*
X160820000Y-95950000D01*
X160820000Y-94050000D01*
%TO.C,H3*%
X98950000Y-183000000D02*
G75*
G02*
X94050000Y-183000000I-2450000J0D01*
G01*
X94050000Y-183000000D02*
G75*
G02*
X98950000Y-183000000I2450000J0D01*
G01*
%TO.C,J3*%
X157940000Y-38100000D02*
X175140000Y-38100000D01*
X175140000Y-55300000D01*
X157940000Y-55300000D01*
X157940000Y-38100000D01*
%TD*%
M02*
