%TF.GenerationSoftware,KiCad,Pcbnew,10.0.6*%
%TF.CreationDate,2026-09-14T19:57:30-05:00*%
%TF.ProjectId,owasso1,6f776173-736f-4312-9e6b-696361645f70,rev?*%
%TF.SameCoordinates,Original*%
%TF.FileFunction,OtherDrawing,Comment*%
%FSLAX46Y46*%
G04 Gerber Fmt 4.6, Leading zero omitted, Abs format (unit mm)*
G04 Created by KiCad (PCBNEW 10.0.6) date 2026-09-14 19:57:30*
%MOMM*%
%LPD*%
G01*
G04 APERTURE LIST*
%ADD10C,0.100000*%
G04 APERTURE END LIST*
D10*
X179576109Y-79464285D02*
X179076109Y-79464285D01*
X179076109Y-79464285D02*
X179076109Y-79273809D01*
X179076109Y-79273809D02*
X179099919Y-79226190D01*
X179099919Y-79226190D02*
X179123728Y-79202380D01*
X179123728Y-79202380D02*
X179171347Y-79178571D01*
X179171347Y-79178571D02*
X179242776Y-79178571D01*
X179242776Y-79178571D02*
X179290395Y-79202380D01*
X179290395Y-79202380D02*
X179314204Y-79226190D01*
X179314204Y-79226190D02*
X179338014Y-79273809D01*
X179338014Y-79273809D02*
X179338014Y-79464285D01*
X179528490Y-78678571D02*
X179552300Y-78702380D01*
X179552300Y-78702380D02*
X179576109Y-78773809D01*
X179576109Y-78773809D02*
X179576109Y-78821428D01*
X179576109Y-78821428D02*
X179552300Y-78892856D01*
X179552300Y-78892856D02*
X179504680Y-78940475D01*
X179504680Y-78940475D02*
X179457061Y-78964285D01*
X179457061Y-78964285D02*
X179361823Y-78988094D01*
X179361823Y-78988094D02*
X179290395Y-78988094D01*
X179290395Y-78988094D02*
X179195157Y-78964285D01*
X179195157Y-78964285D02*
X179147538Y-78940475D01*
X179147538Y-78940475D02*
X179099919Y-78892856D01*
X179099919Y-78892856D02*
X179076109Y-78821428D01*
X179076109Y-78821428D02*
X179076109Y-78773809D01*
X179076109Y-78773809D02*
X179099919Y-78702380D01*
X179099919Y-78702380D02*
X179123728Y-78678571D01*
X179314204Y-78297618D02*
X179338014Y-78226190D01*
X179338014Y-78226190D02*
X179361823Y-78202380D01*
X179361823Y-78202380D02*
X179409442Y-78178571D01*
X179409442Y-78178571D02*
X179480871Y-78178571D01*
X179480871Y-78178571D02*
X179528490Y-78202380D01*
X179528490Y-78202380D02*
X179552300Y-78226190D01*
X179552300Y-78226190D02*
X179576109Y-78273809D01*
X179576109Y-78273809D02*
X179576109Y-78464285D01*
X179576109Y-78464285D02*
X179076109Y-78464285D01*
X179076109Y-78464285D02*
X179076109Y-78297618D01*
X179076109Y-78297618D02*
X179099919Y-78249999D01*
X179099919Y-78249999D02*
X179123728Y-78226190D01*
X179123728Y-78226190D02*
X179171347Y-78202380D01*
X179171347Y-78202380D02*
X179218966Y-78202380D01*
X179218966Y-78202380D02*
X179266585Y-78226190D01*
X179266585Y-78226190D02*
X179290395Y-78249999D01*
X179290395Y-78249999D02*
X179314204Y-78297618D01*
X179314204Y-78297618D02*
X179314204Y-78464285D01*
X179314204Y-77583333D02*
X179314204Y-77416666D01*
X179576109Y-77345238D02*
X179576109Y-77583333D01*
X179576109Y-77583333D02*
X179076109Y-77583333D01*
X179076109Y-77583333D02*
X179076109Y-77345238D01*
X179576109Y-76916666D02*
X179076109Y-76916666D01*
X179552300Y-76916666D02*
X179576109Y-76964285D01*
X179576109Y-76964285D02*
X179576109Y-77059523D01*
X179576109Y-77059523D02*
X179552300Y-77107142D01*
X179552300Y-77107142D02*
X179528490Y-77130952D01*
X179528490Y-77130952D02*
X179480871Y-77154761D01*
X179480871Y-77154761D02*
X179338014Y-77154761D01*
X179338014Y-77154761D02*
X179290395Y-77130952D01*
X179290395Y-77130952D02*
X179266585Y-77107142D01*
X179266585Y-77107142D02*
X179242776Y-77059523D01*
X179242776Y-77059523D02*
X179242776Y-76964285D01*
X179242776Y-76964285D02*
X179266585Y-76916666D01*
X179242776Y-76464285D02*
X179647538Y-76464285D01*
X179647538Y-76464285D02*
X179695157Y-76488095D01*
X179695157Y-76488095D02*
X179718966Y-76511904D01*
X179718966Y-76511904D02*
X179742776Y-76559523D01*
X179742776Y-76559523D02*
X179742776Y-76630952D01*
X179742776Y-76630952D02*
X179718966Y-76678571D01*
X179552300Y-76464285D02*
X179576109Y-76511904D01*
X179576109Y-76511904D02*
X179576109Y-76607142D01*
X179576109Y-76607142D02*
X179552300Y-76654761D01*
X179552300Y-76654761D02*
X179528490Y-76678571D01*
X179528490Y-76678571D02*
X179480871Y-76702380D01*
X179480871Y-76702380D02*
X179338014Y-76702380D01*
X179338014Y-76702380D02*
X179290395Y-76678571D01*
X179290395Y-76678571D02*
X179266585Y-76654761D01*
X179266585Y-76654761D02*
X179242776Y-76607142D01*
X179242776Y-76607142D02*
X179242776Y-76511904D01*
X179242776Y-76511904D02*
X179266585Y-76464285D01*
X179552300Y-76035714D02*
X179576109Y-76083333D01*
X179576109Y-76083333D02*
X179576109Y-76178571D01*
X179576109Y-76178571D02*
X179552300Y-76226190D01*
X179552300Y-76226190D02*
X179504680Y-76249999D01*
X179504680Y-76249999D02*
X179314204Y-76249999D01*
X179314204Y-76249999D02*
X179266585Y-76226190D01*
X179266585Y-76226190D02*
X179242776Y-76178571D01*
X179242776Y-76178571D02*
X179242776Y-76083333D01*
X179242776Y-76083333D02*
X179266585Y-76035714D01*
X179266585Y-76035714D02*
X179314204Y-76011904D01*
X179314204Y-76011904D02*
X179361823Y-76011904D01*
X179361823Y-76011904D02*
X179409442Y-76249999D01*
%TO.C,USB1*%
X179925000Y-72750000D02*
X179925000Y-82750000D01*
%TD*%
M02*
