%TF.GenerationSoftware,KiCad,Pcbnew,10.0.6*%
%TF.CreationDate,2026-09-14T19:57:30-05:00*%
%TF.ProjectId,owasso1,6f776173-736f-4312-9e6b-696361645f70,rev?*%
%TF.SameCoordinates,Original*%
%TF.FileFunction,Legend,Bot*%
%TF.FilePolarity,Positive*%
%FSLAX46Y46*%
G04 Gerber Fmt 4.6, Leading zero omitted, Abs format (unit mm)*
G04 Created by KiCad (PCBNEW 10.0.6) date 2026-09-14 19:57:30*
%MOMM*%
%LPD*%
G01*
G04 APERTURE LIST*
%ADD10C,0.150000*%
%ADD11C,0.120000*%
G04 APERTURE END LIST*
D10*
X170266666Y-119354819D02*
X170599999Y-118878628D01*
X170838094Y-119354819D02*
X170838094Y-118354819D01*
X170838094Y-118354819D02*
X170457142Y-118354819D01*
X170457142Y-118354819D02*
X170361904Y-118402438D01*
X170361904Y-118402438D02*
X170314285Y-118450057D01*
X170314285Y-118450057D02*
X170266666Y-118545295D01*
X170266666Y-118545295D02*
X170266666Y-118688152D01*
X170266666Y-118688152D02*
X170314285Y-118783390D01*
X170314285Y-118783390D02*
X170361904Y-118831009D01*
X170361904Y-118831009D02*
X170457142Y-118878628D01*
X170457142Y-118878628D02*
X170838094Y-118878628D01*
X169933332Y-118354819D02*
X169314285Y-118354819D01*
X169314285Y-118354819D02*
X169647618Y-118735771D01*
X169647618Y-118735771D02*
X169504761Y-118735771D01*
X169504761Y-118735771D02*
X169409523Y-118783390D01*
X169409523Y-118783390D02*
X169361904Y-118831009D01*
X169361904Y-118831009D02*
X169314285Y-118926247D01*
X169314285Y-118926247D02*
X169314285Y-119164342D01*
X169314285Y-119164342D02*
X169361904Y-119259580D01*
X169361904Y-119259580D02*
X169409523Y-119307200D01*
X169409523Y-119307200D02*
X169504761Y-119354819D01*
X169504761Y-119354819D02*
X169790475Y-119354819D01*
X169790475Y-119354819D02*
X169885713Y-119307200D01*
X169885713Y-119307200D02*
X169933332Y-119259580D01*
X160704819Y-58915476D02*
X161419104Y-58915476D01*
X161419104Y-58915476D02*
X161561961Y-58867857D01*
X161561961Y-58867857D02*
X161657200Y-58772619D01*
X161657200Y-58772619D02*
X161704819Y-58629762D01*
X161704819Y-58629762D02*
X161704819Y-58534524D01*
X161704819Y-59915476D02*
X161704819Y-59344048D01*
X161704819Y-59629762D02*
X160704819Y-59629762D01*
X160704819Y-59629762D02*
X160847676Y-59534524D01*
X160847676Y-59534524D02*
X160942914Y-59439286D01*
X160942914Y-59439286D02*
X160990533Y-59344048D01*
X160704819Y-60248810D02*
X160704819Y-60867857D01*
X160704819Y-60867857D02*
X161085771Y-60534524D01*
X161085771Y-60534524D02*
X161085771Y-60677381D01*
X161085771Y-60677381D02*
X161133390Y-60772619D01*
X161133390Y-60772619D02*
X161181009Y-60820238D01*
X161181009Y-60820238D02*
X161276247Y-60867857D01*
X161276247Y-60867857D02*
X161514342Y-60867857D01*
X161514342Y-60867857D02*
X161609580Y-60820238D01*
X161609580Y-60820238D02*
X161657200Y-60772619D01*
X161657200Y-60772619D02*
X161704819Y-60677381D01*
X161704819Y-60677381D02*
X161704819Y-60391667D01*
X161704819Y-60391667D02*
X161657200Y-60296429D01*
X161657200Y-60296429D02*
X161609580Y-60248810D01*
X160241666Y-126459580D02*
X160289285Y-126507200D01*
X160289285Y-126507200D02*
X160432142Y-126554819D01*
X160432142Y-126554819D02*
X160527380Y-126554819D01*
X160527380Y-126554819D02*
X160670237Y-126507200D01*
X160670237Y-126507200D02*
X160765475Y-126411961D01*
X160765475Y-126411961D02*
X160813094Y-126316723D01*
X160813094Y-126316723D02*
X160860713Y-126126247D01*
X160860713Y-126126247D02*
X160860713Y-125983390D01*
X160860713Y-125983390D02*
X160813094Y-125792914D01*
X160813094Y-125792914D02*
X160765475Y-125697676D01*
X160765475Y-125697676D02*
X160670237Y-125602438D01*
X160670237Y-125602438D02*
X160527380Y-125554819D01*
X160527380Y-125554819D02*
X160432142Y-125554819D01*
X160432142Y-125554819D02*
X160289285Y-125602438D01*
X160289285Y-125602438D02*
X160241666Y-125650057D01*
X159289285Y-126554819D02*
X159860713Y-126554819D01*
X159574999Y-126554819D02*
X159574999Y-125554819D01*
X159574999Y-125554819D02*
X159670237Y-125697676D01*
X159670237Y-125697676D02*
X159765475Y-125792914D01*
X159765475Y-125792914D02*
X159860713Y-125840533D01*
X171191666Y-89709580D02*
X171239285Y-89757200D01*
X171239285Y-89757200D02*
X171382142Y-89804819D01*
X171382142Y-89804819D02*
X171477380Y-89804819D01*
X171477380Y-89804819D02*
X171620237Y-89757200D01*
X171620237Y-89757200D02*
X171715475Y-89661961D01*
X171715475Y-89661961D02*
X171763094Y-89566723D01*
X171763094Y-89566723D02*
X171810713Y-89376247D01*
X171810713Y-89376247D02*
X171810713Y-89233390D01*
X171810713Y-89233390D02*
X171763094Y-89042914D01*
X171763094Y-89042914D02*
X171715475Y-88947676D01*
X171715475Y-88947676D02*
X171620237Y-88852438D01*
X171620237Y-88852438D02*
X171477380Y-88804819D01*
X171477380Y-88804819D02*
X171382142Y-88804819D01*
X171382142Y-88804819D02*
X171239285Y-88852438D01*
X171239285Y-88852438D02*
X171191666Y-88900057D01*
X170810713Y-88900057D02*
X170763094Y-88852438D01*
X170763094Y-88852438D02*
X170667856Y-88804819D01*
X170667856Y-88804819D02*
X170429761Y-88804819D01*
X170429761Y-88804819D02*
X170334523Y-88852438D01*
X170334523Y-88852438D02*
X170286904Y-88900057D01*
X170286904Y-88900057D02*
X170239285Y-88995295D01*
X170239285Y-88995295D02*
X170239285Y-89090533D01*
X170239285Y-89090533D02*
X170286904Y-89233390D01*
X170286904Y-89233390D02*
X170858332Y-89804819D01*
X170858332Y-89804819D02*
X170239285Y-89804819D01*
X157399404Y-87854819D02*
X157399404Y-88664342D01*
X157399404Y-88664342D02*
X157351785Y-88759580D01*
X157351785Y-88759580D02*
X157304166Y-88807200D01*
X157304166Y-88807200D02*
X157208928Y-88854819D01*
X157208928Y-88854819D02*
X157018452Y-88854819D01*
X157018452Y-88854819D02*
X156923214Y-88807200D01*
X156923214Y-88807200D02*
X156875595Y-88759580D01*
X156875595Y-88759580D02*
X156827976Y-88664342D01*
X156827976Y-88664342D02*
X156827976Y-87854819D01*
X155875595Y-87854819D02*
X156351785Y-87854819D01*
X156351785Y-87854819D02*
X156399404Y-88331009D01*
X156399404Y-88331009D02*
X156351785Y-88283390D01*
X156351785Y-88283390D02*
X156256547Y-88235771D01*
X156256547Y-88235771D02*
X156018452Y-88235771D01*
X156018452Y-88235771D02*
X155923214Y-88283390D01*
X155923214Y-88283390D02*
X155875595Y-88331009D01*
X155875595Y-88331009D02*
X155827976Y-88426247D01*
X155827976Y-88426247D02*
X155827976Y-88664342D01*
X155827976Y-88664342D02*
X155875595Y-88759580D01*
X155875595Y-88759580D02*
X155923214Y-88807200D01*
X155923214Y-88807200D02*
X156018452Y-88854819D01*
X156018452Y-88854819D02*
X156256547Y-88854819D01*
X156256547Y-88854819D02*
X156351785Y-88807200D01*
X156351785Y-88807200D02*
X156399404Y-88759580D01*
X130164285Y-185154819D02*
X130164285Y-184154819D01*
X130164285Y-184154819D02*
X129926190Y-184154819D01*
X129926190Y-184154819D02*
X129783333Y-184202438D01*
X129783333Y-184202438D02*
X129688095Y-184297676D01*
X129688095Y-184297676D02*
X129640476Y-184392914D01*
X129640476Y-184392914D02*
X129592857Y-184583390D01*
X129592857Y-184583390D02*
X129592857Y-184726247D01*
X129592857Y-184726247D02*
X129640476Y-184916723D01*
X129640476Y-184916723D02*
X129688095Y-185011961D01*
X129688095Y-185011961D02*
X129783333Y-185107200D01*
X129783333Y-185107200D02*
X129926190Y-185154819D01*
X129926190Y-185154819D02*
X130164285Y-185154819D01*
X128640476Y-185154819D02*
X129211904Y-185154819D01*
X128926190Y-185154819D02*
X128926190Y-184154819D01*
X128926190Y-184154819D02*
X129021428Y-184297676D01*
X129021428Y-184297676D02*
X129116666Y-184392914D01*
X129116666Y-184392914D02*
X129211904Y-184440533D01*
X127735714Y-184154819D02*
X128211904Y-184154819D01*
X128211904Y-184154819D02*
X128259523Y-184631009D01*
X128259523Y-184631009D02*
X128211904Y-184583390D01*
X128211904Y-184583390D02*
X128116666Y-184535771D01*
X128116666Y-184535771D02*
X127878571Y-184535771D01*
X127878571Y-184535771D02*
X127783333Y-184583390D01*
X127783333Y-184583390D02*
X127735714Y-184631009D01*
X127735714Y-184631009D02*
X127688095Y-184726247D01*
X127688095Y-184726247D02*
X127688095Y-184964342D01*
X127688095Y-184964342D02*
X127735714Y-185059580D01*
X127735714Y-185059580D02*
X127783333Y-185107200D01*
X127783333Y-185107200D02*
X127878571Y-185154819D01*
X127878571Y-185154819D02*
X128116666Y-185154819D01*
X128116666Y-185154819D02*
X128211904Y-185107200D01*
X128211904Y-185107200D02*
X128259523Y-185059580D01*
X129638094Y-149354819D02*
X129638094Y-148354819D01*
X129638094Y-148354819D02*
X129399999Y-148354819D01*
X129399999Y-148354819D02*
X129257142Y-148402438D01*
X129257142Y-148402438D02*
X129161904Y-148497676D01*
X129161904Y-148497676D02*
X129114285Y-148592914D01*
X129114285Y-148592914D02*
X129066666Y-148783390D01*
X129066666Y-148783390D02*
X129066666Y-148926247D01*
X129066666Y-148926247D02*
X129114285Y-149116723D01*
X129114285Y-149116723D02*
X129161904Y-149211961D01*
X129161904Y-149211961D02*
X129257142Y-149307200D01*
X129257142Y-149307200D02*
X129399999Y-149354819D01*
X129399999Y-149354819D02*
X129638094Y-149354819D01*
X128733332Y-148354819D02*
X128114285Y-148354819D01*
X128114285Y-148354819D02*
X128447618Y-148735771D01*
X128447618Y-148735771D02*
X128304761Y-148735771D01*
X128304761Y-148735771D02*
X128209523Y-148783390D01*
X128209523Y-148783390D02*
X128161904Y-148831009D01*
X128161904Y-148831009D02*
X128114285Y-148926247D01*
X128114285Y-148926247D02*
X128114285Y-149164342D01*
X128114285Y-149164342D02*
X128161904Y-149259580D01*
X128161904Y-149259580D02*
X128209523Y-149307200D01*
X128209523Y-149307200D02*
X128304761Y-149354819D01*
X128304761Y-149354819D02*
X128590475Y-149354819D01*
X128590475Y-149354819D02*
X128685713Y-149307200D01*
X128685713Y-149307200D02*
X128733332Y-149259580D01*
X157688094Y-161154819D02*
X157688094Y-160154819D01*
X157688094Y-160154819D02*
X157449999Y-160154819D01*
X157449999Y-160154819D02*
X157307142Y-160202438D01*
X157307142Y-160202438D02*
X157211904Y-160297676D01*
X157211904Y-160297676D02*
X157164285Y-160392914D01*
X157164285Y-160392914D02*
X157116666Y-160583390D01*
X157116666Y-160583390D02*
X157116666Y-160726247D01*
X157116666Y-160726247D02*
X157164285Y-160916723D01*
X157164285Y-160916723D02*
X157211904Y-161011961D01*
X157211904Y-161011961D02*
X157307142Y-161107200D01*
X157307142Y-161107200D02*
X157449999Y-161154819D01*
X157449999Y-161154819D02*
X157688094Y-161154819D01*
X156640475Y-161154819D02*
X156449999Y-161154819D01*
X156449999Y-161154819D02*
X156354761Y-161107200D01*
X156354761Y-161107200D02*
X156307142Y-161059580D01*
X156307142Y-161059580D02*
X156211904Y-160916723D01*
X156211904Y-160916723D02*
X156164285Y-160726247D01*
X156164285Y-160726247D02*
X156164285Y-160345295D01*
X156164285Y-160345295D02*
X156211904Y-160250057D01*
X156211904Y-160250057D02*
X156259523Y-160202438D01*
X156259523Y-160202438D02*
X156354761Y-160154819D01*
X156354761Y-160154819D02*
X156545237Y-160154819D01*
X156545237Y-160154819D02*
X156640475Y-160202438D01*
X156640475Y-160202438D02*
X156688094Y-160250057D01*
X156688094Y-160250057D02*
X156735713Y-160345295D01*
X156735713Y-160345295D02*
X156735713Y-160583390D01*
X156735713Y-160583390D02*
X156688094Y-160678628D01*
X156688094Y-160678628D02*
X156640475Y-160726247D01*
X156640475Y-160726247D02*
X156545237Y-160773866D01*
X156545237Y-160773866D02*
X156354761Y-160773866D01*
X156354761Y-160773866D02*
X156259523Y-160726247D01*
X156259523Y-160726247D02*
X156211904Y-160678628D01*
X156211904Y-160678628D02*
X156164285Y-160583390D01*
X160266666Y-119354819D02*
X160599999Y-118878628D01*
X160838094Y-119354819D02*
X160838094Y-118354819D01*
X160838094Y-118354819D02*
X160457142Y-118354819D01*
X160457142Y-118354819D02*
X160361904Y-118402438D01*
X160361904Y-118402438D02*
X160314285Y-118450057D01*
X160314285Y-118450057D02*
X160266666Y-118545295D01*
X160266666Y-118545295D02*
X160266666Y-118688152D01*
X160266666Y-118688152D02*
X160314285Y-118783390D01*
X160314285Y-118783390D02*
X160361904Y-118831009D01*
X160361904Y-118831009D02*
X160457142Y-118878628D01*
X160457142Y-118878628D02*
X160838094Y-118878628D01*
X159885713Y-118450057D02*
X159838094Y-118402438D01*
X159838094Y-118402438D02*
X159742856Y-118354819D01*
X159742856Y-118354819D02*
X159504761Y-118354819D01*
X159504761Y-118354819D02*
X159409523Y-118402438D01*
X159409523Y-118402438D02*
X159361904Y-118450057D01*
X159361904Y-118450057D02*
X159314285Y-118545295D01*
X159314285Y-118545295D02*
X159314285Y-118640533D01*
X159314285Y-118640533D02*
X159361904Y-118783390D01*
X159361904Y-118783390D02*
X159933332Y-119354819D01*
X159933332Y-119354819D02*
X159314285Y-119354819D01*
X130164285Y-173154819D02*
X130164285Y-172154819D01*
X130164285Y-172154819D02*
X129926190Y-172154819D01*
X129926190Y-172154819D02*
X129783333Y-172202438D01*
X129783333Y-172202438D02*
X129688095Y-172297676D01*
X129688095Y-172297676D02*
X129640476Y-172392914D01*
X129640476Y-172392914D02*
X129592857Y-172583390D01*
X129592857Y-172583390D02*
X129592857Y-172726247D01*
X129592857Y-172726247D02*
X129640476Y-172916723D01*
X129640476Y-172916723D02*
X129688095Y-173011961D01*
X129688095Y-173011961D02*
X129783333Y-173107200D01*
X129783333Y-173107200D02*
X129926190Y-173154819D01*
X129926190Y-173154819D02*
X130164285Y-173154819D01*
X128640476Y-173154819D02*
X129211904Y-173154819D01*
X128926190Y-173154819D02*
X128926190Y-172154819D01*
X128926190Y-172154819D02*
X129021428Y-172297676D01*
X129021428Y-172297676D02*
X129116666Y-172392914D01*
X129116666Y-172392914D02*
X129211904Y-172440533D01*
X127688095Y-173154819D02*
X128259523Y-173154819D01*
X127973809Y-173154819D02*
X127973809Y-172154819D01*
X127973809Y-172154819D02*
X128069047Y-172297676D01*
X128069047Y-172297676D02*
X128164285Y-172392914D01*
X128164285Y-172392914D02*
X128259523Y-172440533D01*
X143399404Y-74804819D02*
X143399404Y-75614342D01*
X143399404Y-75614342D02*
X143351785Y-75709580D01*
X143351785Y-75709580D02*
X143304166Y-75757200D01*
X143304166Y-75757200D02*
X143208928Y-75804819D01*
X143208928Y-75804819D02*
X143018452Y-75804819D01*
X143018452Y-75804819D02*
X142923214Y-75757200D01*
X142923214Y-75757200D02*
X142875595Y-75709580D01*
X142875595Y-75709580D02*
X142827976Y-75614342D01*
X142827976Y-75614342D02*
X142827976Y-74804819D01*
X141923214Y-75138152D02*
X141923214Y-75804819D01*
X142161309Y-74757200D02*
X142399404Y-75471485D01*
X142399404Y-75471485D02*
X141780357Y-75471485D01*
X115688094Y-149154819D02*
X115688094Y-148154819D01*
X115688094Y-148154819D02*
X115449999Y-148154819D01*
X115449999Y-148154819D02*
X115307142Y-148202438D01*
X115307142Y-148202438D02*
X115211904Y-148297676D01*
X115211904Y-148297676D02*
X115164285Y-148392914D01*
X115164285Y-148392914D02*
X115116666Y-148583390D01*
X115116666Y-148583390D02*
X115116666Y-148726247D01*
X115116666Y-148726247D02*
X115164285Y-148916723D01*
X115164285Y-148916723D02*
X115211904Y-149011961D01*
X115211904Y-149011961D02*
X115307142Y-149107200D01*
X115307142Y-149107200D02*
X115449999Y-149154819D01*
X115449999Y-149154819D02*
X115688094Y-149154819D01*
X114735713Y-148250057D02*
X114688094Y-148202438D01*
X114688094Y-148202438D02*
X114592856Y-148154819D01*
X114592856Y-148154819D02*
X114354761Y-148154819D01*
X114354761Y-148154819D02*
X114259523Y-148202438D01*
X114259523Y-148202438D02*
X114211904Y-148250057D01*
X114211904Y-148250057D02*
X114164285Y-148345295D01*
X114164285Y-148345295D02*
X114164285Y-148440533D01*
X114164285Y-148440533D02*
X114211904Y-148583390D01*
X114211904Y-148583390D02*
X114783332Y-149154819D01*
X114783332Y-149154819D02*
X114164285Y-149154819D01*
X129688094Y-161154819D02*
X129688094Y-160154819D01*
X129688094Y-160154819D02*
X129449999Y-160154819D01*
X129449999Y-160154819D02*
X129307142Y-160202438D01*
X129307142Y-160202438D02*
X129211904Y-160297676D01*
X129211904Y-160297676D02*
X129164285Y-160392914D01*
X129164285Y-160392914D02*
X129116666Y-160583390D01*
X129116666Y-160583390D02*
X129116666Y-160726247D01*
X129116666Y-160726247D02*
X129164285Y-160916723D01*
X129164285Y-160916723D02*
X129211904Y-161011961D01*
X129211904Y-161011961D02*
X129307142Y-161107200D01*
X129307142Y-161107200D02*
X129449999Y-161154819D01*
X129449999Y-161154819D02*
X129688094Y-161154819D01*
X128783332Y-160154819D02*
X128116666Y-160154819D01*
X128116666Y-160154819D02*
X128545237Y-161154819D01*
X170511904Y-164054819D02*
X170511904Y-164864342D01*
X170511904Y-164864342D02*
X170464285Y-164959580D01*
X170464285Y-164959580D02*
X170416666Y-165007200D01*
X170416666Y-165007200D02*
X170321428Y-165054819D01*
X170321428Y-165054819D02*
X170130952Y-165054819D01*
X170130952Y-165054819D02*
X170035714Y-165007200D01*
X170035714Y-165007200D02*
X169988095Y-164959580D01*
X169988095Y-164959580D02*
X169940476Y-164864342D01*
X169940476Y-164864342D02*
X169940476Y-164054819D01*
X169511904Y-164150057D02*
X169464285Y-164102438D01*
X169464285Y-164102438D02*
X169369047Y-164054819D01*
X169369047Y-164054819D02*
X169130952Y-164054819D01*
X169130952Y-164054819D02*
X169035714Y-164102438D01*
X169035714Y-164102438D02*
X168988095Y-164150057D01*
X168988095Y-164150057D02*
X168940476Y-164245295D01*
X168940476Y-164245295D02*
X168940476Y-164340533D01*
X168940476Y-164340533D02*
X168988095Y-164483390D01*
X168988095Y-164483390D02*
X169559523Y-165054819D01*
X169559523Y-165054819D02*
X168940476Y-165054819D01*
X116164285Y-185154819D02*
X116164285Y-184154819D01*
X116164285Y-184154819D02*
X115926190Y-184154819D01*
X115926190Y-184154819D02*
X115783333Y-184202438D01*
X115783333Y-184202438D02*
X115688095Y-184297676D01*
X115688095Y-184297676D02*
X115640476Y-184392914D01*
X115640476Y-184392914D02*
X115592857Y-184583390D01*
X115592857Y-184583390D02*
X115592857Y-184726247D01*
X115592857Y-184726247D02*
X115640476Y-184916723D01*
X115640476Y-184916723D02*
X115688095Y-185011961D01*
X115688095Y-185011961D02*
X115783333Y-185107200D01*
X115783333Y-185107200D02*
X115926190Y-185154819D01*
X115926190Y-185154819D02*
X116164285Y-185154819D01*
X114640476Y-185154819D02*
X115211904Y-185154819D01*
X114926190Y-185154819D02*
X114926190Y-184154819D01*
X114926190Y-184154819D02*
X115021428Y-184297676D01*
X115021428Y-184297676D02*
X115116666Y-184392914D01*
X115116666Y-184392914D02*
X115211904Y-184440533D01*
X113783333Y-184488152D02*
X113783333Y-185154819D01*
X114021428Y-184107200D02*
X114259523Y-184821485D01*
X114259523Y-184821485D02*
X113640476Y-184821485D01*
X157688094Y-149154819D02*
X157688094Y-148154819D01*
X157688094Y-148154819D02*
X157449999Y-148154819D01*
X157449999Y-148154819D02*
X157307142Y-148202438D01*
X157307142Y-148202438D02*
X157211904Y-148297676D01*
X157211904Y-148297676D02*
X157164285Y-148392914D01*
X157164285Y-148392914D02*
X157116666Y-148583390D01*
X157116666Y-148583390D02*
X157116666Y-148726247D01*
X157116666Y-148726247D02*
X157164285Y-148916723D01*
X157164285Y-148916723D02*
X157211904Y-149011961D01*
X157211904Y-149011961D02*
X157307142Y-149107200D01*
X157307142Y-149107200D02*
X157449999Y-149154819D01*
X157449999Y-149154819D02*
X157688094Y-149154819D01*
X156211904Y-148154819D02*
X156688094Y-148154819D01*
X156688094Y-148154819D02*
X156735713Y-148631009D01*
X156735713Y-148631009D02*
X156688094Y-148583390D01*
X156688094Y-148583390D02*
X156592856Y-148535771D01*
X156592856Y-148535771D02*
X156354761Y-148535771D01*
X156354761Y-148535771D02*
X156259523Y-148583390D01*
X156259523Y-148583390D02*
X156211904Y-148631009D01*
X156211904Y-148631009D02*
X156164285Y-148726247D01*
X156164285Y-148726247D02*
X156164285Y-148964342D01*
X156164285Y-148964342D02*
X156211904Y-149059580D01*
X156211904Y-149059580D02*
X156259523Y-149107200D01*
X156259523Y-149107200D02*
X156354761Y-149154819D01*
X156354761Y-149154819D02*
X156592856Y-149154819D01*
X156592856Y-149154819D02*
X156688094Y-149107200D01*
X156688094Y-149107200D02*
X156735713Y-149059580D01*
X144164285Y-173154819D02*
X144164285Y-172154819D01*
X144164285Y-172154819D02*
X143926190Y-172154819D01*
X143926190Y-172154819D02*
X143783333Y-172202438D01*
X143783333Y-172202438D02*
X143688095Y-172297676D01*
X143688095Y-172297676D02*
X143640476Y-172392914D01*
X143640476Y-172392914D02*
X143592857Y-172583390D01*
X143592857Y-172583390D02*
X143592857Y-172726247D01*
X143592857Y-172726247D02*
X143640476Y-172916723D01*
X143640476Y-172916723D02*
X143688095Y-173011961D01*
X143688095Y-173011961D02*
X143783333Y-173107200D01*
X143783333Y-173107200D02*
X143926190Y-173154819D01*
X143926190Y-173154819D02*
X144164285Y-173154819D01*
X142640476Y-173154819D02*
X143211904Y-173154819D01*
X142926190Y-173154819D02*
X142926190Y-172154819D01*
X142926190Y-172154819D02*
X143021428Y-172297676D01*
X143021428Y-172297676D02*
X143116666Y-172392914D01*
X143116666Y-172392914D02*
X143211904Y-172440533D01*
X142259523Y-172250057D02*
X142211904Y-172202438D01*
X142211904Y-172202438D02*
X142116666Y-172154819D01*
X142116666Y-172154819D02*
X141878571Y-172154819D01*
X141878571Y-172154819D02*
X141783333Y-172202438D01*
X141783333Y-172202438D02*
X141735714Y-172250057D01*
X141735714Y-172250057D02*
X141688095Y-172345295D01*
X141688095Y-172345295D02*
X141688095Y-172440533D01*
X141688095Y-172440533D02*
X141735714Y-172583390D01*
X141735714Y-172583390D02*
X142307142Y-173154819D01*
X142307142Y-173154819D02*
X141688095Y-173154819D01*
X115964285Y-173854819D02*
X115964285Y-172854819D01*
X115964285Y-172854819D02*
X115726190Y-172854819D01*
X115726190Y-172854819D02*
X115583333Y-172902438D01*
X115583333Y-172902438D02*
X115488095Y-172997676D01*
X115488095Y-172997676D02*
X115440476Y-173092914D01*
X115440476Y-173092914D02*
X115392857Y-173283390D01*
X115392857Y-173283390D02*
X115392857Y-173426247D01*
X115392857Y-173426247D02*
X115440476Y-173616723D01*
X115440476Y-173616723D02*
X115488095Y-173711961D01*
X115488095Y-173711961D02*
X115583333Y-173807200D01*
X115583333Y-173807200D02*
X115726190Y-173854819D01*
X115726190Y-173854819D02*
X115964285Y-173854819D01*
X114440476Y-173854819D02*
X115011904Y-173854819D01*
X114726190Y-173854819D02*
X114726190Y-172854819D01*
X114726190Y-172854819D02*
X114821428Y-172997676D01*
X114821428Y-172997676D02*
X114916666Y-173092914D01*
X114916666Y-173092914D02*
X115011904Y-173140533D01*
X113821428Y-172854819D02*
X113726190Y-172854819D01*
X113726190Y-172854819D02*
X113630952Y-172902438D01*
X113630952Y-172902438D02*
X113583333Y-172950057D01*
X113583333Y-172950057D02*
X113535714Y-173045295D01*
X113535714Y-173045295D02*
X113488095Y-173235771D01*
X113488095Y-173235771D02*
X113488095Y-173473866D01*
X113488095Y-173473866D02*
X113535714Y-173664342D01*
X113535714Y-173664342D02*
X113583333Y-173759580D01*
X113583333Y-173759580D02*
X113630952Y-173807200D01*
X113630952Y-173807200D02*
X113726190Y-173854819D01*
X113726190Y-173854819D02*
X113821428Y-173854819D01*
X113821428Y-173854819D02*
X113916666Y-173807200D01*
X113916666Y-173807200D02*
X113964285Y-173759580D01*
X113964285Y-173759580D02*
X114011904Y-173664342D01*
X114011904Y-173664342D02*
X114059523Y-173473866D01*
X114059523Y-173473866D02*
X114059523Y-173235771D01*
X114059523Y-173235771D02*
X114011904Y-173045295D01*
X114011904Y-173045295D02*
X113964285Y-172950057D01*
X113964285Y-172950057D02*
X113916666Y-172902438D01*
X113916666Y-172902438D02*
X113821428Y-172854819D01*
X156754166Y-107354819D02*
X157087499Y-106878628D01*
X157325594Y-107354819D02*
X157325594Y-106354819D01*
X157325594Y-106354819D02*
X156944642Y-106354819D01*
X156944642Y-106354819D02*
X156849404Y-106402438D01*
X156849404Y-106402438D02*
X156801785Y-106450057D01*
X156801785Y-106450057D02*
X156754166Y-106545295D01*
X156754166Y-106545295D02*
X156754166Y-106688152D01*
X156754166Y-106688152D02*
X156801785Y-106783390D01*
X156801785Y-106783390D02*
X156849404Y-106831009D01*
X156849404Y-106831009D02*
X156944642Y-106878628D01*
X156944642Y-106878628D02*
X157325594Y-106878628D01*
X155801785Y-107354819D02*
X156373213Y-107354819D01*
X156087499Y-107354819D02*
X156087499Y-106354819D01*
X156087499Y-106354819D02*
X156182737Y-106497676D01*
X156182737Y-106497676D02*
X156277975Y-106592914D01*
X156277975Y-106592914D02*
X156373213Y-106640533D01*
X115688094Y-161154819D02*
X115688094Y-160154819D01*
X115688094Y-160154819D02*
X115449999Y-160154819D01*
X115449999Y-160154819D02*
X115307142Y-160202438D01*
X115307142Y-160202438D02*
X115211904Y-160297676D01*
X115211904Y-160297676D02*
X115164285Y-160392914D01*
X115164285Y-160392914D02*
X115116666Y-160583390D01*
X115116666Y-160583390D02*
X115116666Y-160726247D01*
X115116666Y-160726247D02*
X115164285Y-160916723D01*
X115164285Y-160916723D02*
X115211904Y-161011961D01*
X115211904Y-161011961D02*
X115307142Y-161107200D01*
X115307142Y-161107200D02*
X115449999Y-161154819D01*
X115449999Y-161154819D02*
X115688094Y-161154819D01*
X114259523Y-160154819D02*
X114449999Y-160154819D01*
X114449999Y-160154819D02*
X114545237Y-160202438D01*
X114545237Y-160202438D02*
X114592856Y-160250057D01*
X114592856Y-160250057D02*
X114688094Y-160392914D01*
X114688094Y-160392914D02*
X114735713Y-160583390D01*
X114735713Y-160583390D02*
X114735713Y-160964342D01*
X114735713Y-160964342D02*
X114688094Y-161059580D01*
X114688094Y-161059580D02*
X114640475Y-161107200D01*
X114640475Y-161107200D02*
X114545237Y-161154819D01*
X114545237Y-161154819D02*
X114354761Y-161154819D01*
X114354761Y-161154819D02*
X114259523Y-161107200D01*
X114259523Y-161107200D02*
X114211904Y-161059580D01*
X114211904Y-161059580D02*
X114164285Y-160964342D01*
X114164285Y-160964342D02*
X114164285Y-160726247D01*
X114164285Y-160726247D02*
X114211904Y-160631009D01*
X114211904Y-160631009D02*
X114259523Y-160583390D01*
X114259523Y-160583390D02*
X114354761Y-160535771D01*
X114354761Y-160535771D02*
X114545237Y-160535771D01*
X114545237Y-160535771D02*
X114640475Y-160583390D01*
X114640475Y-160583390D02*
X114688094Y-160631009D01*
X114688094Y-160631009D02*
X114735713Y-160726247D01*
X158164285Y-173154819D02*
X158164285Y-172154819D01*
X158164285Y-172154819D02*
X157926190Y-172154819D01*
X157926190Y-172154819D02*
X157783333Y-172202438D01*
X157783333Y-172202438D02*
X157688095Y-172297676D01*
X157688095Y-172297676D02*
X157640476Y-172392914D01*
X157640476Y-172392914D02*
X157592857Y-172583390D01*
X157592857Y-172583390D02*
X157592857Y-172726247D01*
X157592857Y-172726247D02*
X157640476Y-172916723D01*
X157640476Y-172916723D02*
X157688095Y-173011961D01*
X157688095Y-173011961D02*
X157783333Y-173107200D01*
X157783333Y-173107200D02*
X157926190Y-173154819D01*
X157926190Y-173154819D02*
X158164285Y-173154819D01*
X156640476Y-173154819D02*
X157211904Y-173154819D01*
X156926190Y-173154819D02*
X156926190Y-172154819D01*
X156926190Y-172154819D02*
X157021428Y-172297676D01*
X157021428Y-172297676D02*
X157116666Y-172392914D01*
X157116666Y-172392914D02*
X157211904Y-172440533D01*
X156307142Y-172154819D02*
X155688095Y-172154819D01*
X155688095Y-172154819D02*
X156021428Y-172535771D01*
X156021428Y-172535771D02*
X155878571Y-172535771D01*
X155878571Y-172535771D02*
X155783333Y-172583390D01*
X155783333Y-172583390D02*
X155735714Y-172631009D01*
X155735714Y-172631009D02*
X155688095Y-172726247D01*
X155688095Y-172726247D02*
X155688095Y-172964342D01*
X155688095Y-172964342D02*
X155735714Y-173059580D01*
X155735714Y-173059580D02*
X155783333Y-173107200D01*
X155783333Y-173107200D02*
X155878571Y-173154819D01*
X155878571Y-173154819D02*
X156164285Y-173154819D01*
X156164285Y-173154819D02*
X156259523Y-173107200D01*
X156259523Y-173107200D02*
X156307142Y-173059580D01*
X150957738Y-79700057D02*
X151052976Y-79652438D01*
X151052976Y-79652438D02*
X151148214Y-79557200D01*
X151148214Y-79557200D02*
X151291071Y-79414342D01*
X151291071Y-79414342D02*
X151386309Y-79366723D01*
X151386309Y-79366723D02*
X151481547Y-79366723D01*
X151433928Y-79604819D02*
X151529166Y-79557200D01*
X151529166Y-79557200D02*
X151624404Y-79461961D01*
X151624404Y-79461961D02*
X151672023Y-79271485D01*
X151672023Y-79271485D02*
X151672023Y-78938152D01*
X151672023Y-78938152D02*
X151624404Y-78747676D01*
X151624404Y-78747676D02*
X151529166Y-78652438D01*
X151529166Y-78652438D02*
X151433928Y-78604819D01*
X151433928Y-78604819D02*
X151243452Y-78604819D01*
X151243452Y-78604819D02*
X151148214Y-78652438D01*
X151148214Y-78652438D02*
X151052976Y-78747676D01*
X151052976Y-78747676D02*
X151005357Y-78938152D01*
X151005357Y-78938152D02*
X151005357Y-79271485D01*
X151005357Y-79271485D02*
X151052976Y-79461961D01*
X151052976Y-79461961D02*
X151148214Y-79557200D01*
X151148214Y-79557200D02*
X151243452Y-79604819D01*
X151243452Y-79604819D02*
X151433928Y-79604819D01*
X150052976Y-79604819D02*
X150624404Y-79604819D01*
X150338690Y-79604819D02*
X150338690Y-78604819D01*
X150338690Y-78604819D02*
X150433928Y-78747676D01*
X150433928Y-78747676D02*
X150529166Y-78842914D01*
X150529166Y-78842914D02*
X150624404Y-78890533D01*
X163686904Y-71429819D02*
X163686904Y-72239342D01*
X163686904Y-72239342D02*
X163639285Y-72334580D01*
X163639285Y-72334580D02*
X163591666Y-72382200D01*
X163591666Y-72382200D02*
X163496428Y-72429819D01*
X163496428Y-72429819D02*
X163305952Y-72429819D01*
X163305952Y-72429819D02*
X163210714Y-72382200D01*
X163210714Y-72382200D02*
X163163095Y-72334580D01*
X163163095Y-72334580D02*
X163115476Y-72239342D01*
X163115476Y-72239342D02*
X163115476Y-71429819D01*
X162734523Y-71429819D02*
X162115476Y-71429819D01*
X162115476Y-71429819D02*
X162448809Y-71810771D01*
X162448809Y-71810771D02*
X162305952Y-71810771D01*
X162305952Y-71810771D02*
X162210714Y-71858390D01*
X162210714Y-71858390D02*
X162163095Y-71906009D01*
X162163095Y-71906009D02*
X162115476Y-72001247D01*
X162115476Y-72001247D02*
X162115476Y-72239342D01*
X162115476Y-72239342D02*
X162163095Y-72334580D01*
X162163095Y-72334580D02*
X162210714Y-72382200D01*
X162210714Y-72382200D02*
X162305952Y-72429819D01*
X162305952Y-72429819D02*
X162591666Y-72429819D01*
X162591666Y-72429819D02*
X162686904Y-72382200D01*
X162686904Y-72382200D02*
X162734523Y-72334580D01*
X144164285Y-185154819D02*
X144164285Y-184154819D01*
X144164285Y-184154819D02*
X143926190Y-184154819D01*
X143926190Y-184154819D02*
X143783333Y-184202438D01*
X143783333Y-184202438D02*
X143688095Y-184297676D01*
X143688095Y-184297676D02*
X143640476Y-184392914D01*
X143640476Y-184392914D02*
X143592857Y-184583390D01*
X143592857Y-184583390D02*
X143592857Y-184726247D01*
X143592857Y-184726247D02*
X143640476Y-184916723D01*
X143640476Y-184916723D02*
X143688095Y-185011961D01*
X143688095Y-185011961D02*
X143783333Y-185107200D01*
X143783333Y-185107200D02*
X143926190Y-185154819D01*
X143926190Y-185154819D02*
X144164285Y-185154819D01*
X142640476Y-185154819D02*
X143211904Y-185154819D01*
X142926190Y-185154819D02*
X142926190Y-184154819D01*
X142926190Y-184154819D02*
X143021428Y-184297676D01*
X143021428Y-184297676D02*
X143116666Y-184392914D01*
X143116666Y-184392914D02*
X143211904Y-184440533D01*
X141783333Y-184154819D02*
X141973809Y-184154819D01*
X141973809Y-184154819D02*
X142069047Y-184202438D01*
X142069047Y-184202438D02*
X142116666Y-184250057D01*
X142116666Y-184250057D02*
X142211904Y-184392914D01*
X142211904Y-184392914D02*
X142259523Y-184583390D01*
X142259523Y-184583390D02*
X142259523Y-184964342D01*
X142259523Y-184964342D02*
X142211904Y-185059580D01*
X142211904Y-185059580D02*
X142164285Y-185107200D01*
X142164285Y-185107200D02*
X142069047Y-185154819D01*
X142069047Y-185154819D02*
X141878571Y-185154819D01*
X141878571Y-185154819D02*
X141783333Y-185107200D01*
X141783333Y-185107200D02*
X141735714Y-185059580D01*
X141735714Y-185059580D02*
X141688095Y-184964342D01*
X141688095Y-184964342D02*
X141688095Y-184726247D01*
X141688095Y-184726247D02*
X141735714Y-184631009D01*
X141735714Y-184631009D02*
X141783333Y-184583390D01*
X141783333Y-184583390D02*
X141878571Y-184535771D01*
X141878571Y-184535771D02*
X142069047Y-184535771D01*
X142069047Y-184535771D02*
X142164285Y-184583390D01*
X142164285Y-184583390D02*
X142211904Y-184631009D01*
X142211904Y-184631009D02*
X142259523Y-184726247D01*
X143688094Y-161154819D02*
X143688094Y-160154819D01*
X143688094Y-160154819D02*
X143449999Y-160154819D01*
X143449999Y-160154819D02*
X143307142Y-160202438D01*
X143307142Y-160202438D02*
X143211904Y-160297676D01*
X143211904Y-160297676D02*
X143164285Y-160392914D01*
X143164285Y-160392914D02*
X143116666Y-160583390D01*
X143116666Y-160583390D02*
X143116666Y-160726247D01*
X143116666Y-160726247D02*
X143164285Y-160916723D01*
X143164285Y-160916723D02*
X143211904Y-161011961D01*
X143211904Y-161011961D02*
X143307142Y-161107200D01*
X143307142Y-161107200D02*
X143449999Y-161154819D01*
X143449999Y-161154819D02*
X143688094Y-161154819D01*
X142545237Y-160583390D02*
X142640475Y-160535771D01*
X142640475Y-160535771D02*
X142688094Y-160488152D01*
X142688094Y-160488152D02*
X142735713Y-160392914D01*
X142735713Y-160392914D02*
X142735713Y-160345295D01*
X142735713Y-160345295D02*
X142688094Y-160250057D01*
X142688094Y-160250057D02*
X142640475Y-160202438D01*
X142640475Y-160202438D02*
X142545237Y-160154819D01*
X142545237Y-160154819D02*
X142354761Y-160154819D01*
X142354761Y-160154819D02*
X142259523Y-160202438D01*
X142259523Y-160202438D02*
X142211904Y-160250057D01*
X142211904Y-160250057D02*
X142164285Y-160345295D01*
X142164285Y-160345295D02*
X142164285Y-160392914D01*
X142164285Y-160392914D02*
X142211904Y-160488152D01*
X142211904Y-160488152D02*
X142259523Y-160535771D01*
X142259523Y-160535771D02*
X142354761Y-160583390D01*
X142354761Y-160583390D02*
X142545237Y-160583390D01*
X142545237Y-160583390D02*
X142640475Y-160631009D01*
X142640475Y-160631009D02*
X142688094Y-160678628D01*
X142688094Y-160678628D02*
X142735713Y-160773866D01*
X142735713Y-160773866D02*
X142735713Y-160964342D01*
X142735713Y-160964342D02*
X142688094Y-161059580D01*
X142688094Y-161059580D02*
X142640475Y-161107200D01*
X142640475Y-161107200D02*
X142545237Y-161154819D01*
X142545237Y-161154819D02*
X142354761Y-161154819D01*
X142354761Y-161154819D02*
X142259523Y-161107200D01*
X142259523Y-161107200D02*
X142211904Y-161059580D01*
X142211904Y-161059580D02*
X142164285Y-160964342D01*
X142164285Y-160964342D02*
X142164285Y-160773866D01*
X142164285Y-160773866D02*
X142211904Y-160678628D01*
X142211904Y-160678628D02*
X142259523Y-160631009D01*
X142259523Y-160631009D02*
X142354761Y-160583390D01*
X170266666Y-111984819D02*
X170742856Y-111984819D01*
X170742856Y-111984819D02*
X170742856Y-110984819D01*
X169409523Y-111984819D02*
X169980951Y-111984819D01*
X169695237Y-111984819D02*
X169695237Y-110984819D01*
X169695237Y-110984819D02*
X169790475Y-111127676D01*
X169790475Y-111127676D02*
X169885713Y-111222914D01*
X169885713Y-111222914D02*
X169980951Y-111270533D01*
X158164285Y-185154819D02*
X158164285Y-184154819D01*
X158164285Y-184154819D02*
X157926190Y-184154819D01*
X157926190Y-184154819D02*
X157783333Y-184202438D01*
X157783333Y-184202438D02*
X157688095Y-184297676D01*
X157688095Y-184297676D02*
X157640476Y-184392914D01*
X157640476Y-184392914D02*
X157592857Y-184583390D01*
X157592857Y-184583390D02*
X157592857Y-184726247D01*
X157592857Y-184726247D02*
X157640476Y-184916723D01*
X157640476Y-184916723D02*
X157688095Y-185011961D01*
X157688095Y-185011961D02*
X157783333Y-185107200D01*
X157783333Y-185107200D02*
X157926190Y-185154819D01*
X157926190Y-185154819D02*
X158164285Y-185154819D01*
X156640476Y-185154819D02*
X157211904Y-185154819D01*
X156926190Y-185154819D02*
X156926190Y-184154819D01*
X156926190Y-184154819D02*
X157021428Y-184297676D01*
X157021428Y-184297676D02*
X157116666Y-184392914D01*
X157116666Y-184392914D02*
X157211904Y-184440533D01*
X156307142Y-184154819D02*
X155640476Y-184154819D01*
X155640476Y-184154819D02*
X156069047Y-185154819D01*
X143688094Y-149154819D02*
X143688094Y-148154819D01*
X143688094Y-148154819D02*
X143449999Y-148154819D01*
X143449999Y-148154819D02*
X143307142Y-148202438D01*
X143307142Y-148202438D02*
X143211904Y-148297676D01*
X143211904Y-148297676D02*
X143164285Y-148392914D01*
X143164285Y-148392914D02*
X143116666Y-148583390D01*
X143116666Y-148583390D02*
X143116666Y-148726247D01*
X143116666Y-148726247D02*
X143164285Y-148916723D01*
X143164285Y-148916723D02*
X143211904Y-149011961D01*
X143211904Y-149011961D02*
X143307142Y-149107200D01*
X143307142Y-149107200D02*
X143449999Y-149154819D01*
X143449999Y-149154819D02*
X143688094Y-149154819D01*
X142259523Y-148488152D02*
X142259523Y-149154819D01*
X142497618Y-148107200D02*
X142735713Y-148821485D01*
X142735713Y-148821485D02*
X142116666Y-148821485D01*
X170266666Y-127459580D02*
X170314285Y-127507200D01*
X170314285Y-127507200D02*
X170457142Y-127554819D01*
X170457142Y-127554819D02*
X170552380Y-127554819D01*
X170552380Y-127554819D02*
X170695237Y-127507200D01*
X170695237Y-127507200D02*
X170790475Y-127411961D01*
X170790475Y-127411961D02*
X170838094Y-127316723D01*
X170838094Y-127316723D02*
X170885713Y-127126247D01*
X170885713Y-127126247D02*
X170885713Y-126983390D01*
X170885713Y-126983390D02*
X170838094Y-126792914D01*
X170838094Y-126792914D02*
X170790475Y-126697676D01*
X170790475Y-126697676D02*
X170695237Y-126602438D01*
X170695237Y-126602438D02*
X170552380Y-126554819D01*
X170552380Y-126554819D02*
X170457142Y-126554819D01*
X170457142Y-126554819D02*
X170314285Y-126602438D01*
X170314285Y-126602438D02*
X170266666Y-126650057D01*
X169933332Y-126554819D02*
X169314285Y-126554819D01*
X169314285Y-126554819D02*
X169647618Y-126935771D01*
X169647618Y-126935771D02*
X169504761Y-126935771D01*
X169504761Y-126935771D02*
X169409523Y-126983390D01*
X169409523Y-126983390D02*
X169361904Y-127031009D01*
X169361904Y-127031009D02*
X169314285Y-127126247D01*
X169314285Y-127126247D02*
X169314285Y-127364342D01*
X169314285Y-127364342D02*
X169361904Y-127459580D01*
X169361904Y-127459580D02*
X169409523Y-127507200D01*
X169409523Y-127507200D02*
X169504761Y-127554819D01*
X169504761Y-127554819D02*
X169790475Y-127554819D01*
X169790475Y-127554819D02*
X169885713Y-127507200D01*
X169885713Y-127507200D02*
X169933332Y-127459580D01*
%TO.C,R3*%
D11*
X169872936Y-116515000D02*
X170327064Y-116515000D01*
X169872936Y-117985000D02*
X170327064Y-117985000D01*
%TO.C,J13*%
X154790000Y-61440000D02*
X154790000Y-58010000D01*
X157610000Y-56740000D02*
X159060000Y-56740000D01*
X157610000Y-62710000D02*
X159060000Y-62710000D01*
X159060000Y-56740000D02*
X159060000Y-58540000D01*
X159060000Y-60910000D02*
X160050000Y-60910000D01*
X159060000Y-62710000D02*
X159060000Y-60910000D01*
%TO.C,C1*%
X159363748Y-123340000D02*
X160786252Y-123340000D01*
X159363748Y-125160000D02*
X160786252Y-125160000D01*
%TO.C,C2*%
X170313748Y-86590000D02*
X171736252Y-86590000D01*
X170313748Y-88410000D02*
X171736252Y-88410000D01*
%TO.C,U5*%
X155727500Y-84440000D02*
X155727500Y-84490000D01*
X155727500Y-87510000D02*
X155727500Y-87560000D01*
X155727500Y-87560000D02*
X157547500Y-87560000D01*
X157547500Y-84440000D02*
X155727500Y-84440000D01*
X157547500Y-84490000D02*
X157547500Y-84440000D01*
X157547500Y-86390000D02*
X157547500Y-85610000D01*
X157547500Y-87560000D02*
X157547500Y-87510000D01*
X155187500Y-87510000D02*
X154947500Y-87840000D01*
X155427500Y-87840000D01*
X155187500Y-87510000D01*
G36*
X155427500Y-87840000D02*
G01*
X154947500Y-87840000D01*
X155187500Y-87510000D01*
X155427500Y-87840000D01*
G37*
%TO.C,D15*%
X126590000Y-181700000D02*
X130600000Y-181700000D01*
X126590000Y-183700000D02*
X126590000Y-181700000D01*
X126590000Y-183700000D02*
X130600000Y-183700000D01*
%TO.C,D3*%
X126540000Y-145900000D02*
X130550000Y-145900000D01*
X126540000Y-147900000D02*
X126540000Y-145900000D01*
X126540000Y-147900000D02*
X130550000Y-147900000D01*
%TO.C,D9*%
X154590000Y-157700000D02*
X158600000Y-157700000D01*
X154590000Y-159700000D02*
X154590000Y-157700000D01*
X154590000Y-159700000D02*
X158600000Y-159700000D01*
%TO.C,R2*%
X159872936Y-116515000D02*
X160327064Y-116515000D01*
X159872936Y-117985000D02*
X160327064Y-117985000D01*
%TO.C,D11*%
X126590000Y-169700000D02*
X130600000Y-169700000D01*
X126590000Y-171700000D02*
X126590000Y-169700000D01*
X126590000Y-171700000D02*
X130600000Y-171700000D01*
%TO.C,U8*%
X137111932Y-67685000D02*
X138247500Y-67685000D01*
X138247500Y-65815000D02*
X136827500Y-65815000D01*
X136817500Y-67690000D02*
X136677500Y-67880000D01*
X136957500Y-67880000D01*
X136817500Y-67690000D01*
G36*
X136957500Y-67880000D02*
G01*
X136677500Y-67880000D01*
X136817500Y-67690000D01*
X136957500Y-67880000D01*
G37*
%TO.C,U4*%
X141727500Y-71390000D02*
X141727500Y-71440000D01*
X141727500Y-74460000D02*
X141727500Y-74510000D01*
X141727500Y-74510000D02*
X143547500Y-74510000D01*
X143547500Y-71390000D02*
X141727500Y-71390000D01*
X143547500Y-71440000D02*
X143547500Y-71390000D01*
X143547500Y-74510000D02*
X143547500Y-74460000D01*
X141187500Y-74460000D02*
X140947500Y-74790000D01*
X141427500Y-74790000D01*
X141187500Y-74460000D01*
G36*
X141427500Y-74790000D02*
G01*
X140947500Y-74790000D01*
X141187500Y-74460000D01*
X141427500Y-74790000D01*
G37*
%TO.C,D2*%
X112590000Y-145700000D02*
X116600000Y-145700000D01*
X112590000Y-147700000D02*
X112590000Y-145700000D01*
X112590000Y-147700000D02*
X116600000Y-147700000D01*
%TO.C,D7*%
X126590000Y-157700000D02*
X130600000Y-157700000D01*
X126590000Y-159700000D02*
X126590000Y-157700000D01*
X126590000Y-159700000D02*
X130600000Y-159700000D01*
%TO.C,U2*%
X167365000Y-153240000D02*
X167365000Y-153520000D01*
X167365000Y-163480000D02*
X167365000Y-163760000D01*
X167365000Y-163760000D02*
X172135000Y-163760000D01*
X172135000Y-153240000D02*
X167365000Y-153240000D01*
X172135000Y-153520000D02*
X172135000Y-153240000D01*
X172135000Y-163760000D02*
X172135000Y-163480000D01*
X166500000Y-163490000D02*
X166160000Y-163960000D01*
X166840000Y-163960000D01*
X166500000Y-163490000D01*
G36*
X166840000Y-163960000D02*
G01*
X166160000Y-163960000D01*
X166500000Y-163490000D01*
X166840000Y-163960000D01*
G37*
%TO.C,D14*%
X112590000Y-181700000D02*
X116600000Y-181700000D01*
X112590000Y-183700000D02*
X112590000Y-181700000D01*
X112590000Y-183700000D02*
X116600000Y-183700000D01*
%TO.C,D5*%
X154590000Y-145700000D02*
X158600000Y-145700000D01*
X154590000Y-147700000D02*
X154590000Y-145700000D01*
X154590000Y-147700000D02*
X158600000Y-147700000D01*
%TO.C,D12*%
X140590000Y-169700000D02*
X144600000Y-169700000D01*
X140590000Y-171700000D02*
X140590000Y-169700000D01*
X140590000Y-171700000D02*
X144600000Y-171700000D01*
%TO.C,D10*%
X112390000Y-170400000D02*
X116400000Y-170400000D01*
X112390000Y-172400000D02*
X112390000Y-170400000D01*
X112390000Y-172400000D02*
X116400000Y-172400000D01*
%TO.C,R1*%
X156360436Y-104515000D02*
X156814564Y-104515000D01*
X156360436Y-105985000D02*
X156814564Y-105985000D01*
%TO.C,D6*%
X112590000Y-157700000D02*
X116600000Y-157700000D01*
X112590000Y-159700000D02*
X112590000Y-157700000D01*
X112590000Y-159700000D02*
X116600000Y-159700000D01*
%TO.C,D13*%
X154590000Y-169700000D02*
X158600000Y-169700000D01*
X154590000Y-171700000D02*
X154590000Y-169700000D01*
X154590000Y-171700000D02*
X158600000Y-171700000D01*
%TO.C,Q1*%
X149952500Y-75190000D02*
X149952500Y-75240000D01*
X149952500Y-78260000D02*
X149952500Y-78310000D01*
X149952500Y-78310000D02*
X151772500Y-78310000D01*
X151772500Y-75190000D02*
X149952500Y-75190000D01*
X151772500Y-75240000D02*
X151772500Y-75190000D01*
X151772500Y-78310000D02*
X151772500Y-78260000D01*
X149412500Y-78260000D02*
X149172500Y-78590000D01*
X149652500Y-78590000D01*
X149412500Y-78260000D01*
G36*
X149652500Y-78590000D02*
G01*
X149172500Y-78590000D01*
X149412500Y-78260000D01*
X149652500Y-78590000D01*
G37*
%TO.C,U3*%
X160865000Y-66015000D02*
X160865000Y-66110000D01*
X160865000Y-71040000D02*
X160865000Y-71135000D01*
X160865000Y-71135000D02*
X164985000Y-71135000D01*
X164985000Y-66015000D02*
X160865000Y-66015000D01*
X164985000Y-66110000D02*
X164985000Y-66015000D01*
X164985000Y-71135000D02*
X164985000Y-71040000D01*
X160325000Y-71045000D02*
X160085000Y-71375000D01*
X160565000Y-71375000D01*
X160325000Y-71045000D01*
G36*
X160565000Y-71375000D02*
G01*
X160085000Y-71375000D01*
X160325000Y-71045000D01*
X160565000Y-71375000D01*
G37*
%TO.C,D16*%
X140590000Y-181700000D02*
X144600000Y-181700000D01*
X140590000Y-183700000D02*
X140590000Y-181700000D01*
X140590000Y-183700000D02*
X144600000Y-183700000D01*
%TO.C,D8*%
X140590000Y-157700000D02*
X144600000Y-157700000D01*
X140590000Y-159700000D02*
X140590000Y-157700000D01*
X140590000Y-159700000D02*
X144600000Y-159700000D01*
%TO.C,L1*%
X169497936Y-107890000D02*
X170702064Y-107890000D01*
X169497936Y-110610000D02*
X170702064Y-110610000D01*
%TO.C,D17*%
X154590000Y-181700000D02*
X158600000Y-181700000D01*
X154590000Y-183700000D02*
X154590000Y-181700000D01*
X154590000Y-183700000D02*
X158600000Y-183700000D01*
%TO.C,D4*%
X140590000Y-145700000D02*
X144600000Y-145700000D01*
X140590000Y-147700000D02*
X140590000Y-145700000D01*
X140590000Y-147700000D02*
X144600000Y-147700000D01*
%TO.C,C3*%
X169388748Y-124340000D02*
X170811252Y-124340000D01*
X169388748Y-126160000D02*
X170811252Y-126160000D01*
%TD*%
M02*
