M48
; DRILL file KiCad 10.0.6 date 2026-09-14T19:57:31
; FORMAT={-:-/ absolute / metric / decimal}
; #@! TF.CreationDate,2026-09-14T19:57:31-05:00
; #@! TF.GenerationSoftware,Kicad,Pcbnew,10.0.6
; #@! TF.FileFunction,MixedPlating,1,2
FMAT,2
METRIC
; #@! TA.AperFunction,Plated,PTH,ViaDrill
T1C0.300
; #@! TA.AperFunction,Plated,PTH,ComponentDrill
T2C0.300
; #@! TA.AperFunction,Plated,PTH,ViaDrill
T3C0.400
; #@! TA.AperFunction,Plated,PTH,ComponentDrill
T4C0.600
; #@! TA.AperFunction,Plated,PTH,ComponentDrill
T5C0.650
; #@! TA.AperFunction,Plated,PTH,ComponentDrill
T6C0.900
; #@! TA.AperFunction,Plated,PTH,ComponentDrill
T7C1.000
; #@! TA.AperFunction,Plated,PTH,ComponentDrill
T8C1.500
; #@! TA.AperFunction,NonPlated,NPTH,ComponentDrill
T9C0.650
; #@! TA.AperFunction,NonPlated,NPTH,ComponentDrill
T10C2.200
%
G90
G05
T1
X94.958Y-41.486
X97.489Y-92.171
X97.539Y-71.55
X97.547Y-73.652
X97.76Y-63.036
X99.61Y-91.54
X99.611Y-87.771
X99.611Y-88.871
X99.652Y-78.16
X99.73Y-90.62
X99.858Y-73.15
X99.868Y-75.152
X99.876Y-71.15
X99.897Y-74.151
X99.9Y-76.255
X101.061Y-73.683
X108.4Y-98.342
X110.493Y-79.722
X110.504Y-81.482
X111.331Y-81.458
X112.9Y-155.033
X112.9Y-167.041
X113.025Y-64.521
X113.515Y-79.387
X113.855Y-178.0
X113.858Y-142.207
X114.956Y-79.37
X115.048Y-36.651
X116.182Y-81.9
X116.75Y-35.957
X118.595Y-79.388
X126.198Y-65.343
X126.437Y-73.506
X126.9Y-167.011
X126.9Y-179.035
X127.833Y-81.893
X127.864Y-154.0
X127.872Y-142.0
X127.983Y-73.397
X127.994Y-75.353
X127.996Y-64.396
X127.996Y-65.647
X127.996Y-70.727
X127.996Y-76.623
X127.997Y-74.31
X127.998Y-77.895
X130.527Y-63.037
X130.642Y-77.372
X131.553Y-77.737
X132.641Y-149.032
X135.547Y-157.929
X136.0Y-75.0
X138.0Y-70.0
X140.483Y-67.894
X140.9Y-143.017
X140.9Y-167.01
X140.9Y-179.025
X141.361Y-69.552
X141.849Y-68.318
X141.857Y-154.04
X142.778Y-104.551
X143.5Y-72.08
X145.366Y-88.596
X145.481Y-81.88
X147.174Y-42.278
X147.174Y-71.984
X152.987Y-125.309
X154.019Y-63.838
X154.9Y-143.031
X154.9Y-157.585
X154.9Y-167.012
X154.9Y-179.012
X155.766Y-66.129
X155.894Y-71.932
X155.894Y-101.586
X158.016Y-55.256
X158.802Y-89.724
X159.341Y-83.535
X159.54Y-57.009
X160.0Y-84.0
X160.001Y-78.111
X161.588Y-89.764
X161.707Y-146.069
X161.707Y-151.998
X161.707Y-154.963
X161.707Y-159.626
X161.918Y-63.068
X162.482Y-94.106
X162.535Y-81.304
X162.716Y-159.231
X163.144Y-79.576
X163.4Y-152.5
X163.412Y-89.779
X163.599Y-66.105
X163.868Y-163.926
X164.614Y-86.759
X164.775Y-159.135
X165.54Y-55.816
X167.54Y-55.805
X168.625Y-123.842
X168.877Y-55.748
X169.54Y-37.603
X169.862Y-74.749
X170.059Y-104.551
X170.428Y-154.963
X170.599Y-77.732
X171.21Y-102.514
X171.35Y-162.251
X171.54Y-37.607
X171.54Y-55.796
X171.566Y-81.954
X172.459Y-72.422
X173.54Y-51.97
X173.653Y-79.052
X173.814Y-77.35
X174.385Y-76.049
T2
X117.6Y-69.9
X117.6Y-71.3
X118.3Y-69.2
X118.3Y-70.6
X118.3Y-72.0
X119.0Y-69.9
X119.0Y-71.3
X119.7Y-69.2
X119.7Y-70.6
X119.7Y-72.0
X120.4Y-69.9
X120.4Y-71.3
T3
X100.0Y-180.0
X145.0Y-40.0
T5
X149.5Y-60.69
X149.5Y-61.96
X149.5Y-63.23
X149.5Y-64.5
T6
X105.46Y-36.425
X108.0Y-36.425
X110.54Y-36.425
X176.5Y-62.0
X176.5Y-64.0
X176.5Y-66.0
T7
X104.5Y-105.5
X104.5Y-108.04
X104.5Y-110.58
X104.5Y-113.12
X109.5Y-104.92
X109.5Y-107.46
X109.5Y-110.0
X109.5Y-112.54
X109.5Y-115.08
X117.03Y-125.55
X118.3Y-87.45
X119.57Y-125.55
X120.84Y-87.45
X122.11Y-125.55
X123.38Y-87.45
X124.65Y-125.55
X125.92Y-87.45
X127.19Y-125.55
X128.46Y-87.45
X129.73Y-125.55
X131.0Y-87.45
X132.27Y-125.55
X132.5Y-134.0
X133.54Y-87.45
X134.81Y-125.55
X135.04Y-134.0
X136.08Y-87.45
X137.35Y-125.55
X137.58Y-134.0
X138.62Y-87.45
X139.89Y-125.55
X140.12Y-134.0
X141.16Y-87.45
X142.43Y-125.55
X142.66Y-134.0
X143.7Y-87.45
X144.97Y-125.55
X150.0Y-35.46
X150.0Y-38.0
X150.0Y-40.54
X150.0Y-43.08
X150.0Y-45.62
X150.0Y-48.16
X150.0Y-50.7
X150.0Y-53.24
T8
X176.5Y-59.9
X176.5Y-68.1
T9
X173.645Y-74.86
X173.645Y-80.64
T10
X96.5Y-35.0
X96.5Y-183.0
X177.5Y-35.0
X177.5Y-183.0
T4
X172.595Y-73.43G85X173.695Y-73.43
G05
X172.595Y-82.07G85X173.695Y-82.07
G05
X176.925Y-73.43G85X177.725Y-73.43
G05
X176.925Y-82.07G85X177.725Y-82.07
G05
M30
