%TF.GenerationSoftware,KiCad,Pcbnew,10.0.6*%
%TF.CreationDate,2026-09-13T19:24:56-05:00*%
%TF.ProjectId,owasso1,6f776173-736f-4312-9e6b-696361645f70,rev?*%
%TF.SameCoordinates,Original*%
%TF.FileFunction,Other,Comment*%
%FSLAX46Y46*%
G04 Gerber Fmt 4.6, Leading zero omitted, Abs format (unit mm)*
G04 Created by KiCad (PCBNEW 10.0.6) date 2026-09-13 19:24:56*
%MOMM*%
%LPD*%
G01*
G04 APERTURE LIST*
%ADD10C,0.150000*%
G04 APERTURE END LIST*
D10*
X25188095Y-35729104D02*
X25664285Y-35729104D01*
X25092857Y-36014819D02*
X25426190Y-35014819D01*
X25426190Y-35014819D02*
X25759523Y-36014819D01*
X26092857Y-35348152D02*
X26092857Y-36014819D01*
X26092857Y-35443390D02*
X26140476Y-35395771D01*
X26140476Y-35395771D02*
X26235714Y-35348152D01*
X26235714Y-35348152D02*
X26378571Y-35348152D01*
X26378571Y-35348152D02*
X26473809Y-35395771D01*
X26473809Y-35395771D02*
X26521428Y-35491009D01*
X26521428Y-35491009D02*
X26521428Y-36014819D01*
X26854762Y-35348152D02*
X27235714Y-35348152D01*
X26997619Y-35014819D02*
X26997619Y-35871961D01*
X26997619Y-35871961D02*
X27045238Y-35967200D01*
X27045238Y-35967200D02*
X27140476Y-36014819D01*
X27140476Y-36014819D02*
X27235714Y-36014819D01*
X27950000Y-35967200D02*
X27854762Y-36014819D01*
X27854762Y-36014819D02*
X27664286Y-36014819D01*
X27664286Y-36014819D02*
X27569048Y-35967200D01*
X27569048Y-35967200D02*
X27521429Y-35871961D01*
X27521429Y-35871961D02*
X27521429Y-35491009D01*
X27521429Y-35491009D02*
X27569048Y-35395771D01*
X27569048Y-35395771D02*
X27664286Y-35348152D01*
X27664286Y-35348152D02*
X27854762Y-35348152D01*
X27854762Y-35348152D02*
X27950000Y-35395771D01*
X27950000Y-35395771D02*
X27997619Y-35491009D01*
X27997619Y-35491009D02*
X27997619Y-35586247D01*
X27997619Y-35586247D02*
X27521429Y-35681485D01*
X28426191Y-35348152D02*
X28426191Y-36014819D01*
X28426191Y-35443390D02*
X28473810Y-35395771D01*
X28473810Y-35395771D02*
X28569048Y-35348152D01*
X28569048Y-35348152D02*
X28711905Y-35348152D01*
X28711905Y-35348152D02*
X28807143Y-35395771D01*
X28807143Y-35395771D02*
X28854762Y-35491009D01*
X28854762Y-35491009D02*
X28854762Y-36014819D01*
X29330953Y-35348152D02*
X29330953Y-36014819D01*
X29330953Y-35443390D02*
X29378572Y-35395771D01*
X29378572Y-35395771D02*
X29473810Y-35348152D01*
X29473810Y-35348152D02*
X29616667Y-35348152D01*
X29616667Y-35348152D02*
X29711905Y-35395771D01*
X29711905Y-35395771D02*
X29759524Y-35491009D01*
X29759524Y-35491009D02*
X29759524Y-36014819D01*
X30664286Y-36014819D02*
X30664286Y-35491009D01*
X30664286Y-35491009D02*
X30616667Y-35395771D01*
X30616667Y-35395771D02*
X30521429Y-35348152D01*
X30521429Y-35348152D02*
X30330953Y-35348152D01*
X30330953Y-35348152D02*
X30235715Y-35395771D01*
X30664286Y-35967200D02*
X30569048Y-36014819D01*
X30569048Y-36014819D02*
X30330953Y-36014819D01*
X30330953Y-36014819D02*
X30235715Y-35967200D01*
X30235715Y-35967200D02*
X30188096Y-35871961D01*
X30188096Y-35871961D02*
X30188096Y-35776723D01*
X30188096Y-35776723D02*
X30235715Y-35681485D01*
X30235715Y-35681485D02*
X30330953Y-35633866D01*
X30330953Y-35633866D02*
X30569048Y-35633866D01*
X30569048Y-35633866D02*
X30664286Y-35586247D01*
X15857142Y-26997438D02*
X15857142Y-24997438D01*
X16999999Y-26997438D02*
X16142856Y-25854580D01*
X16999999Y-24997438D02*
X15857142Y-26140295D01*
X17857142Y-25949819D02*
X18523809Y-25949819D01*
X18809523Y-26997438D02*
X17857142Y-26997438D01*
X17857142Y-26997438D02*
X17857142Y-24997438D01*
X17857142Y-24997438D02*
X18809523Y-24997438D01*
X19666666Y-25949819D02*
X20333333Y-25949819D01*
X20619047Y-26997438D02*
X19666666Y-26997438D01*
X19666666Y-26997438D02*
X19666666Y-24997438D01*
X19666666Y-24997438D02*
X20619047Y-24997438D01*
X21476190Y-26997438D02*
X21476190Y-24997438D01*
X21476190Y-24997438D02*
X22238095Y-24997438D01*
X22238095Y-24997438D02*
X22428571Y-25092676D01*
X22428571Y-25092676D02*
X22523809Y-25187914D01*
X22523809Y-25187914D02*
X22619047Y-25378390D01*
X22619047Y-25378390D02*
X22619047Y-25664104D01*
X22619047Y-25664104D02*
X22523809Y-25854580D01*
X22523809Y-25854580D02*
X22428571Y-25949819D01*
X22428571Y-25949819D02*
X22238095Y-26045057D01*
X22238095Y-26045057D02*
X21476190Y-26045057D01*
X23476190Y-26235533D02*
X25000000Y-26235533D01*
X26333332Y-24997438D02*
X26714285Y-24997438D01*
X26714285Y-24997438D02*
X26904761Y-25092676D01*
X26904761Y-25092676D02*
X27095237Y-25283152D01*
X27095237Y-25283152D02*
X27190475Y-25664104D01*
X27190475Y-25664104D02*
X27190475Y-26330771D01*
X27190475Y-26330771D02*
X27095237Y-26711723D01*
X27095237Y-26711723D02*
X26904761Y-26902200D01*
X26904761Y-26902200D02*
X26714285Y-26997438D01*
X26714285Y-26997438D02*
X26333332Y-26997438D01*
X26333332Y-26997438D02*
X26142856Y-26902200D01*
X26142856Y-26902200D02*
X25952380Y-26711723D01*
X25952380Y-26711723D02*
X25857142Y-26330771D01*
X25857142Y-26330771D02*
X25857142Y-25664104D01*
X25857142Y-25664104D02*
X25952380Y-25283152D01*
X25952380Y-25283152D02*
X26142856Y-25092676D01*
X26142856Y-25092676D02*
X26333332Y-24997438D01*
X28047618Y-24997438D02*
X28047618Y-26616485D01*
X28047618Y-26616485D02*
X28142856Y-26806961D01*
X28142856Y-26806961D02*
X28238094Y-26902200D01*
X28238094Y-26902200D02*
X28428570Y-26997438D01*
X28428570Y-26997438D02*
X28809523Y-26997438D01*
X28809523Y-26997438D02*
X28999999Y-26902200D01*
X28999999Y-26902200D02*
X29095237Y-26806961D01*
X29095237Y-26806961D02*
X29190475Y-26616485D01*
X29190475Y-26616485D02*
X29190475Y-24997438D01*
X29857142Y-24997438D02*
X30999999Y-24997438D01*
X30428570Y-26997438D02*
X30428570Y-24997438D01*
X33000000Y-24997438D02*
X34333333Y-24997438D01*
X34333333Y-24997438D02*
X33000000Y-26997438D01*
X33000000Y-26997438D02*
X34333333Y-26997438D01*
X35476190Y-24997438D02*
X35857143Y-24997438D01*
X35857143Y-24997438D02*
X36047619Y-25092676D01*
X36047619Y-25092676D02*
X36238095Y-25283152D01*
X36238095Y-25283152D02*
X36333333Y-25664104D01*
X36333333Y-25664104D02*
X36333333Y-26330771D01*
X36333333Y-26330771D02*
X36238095Y-26711723D01*
X36238095Y-26711723D02*
X36047619Y-26902200D01*
X36047619Y-26902200D02*
X35857143Y-26997438D01*
X35857143Y-26997438D02*
X35476190Y-26997438D01*
X35476190Y-26997438D02*
X35285714Y-26902200D01*
X35285714Y-26902200D02*
X35095238Y-26711723D01*
X35095238Y-26711723D02*
X35000000Y-26330771D01*
X35000000Y-26330771D02*
X35000000Y-25664104D01*
X35000000Y-25664104D02*
X35095238Y-25283152D01*
X35095238Y-25283152D02*
X35285714Y-25092676D01*
X35285714Y-25092676D02*
X35476190Y-24997438D01*
X37190476Y-26997438D02*
X37190476Y-24997438D01*
X37190476Y-24997438D02*
X38333333Y-26997438D01*
X38333333Y-26997438D02*
X38333333Y-24997438D01*
X39285714Y-25949819D02*
X39952381Y-25949819D01*
X40238095Y-26997438D02*
X39285714Y-26997438D01*
X39285714Y-26997438D02*
X39285714Y-24997438D01*
X39285714Y-24997438D02*
X40238095Y-24997438D01*
%TO.C,H1*%
X8200000Y-6000000D02*
G75*
G02*
X3800000Y-6000000I-2200000J0D01*
G01*
X3800000Y-6000000D02*
G75*
G02*
X8200000Y-6000000I2200000J0D01*
G01*
%TO.C,H2*%
X72200000Y-6000000D02*
G75*
G02*
X67800000Y-6000000I-2200000J0D01*
G01*
X67800000Y-6000000D02*
G75*
G02*
X72200000Y-6000000I2200000J0D01*
G01*
%TO.C,H4*%
X72200000Y-154000000D02*
G75*
G02*
X67800000Y-154000000I-2200000J0D01*
G01*
X67800000Y-154000000D02*
G75*
G02*
X72200000Y-154000000I2200000J0D01*
G01*
%TO.C,H3*%
X8200000Y-154000000D02*
G75*
G02*
X3800000Y-154000000I-2200000J0D01*
G01*
X3800000Y-154000000D02*
G75*
G02*
X8200000Y-154000000I2200000J0D01*
G01*
%TD*%
M02*
