%TF.GenerationSoftware,KiCad,Pcbnew,10.0.6*%
%TF.CreationDate,2026-09-13T19:24:56-05:00*%
%TF.ProjectId,owasso1,6f776173-736f-4312-9e6b-696361645f70,rev?*%
%TF.SameCoordinates,Original*%
%TF.FileFunction,Copper,L1,Top*%
%TF.FilePolarity,Positive*%
%FSLAX46Y46*%
G04 Gerber Fmt 4.6, Leading zero omitted, Abs format (unit mm)*
G04 Created by KiCad (PCBNEW 10.0.6) date 2026-09-13 19:24:56*
%MOMM*%
%LPD*%
G01*
G04 APERTURE LIST*
G04 Aperture macros list*
%AMRoundRect*
0 Rectangle with rounded corners*
0 $1 Rounding radius*
0 $2 $3 $4 $5 $6 $7 $8 $9 X,Y pos of 4 corners*
0 Add a 4 corners polygon primitive as box body*
4,1,4,$2,$3,$4,$5,$6,$7,$8,$9,$2,$3,0*
0 Add four circle primitives for the rounded corners*
1,1,$1+$1,$2,$3*
1,1,$1+$1,$4,$5*
1,1,$1+$1,$6,$7*
1,1,$1+$1,$8,$9*
0 Add four rect primitives between the rounded corners*
20,1,$1+$1,$2,$3,$4,$5,0*
20,1,$1+$1,$4,$5,$6,$7,0*
20,1,$1+$1,$6,$7,$8,$9,0*
20,1,$1+$1,$8,$9,$2,$3,0*%
G04 Aperture macros list end*
%TA.AperFunction,ComponentPad*%
%ADD10R,1.700000X1.700000*%
%TD*%
%TA.AperFunction,ComponentPad*%
%ADD11C,1.700000*%
%TD*%
%TA.AperFunction,SMDPad,CuDef*%
%ADD12R,0.900000X1.000000*%
%TD*%
%TA.AperFunction,SMDPad,CuDef*%
%ADD13RoundRect,0.250000X-0.262500X-0.450000X0.262500X-0.450000X0.262500X0.450000X-0.262500X0.450000X0*%
%TD*%
%TA.AperFunction,SMDPad,CuDef*%
%ADD14RoundRect,0.250000X-0.325000X-0.650000X0.325000X-0.650000X0.325000X0.650000X-0.325000X0.650000X0*%
%TD*%
%TA.AperFunction,SMDPad,CuDef*%
%ADD15RoundRect,0.150000X-0.512500X-0.150000X0.512500X-0.150000X0.512500X0.150000X-0.512500X0.150000X0*%
%TD*%
%TA.AperFunction,ComponentPad*%
%ADD16O,2.200000X3.500000*%
%TD*%
%TA.AperFunction,ComponentPad*%
%ADD17R,1.500000X2.500000*%
%TD*%
%TA.AperFunction,ComponentPad*%
%ADD18O,1.500000X2.500000*%
%TD*%
%TA.AperFunction,ComponentPad*%
%ADD19R,1.800000X1.800000*%
%TD*%
%TA.AperFunction,ComponentPad*%
%ADD20C,1.800000*%
%TD*%
%TA.AperFunction,SMDPad,CuDef*%
%ADD21RoundRect,0.150000X-0.150000X-0.700000X0.150000X-0.700000X0.150000X0.700000X-0.150000X0.700000X0*%
%TD*%
%TA.AperFunction,SMDPad,CuDef*%
%ADD22RoundRect,0.250000X-0.250000X-1.100000X0.250000X-1.100000X0.250000X1.100000X-0.250000X1.100000X0*%
%TD*%
%TA.AperFunction,SMDPad,CuDef*%
%ADD23R,0.300000X1.300000*%
%TD*%
%TA.AperFunction,SMDPad,CuDef*%
%ADD24R,1.800000X2.200000*%
%TD*%
%TA.AperFunction,SMDPad,CuDef*%
%ADD25R,1.500000X0.900000*%
%TD*%
%TA.AperFunction,SMDPad,CuDef*%
%ADD26R,0.900000X1.500000*%
%TD*%
%TA.AperFunction,HeatsinkPad*%
%ADD27C,0.600000*%
%TD*%
%TA.AperFunction,HeatsinkPad*%
%ADD28R,3.900000X3.900000*%
%TD*%
%TA.AperFunction,SMDPad,CuDef*%
%ADD29R,1.100000X0.850000*%
%TD*%
%TA.AperFunction,SMDPad,CuDef*%
%ADD30R,1.100000X0.750000*%
%TD*%
%TA.AperFunction,SMDPad,CuDef*%
%ADD31R,1.000000X1.200000*%
%TD*%
%TA.AperFunction,SMDPad,CuDef*%
%ADD32R,1.350000X1.550000*%
%TD*%
%TA.AperFunction,SMDPad,CuDef*%
%ADD33R,1.350000X1.900000*%
%TD*%
%TA.AperFunction,SMDPad,CuDef*%
%ADD34R,1.800000X1.170000*%
%TD*%
%TA.AperFunction,SMDPad,CuDef*%
%ADD35R,0.700000X0.900000*%
%TD*%
%TA.AperFunction,SMDPad,CuDef*%
%ADD36R,0.700000X0.700000*%
%TD*%
%TA.AperFunction,SMDPad,CuDef*%
%ADD37R,0.650000X1.200000*%
%TD*%
%TA.AperFunction,SMDPad,CuDef*%
%ADD38R,2.900000X0.450000*%
%TD*%
%TA.AperFunction,SMDPad,CuDef*%
%ADD39R,1.900000X0.450000*%
%TD*%
%TA.AperFunction,SMDPad,CuDef*%
%ADD40R,2.400000X0.450000*%
%TD*%
%TA.AperFunction,SMDPad,CuDef*%
%ADD41R,0.500000X1.400000*%
%TD*%
%TA.AperFunction,SMDPad,CuDef*%
%ADD42R,0.600000X0.300000*%
%TD*%
%TA.AperFunction,SMDPad,CuDef*%
%ADD43R,0.700000X0.750000*%
%TD*%
%TA.AperFunction,SMDPad,CuDef*%
%ADD44RoundRect,0.243750X-0.243750X-0.456250X0.243750X-0.456250X0.243750X0.456250X-0.243750X0.456250X0*%
%TD*%
%TA.AperFunction,ComponentPad*%
%ADD45R,1.000000X1.000000*%
%TD*%
%TA.AperFunction,ComponentPad*%
%ADD46C,1.000000*%
%TD*%
%TA.AperFunction,ComponentPad*%
%ADD47RoundRect,0.250200X0.649800X-0.649800X0.649800X0.649800X-0.649800X0.649800X-0.649800X-0.649800X0*%
%TD*%
%TA.AperFunction,SMDPad,CuDef*%
%ADD48RoundRect,0.250000X-0.375000X-1.075000X0.375000X-1.075000X0.375000X1.075000X-0.375000X1.075000X0*%
%TD*%
%TA.AperFunction,SMDPad,CuDef*%
%ADD49RoundRect,0.150000X-0.825000X-0.150000X0.825000X-0.150000X0.825000X0.150000X-0.825000X0.150000X0*%
%TD*%
%TA.AperFunction,HeatsinkPad*%
%ADD50R,2.300000X2.300000*%
%TD*%
%TA.AperFunction,SMDPad,CuDef*%
%ADD51RoundRect,0.225000X-0.225000X-0.375000X0.225000X-0.375000X0.225000X0.375000X-0.225000X0.375000X0*%
%TD*%
%TA.AperFunction,SMDPad,CuDef*%
%ADD52RoundRect,0.150000X0.425000X-0.150000X0.425000X0.150000X-0.425000X0.150000X-0.425000X-0.150000X0*%
%TD*%
%TA.AperFunction,SMDPad,CuDef*%
%ADD53RoundRect,0.075000X0.500000X-0.075000X0.500000X0.075000X-0.500000X0.075000X-0.500000X-0.075000X0*%
%TD*%
%TA.AperFunction,ComponentPad*%
%ADD54O,2.100000X1.000000*%
%TD*%
%TA.AperFunction,ComponentPad*%
%ADD55O,1.800000X1.000000*%
%TD*%
%TA.AperFunction,SMDPad,CuDef*%
%ADD56RoundRect,0.137500X-0.662500X-0.137500X0.662500X-0.137500X0.662500X0.137500X-0.662500X0.137500X0*%
%TD*%
%TA.AperFunction,ViaPad*%
%ADD57C,0.600000*%
%TD*%
%TA.AperFunction,Conductor*%
%ADD58C,0.200000*%
%TD*%
%TA.AperFunction,Conductor*%
%ADD59C,0.150000*%
%TD*%
G04 APERTURE END LIST*
D10*
%TO.P,J2,1*%
%TO.N,3V3*%
X8000000Y-78000000D03*
D11*
%TO.P,J2,2*%
%TO.N,GND*%
X8000000Y-80540000D03*
%TO.P,J2,3*%
%TO.N,CC1101_CS*%
X8000000Y-83080000D03*
%TO.P,J2,4*%
%TO.N,SPI_MOSI*%
X8000000Y-85620000D03*
%TO.P,J2,5*%
%TO.N,SPI_MISO*%
X8000000Y-88160000D03*
%TO.P,J2,6*%
%TO.N,SPI_SCK*%
X8000000Y-90700000D03*
%TO.P,J2,7*%
%TO.N,CC1101_GDO0*%
X8000000Y-93240000D03*
%TO.P,J2,8*%
%TO.N,3V3*%
X8000000Y-95780000D03*
%TD*%
D12*
%TO.P,SW7,1*%
%TO.N,KEY_R2*%
X25950000Y-104200000D03*
X30050000Y-104200000D03*
%TO.P,SW7,2*%
%TO.N,KEY_D6*%
X25950000Y-105800000D03*
X30050000Y-105800000D03*
%TD*%
%TO.P,SW6,1*%
%TO.N,KEY_R2*%
X11950000Y-104200000D03*
X16050000Y-104200000D03*
%TO.P,SW6,2*%
%TO.N,KEY_D5*%
X11950000Y-105800000D03*
X16050000Y-105800000D03*
%TD*%
%TO.P,SW14,1*%
%TO.N,KEY_R4*%
X11950000Y-128200000D03*
X16050000Y-128200000D03*
%TO.P,SW14,2*%
%TO.N,KEY_D13*%
X11950000Y-129800000D03*
X16050000Y-129800000D03*
%TD*%
%TO.P,SW9,1*%
%TO.N,KEY_R2*%
X53950000Y-104200000D03*
X58050000Y-104200000D03*
%TO.P,SW9,2*%
%TO.N,KEY_D8*%
X53950000Y-105800000D03*
X58050000Y-105800000D03*
%TD*%
D13*
%TO.P,R1,1*%
%TO.N,U3_PROG*%
X47087500Y-140000000D03*
%TO.P,R1,2*%
%TO.N,GND*%
X48912500Y-140000000D03*
%TD*%
D10*
%TO.P,J4,1*%
%TO.N,3V3*%
X8000000Y-110000000D03*
D11*
%TO.P,J4,2*%
%TO.N,GND*%
X8000000Y-112540000D03*
%TO.P,J4,3*%
%TO.N,I2C_SDA*%
X8000000Y-115080000D03*
%TO.P,J4,4*%
%TO.N,I2C_SCL*%
X8000000Y-117620000D03*
%TD*%
D14*
%TO.P,C4,1*%
%TO.N,VBUS5V*%
X40525000Y-60000000D03*
%TO.P,C4,2*%
%TO.N,GND*%
X43475000Y-60000000D03*
%TD*%
D12*
%TO.P,SW13,1*%
%TO.N,KEY_R3*%
X53950000Y-116200000D03*
X58050000Y-116200000D03*
%TO.P,SW13,2*%
%TO.N,KEY_D12*%
X53950000Y-117800000D03*
X58050000Y-117800000D03*
%TD*%
D13*
%TO.P,R4,1*%
%TO.N,USB_CC1*%
X47087500Y-70000000D03*
%TO.P,R4,2*%
%TO.N,GND*%
X48912500Y-70000000D03*
%TD*%
D15*
%TO.P,U8,1*%
%TO.N,BOOST_SW*%
X36862500Y-149050000D03*
%TO.P,U8,2*%
%TO.N,GND*%
X36862500Y-150000000D03*
%TO.P,U8,3*%
%TO.N,BOOST_FB*%
X36862500Y-150950000D03*
%TO.P,U8,4*%
%TO.N,VBAT*%
X39137500Y-150950000D03*
%TO.P,U8,5*%
X39137500Y-150000000D03*
%TO.P,U8,6*%
%TO.N,MODEM_5V*%
X39137500Y-149050000D03*
%TD*%
D12*
%TO.P,SW8,1*%
%TO.N,KEY_R2*%
X39950000Y-104200000D03*
X44050000Y-104200000D03*
%TO.P,SW8,2*%
%TO.N,KEY_D7*%
X39950000Y-105800000D03*
X44050000Y-105800000D03*
%TD*%
%TO.P,SW17,1*%
%TO.N,KEY_R4*%
X53950000Y-128200000D03*
X58050000Y-128200000D03*
%TO.P,SW17,2*%
%TO.N,KEY_D16*%
X53950000Y-129800000D03*
X58050000Y-129800000D03*
%TD*%
D16*
%TO.P,SW1,*%
%TO.N,*%
X37900000Y-75000000D03*
X46100000Y-75000000D03*
D17*
%TO.P,SW1,1*%
%TO.N,VBUS5V*%
X40000000Y-75000000D03*
D18*
%TO.P,SW1,2*%
%TO.N,VBAT*%
X42000000Y-75000000D03*
%TO.P,SW1,3*%
%TO.N,PWR_SW*%
X44000000Y-75000000D03*
%TD*%
D12*
%TO.P,SW15,1*%
%TO.N,KEY_R4*%
X25950000Y-128200000D03*
X30050000Y-128200000D03*
%TO.P,SW15,2*%
%TO.N,KEY_D14*%
X25950000Y-129800000D03*
X30050000Y-129800000D03*
%TD*%
D19*
%TO.P,J1,1*%
%TO.N,MIC-*%
X40030000Y-44050000D03*
D20*
%TO.P,J1,2*%
%TO.N,MIC+*%
X42570000Y-44050000D03*
%TO.P,J1,3*%
%TO.N,SPK-*%
X45110000Y-44050000D03*
%TO.P,J1,4*%
%TO.N,SPK+*%
X47650000Y-44050000D03*
%TO.P,J1,5*%
%TO.N,LTE_STA*%
X50190000Y-44050000D03*
%TO.P,J1,6*%
%TO.N,LTE_TX*%
X52730000Y-44050000D03*
%TO.P,J1,7*%
%TO.N,LTE_RX*%
X55270000Y-44050000D03*
%TO.P,J1,8*%
%TO.N,LTE_RTS*%
X57810000Y-44050000D03*
%TO.P,J1,9*%
%TO.N,LTE_PWRKEY*%
X60350000Y-44050000D03*
%TO.P,J1,10*%
%TO.N,LTE_RESET*%
X62890000Y-44050000D03*
%TO.P,J1,11*%
%TO.N,GND*%
X65430000Y-44050000D03*
%TO.P,J1,12*%
X67970000Y-44050000D03*
D19*
%TO.P,J1,13*%
%TO.N,LTE_VEXT*%
X41300000Y-5950000D03*
D20*
%TO.P,J1,14*%
%TO.N,3V3*%
X43840000Y-5950000D03*
%TO.P,J1,15*%
%TO.N,LTE_CTS*%
X46380000Y-5950000D03*
%TO.P,J1,16*%
%TO.N,LTE_RI*%
X48920000Y-5950000D03*
%TO.P,J1,17*%
%TO.N,LTE_DTR*%
X51460000Y-5950000D03*
%TO.P,J1,18*%
%TO.N,LTE_RX2*%
X54000000Y-5950000D03*
%TO.P,J1,19*%
%TO.N,LTE_TX2*%
X56540000Y-5950000D03*
%TO.P,J1,20*%
%TO.N,VBAT*%
X59080000Y-5950000D03*
%TO.P,J1,21*%
%TO.N,LTE_NET*%
X61620000Y-5950000D03*
%TO.P,J1,22*%
%TO.N,MODEM_5V*%
X64160000Y-5950000D03*
%TO.P,J1,23*%
X66700000Y-5950000D03*
%TD*%
D14*
%TO.P,C2,1*%
%TO.N,VBAT*%
X26525000Y-140000000D03*
%TO.P,C2,2*%
%TO.N,GND*%
X29475000Y-140000000D03*
%TD*%
D10*
%TO.P,J5,1*%
%TO.N,MODEM_5V*%
X68000000Y-115000000D03*
D11*
%TO.P,J5,2*%
%TO.N,GND*%
X68000000Y-117540000D03*
%TO.P,J5,3*%
%TO.N,RFID_TX*%
X68000000Y-120080000D03*
%TO.P,J5,4*%
%TO.N,RFID_RX*%
X68000000Y-122620000D03*
%TO.P,J5,5*%
%TO.N,N/C*%
X68000000Y-125160000D03*
%TD*%
D14*
%TO.P,C3,1*%
%TO.N,3V3*%
X36525000Y-140000000D03*
%TO.P,C3,2*%
%TO.N,GND*%
X39475000Y-140000000D03*
%TD*%
D21*
%TO.P,J13,1*%
%TO.N,VBAT*%
X19375000Y-146150000D03*
%TO.P,J13,2*%
%TO.N,GND*%
X20625000Y-146150000D03*
D22*
%TO.P,J13,MP*%
%TO.N,N/C*%
X17525000Y-149350000D03*
X22475000Y-149350000D03*
%TD*%
D12*
%TO.P,SW10,1*%
%TO.N,KEY_R3*%
X11950000Y-116200000D03*
X16050000Y-116200000D03*
%TO.P,SW10,2*%
%TO.N,KEY_D9*%
X11950000Y-117800000D03*
X16050000Y-117800000D03*
%TD*%
D23*
%TO.P,J8,1*%
%TO.N,3V3*%
X56250000Y-13150000D03*
%TO.P,J8,2*%
%TO.N,GND*%
X56750000Y-13150000D03*
%TO.P,J8,3*%
%TO.N,CAM_XCLK*%
X57250000Y-13150000D03*
%TO.P,J8,4*%
%TO.N,CAM_PCLK*%
X57750000Y-13150000D03*
%TO.P,J8,5*%
%TO.N,CAM_VSYNC*%
X58250000Y-13150000D03*
%TO.P,J8,6*%
%TO.N,CAM_HREF*%
X58750000Y-13150000D03*
%TO.P,J8,7*%
%TO.N,I2C_SDA*%
X59250000Y-13150000D03*
%TO.P,J8,8*%
%TO.N,I2C_SCL*%
X59750000Y-13150000D03*
%TO.P,J8,9*%
%TO.N,CAM_D0*%
X60250000Y-13150000D03*
%TO.P,J8,10*%
%TO.N,CAM_D1*%
X60750000Y-13150000D03*
%TO.P,J8,11*%
%TO.N,CAM_D2*%
X61250000Y-13150000D03*
%TO.P,J8,12*%
%TO.N,CAM_D3*%
X61750000Y-13150000D03*
%TO.P,J8,13*%
%TO.N,CAM_D4*%
X62250000Y-13150000D03*
%TO.P,J8,14*%
%TO.N,CAM_D5*%
X62750000Y-13150000D03*
%TO.P,J8,15*%
%TO.N,CAM_D6*%
X63250000Y-13150000D03*
%TO.P,J8,16*%
%TO.N,CAM_D7*%
X63750000Y-13150000D03*
%TO.P,J8,17*%
%TO.N,CAM_PWDN*%
X64250000Y-13150000D03*
%TO.P,J8,18*%
%TO.N,CAM_RESET*%
X64750000Y-13150000D03*
%TO.P,J8,19*%
%TO.N,3V3*%
X65250000Y-13150000D03*
%TO.P,J8,20*%
%TO.N,GND*%
X65750000Y-13150000D03*
%TO.P,J8,21*%
%TO.N,N/C*%
X66250000Y-13150000D03*
%TO.P,J8,22*%
X66750000Y-13150000D03*
%TO.P,J8,23*%
X67250000Y-13150000D03*
%TO.P,J8,24*%
X67750000Y-13150000D03*
D24*
%TO.P,J8,MP*%
X54350000Y-16400000D03*
X69650000Y-16400000D03*
%TD*%
D12*
%TO.P,SW16,1*%
%TO.N,KEY_R4*%
X39950000Y-128200000D03*
X44050000Y-128200000D03*
%TO.P,SW16,2*%
%TO.N,KEY_D15*%
X39950000Y-129800000D03*
X44050000Y-129800000D03*
%TD*%
D13*
%TO.P,R2,1*%
%TO.N,MODEM_5V*%
X57087500Y-140000000D03*
%TO.P,R2,2*%
%TO.N,BOOST_FB*%
X58912500Y-140000000D03*
%TD*%
D25*
%TO.P,U1,1*%
%TO.N,GND*%
X19250000Y-39740000D03*
%TO.P,U1,2*%
%TO.N,3V3*%
X19250000Y-41010000D03*
%TO.P,U1,3*%
%TO.N,CAM_RESET*%
X19250000Y-42280000D03*
%TO.P,U1,4*%
%TO.N,CAM_PCLK*%
X19250000Y-43550000D03*
%TO.P,U1,5*%
%TO.N,CAM_VSYNC*%
X19250000Y-44820000D03*
%TO.P,U1,6*%
%TO.N,CAM_HREF*%
X19250000Y-46090000D03*
%TO.P,U1,7*%
%TO.N,CAM_PWDN*%
X19250000Y-47360000D03*
%TO.P,U1,8*%
%TO.N,CAM_XCLK*%
X19250000Y-48630000D03*
%TO.P,U1,9*%
%TO.N,CAM_D0*%
X19250000Y-49900000D03*
%TO.P,U1,10*%
%TO.N,CAM_D1*%
X19250000Y-51170000D03*
%TO.P,U1,11*%
%TO.N,CAM_D2*%
X19250000Y-52440000D03*
%TO.P,U1,12*%
%TO.N,I2C_SDA*%
X19250000Y-53710000D03*
%TO.P,U1,13*%
%TO.N,USB_D-*%
X19250000Y-54980000D03*
%TO.P,U1,14*%
%TO.N,USB_D+*%
X19250000Y-56250000D03*
D26*
%TO.P,U1,15*%
%TO.N,LCD_CS*%
X21015000Y-57500000D03*
%TO.P,U1,16*%
%TO.N,SX1262_RESET*%
X22285000Y-57500000D03*
%TO.P,U1,17*%
%TO.N,I2C_SCL*%
X23555000Y-57500000D03*
%TO.P,U1,18*%
%TO.N,CAM_D4*%
X24825000Y-57500000D03*
%TO.P,U1,19*%
%TO.N,CAM_D5*%
X26095000Y-57500000D03*
%TO.P,U1,20*%
%TO.N,CAM_D3*%
X27365000Y-57500000D03*
%TO.P,U1,21*%
%TO.N,CAM_D6*%
X28635000Y-57500000D03*
%TO.P,U1,22*%
%TO.N,CAM_D7*%
X29905000Y-57500000D03*
%TO.P,U1,23*%
%TO.N,SX1262_BUSY*%
X31175000Y-57500000D03*
%TO.P,U1,24*%
%TO.N,SX1262_DIO1*%
X32445000Y-57500000D03*
%TO.P,U1,25*%
%TO.N,SD_CS*%
X33715000Y-57500000D03*
%TO.P,U1,26*%
%TO.N,LCD_BL*%
X34985000Y-57500000D03*
D25*
%TO.P,U1,27*%
%TO.N,LCD_DC*%
X36750000Y-56250000D03*
%TO.P,U1,28*%
%TO.N,IR_TX*%
X36750000Y-54980000D03*
%TO.P,U1,29*%
%TO.N,SX1262_CS*%
X36750000Y-53710000D03*
%TO.P,U1,30*%
%TO.N,CC1101_GDO0*%
X36750000Y-52440000D03*
%TO.P,U1,31*%
%TO.N,3V3*%
X36750000Y-51170000D03*
%TO.P,U1,32*%
%TO.N,SPI_MISO*%
X36750000Y-49900000D03*
%TO.P,U1,33*%
%TO.N,SPI_SCK*%
X36750000Y-48630000D03*
%TO.P,U1,34*%
%TO.N,SPI_MOSI*%
X36750000Y-47360000D03*
%TO.P,U1,35*%
%TO.N,CC1101_CS*%
X36750000Y-46090000D03*
%TO.P,U1,36*%
%TO.N,LTE_PWRKEY*%
X36750000Y-44820000D03*
%TO.P,U1,37*%
%TO.N,LTE_RI*%
X36750000Y-43550000D03*
%TO.P,U1,38*%
%TO.N,LTE_RX*%
X36750000Y-42280000D03*
%TO.P,U1,39*%
%TO.N,LTE_TX*%
X36750000Y-41010000D03*
%TO.P,U1,40*%
%TO.N,GND*%
X36750000Y-39740000D03*
D27*
%TO.P,U1,41*%
X25100000Y-46760000D03*
X25100000Y-48160000D03*
X25800000Y-46060000D03*
X25800000Y-47460000D03*
X25800000Y-48860000D03*
X26500000Y-46760000D03*
D28*
X26500000Y-47460000D03*
D27*
X26500000Y-48160000D03*
X27200000Y-46060000D03*
X27200000Y-47460000D03*
X27200000Y-48860000D03*
X27900000Y-46760000D03*
X27900000Y-48160000D03*
%TD*%
D12*
%TO.P,SW11,1*%
%TO.N,KEY_R3*%
X25950000Y-116200000D03*
X30050000Y-116200000D03*
%TO.P,SW11,2*%
%TO.N,KEY_D10*%
X25950000Y-117800000D03*
X30050000Y-117800000D03*
%TD*%
%TO.P,SW12,1*%
%TO.N,KEY_R3*%
X39950000Y-116200000D03*
X44050000Y-116200000D03*
%TO.P,SW12,2*%
%TO.N,KEY_D11*%
X39950000Y-117800000D03*
X44050000Y-117800000D03*
%TD*%
D29*
%TO.P,J9,1*%
%TO.N,N/C*%
X59550000Y-83105000D03*
%TO.P,J9,2*%
%TO.N,SD_CS*%
X59550000Y-82005000D03*
%TO.P,J9,3*%
%TO.N,SPI_MOSI*%
X59550000Y-80905000D03*
%TO.P,J9,4*%
%TO.N,3V3*%
X59550000Y-79805000D03*
%TO.P,J9,5*%
%TO.N,SPI_SCK*%
X59550000Y-78705000D03*
%TO.P,J9,6*%
%TO.N,GND*%
X59550000Y-77605000D03*
%TO.P,J9,7*%
%TO.N,SPI_MISO*%
X59550000Y-76505000D03*
D30*
%TO.P,J9,8*%
%TO.N,N/C*%
X59550000Y-75455000D03*
D31*
%TO.P,J9,9*%
X65700000Y-85740000D03*
%TO.P,J9,10*%
X69400000Y-85740000D03*
D32*
%TO.P,J9,SH*%
X59675000Y-85565000D03*
D33*
X70375000Y-82240000D03*
X70375000Y-76270000D03*
D34*
X59900000Y-74245000D03*
%TD*%
D13*
%TO.P,R3,1*%
%TO.N,BOOST_FB*%
X67087500Y-140000000D03*
%TO.P,R3,2*%
%TO.N,GND*%
X68912500Y-140000000D03*
%TD*%
D35*
%TO.P,J10,C1*%
%TO.N,3V3*%
X59540000Y-67540000D03*
%TO.P,J10,C2*%
%TO.N,SIM_RST*%
X59540000Y-65000000D03*
%TO.P,J10,C3*%
%TO.N,SIM_CLK*%
X59540000Y-62460000D03*
%TO.P,J10,C5*%
%TO.N,GND*%
X62710000Y-67540000D03*
%TO.P,J10,C6*%
%TO.N,N/C*%
X62710000Y-65000000D03*
%TO.P,J10,C7*%
%TO.N,SIM_IO*%
X62710000Y-62460000D03*
D36*
%TO.P,J10,CSW*%
%TO.N,SIM_DET*%
X66040000Y-60730000D03*
D37*
%TO.P,J10,DSW*%
%TO.N,N/C*%
X69715000Y-64450000D03*
D38*
%TO.P,J10,SH*%
X58840000Y-71555000D03*
D39*
X63690000Y-71555000D03*
D40*
X68840000Y-71555000D03*
D41*
X70790000Y-67200000D03*
D42*
X57690000Y-66220000D03*
X57690000Y-63780000D03*
D41*
X70790000Y-62780000D03*
D43*
X67840000Y-60905000D03*
D38*
X58840000Y-60405000D03*
D39*
X63690000Y-60405000D03*
%TD*%
D44*
%TO.P,D1,1*%
%TO.N,IR_TX*%
X64062500Y-30000000D03*
%TO.P,D1,2*%
%TO.N,GND*%
X65937500Y-30000000D03*
%TD*%
D10*
%TO.P,J6,1*%
%TO.N,3V3*%
X20000000Y-85000000D03*
D11*
%TO.P,J6,2*%
%TO.N,GND*%
X22540000Y-85000000D03*
%TO.P,J6,3*%
%TO.N,I2C_SDA*%
X25080000Y-85000000D03*
%TO.P,J6,4*%
%TO.N,I2C_SCL*%
X27620000Y-85000000D03*
%TO.P,J6,5*%
%TO.N,TRACKBALL_INT*%
X30160000Y-85000000D03*
%TD*%
D45*
%TO.P,U6,1*%
%TO.N,3V3*%
X50000000Y-120000000D03*
D46*
%TO.P,U6,2*%
%TO.N,GND*%
X50000000Y-121270000D03*
%TO.P,U6,3*%
%TO.N,VBAT*%
X50000000Y-122540000D03*
%TO.P,U6,4*%
%TO.N,FUEL_ALERT*%
X50000000Y-123810000D03*
%TD*%
D13*
%TO.P,R5,1*%
%TO.N,USB_CC2*%
X57087500Y-55000000D03*
%TO.P,R5,2*%
%TO.N,GND*%
X58912500Y-55000000D03*
%TD*%
D47*
%TO.P,U7,1*%
%TO.N,3V3*%
X50000000Y-60000000D03*
D20*
%TO.P,U7,2*%
%TO.N,GND*%
X50000000Y-57460000D03*
%TO.P,U7,3*%
%TO.N,IR_RX*%
X50000000Y-54920000D03*
%TD*%
D15*
%TO.P,Q1,1*%
%TO.N,DW01A_OD*%
X8862500Y-147050000D03*
%TO.P,Q1,2*%
%TO.N,GND*%
X8862500Y-148000000D03*
%TO.P,Q1,3*%
X8862500Y-148950000D03*
%TO.P,Q1,4*%
%TO.N,DW01A_OC*%
X11137500Y-148950000D03*
%TO.P,Q1,5*%
%TO.N,GND*%
X11137500Y-148000000D03*
%TO.P,Q1,6*%
X11137500Y-147050000D03*
%TD*%
D12*
%TO.P,SW5,1*%
%TO.N,KEY_R1*%
X53950000Y-92200000D03*
X58050000Y-92200000D03*
%TO.P,SW5,2*%
%TO.N,KEY_D4*%
X53950000Y-93800000D03*
X58050000Y-93800000D03*
%TD*%
D48*
%TO.P,L1,1*%
%TO.N,VBAT*%
X56600000Y-151000000D03*
%TO.P,L1,2*%
%TO.N,BOOST_SW*%
X59400000Y-151000000D03*
%TD*%
D14*
%TO.P,C1,1*%
%TO.N,MODEM_5V*%
X67525000Y-150000000D03*
%TO.P,C1,2*%
%TO.N,GND*%
X70475000Y-150000000D03*
%TD*%
D10*
%TO.P,J3,1*%
%TO.N,3V3*%
X25000000Y-65000000D03*
D11*
%TO.P,J3,2*%
%TO.N,GND*%
X27540000Y-65000000D03*
%TO.P,J3,3*%
%TO.N,SPI_MISO*%
X30080000Y-65000000D03*
%TO.P,J3,4*%
%TO.N,SPI_MOSI*%
X32620000Y-65000000D03*
%TO.P,J3,5*%
%TO.N,SPI_SCK*%
X35160000Y-65000000D03*
%TO.P,J3,6*%
%TO.N,SX1262_CS*%
X37700000Y-65000000D03*
%TO.P,J3,7*%
%TO.N,SX1262_RESET*%
X40240000Y-65000000D03*
%TO.P,J3,8*%
%TO.N,SX1262_BUSY*%
X42780000Y-65000000D03*
%TO.P,J3,9*%
%TO.N,SX1262_DIO1*%
X45320000Y-65000000D03*
%TD*%
D12*
%TO.P,SW3,1*%
%TO.N,KEY_R1*%
X25950000Y-92200000D03*
X30050000Y-92200000D03*
%TO.P,SW3,2*%
%TO.N,KEY_D2*%
X25950000Y-93800000D03*
X30050000Y-93800000D03*
%TD*%
D49*
%TO.P,U3,1*%
%TO.N,N/C*%
X27525000Y-143095000D03*
%TO.P,U3,2*%
%TO.N,U3_PROG*%
X27525000Y-144365000D03*
%TO.P,U3,3*%
%TO.N,GND*%
X27525000Y-145635000D03*
%TO.P,U3,4*%
%TO.N,VBUS5V*%
X27525000Y-146905000D03*
%TO.P,U3,5*%
%TO.N,VBAT*%
X32475000Y-146905000D03*
%TO.P,U3,6*%
%TO.N,N/C*%
X32475000Y-145635000D03*
%TO.P,U3,7*%
X32475000Y-144365000D03*
%TO.P,U3,8*%
X32475000Y-143095000D03*
D50*
%TO.P,U3,9*%
%TO.N,GND*%
X30000000Y-145000000D03*
%TD*%
D23*
%TO.P,J7,1*%
%TO.N,3V3*%
X6750000Y-68150000D03*
%TO.P,J7,2*%
%TO.N,LCD_BL*%
X7250000Y-68150000D03*
%TO.P,J7,3*%
%TO.N,GND*%
X7750000Y-68150000D03*
%TO.P,J7,4*%
%TO.N,SPI_SCK*%
X8250000Y-68150000D03*
%TO.P,J7,5*%
%TO.N,SPI_MOSI*%
X8750000Y-68150000D03*
%TO.P,J7,6*%
%TO.N,SPI_MISO*%
X9250000Y-68150000D03*
%TO.P,J7,7*%
%TO.N,LCD_DC*%
X9750000Y-68150000D03*
%TO.P,J7,8*%
%TO.N,LCD_RESET*%
X10250000Y-68150000D03*
%TO.P,J7,9*%
%TO.N,LCD_CS*%
X10750000Y-68150000D03*
%TO.P,J7,10*%
%TO.N,SD_CS*%
X11250000Y-68150000D03*
%TO.P,J7,11*%
%TO.N,N/C*%
X11750000Y-68150000D03*
%TO.P,J7,12*%
%TO.N,TP_RESET*%
X12250000Y-68150000D03*
%TO.P,J7,13*%
%TO.N,I2C_SCL*%
X12750000Y-68150000D03*
%TO.P,J7,14*%
%TO.N,I2C_SDA*%
X13250000Y-68150000D03*
%TO.P,J7,15*%
%TO.N,TOUCH_INT*%
X13750000Y-68150000D03*
%TO.P,J7,16*%
%TO.N,N/C*%
X14250000Y-68150000D03*
%TO.P,J7,17*%
X14750000Y-68150000D03*
%TO.P,J7,18*%
X15250000Y-68150000D03*
D24*
%TO.P,J7,MP*%
X4850000Y-71400000D03*
X17150000Y-71400000D03*
%TD*%
D51*
%TO.P,D18,1*%
%TO.N,BOOST_SW*%
X62350000Y-148000000D03*
%TO.P,D18,2*%
%TO.N,MODEM_5V*%
X65650000Y-148000000D03*
%TD*%
D15*
%TO.P,U4,1*%
%TO.N,DW01A_OD*%
X38862500Y-144050000D03*
%TO.P,U4,2*%
%TO.N,GND*%
X38862500Y-145000000D03*
%TO.P,U4,3*%
%TO.N,DW01A_OC*%
X38862500Y-145950000D03*
%TO.P,U4,4*%
%TO.N,GND*%
X41137500Y-145950000D03*
%TO.P,U4,5*%
%TO.N,VBAT*%
X41137500Y-145000000D03*
%TO.P,U4,6*%
%TO.N,GND*%
X41137500Y-144050000D03*
%TD*%
D12*
%TO.P,SW2,1*%
%TO.N,KEY_R1*%
X11950000Y-92200000D03*
X16050000Y-92200000D03*
%TO.P,SW2,2*%
%TO.N,KEY_D1*%
X11950000Y-93800000D03*
X16050000Y-93800000D03*
%TD*%
D15*
%TO.P,U5,1*%
%TO.N,VBAT*%
X43862500Y-144050000D03*
%TO.P,U5,2*%
%TO.N,GND*%
X43862500Y-145000000D03*
%TO.P,U5,3*%
%TO.N,N/C*%
X43862500Y-145950000D03*
%TO.P,U5,4*%
X46137500Y-145950000D03*
%TO.P,U5,5*%
%TO.N,3V3*%
X46137500Y-144050000D03*
%TD*%
D52*
%TO.P,USB1,A1*%
%TO.N,GND*%
X62320000Y-53200000D03*
%TO.P,USB1,A4*%
%TO.N,VBUS5V*%
X62320000Y-52400000D03*
D53*
%TO.P,USB1,A5*%
%TO.N,USB_CC1*%
X62320000Y-51250000D03*
%TO.P,USB1,A6*%
%TO.N,USB_D+*%
X62320000Y-50250000D03*
%TO.P,USB1,A7*%
%TO.N,USB_D-*%
X62320000Y-49750000D03*
%TO.P,USB1,A8*%
%TO.N,N/C*%
X62320000Y-48750000D03*
D52*
%TO.P,USB1,A9*%
%TO.N,VBUS5V*%
X62320000Y-47600000D03*
%TO.P,USB1,A12*%
%TO.N,GND*%
X62320000Y-46800000D03*
%TO.P,USB1,B1*%
X62320000Y-46800000D03*
%TO.P,USB1,B4*%
%TO.N,VBUS5V*%
X62320000Y-47600000D03*
D53*
%TO.P,USB1,B5*%
%TO.N,USB_CC2*%
X62320000Y-48250000D03*
%TO.P,USB1,B6*%
%TO.N,USB_D+*%
X62320000Y-49250000D03*
%TO.P,USB1,B7*%
%TO.N,USB_D-*%
X62320000Y-50750000D03*
%TO.P,USB1,B8*%
%TO.N,N/C*%
X62320000Y-51750000D03*
D52*
%TO.P,USB1,B9*%
%TO.N,VBUS5V*%
X62320000Y-52400000D03*
%TO.P,USB1,B12*%
%TO.N,GND*%
X62320000Y-53200000D03*
D54*
%TO.P,USB1,SH*%
%TO.N,N/C*%
X62895000Y-54320000D03*
D55*
X67075000Y-54320000D03*
D54*
X62895000Y-45680000D03*
D55*
X67075000Y-45680000D03*
%TD*%
D12*
%TO.P,SW4,1*%
%TO.N,KEY_R1*%
X39950000Y-92200000D03*
X44050000Y-92200000D03*
%TO.P,SW4,2*%
%TO.N,KEY_D3*%
X39950000Y-93800000D03*
X44050000Y-93800000D03*
%TD*%
D51*
%TO.P,D16,1*%
%TO.N,KEY_D15*%
X40350000Y-134500000D03*
%TO.P,D16,2*%
%TO.N,KEY_C3*%
X43650000Y-134500000D03*
%TD*%
%TO.P,D14,1*%
%TO.N,KEY_D13*%
X12350000Y-134500000D03*
%TO.P,D14,2*%
%TO.N,KEY_C1*%
X15650000Y-134500000D03*
%TD*%
%TO.P,D9,1*%
%TO.N,KEY_D8*%
X54350000Y-110500000D03*
%TO.P,D9,2*%
%TO.N,KEY_C4*%
X57650000Y-110500000D03*
%TD*%
%TO.P,D11,1*%
%TO.N,KEY_D10*%
X26350000Y-122500000D03*
%TO.P,D11,2*%
%TO.N,KEY_C2*%
X29650000Y-122500000D03*
%TD*%
%TO.P,D2,1*%
%TO.N,KEY_D1*%
X12350000Y-98500000D03*
%TO.P,D2,2*%
%TO.N,KEY_C1*%
X15650000Y-98500000D03*
%TD*%
%TO.P,D12,1*%
%TO.N,KEY_D11*%
X40350000Y-122500000D03*
%TO.P,D12,2*%
%TO.N,KEY_C3*%
X43650000Y-122500000D03*
%TD*%
%TO.P,D10,1*%
%TO.N,KEY_D9*%
X12350000Y-122500000D03*
%TO.P,D10,2*%
%TO.N,KEY_C1*%
X15650000Y-122500000D03*
%TD*%
%TO.P,D5,1*%
%TO.N,KEY_D4*%
X54350000Y-98500000D03*
%TO.P,D5,2*%
%TO.N,KEY_C4*%
X57650000Y-98500000D03*
%TD*%
%TO.P,D15,1*%
%TO.N,KEY_D14*%
X26350000Y-134500000D03*
%TO.P,D15,2*%
%TO.N,KEY_C2*%
X29650000Y-134500000D03*
%TD*%
%TO.P,D7,1*%
%TO.N,KEY_D6*%
X26350000Y-110500000D03*
%TO.P,D7,2*%
%TO.N,KEY_C2*%
X29650000Y-110500000D03*
%TD*%
%TO.P,D17,1*%
%TO.N,KEY_D16*%
X54350000Y-134500000D03*
%TO.P,D17,2*%
%TO.N,KEY_C4*%
X57650000Y-134500000D03*
%TD*%
%TO.P,D8,1*%
%TO.N,KEY_D7*%
X40350000Y-110500000D03*
%TO.P,D8,2*%
%TO.N,KEY_C3*%
X43650000Y-110500000D03*
%TD*%
%TO.P,D6,1*%
%TO.N,KEY_D5*%
X12350000Y-110500000D03*
%TO.P,D6,2*%
%TO.N,KEY_C1*%
X15650000Y-110500000D03*
%TD*%
D56*
%TO.P,U2,1*%
%TO.N,N/C*%
X62750000Y-90555000D03*
%TO.P,U2,2*%
X62750000Y-91825000D03*
%TO.P,U2,3*%
X62750000Y-93095000D03*
%TO.P,U2,4*%
X62750000Y-94365000D03*
%TO.P,U2,5*%
X62750000Y-95635000D03*
%TO.P,U2,6*%
X62750000Y-96905000D03*
%TO.P,U2,7*%
X62750000Y-98175000D03*
%TO.P,U2,8*%
%TO.N,GND*%
X62750000Y-99445000D03*
%TO.P,U2,9*%
%TO.N,N/C*%
X69250000Y-99445000D03*
%TO.P,U2,10*%
X69250000Y-98175000D03*
%TO.P,U2,11*%
%TO.N,IR_RX*%
X69250000Y-96905000D03*
%TO.P,U2,12*%
%TO.N,N/C*%
X69250000Y-95635000D03*
%TO.P,U2,13*%
X69250000Y-94365000D03*
%TO.P,U2,14*%
X69250000Y-93095000D03*
%TO.P,U2,15*%
X69250000Y-91825000D03*
%TO.P,U2,16*%
%TO.N,3V3*%
X69250000Y-90555000D03*
%TD*%
D51*
%TO.P,D13,1*%
%TO.N,KEY_D12*%
X54350000Y-122500000D03*
%TO.P,D13,2*%
%TO.N,KEY_C4*%
X57650000Y-122500000D03*
%TD*%
%TO.P,D4,1*%
%TO.N,KEY_D3*%
X40350000Y-98500000D03*
%TO.P,D4,2*%
%TO.N,KEY_C3*%
X43650000Y-98500000D03*
%TD*%
%TO.P,D3,1*%
%TO.N,KEY_D2*%
X26350000Y-98500000D03*
%TO.P,D3,2*%
%TO.N,KEY_C2*%
X29650000Y-98500000D03*
%TD*%
D57*
%TO.N,3V3*%
X36525000Y-138589600D03*
X68461100Y-89766000D03*
X65250000Y-11764100D03*
X38348600Y-51928200D03*
X26114900Y-59662100D03*
X58496900Y-79805000D03*
X45344900Y-143254200D03*
X56198100Y-14311900D03*
X60411900Y-67319800D03*
%TO.N,GND*%
X20858300Y-40186100D03*
X48912500Y-68790300D03*
X43475000Y-58589300D03*
X62018800Y-68372100D03*
X38026800Y-39965100D03*
X60712500Y-53200000D03*
%TO.N,CC1101_CS*%
X35495900Y-46317400D03*
%TO.N,SPI_MOSI*%
X8427900Y-66822900D03*
X58474800Y-80905000D03*
%TO.N,SPI_MISO*%
X58489100Y-76270800D03*
X9250000Y-66770600D03*
%TO.N,SPI_SCK*%
X12079900Y-69503800D03*
%TO.N,CC1101_GDO0*%
X35495900Y-52667400D03*
%TO.N,KEY_D6*%
X25950000Y-106822400D03*
%TO.N,KEY_D5*%
X12925600Y-105576100D03*
%TO.N,KEY_R4*%
X24993400Y-128404900D03*
X11950000Y-127183600D03*
%TO.N,KEY_D13*%
X11950000Y-130803600D03*
%TO.N,KEY_D8*%
X54918300Y-106076700D03*
%TO.N,U3_PROG*%
X46192800Y-140926000D03*
X26233800Y-143755700D03*
%TO.N,I2C_SCL*%
X12750000Y-70130000D03*
X23555000Y-59394200D03*
%TO.N,VBUS5V*%
X61240500Y-52200500D03*
X61218700Y-47813100D03*
X40525000Y-58424700D03*
%TO.N,KEY_D12*%
X54911000Y-118009300D03*
%TO.N,BOOST_SW*%
X59400000Y-149091200D03*
X36352000Y-148246800D03*
%TO.N,VBAT*%
X42463600Y-144650800D03*
X33612500Y-149199200D03*
X56600000Y-148770500D03*
X25693200Y-138751800D03*
%TO.N,MODEM_5V*%
X67525000Y-147908500D03*
X57087500Y-141207700D03*
X40322900Y-149399200D03*
%TO.N,KEY_D7*%
X40833400Y-106616800D03*
%TO.N,KEY_D16*%
X54902100Y-130000400D03*
%TO.N,KEY_D14*%
X26672000Y-130803600D03*
%TO.N,LTE_TX*%
X39652700Y-42255800D03*
%TO.N,LTE_RX*%
X38418600Y-42921900D03*
%TO.N,LTE_PWRKEY*%
X38006600Y-44732400D03*
%TO.N,LTE_RI*%
X35478600Y-43619500D03*
%TO.N,KEY_D9*%
X11950000Y-118812300D03*
%TO.N,CAM_D0*%
X60214800Y-14324400D03*
X20501700Y-49700000D03*
%TO.N,CAM_D1*%
X60850400Y-14823400D03*
X20504100Y-50942600D03*
%TO.N,CAM_D4*%
X24825000Y-56237300D03*
X62278600Y-11994000D03*
%TO.N,KEY_D15*%
X40912400Y-130419000D03*
%TO.N,SX1262_RESET*%
X22285000Y-58751900D03*
%TO.N,SX1262_BUSY*%
X31175000Y-58783000D03*
%TO.N,SX1262_DIO1*%
X32445000Y-58763600D03*
%TO.N,SD_CS*%
X11250000Y-69320200D03*
X33715000Y-59065400D03*
%TO.N,KEY_D10*%
X26532900Y-118802900D03*
%TO.N,KEY_D11*%
X40886100Y-118531100D03*
%TO.N,DW01A_OD*%
X37695700Y-146034400D03*
X8862500Y-146244100D03*
%TO.N,KEY_R1*%
X25776200Y-91186600D03*
X39950000Y-91193100D03*
X52970600Y-91972300D03*
%TO.N,KEY_D4*%
X53950000Y-94837700D03*
%TO.N,KEY_D2*%
X25950000Y-94803900D03*
%TO.N,KEY_D1*%
X11950000Y-94832700D03*
%TO.N,KEY_D3*%
X39950000Y-94810900D03*
%TO.N,KEY_C4*%
X58801700Y-110459900D03*
X58801700Y-100792100D03*
%TD*%
%TO.N,3V3*%
D58*
X56250000Y-13150000D02*
X56250000Y-14260000D01*
X25000000Y-63848300D02*
X26114900Y-62733400D01*
X8000000Y-78000000D02*
X8000000Y-76848300D01*
X46137500Y-144050000D02*
X45344900Y-143257400D01*
X25000000Y-65000000D02*
X25000000Y-63848300D01*
D59*
X17995900Y-40782600D02*
X18223300Y-41010000D01*
D58*
X25000000Y-65000000D02*
X25000000Y-78848300D01*
X6616700Y-52161800D02*
X6616700Y-68016700D01*
D59*
X36750000Y-51170000D02*
X37776700Y-51170000D01*
X19250000Y-41010000D02*
X18223300Y-41010000D01*
D58*
X6616700Y-68016700D02*
X6750000Y-68150000D01*
X6827500Y-94607500D02*
X8000000Y-95780000D01*
X25000000Y-78848300D02*
X20000000Y-83848300D01*
X6750000Y-75598300D02*
X6750000Y-68150000D01*
X8000000Y-76848300D02*
X6750000Y-75598300D01*
X69250000Y-90555000D02*
X68461100Y-89766100D01*
X56250000Y-14260000D02*
X56198100Y-14311900D01*
X8000000Y-76848300D02*
X6827500Y-78020800D01*
X8000000Y-110000000D02*
X8000000Y-95780000D01*
X26114900Y-62733400D02*
X26114900Y-59662100D01*
X20000000Y-85000000D02*
X20000000Y-83848300D01*
X36525000Y-140000000D02*
X36525000Y-138589600D01*
X65250000Y-13150000D02*
X65250000Y-11764100D01*
D59*
X38348600Y-51741900D02*
X38348600Y-51928200D01*
D58*
X60411900Y-67319800D02*
X60191700Y-67540000D01*
X68461100Y-89766100D02*
X68461100Y-89766000D01*
D59*
X37776700Y-51170000D02*
X38348600Y-51741900D01*
D58*
X6827500Y-78020800D02*
X6827500Y-94607500D01*
X17995900Y-40782600D02*
X6616700Y-52161800D01*
X59540000Y-67540000D02*
X60191700Y-67540000D01*
X58496900Y-79805000D02*
X59550000Y-79805000D01*
X45344900Y-143257400D02*
X45344900Y-143254200D01*
%TO.N,GND*%
X56750000Y-13150000D02*
X56750000Y-13967700D01*
X37963600Y-148872600D02*
X40635900Y-146200300D01*
X62750000Y-112290000D02*
X68000000Y-117540000D01*
X68912500Y-140000000D02*
X68912500Y-141222300D01*
D59*
X44211700Y-144650800D02*
X43862500Y-145000000D01*
D58*
X39827300Y-144608300D02*
X39435600Y-145000000D01*
X69180900Y-139731600D02*
X69180900Y-118720900D01*
X62710000Y-67540000D02*
X62058300Y-67540000D01*
X39827300Y-141547000D02*
X39827300Y-144050000D01*
X60712500Y-53200000D02*
X62320000Y-53200000D01*
X62058300Y-68332600D02*
X62058300Y-67540000D01*
X8000000Y-112540000D02*
X6827700Y-113712300D01*
X69180900Y-118720900D02*
X68000000Y-117540000D01*
D59*
X9856300Y-148000000D02*
X8862500Y-148000000D01*
D58*
X20625000Y-146403000D02*
X20625000Y-146150000D01*
X19250000Y-39740000D02*
X20301700Y-39740000D01*
X26500000Y-46760000D02*
X26500000Y-47460000D01*
X41137500Y-144050000D02*
X39827300Y-144050000D01*
X27540000Y-80000000D02*
X22540000Y-85000000D01*
X38026800Y-39965100D02*
X38244100Y-39965100D01*
X62529600Y-99445000D02*
X60721000Y-97636400D01*
X41137500Y-144050000D02*
X41742500Y-143445000D01*
X41137500Y-145950000D02*
X40886200Y-145950000D01*
X65750000Y-15968500D02*
X65750000Y-13150000D01*
X37801700Y-39740000D02*
X38026800Y-39965100D01*
X7750000Y-74810500D02*
X9192200Y-76252700D01*
X7750000Y-68150000D02*
X7750000Y-74810500D01*
X60376700Y-77605000D02*
X62018800Y-75962900D01*
X39435600Y-145000000D02*
X40036400Y-145600800D01*
X28160000Y-145000000D02*
X27525000Y-145635000D01*
X41297500Y-56411800D02*
X43475000Y-58589300D01*
X30000000Y-140525000D02*
X30000000Y-145000000D01*
D59*
X10174200Y-147650800D02*
X9856300Y-147650800D01*
D58*
X48748400Y-58711600D02*
X50000000Y-57460000D01*
X65937500Y-30000000D02*
X65750000Y-29812500D01*
X41742500Y-143445000D02*
X44620700Y-143445000D01*
X60721000Y-77949300D02*
X60610900Y-77839200D01*
X9192200Y-79347800D02*
X8000000Y-80540000D01*
X68912500Y-140000000D02*
X69180900Y-139731600D01*
X6827700Y-142740200D02*
X11137500Y-147050000D01*
X62750000Y-99445000D02*
X62529600Y-99445000D01*
D59*
X37963600Y-149650800D02*
X37211700Y-149650800D01*
D58*
X8862500Y-148000000D02*
X8862500Y-148950000D01*
X11137500Y-147350400D02*
X19677600Y-147350400D01*
X60721000Y-97636400D02*
X60721000Y-77949300D01*
X68912500Y-141222300D02*
X70475000Y-142784800D01*
D59*
X60376700Y-77605000D02*
X60610900Y-77839200D01*
D58*
X65430000Y-44050000D02*
X65937500Y-43542500D01*
X56750000Y-13967700D02*
X58750800Y-15968500D01*
X19677600Y-147350400D02*
X20625000Y-146403000D01*
X48912500Y-68790300D02*
X48912500Y-70000000D01*
X48912500Y-68790300D02*
X48748400Y-68626200D01*
X39827300Y-141547000D02*
X47365500Y-141547000D01*
X38862500Y-145000000D02*
X39435600Y-145000000D01*
X11137500Y-147350400D02*
X11137500Y-147650800D01*
X9856300Y-148000000D02*
X9856300Y-147650800D01*
X39475000Y-140000000D02*
X39827300Y-140352300D01*
D59*
X40036400Y-145600800D02*
X40635900Y-146200300D01*
D58*
X41297500Y-43018500D02*
X41297500Y-56411800D01*
X70475000Y-142784800D02*
X70475000Y-150000000D01*
X58912500Y-55000000D02*
X60712500Y-53200000D01*
X20301700Y-39740000D02*
X20747800Y-40186100D01*
D59*
X59550000Y-77605000D02*
X60376700Y-77605000D01*
D58*
X40886200Y-145950000D02*
X40635900Y-146200300D01*
X58750800Y-15968500D02*
X65750000Y-15968500D01*
X62018800Y-75962900D02*
X62018800Y-68372100D01*
X65750000Y-29812500D02*
X65750000Y-15968500D01*
X9192200Y-76252700D02*
X9192200Y-79347800D01*
X36750000Y-39740000D02*
X37801700Y-39740000D01*
X65937500Y-43542500D02*
X65937500Y-30000000D01*
D59*
X44834100Y-144650800D02*
X44211700Y-144650800D01*
D58*
X38244100Y-39965100D02*
X41297500Y-43018500D01*
X44620700Y-143445000D02*
X44834100Y-143658400D01*
X20625000Y-146150000D02*
X21140000Y-145635000D01*
X29475000Y-140000000D02*
X30000000Y-140525000D01*
X47365500Y-141547000D02*
X48912500Y-140000000D01*
X11137500Y-147050000D02*
X11137500Y-147350400D01*
X27540000Y-65000000D02*
X27540000Y-80000000D01*
X11137500Y-147650800D02*
X10174200Y-147650800D01*
X48748400Y-68626200D02*
X48748400Y-58711600D01*
X39827300Y-140352300D02*
X39827300Y-141547000D01*
X37963600Y-149650800D02*
X37963600Y-148872600D01*
D59*
X37211700Y-149650800D02*
X36862500Y-150000000D01*
D58*
X39827300Y-144050000D02*
X39827300Y-144608300D01*
X62018800Y-68372100D02*
X62058300Y-68332600D01*
X6827700Y-113712300D02*
X6827700Y-142740200D01*
X21140000Y-145635000D02*
X27525000Y-145635000D01*
X43475000Y-60000000D02*
X43475000Y-58589300D01*
X26500000Y-48160000D02*
X26500000Y-47460000D01*
X44834100Y-143658400D02*
X44834100Y-144650800D01*
X20747800Y-40186100D02*
X20858300Y-40186100D01*
X30000000Y-145000000D02*
X28160000Y-145000000D01*
X11137500Y-148000000D02*
X11137500Y-147650800D01*
X62750000Y-99445000D02*
X62750000Y-112290000D01*
%TO.N,CC1101_CS*%
D59*
X35723300Y-46090000D02*
X35495900Y-46317400D01*
X36750000Y-46090000D02*
X35723300Y-46090000D01*
%TO.N,SPI_MOSI*%
D58*
X8750000Y-67145000D02*
X8427900Y-66822900D01*
X8750000Y-68150000D02*
X8750000Y-67145000D01*
X58474800Y-80905000D02*
X59550000Y-80905000D01*
%TO.N,SPI_MISO*%
D59*
X59550000Y-76505000D02*
X58723300Y-76505000D01*
D58*
X9250000Y-68150000D02*
X9250000Y-66770600D01*
D59*
X58723300Y-76505000D02*
X58489100Y-76270800D01*
%TO.N,SPI_SCK*%
D58*
X8250000Y-69101700D02*
X9497000Y-70348700D01*
X9593900Y-70348700D02*
X11235000Y-70348700D01*
X8250000Y-68150000D02*
X8250000Y-69101700D01*
X9592400Y-89107600D02*
X8000000Y-90700000D01*
X9592400Y-85651500D02*
X9592400Y-89107600D01*
X9593900Y-70348700D02*
X9593900Y-85650000D01*
X9497000Y-70348700D02*
X9593900Y-70348700D01*
X11235000Y-70348700D02*
X12079900Y-69503800D01*
X9593900Y-85650000D02*
X9592400Y-85651500D01*
%TO.N,CC1101_GDO0*%
D59*
X36750000Y-52440000D02*
X35723300Y-52440000D01*
X35723300Y-52440000D02*
X35495900Y-52667400D01*
%TO.N,KEY_R2*%
D58*
X25950000Y-103398300D02*
X26604300Y-103398300D01*
X25950000Y-104200000D02*
X16050000Y-104200000D01*
X25950000Y-104200000D02*
X25950000Y-103398300D01*
X30050000Y-104200000D02*
X29298300Y-104200000D01*
X58050000Y-104200000D02*
X53950000Y-104200000D01*
X26604300Y-103398300D02*
X26712900Y-103289700D01*
X26712900Y-103289700D02*
X28388000Y-103289700D01*
X28388000Y-103289700D02*
X29298300Y-104200000D01*
X44050000Y-104200000D02*
X39950000Y-104200000D01*
X30050000Y-104200000D02*
X39950000Y-104200000D01*
X16050000Y-104200000D02*
X11950000Y-104200000D01*
%TO.N,KEY_D6*%
X25950000Y-105800000D02*
X30050000Y-105800000D01*
X25950000Y-106822400D02*
X25950000Y-105800000D01*
%TO.N,KEY_D5*%
X16050000Y-105800000D02*
X12701700Y-105800000D01*
X11950000Y-105800000D02*
X12701700Y-105800000D01*
X12925600Y-105576100D02*
X12701700Y-105800000D01*
%TO.N,KEY_R4*%
X58050000Y-128200000D02*
X53950000Y-128200000D01*
X44050000Y-128200000D02*
X39950000Y-128200000D01*
X11950000Y-128200000D02*
X16050000Y-128200000D01*
X44050000Y-128200000D02*
X53950000Y-128200000D01*
X11950000Y-127183600D02*
X11950000Y-128200000D01*
X30050000Y-128200000D02*
X39950000Y-128200000D01*
X25950000Y-128200000D02*
X25198300Y-128200000D01*
X24993400Y-128404900D02*
X25198300Y-128200000D01*
X30050000Y-128200000D02*
X25950000Y-128200000D01*
%TO.N,KEY_D13*%
X11950000Y-130601700D02*
X11950000Y-130803600D01*
X11950000Y-129800000D02*
X11950000Y-130601700D01*
X11950000Y-129800000D02*
X16050000Y-129800000D01*
%TO.N,KEY_D8*%
X54918300Y-106076700D02*
X57021600Y-106076700D01*
X58050000Y-105800000D02*
X57298300Y-105800000D01*
X57021600Y-106076700D02*
X57298300Y-105800000D01*
X53950000Y-105800000D02*
X54701700Y-105800000D01*
X54701700Y-105860100D02*
X54701700Y-105800000D01*
X54918300Y-106076700D02*
X54701700Y-105860100D01*
%TO.N,U3_PROG*%
X47087500Y-140000000D02*
X46192800Y-140894700D01*
X46192800Y-140894700D02*
X46192800Y-140926000D01*
X26915700Y-143755700D02*
X27525000Y-144365000D01*
X26233800Y-143755700D02*
X26915700Y-143755700D01*
%TO.N,I2C_SDA*%
X17995900Y-53937400D02*
X13250000Y-58683300D01*
D59*
X17995900Y-53937400D02*
X18223300Y-53710000D01*
X19250000Y-53710000D02*
X18223300Y-53710000D01*
D58*
X13250000Y-58683300D02*
X13250000Y-68150000D01*
%TO.N,I2C_SCL*%
X12750000Y-70130000D02*
X12750000Y-68150000D01*
X23555000Y-57500000D02*
X23555000Y-59394200D01*
X9994100Y-86018000D02*
X12750000Y-83262100D01*
X9994100Y-115625900D02*
X9994100Y-86018000D01*
X8000000Y-117620000D02*
X9994100Y-115625900D01*
X12750000Y-83262100D02*
X12750000Y-70130000D01*
%TO.N,VBUS5V*%
D59*
X62320000Y-52400000D02*
X62120500Y-52200500D01*
D58*
X40525000Y-60000000D02*
X40525000Y-58424700D01*
D59*
X62120500Y-52200500D02*
X61240500Y-52200500D01*
D58*
X61431800Y-47600000D02*
X61218700Y-47813100D01*
X40000000Y-75000000D02*
X40000000Y-68963400D01*
X40000000Y-68963400D02*
X39034100Y-67997500D01*
X62320000Y-47600000D02*
X61431800Y-47600000D01*
X39034100Y-67997500D02*
X39034100Y-61490900D01*
X39034100Y-61490900D02*
X40525000Y-60000000D01*
%TO.N,KEY_R3*%
X25950000Y-116200000D02*
X16050000Y-116200000D01*
X53950000Y-116200000D02*
X58050000Y-116200000D01*
X44050000Y-116200000D02*
X39950000Y-116200000D01*
X16050000Y-116200000D02*
X11950000Y-116200000D01*
X39950000Y-116200000D02*
X30050000Y-116200000D01*
X30050000Y-116200000D02*
X25950000Y-116200000D01*
%TO.N,KEY_D12*%
X53950000Y-117800000D02*
X54701700Y-117800000D01*
X54911000Y-118009300D02*
X57089000Y-118009300D01*
X58050000Y-117800000D02*
X57298300Y-117800000D01*
X54911000Y-118009300D02*
X54701700Y-117800000D01*
X57089000Y-118009300D02*
X57298300Y-117800000D01*
%TO.N,USB_CC1*%
X61096400Y-51250000D02*
X62320000Y-51250000D01*
X58028200Y-57029900D02*
X58028200Y-54318200D01*
X56422400Y-64026100D02*
X56422400Y-58635700D01*
X58028200Y-54318200D02*
X61096400Y-51250000D01*
X56422400Y-58635700D02*
X58028200Y-57029900D01*
X48133900Y-71046400D02*
X49402100Y-71046400D01*
X49402100Y-71046400D02*
X56422400Y-64026100D01*
X47087500Y-70000000D02*
X48133900Y-71046400D01*
%TO.N,BOOST_SW*%
X61258800Y-149091200D02*
X59400000Y-149091200D01*
X36352000Y-148246800D02*
X36352000Y-148539500D01*
X36352000Y-148539500D02*
X36862500Y-149050000D01*
X62350000Y-148000000D02*
X61258800Y-149091200D01*
X59400000Y-149091200D02*
X59400000Y-151000000D01*
%TO.N,BOOST_FB*%
X47598700Y-151581800D02*
X58912500Y-140268000D01*
X36862500Y-150950000D02*
X37494300Y-151581800D01*
X58912500Y-140268000D02*
X58912500Y-140000000D01*
X37494300Y-151581800D02*
X47598700Y-151581800D01*
X58912500Y-140000000D02*
X67087500Y-140000000D01*
%TO.N,VBAT*%
X25693200Y-138751800D02*
X26525000Y-139583600D01*
X40515500Y-150059400D02*
X42102300Y-148472600D01*
X42000000Y-75000000D02*
X42000000Y-76551700D01*
X48798300Y-56572700D02*
X44050000Y-61321000D01*
X44050000Y-61321000D02*
X44050000Y-71398300D01*
X56600000Y-151000000D02*
X56600000Y-148770500D01*
X25693200Y-138751800D02*
X19375000Y-145070000D01*
X42000000Y-76551700D02*
X48491700Y-83043400D01*
X51460000Y-44583900D02*
X48798300Y-47245600D01*
X39137500Y-150059400D02*
X39137500Y-150950000D01*
X42102300Y-148472600D02*
X42102300Y-145000000D01*
X55602300Y-38293400D02*
X51460000Y-42435700D01*
X59080000Y-5950000D02*
X55541900Y-9488100D01*
D59*
X42463600Y-144650800D02*
X42102300Y-144650800D01*
D58*
X33612500Y-148042500D02*
X33612500Y-149199200D01*
X39137500Y-150059400D02*
X40515500Y-150059400D01*
X48491700Y-83043400D02*
X48491700Y-121031700D01*
X26525000Y-139583600D02*
X26525000Y-140000000D01*
X42102300Y-145000000D02*
X42102300Y-144650800D01*
X51460000Y-42435700D02*
X51460000Y-44583900D01*
X43862500Y-144050000D02*
X43064400Y-144050000D01*
X48798300Y-47245600D02*
X48798300Y-56572700D01*
D59*
X42102300Y-145000000D02*
X41137500Y-145000000D01*
D58*
X32475000Y-146905000D02*
X33612500Y-148042500D01*
X55602300Y-14886000D02*
X55602300Y-38293400D01*
X55541900Y-14825600D02*
X55602300Y-14886000D01*
X44050000Y-71398300D02*
X42000000Y-73448300D01*
X43064400Y-144050000D02*
X42463600Y-144650800D01*
X19375000Y-145070000D02*
X19375000Y-146150000D01*
X48491700Y-121031700D02*
X50000000Y-122540000D01*
X55541900Y-9488100D02*
X55541900Y-14825600D01*
X39137500Y-150000000D02*
X39137500Y-150059400D01*
X42000000Y-75000000D02*
X42000000Y-73448300D01*
%TO.N,MODEM_5V*%
X67525000Y-148000000D02*
X67525000Y-147908500D01*
D59*
X40322900Y-149399200D02*
X39486700Y-149399200D01*
D58*
X65650000Y-148000000D02*
X67525000Y-148000000D01*
X57087500Y-141207700D02*
X57087500Y-140000000D01*
X67525000Y-148000000D02*
X67525000Y-150000000D01*
D59*
X39486700Y-149399200D02*
X39137500Y-149050000D01*
%TO.N,KEY_D7*%
D58*
X40701700Y-106485100D02*
X40701700Y-105800000D01*
X42481500Y-106616800D02*
X43298300Y-105800000D01*
X39950000Y-105800000D02*
X40701700Y-105800000D01*
X40833400Y-106616800D02*
X42481500Y-106616800D01*
X40833400Y-106616800D02*
X40701700Y-106485100D01*
X44050000Y-105800000D02*
X43298300Y-105800000D01*
%TO.N,KEY_D16*%
X54902100Y-130000400D02*
X57097900Y-130000400D01*
X53950000Y-129800000D02*
X54701700Y-129800000D01*
X54902100Y-130000400D02*
X54701700Y-129800000D01*
X58050000Y-129800000D02*
X57298300Y-129800000D01*
X57097900Y-130000400D02*
X57298300Y-129800000D01*
%TO.N,KEY_D14*%
X28294700Y-130803600D02*
X29298300Y-129800000D01*
X26672000Y-130803600D02*
X26470100Y-130601700D01*
X30050000Y-129800000D02*
X29298300Y-129800000D01*
X25950000Y-129800000D02*
X25950000Y-130601700D01*
X26470100Y-130601700D02*
X25950000Y-130601700D01*
X26672000Y-130803600D02*
X28294700Y-130803600D01*
%TO.N,LTE_TX*%
D59*
X39022500Y-42255800D02*
X39652700Y-42255800D01*
X36750000Y-41010000D02*
X37776700Y-41010000D01*
X37776700Y-41010000D02*
X39022500Y-42255800D01*
%TO.N,LTE_RX*%
X37776700Y-42280000D02*
X38418600Y-42921900D01*
X36750000Y-42280000D02*
X37776700Y-42280000D01*
%TO.N,LTE_PWRKEY*%
D58*
X38006600Y-44732400D02*
X37889300Y-44732400D01*
X36750000Y-44820000D02*
X37801700Y-44820000D01*
X37889300Y-44732400D02*
X37801700Y-44820000D01*
%TO.N,LTE_RI*%
D59*
X35548100Y-43550000D02*
X35478600Y-43619500D01*
X35723300Y-43550000D02*
X35548100Y-43550000D01*
X36750000Y-43550000D02*
X35723300Y-43550000D01*
%TO.N,KEY_D9*%
D58*
X11950000Y-118812300D02*
X11950000Y-117800000D01*
X11950000Y-117800000D02*
X16050000Y-117800000D01*
%TO.N,CAM_D0*%
X60250000Y-14289200D02*
X60214800Y-14324400D01*
X20501700Y-49700000D02*
X20301700Y-49900000D01*
X19250000Y-49900000D02*
X20301700Y-49900000D01*
X60250000Y-13150000D02*
X60250000Y-14289200D01*
%TO.N,CAM_D1*%
X60750000Y-13150000D02*
X60750000Y-13977700D01*
D59*
X20504100Y-50942600D02*
X20276700Y-51170000D01*
D58*
X60750000Y-13977700D02*
X60850400Y-14078100D01*
X60850400Y-14078100D02*
X60850400Y-14823400D01*
D59*
X19250000Y-51170000D02*
X20276700Y-51170000D01*
%TO.N,CAM_D4*%
D58*
X24825000Y-56237300D02*
X24825000Y-57500000D01*
X62250000Y-13150000D02*
X62250000Y-12022600D01*
X62250000Y-12022600D02*
X62278600Y-11994000D01*
%TO.N,KEY_D15*%
X44050000Y-129800000D02*
X43298300Y-129800000D01*
X40701700Y-130208300D02*
X40701700Y-129800000D01*
X40912400Y-130419000D02*
X42679300Y-130419000D01*
X40912400Y-130419000D02*
X40701700Y-130208300D01*
X39950000Y-129800000D02*
X40701700Y-129800000D01*
X42679300Y-130419000D02*
X43298300Y-129800000D01*
%TO.N,USB_D-*%
D59*
X62270500Y-50700500D02*
X62320000Y-50750000D01*
D58*
X61697400Y-49750000D02*
X61414200Y-50033200D01*
X62320000Y-49750000D02*
X61697400Y-49750000D01*
D59*
X61414200Y-50700500D02*
X62270500Y-50700500D01*
D58*
X61414200Y-50033200D02*
X61414200Y-50700500D01*
%TO.N,USB_D+*%
X63219500Y-50000300D02*
X63219500Y-49299500D01*
D59*
X63219500Y-49299500D02*
X62369500Y-49299500D01*
D58*
X62320000Y-50250000D02*
X62969800Y-50250000D01*
X62969800Y-50250000D02*
X63219500Y-50000300D01*
D59*
X62369500Y-49299500D02*
X62320000Y-49250000D01*
%TO.N,SX1262_RESET*%
D58*
X22285000Y-58751900D02*
X22285000Y-57500000D01*
%TO.N,SX1262_BUSY*%
X31175000Y-57500000D02*
X31175000Y-58783000D01*
%TO.N,SX1262_DIO1*%
X32445000Y-57500000D02*
X32445000Y-58763600D01*
%TO.N,SD_CS*%
X33715000Y-57500000D02*
X33715000Y-59065400D01*
X11250000Y-68150000D02*
X11250000Y-69320200D01*
%TO.N,SX1262_CS*%
X37801700Y-64898300D02*
X37700000Y-65000000D01*
X37801700Y-53710000D02*
X37801700Y-64898300D01*
X36750000Y-53710000D02*
X37801700Y-53710000D01*
%TO.N,KEY_D10*%
X28295400Y-118802900D02*
X29298300Y-117800000D01*
X26532900Y-118802900D02*
X28295400Y-118802900D01*
X26331700Y-118601700D02*
X25950000Y-118601700D01*
X30050000Y-117800000D02*
X29298300Y-117800000D01*
X26532900Y-118802900D02*
X26331700Y-118601700D01*
X25950000Y-117800000D02*
X25950000Y-118601700D01*
%TO.N,KEY_D11*%
X44050000Y-117800000D02*
X43298300Y-117800000D01*
X42567200Y-118531100D02*
X43298300Y-117800000D01*
X40701700Y-118346700D02*
X40701700Y-117800000D01*
X39950000Y-117800000D02*
X40701700Y-117800000D01*
X40886100Y-118531100D02*
X40701700Y-118346700D01*
X40886100Y-118531100D02*
X42567200Y-118531100D01*
%TO.N,USB_CC2*%
X62320000Y-48250000D02*
X61654300Y-48250000D01*
X61654300Y-48250000D02*
X57087500Y-52816800D01*
X57087500Y-52816800D02*
X57087500Y-55000000D01*
%TO.N,DW01A_OD*%
D59*
X38453600Y-144050000D02*
X37695700Y-144807900D01*
X38862500Y-144050000D02*
X38453600Y-144050000D01*
X37695700Y-144807900D02*
X37695700Y-146034400D01*
D58*
X8862500Y-146244100D02*
X8862500Y-147050000D01*
%TO.N,KEY_R1*%
X39950000Y-91193100D02*
X39950000Y-92200000D01*
X53950000Y-92200000D02*
X53198300Y-92200000D01*
X16050000Y-92200000D02*
X16801700Y-92200000D01*
X17815100Y-91186600D02*
X16801700Y-92200000D01*
X25776200Y-91186600D02*
X25950000Y-91360400D01*
X52970600Y-91972300D02*
X53198300Y-92200000D01*
X30050000Y-92200000D02*
X25950000Y-92200000D01*
X25950000Y-91360400D02*
X25950000Y-92200000D01*
X53950000Y-92200000D02*
X58050000Y-92200000D01*
X25776200Y-91186600D02*
X17815100Y-91186600D01*
X16050000Y-92200000D02*
X11950000Y-92200000D01*
X44050000Y-92200000D02*
X39950000Y-92200000D01*
%TO.N,KEY_D4*%
X53950000Y-93800000D02*
X58050000Y-93800000D01*
X53950000Y-94837700D02*
X53950000Y-93800000D01*
%TO.N,KEY_D2*%
X25950000Y-94803900D02*
X25950000Y-93800000D01*
X25950000Y-93800000D02*
X30050000Y-93800000D01*
%TO.N,KEY_D1*%
X11950000Y-93800000D02*
X16050000Y-93800000D01*
X11950000Y-94832700D02*
X11950000Y-93800000D01*
%TO.N,KEY_D3*%
X39950000Y-93800000D02*
X44050000Y-93800000D01*
X39950000Y-94810900D02*
X39950000Y-93800000D01*
%TO.N,KEY_C4*%
X58801700Y-110459900D02*
X58801700Y-100792100D01*
%TD*%
M02*
