%TF.GenerationSoftware,KiCad,Pcbnew,10.0.6*%
%TF.CreationDate,2026-09-13T19:24:56-05:00*%
%TF.ProjectId,owasso1,6f776173-736f-4312-9e6b-696361645f70,rev?*%
%TF.SameCoordinates,Original*%
%TF.FileFunction,Soldermask,Top*%
%TF.FilePolarity,Negative*%
%FSLAX46Y46*%
G04 Gerber Fmt 4.6, Leading zero omitted, Abs format (unit mm)*
G04 Created by KiCad (PCBNEW 10.0.6) date 2026-09-13 19:24:56*
%MOMM*%
%LPD*%
G01*
G04 APERTURE LIST*
G04 Aperture macros list*
%AMRoundRect*
0 Rectangle with rounded corners*
0 $1 Rounding radius*
0 $2 $3 $4 $5 $6 $7 $8 $9 X,Y pos of 4 corners*
0 Add a 4 corners polygon primitive as box body*
4,1,4,$2,$3,$4,$5,$6,$7,$8,$9,$2,$3,0*
0 Add four circle primitives for the rounded corners*
1,1,$1+$1,$2,$3*
1,1,$1+$1,$4,$5*
1,1,$1+$1,$6,$7*
1,1,$1+$1,$8,$9*
0 Add four rect primitives between the rounded corners*
20,1,$1+$1,$2,$3,$4,$5,0*
20,1,$1+$1,$4,$5,$6,$7,0*
20,1,$1+$1,$6,$7,$8,$9,0*
20,1,$1+$1,$8,$9,$2,$3,0*%
G04 Aperture macros list end*
%ADD10R,1.700000X1.700000*%
%ADD11C,1.700000*%
%ADD12C,2.200000*%
%ADD13R,0.900000X1.000000*%
%ADD14RoundRect,0.250000X-0.262500X-0.450000X0.262500X-0.450000X0.262500X0.450000X-0.262500X0.450000X0*%
%ADD15RoundRect,0.250000X-0.325000X-0.650000X0.325000X-0.650000X0.325000X0.650000X-0.325000X0.650000X0*%
%ADD16RoundRect,0.150000X-0.512500X-0.150000X0.512500X-0.150000X0.512500X0.150000X-0.512500X0.150000X0*%
%ADD17O,2.200000X3.500000*%
%ADD18R,1.500000X2.500000*%
%ADD19O,1.500000X2.500000*%
%ADD20R,1.800000X1.800000*%
%ADD21C,1.800000*%
%ADD22RoundRect,0.150000X-0.150000X-0.700000X0.150000X-0.700000X0.150000X0.700000X-0.150000X0.700000X0*%
%ADD23RoundRect,0.250000X-0.250000X-1.100000X0.250000X-1.100000X0.250000X1.100000X-0.250000X1.100000X0*%
%ADD24R,0.300000X1.300000*%
%ADD25R,1.800000X2.200000*%
%ADD26R,1.500000X0.900000*%
%ADD27R,0.900000X1.500000*%
%ADD28C,0.600000*%
%ADD29R,3.900000X3.900000*%
%ADD30R,1.100000X0.850000*%
%ADD31R,1.100000X0.750000*%
%ADD32R,1.000000X1.200000*%
%ADD33R,1.350000X1.550000*%
%ADD34R,1.350000X1.900000*%
%ADD35R,1.800000X1.170000*%
%ADD36R,0.700000X0.900000*%
%ADD37R,0.700000X0.700000*%
%ADD38R,0.650000X1.200000*%
%ADD39R,2.900000X0.450000*%
%ADD40R,1.900000X0.450000*%
%ADD41R,2.400000X0.450000*%
%ADD42R,0.500000X1.400000*%
%ADD43R,0.600000X0.300000*%
%ADD44R,0.700000X0.750000*%
%ADD45RoundRect,0.243750X-0.243750X-0.456250X0.243750X-0.456250X0.243750X0.456250X-0.243750X0.456250X0*%
%ADD46R,1.000000X1.000000*%
%ADD47C,1.000000*%
%ADD48RoundRect,0.250200X0.649800X-0.649800X0.649800X0.649800X-0.649800X0.649800X-0.649800X-0.649800X0*%
%ADD49RoundRect,0.250000X-0.375000X-1.075000X0.375000X-1.075000X0.375000X1.075000X-0.375000X1.075000X0*%
%ADD50RoundRect,0.150000X-0.825000X-0.150000X0.825000X-0.150000X0.825000X0.150000X-0.825000X0.150000X0*%
%ADD51R,2.300000X2.300000*%
%ADD52RoundRect,0.225000X-0.225000X-0.375000X0.225000X-0.375000X0.225000X0.375000X-0.225000X0.375000X0*%
%ADD53C,0.650000*%
%ADD54RoundRect,0.150000X0.425000X-0.150000X0.425000X0.150000X-0.425000X0.150000X-0.425000X-0.150000X0*%
%ADD55RoundRect,0.075000X0.500000X-0.075000X0.500000X0.075000X-0.500000X0.075000X-0.500000X-0.075000X0*%
%ADD56O,2.100000X1.000000*%
%ADD57O,1.800000X1.000000*%
%ADD58RoundRect,0.137500X-0.662500X-0.137500X0.662500X-0.137500X0.662500X0.137500X-0.662500X0.137500X0*%
G04 APERTURE END LIST*
D10*
%TO.C,J2*%
X8000000Y-78000000D03*
D11*
X8000000Y-80540000D03*
X8000000Y-83080000D03*
X8000000Y-85620000D03*
X8000000Y-88160000D03*
X8000000Y-90700000D03*
X8000000Y-93240000D03*
X8000000Y-95780000D03*
%TD*%
D12*
%TO.C,H1*%
X6000000Y-6000000D03*
%TD*%
D13*
%TO.C,SW7*%
X25950000Y-104200000D03*
X30050000Y-104200000D03*
X25950000Y-105800000D03*
X30050000Y-105800000D03*
%TD*%
%TO.C,SW6*%
X11950000Y-104200000D03*
X16050000Y-104200000D03*
X11950000Y-105800000D03*
X16050000Y-105800000D03*
%TD*%
%TO.C,SW14*%
X11950000Y-128200000D03*
X16050000Y-128200000D03*
X11950000Y-129800000D03*
X16050000Y-129800000D03*
%TD*%
%TO.C,SW9*%
X53950000Y-104200000D03*
X58050000Y-104200000D03*
X53950000Y-105800000D03*
X58050000Y-105800000D03*
%TD*%
D14*
%TO.C,R1*%
X47087500Y-140000000D03*
X48912500Y-140000000D03*
%TD*%
D10*
%TO.C,J4*%
X8000000Y-110000000D03*
D11*
X8000000Y-112540000D03*
X8000000Y-115080000D03*
X8000000Y-117620000D03*
%TD*%
D12*
%TO.C,H2*%
X70000000Y-6000000D03*
%TD*%
D15*
%TO.C,C4*%
X40525000Y-60000000D03*
X43475000Y-60000000D03*
%TD*%
D13*
%TO.C,SW13*%
X53950000Y-116200000D03*
X58050000Y-116200000D03*
X53950000Y-117800000D03*
X58050000Y-117800000D03*
%TD*%
D14*
%TO.C,R4*%
X47087500Y-70000000D03*
X48912500Y-70000000D03*
%TD*%
D16*
%TO.C,U8*%
X36862500Y-149050000D03*
X36862500Y-150000000D03*
X36862500Y-150950000D03*
X39137500Y-150950000D03*
X39137500Y-150000000D03*
X39137500Y-149050000D03*
%TD*%
D13*
%TO.C,SW8*%
X39950000Y-104200000D03*
X44050000Y-104200000D03*
X39950000Y-105800000D03*
X44050000Y-105800000D03*
%TD*%
%TO.C,SW17*%
X53950000Y-128200000D03*
X58050000Y-128200000D03*
X53950000Y-129800000D03*
X58050000Y-129800000D03*
%TD*%
D17*
%TO.C,SW1*%
X37900000Y-75000000D03*
X46100000Y-75000000D03*
D18*
X40000000Y-75000000D03*
D19*
X42000000Y-75000000D03*
X44000000Y-75000000D03*
%TD*%
D13*
%TO.C,SW15*%
X25950000Y-128200000D03*
X30050000Y-128200000D03*
X25950000Y-129800000D03*
X30050000Y-129800000D03*
%TD*%
D20*
%TO.C,J1*%
X40030000Y-44050000D03*
D21*
X42570000Y-44050000D03*
X45110000Y-44050000D03*
X47650000Y-44050000D03*
X50190000Y-44050000D03*
X52730000Y-44050000D03*
X55270000Y-44050000D03*
X57810000Y-44050000D03*
X60350000Y-44050000D03*
X62890000Y-44050000D03*
X65430000Y-44050000D03*
X67970000Y-44050000D03*
D20*
X41300000Y-5950000D03*
D21*
X43840000Y-5950000D03*
X46380000Y-5950000D03*
X48920000Y-5950000D03*
X51460000Y-5950000D03*
X54000000Y-5950000D03*
X56540000Y-5950000D03*
X59080000Y-5950000D03*
X61620000Y-5950000D03*
X64160000Y-5950000D03*
X66700000Y-5950000D03*
%TD*%
D15*
%TO.C,C2*%
X26525000Y-140000000D03*
X29475000Y-140000000D03*
%TD*%
D10*
%TO.C,J5*%
X68000000Y-115000000D03*
D11*
X68000000Y-117540000D03*
X68000000Y-120080000D03*
X68000000Y-122620000D03*
X68000000Y-125160000D03*
%TD*%
D15*
%TO.C,C3*%
X36525000Y-140000000D03*
X39475000Y-140000000D03*
%TD*%
D22*
%TO.C,J13*%
X19375000Y-146150000D03*
X20625000Y-146150000D03*
D23*
X17525000Y-149350000D03*
X22475000Y-149350000D03*
%TD*%
D13*
%TO.C,SW10*%
X11950000Y-116200000D03*
X16050000Y-116200000D03*
X11950000Y-117800000D03*
X16050000Y-117800000D03*
%TD*%
D24*
%TO.C,J8*%
X56250000Y-13150000D03*
X56750000Y-13150000D03*
X57250000Y-13150000D03*
X57750000Y-13150000D03*
X58250000Y-13150000D03*
X58750000Y-13150000D03*
X59250000Y-13150000D03*
X59750000Y-13150000D03*
X60250000Y-13150000D03*
X60750000Y-13150000D03*
X61250000Y-13150000D03*
X61750000Y-13150000D03*
X62250000Y-13150000D03*
X62750000Y-13150000D03*
X63250000Y-13150000D03*
X63750000Y-13150000D03*
X64250000Y-13150000D03*
X64750000Y-13150000D03*
X65250000Y-13150000D03*
X65750000Y-13150000D03*
X66250000Y-13150000D03*
X66750000Y-13150000D03*
X67250000Y-13150000D03*
X67750000Y-13150000D03*
D25*
X54350000Y-16400000D03*
X69650000Y-16400000D03*
%TD*%
D13*
%TO.C,SW16*%
X39950000Y-128200000D03*
X44050000Y-128200000D03*
X39950000Y-129800000D03*
X44050000Y-129800000D03*
%TD*%
D14*
%TO.C,R2*%
X57087500Y-140000000D03*
X58912500Y-140000000D03*
%TD*%
D26*
%TO.C,U1*%
X19250000Y-39740000D03*
X19250000Y-41010000D03*
X19250000Y-42280000D03*
X19250000Y-43550000D03*
X19250000Y-44820000D03*
X19250000Y-46090000D03*
X19250000Y-47360000D03*
X19250000Y-48630000D03*
X19250000Y-49900000D03*
X19250000Y-51170000D03*
X19250000Y-52440000D03*
X19250000Y-53710000D03*
X19250000Y-54980000D03*
X19250000Y-56250000D03*
D27*
X21015000Y-57500000D03*
X22285000Y-57500000D03*
X23555000Y-57500000D03*
X24825000Y-57500000D03*
X26095000Y-57500000D03*
X27365000Y-57500000D03*
X28635000Y-57500000D03*
X29905000Y-57500000D03*
X31175000Y-57500000D03*
X32445000Y-57500000D03*
X33715000Y-57500000D03*
X34985000Y-57500000D03*
D26*
X36750000Y-56250000D03*
X36750000Y-54980000D03*
X36750000Y-53710000D03*
X36750000Y-52440000D03*
X36750000Y-51170000D03*
X36750000Y-49900000D03*
X36750000Y-48630000D03*
X36750000Y-47360000D03*
X36750000Y-46090000D03*
X36750000Y-44820000D03*
X36750000Y-43550000D03*
X36750000Y-42280000D03*
X36750000Y-41010000D03*
X36750000Y-39740000D03*
D28*
X25100000Y-46760000D03*
X25100000Y-48160000D03*
X25800000Y-46060000D03*
X25800000Y-47460000D03*
X25800000Y-48860000D03*
X26500000Y-46760000D03*
D29*
X26500000Y-47460000D03*
D28*
X26500000Y-48160000D03*
X27200000Y-46060000D03*
X27200000Y-47460000D03*
X27200000Y-48860000D03*
X27900000Y-46760000D03*
X27900000Y-48160000D03*
%TD*%
D12*
%TO.C,H4*%
X70000000Y-154000000D03*
%TD*%
D13*
%TO.C,SW11*%
X25950000Y-116200000D03*
X30050000Y-116200000D03*
X25950000Y-117800000D03*
X30050000Y-117800000D03*
%TD*%
%TO.C,SW12*%
X39950000Y-116200000D03*
X44050000Y-116200000D03*
X39950000Y-117800000D03*
X44050000Y-117800000D03*
%TD*%
D30*
%TO.C,J9*%
X59550000Y-83105000D03*
X59550000Y-82005000D03*
X59550000Y-80905000D03*
X59550000Y-79805000D03*
X59550000Y-78705000D03*
X59550000Y-77605000D03*
X59550000Y-76505000D03*
D31*
X59550000Y-75455000D03*
D32*
X65700000Y-85740000D03*
X69400000Y-85740000D03*
D33*
X59675000Y-85565000D03*
D34*
X70375000Y-82240000D03*
X70375000Y-76270000D03*
D35*
X59900000Y-74245000D03*
%TD*%
D14*
%TO.C,R3*%
X67087500Y-140000000D03*
X68912500Y-140000000D03*
%TD*%
D36*
%TO.C,J10*%
X59540000Y-67540000D03*
X59540000Y-65000000D03*
X59540000Y-62460000D03*
X62710000Y-67540000D03*
X62710000Y-65000000D03*
X62710000Y-62460000D03*
D37*
X66040000Y-60730000D03*
D38*
X69715000Y-64450000D03*
D39*
X58840000Y-71555000D03*
D40*
X63690000Y-71555000D03*
D41*
X68840000Y-71555000D03*
D42*
X70790000Y-67200000D03*
D43*
X57690000Y-66220000D03*
X57690000Y-63780000D03*
D42*
X70790000Y-62780000D03*
D44*
X67840000Y-60905000D03*
D39*
X58840000Y-60405000D03*
D40*
X63690000Y-60405000D03*
%TD*%
D45*
%TO.C,D1*%
X64062500Y-30000000D03*
X65937500Y-30000000D03*
%TD*%
D10*
%TO.C,J6*%
X20000000Y-85000000D03*
D11*
X22540000Y-85000000D03*
X25080000Y-85000000D03*
X27620000Y-85000000D03*
X30160000Y-85000000D03*
%TD*%
D46*
%TO.C,U6*%
X50000000Y-120000000D03*
D47*
X50000000Y-121270000D03*
X50000000Y-122540000D03*
X50000000Y-123810000D03*
%TD*%
D14*
%TO.C,R5*%
X57087500Y-55000000D03*
X58912500Y-55000000D03*
%TD*%
D48*
%TO.C,U7*%
X50000000Y-60000000D03*
D21*
X50000000Y-57460000D03*
X50000000Y-54920000D03*
%TD*%
D12*
%TO.C,H3*%
X6000000Y-154000000D03*
%TD*%
D16*
%TO.C,Q1*%
X8862500Y-147050000D03*
X8862500Y-148000000D03*
X8862500Y-148950000D03*
X11137500Y-148950000D03*
X11137500Y-148000000D03*
X11137500Y-147050000D03*
%TD*%
D13*
%TO.C,SW5*%
X53950000Y-92200000D03*
X58050000Y-92200000D03*
X53950000Y-93800000D03*
X58050000Y-93800000D03*
%TD*%
D49*
%TO.C,L1*%
X56600000Y-151000000D03*
X59400000Y-151000000D03*
%TD*%
D15*
%TO.C,C1*%
X67525000Y-150000000D03*
X70475000Y-150000000D03*
%TD*%
D10*
%TO.C,J3*%
X25000000Y-65000000D03*
D11*
X27540000Y-65000000D03*
X30080000Y-65000000D03*
X32620000Y-65000000D03*
X35160000Y-65000000D03*
X37700000Y-65000000D03*
X40240000Y-65000000D03*
X42780000Y-65000000D03*
X45320000Y-65000000D03*
%TD*%
D13*
%TO.C,SW3*%
X25950000Y-92200000D03*
X30050000Y-92200000D03*
X25950000Y-93800000D03*
X30050000Y-93800000D03*
%TD*%
D50*
%TO.C,U3*%
X27525000Y-143095000D03*
X27525000Y-144365000D03*
X27525000Y-145635000D03*
X27525000Y-146905000D03*
X32475000Y-146905000D03*
X32475000Y-145635000D03*
X32475000Y-144365000D03*
X32475000Y-143095000D03*
D51*
X30000000Y-145000000D03*
%TD*%
D24*
%TO.C,J7*%
X6750000Y-68150000D03*
X7250000Y-68150000D03*
X7750000Y-68150000D03*
X8250000Y-68150000D03*
X8750000Y-68150000D03*
X9250000Y-68150000D03*
X9750000Y-68150000D03*
X10250000Y-68150000D03*
X10750000Y-68150000D03*
X11250000Y-68150000D03*
X11750000Y-68150000D03*
X12250000Y-68150000D03*
X12750000Y-68150000D03*
X13250000Y-68150000D03*
X13750000Y-68150000D03*
X14250000Y-68150000D03*
X14750000Y-68150000D03*
X15250000Y-68150000D03*
D25*
X4850000Y-71400000D03*
X17150000Y-71400000D03*
%TD*%
D52*
%TO.C,D18*%
X62350000Y-148000000D03*
X65650000Y-148000000D03*
%TD*%
D16*
%TO.C,U4*%
X38862500Y-144050000D03*
X38862500Y-145000000D03*
X38862500Y-145950000D03*
X41137500Y-145950000D03*
X41137500Y-145000000D03*
X41137500Y-144050000D03*
%TD*%
D13*
%TO.C,SW2*%
X11950000Y-92200000D03*
X16050000Y-92200000D03*
X11950000Y-93800000D03*
X16050000Y-93800000D03*
%TD*%
D16*
%TO.C,U5*%
X43862500Y-144050000D03*
X43862500Y-145000000D03*
X43862500Y-145950000D03*
X46137500Y-145950000D03*
X46137500Y-144050000D03*
%TD*%
D53*
%TO.C,USB1*%
X63395000Y-52890000D03*
X63395000Y-47110000D03*
D54*
X62320000Y-53200000D03*
X62320000Y-52400000D03*
D55*
X62320000Y-51250000D03*
X62320000Y-50250000D03*
X62320000Y-49750000D03*
X62320000Y-48750000D03*
D54*
X62320000Y-47600000D03*
X62320000Y-46800000D03*
X62320000Y-46800000D03*
X62320000Y-47600000D03*
D55*
X62320000Y-48250000D03*
X62320000Y-49250000D03*
X62320000Y-50750000D03*
X62320000Y-51750000D03*
D54*
X62320000Y-52400000D03*
X62320000Y-53200000D03*
D56*
X62895000Y-54320000D03*
D57*
X67075000Y-54320000D03*
D56*
X62895000Y-45680000D03*
D57*
X67075000Y-45680000D03*
%TD*%
D13*
%TO.C,SW4*%
X39950000Y-92200000D03*
X44050000Y-92200000D03*
X39950000Y-93800000D03*
X44050000Y-93800000D03*
%TD*%
D52*
%TO.C,D16*%
X40350000Y-134500000D03*
X43650000Y-134500000D03*
%TD*%
%TO.C,D14*%
X12350000Y-134500000D03*
X15650000Y-134500000D03*
%TD*%
%TO.C,D9*%
X54350000Y-110500000D03*
X57650000Y-110500000D03*
%TD*%
%TO.C,D11*%
X26350000Y-122500000D03*
X29650000Y-122500000D03*
%TD*%
%TO.C,D2*%
X12350000Y-98500000D03*
X15650000Y-98500000D03*
%TD*%
%TO.C,D12*%
X40350000Y-122500000D03*
X43650000Y-122500000D03*
%TD*%
%TO.C,D10*%
X12350000Y-122500000D03*
X15650000Y-122500000D03*
%TD*%
%TO.C,D5*%
X54350000Y-98500000D03*
X57650000Y-98500000D03*
%TD*%
%TO.C,D15*%
X26350000Y-134500000D03*
X29650000Y-134500000D03*
%TD*%
%TO.C,D7*%
X26350000Y-110500000D03*
X29650000Y-110500000D03*
%TD*%
%TO.C,D17*%
X54350000Y-134500000D03*
X57650000Y-134500000D03*
%TD*%
%TO.C,D8*%
X40350000Y-110500000D03*
X43650000Y-110500000D03*
%TD*%
%TO.C,D6*%
X12350000Y-110500000D03*
X15650000Y-110500000D03*
%TD*%
D58*
%TO.C,U2*%
X62750000Y-90555000D03*
X62750000Y-91825000D03*
X62750000Y-93095000D03*
X62750000Y-94365000D03*
X62750000Y-95635000D03*
X62750000Y-96905000D03*
X62750000Y-98175000D03*
X62750000Y-99445000D03*
X69250000Y-99445000D03*
X69250000Y-98175000D03*
X69250000Y-96905000D03*
X69250000Y-95635000D03*
X69250000Y-94365000D03*
X69250000Y-93095000D03*
X69250000Y-91825000D03*
X69250000Y-90555000D03*
%TD*%
D52*
%TO.C,D13*%
X54350000Y-122500000D03*
X57650000Y-122500000D03*
%TD*%
%TO.C,D4*%
X40350000Y-98500000D03*
X43650000Y-98500000D03*
%TD*%
%TO.C,D3*%
X26350000Y-98500000D03*
X29650000Y-98500000D03*
%TD*%
M02*
