%TF.GenerationSoftware,KiCad,Pcbnew,10.0.6*%
%TF.CreationDate,2026-09-13T19:24:56-05:00*%
%TF.ProjectId,owasso1,6f776173-736f-4312-9e6b-696361645f70,rev?*%
%TF.SameCoordinates,Original*%
%TF.FileFunction,Copper,L2,Bot*%
%TF.FilePolarity,Positive*%
%FSLAX46Y46*%
G04 Gerber Fmt 4.6, Leading zero omitted, Abs format (unit mm)*
G04 Created by KiCad (PCBNEW 10.0.6) date 2026-09-13 19:24:56*
%MOMM*%
%LPD*%
G01*
G04 APERTURE LIST*
G04 Aperture macros list*
%AMRoundRect*
0 Rectangle with rounded corners*
0 $1 Rounding radius*
0 $2 $3 $4 $5 $6 $7 $8 $9 X,Y pos of 4 corners*
0 Add a 4 corners polygon primitive as box body*
4,1,4,$2,$3,$4,$5,$6,$7,$8,$9,$2,$3,0*
0 Add four circle primitives for the rounded corners*
1,1,$1+$1,$2,$3*
1,1,$1+$1,$4,$5*
1,1,$1+$1,$6,$7*
1,1,$1+$1,$8,$9*
0 Add four rect primitives between the rounded corners*
20,1,$1+$1,$2,$3,$4,$5,0*
20,1,$1+$1,$4,$5,$6,$7,0*
20,1,$1+$1,$6,$7,$8,$9,0*
20,1,$1+$1,$8,$9,$2,$3,0*%
G04 Aperture macros list end*
%TA.AperFunction,ComponentPad*%
%ADD10R,1.700000X1.700000*%
%TD*%
%TA.AperFunction,ComponentPad*%
%ADD11C,1.700000*%
%TD*%
%TA.AperFunction,ComponentPad*%
%ADD12O,2.200000X3.500000*%
%TD*%
%TA.AperFunction,ComponentPad*%
%ADD13R,1.500000X2.500000*%
%TD*%
%TA.AperFunction,ComponentPad*%
%ADD14O,1.500000X2.500000*%
%TD*%
%TA.AperFunction,ComponentPad*%
%ADD15R,1.800000X1.800000*%
%TD*%
%TA.AperFunction,ComponentPad*%
%ADD16C,1.800000*%
%TD*%
%TA.AperFunction,HeatsinkPad*%
%ADD17C,0.600000*%
%TD*%
%TA.AperFunction,ComponentPad*%
%ADD18R,1.000000X1.000000*%
%TD*%
%TA.AperFunction,ComponentPad*%
%ADD19C,1.000000*%
%TD*%
%TA.AperFunction,ComponentPad*%
%ADD20RoundRect,0.250200X0.649800X-0.649800X0.649800X0.649800X-0.649800X0.649800X-0.649800X-0.649800X0*%
%TD*%
%TA.AperFunction,ComponentPad*%
%ADD21O,2.100000X1.000000*%
%TD*%
%TA.AperFunction,ComponentPad*%
%ADD22O,1.800000X1.000000*%
%TD*%
%TA.AperFunction,ViaPad*%
%ADD23C,0.600000*%
%TD*%
%TA.AperFunction,Conductor*%
%ADD24C,0.200000*%
%TD*%
G04 APERTURE END LIST*
D10*
%TO.P,J2,1*%
%TO.N,3V3*%
X8000000Y-78000000D03*
D11*
%TO.P,J2,2*%
%TO.N,GND*%
X8000000Y-80540000D03*
%TO.P,J2,3*%
%TO.N,CC1101_CS*%
X8000000Y-83080000D03*
%TO.P,J2,4*%
%TO.N,SPI_MOSI*%
X8000000Y-85620000D03*
%TO.P,J2,5*%
%TO.N,SPI_MISO*%
X8000000Y-88160000D03*
%TO.P,J2,6*%
%TO.N,SPI_SCK*%
X8000000Y-90700000D03*
%TO.P,J2,7*%
%TO.N,CC1101_GDO0*%
X8000000Y-93240000D03*
%TO.P,J2,8*%
%TO.N,3V3*%
X8000000Y-95780000D03*
%TD*%
D10*
%TO.P,J4,1*%
%TO.N,3V3*%
X8000000Y-110000000D03*
D11*
%TO.P,J4,2*%
%TO.N,GND*%
X8000000Y-112540000D03*
%TO.P,J4,3*%
%TO.N,I2C_SDA*%
X8000000Y-115080000D03*
%TO.P,J4,4*%
%TO.N,I2C_SCL*%
X8000000Y-117620000D03*
%TD*%
D12*
%TO.P,SW1,*%
%TO.N,*%
X37900000Y-75000000D03*
X46100000Y-75000000D03*
D13*
%TO.P,SW1,1*%
%TO.N,VBUS5V*%
X40000000Y-75000000D03*
D14*
%TO.P,SW1,2*%
%TO.N,VBAT*%
X42000000Y-75000000D03*
%TO.P,SW1,3*%
%TO.N,PWR_SW*%
X44000000Y-75000000D03*
%TD*%
D15*
%TO.P,J1,1*%
%TO.N,MIC-*%
X40030000Y-44050000D03*
D16*
%TO.P,J1,2*%
%TO.N,MIC+*%
X42570000Y-44050000D03*
%TO.P,J1,3*%
%TO.N,SPK-*%
X45110000Y-44050000D03*
%TO.P,J1,4*%
%TO.N,SPK+*%
X47650000Y-44050000D03*
%TO.P,J1,5*%
%TO.N,LTE_STA*%
X50190000Y-44050000D03*
%TO.P,J1,6*%
%TO.N,LTE_TX*%
X52730000Y-44050000D03*
%TO.P,J1,7*%
%TO.N,LTE_RX*%
X55270000Y-44050000D03*
%TO.P,J1,8*%
%TO.N,LTE_RTS*%
X57810000Y-44050000D03*
%TO.P,J1,9*%
%TO.N,LTE_PWRKEY*%
X60350000Y-44050000D03*
%TO.P,J1,10*%
%TO.N,LTE_RESET*%
X62890000Y-44050000D03*
%TO.P,J1,11*%
%TO.N,GND*%
X65430000Y-44050000D03*
%TO.P,J1,12*%
X67970000Y-44050000D03*
D15*
%TO.P,J1,13*%
%TO.N,LTE_VEXT*%
X41300000Y-5950000D03*
D16*
%TO.P,J1,14*%
%TO.N,3V3*%
X43840000Y-5950000D03*
%TO.P,J1,15*%
%TO.N,LTE_CTS*%
X46380000Y-5950000D03*
%TO.P,J1,16*%
%TO.N,LTE_RI*%
X48920000Y-5950000D03*
%TO.P,J1,17*%
%TO.N,LTE_DTR*%
X51460000Y-5950000D03*
%TO.P,J1,18*%
%TO.N,LTE_RX2*%
X54000000Y-5950000D03*
%TO.P,J1,19*%
%TO.N,LTE_TX2*%
X56540000Y-5950000D03*
%TO.P,J1,20*%
%TO.N,VBAT*%
X59080000Y-5950000D03*
%TO.P,J1,21*%
%TO.N,LTE_NET*%
X61620000Y-5950000D03*
%TO.P,J1,22*%
%TO.N,MODEM_5V*%
X64160000Y-5950000D03*
%TO.P,J1,23*%
X66700000Y-5950000D03*
%TD*%
D10*
%TO.P,J5,1*%
%TO.N,MODEM_5V*%
X68000000Y-115000000D03*
D11*
%TO.P,J5,2*%
%TO.N,GND*%
X68000000Y-117540000D03*
%TO.P,J5,3*%
%TO.N,RFID_TX*%
X68000000Y-120080000D03*
%TO.P,J5,4*%
%TO.N,RFID_RX*%
X68000000Y-122620000D03*
%TO.P,J5,5*%
%TO.N,N/C*%
X68000000Y-125160000D03*
%TD*%
D17*
%TO.P,U1,41*%
%TO.N,GND*%
X25100000Y-46760000D03*
X25100000Y-48160000D03*
X25800000Y-46060000D03*
X25800000Y-47460000D03*
X25800000Y-48860000D03*
X26500000Y-46760000D03*
X26500000Y-48160000D03*
X27200000Y-46060000D03*
X27200000Y-47460000D03*
X27200000Y-48860000D03*
X27900000Y-46760000D03*
X27900000Y-48160000D03*
%TD*%
D10*
%TO.P,J6,1*%
%TO.N,3V3*%
X20000000Y-85000000D03*
D11*
%TO.P,J6,2*%
%TO.N,GND*%
X22540000Y-85000000D03*
%TO.P,J6,3*%
%TO.N,I2C_SDA*%
X25080000Y-85000000D03*
%TO.P,J6,4*%
%TO.N,I2C_SCL*%
X27620000Y-85000000D03*
%TO.P,J6,5*%
%TO.N,TRACKBALL_INT*%
X30160000Y-85000000D03*
%TD*%
D18*
%TO.P,U6,1*%
%TO.N,3V3*%
X50000000Y-120000000D03*
D19*
%TO.P,U6,2*%
%TO.N,GND*%
X50000000Y-121270000D03*
%TO.P,U6,3*%
%TO.N,VBAT*%
X50000000Y-122540000D03*
%TO.P,U6,4*%
%TO.N,FUEL_ALERT*%
X50000000Y-123810000D03*
%TD*%
D20*
%TO.P,U7,1*%
%TO.N,3V3*%
X50000000Y-60000000D03*
D16*
%TO.P,U7,2*%
%TO.N,GND*%
X50000000Y-57460000D03*
%TO.P,U7,3*%
%TO.N,IR_RX*%
X50000000Y-54920000D03*
%TD*%
D10*
%TO.P,J3,1*%
%TO.N,3V3*%
X25000000Y-65000000D03*
D11*
%TO.P,J3,2*%
%TO.N,GND*%
X27540000Y-65000000D03*
%TO.P,J3,3*%
%TO.N,SPI_MISO*%
X30080000Y-65000000D03*
%TO.P,J3,4*%
%TO.N,SPI_MOSI*%
X32620000Y-65000000D03*
%TO.P,J3,5*%
%TO.N,SPI_SCK*%
X35160000Y-65000000D03*
%TO.P,J3,6*%
%TO.N,SX1262_CS*%
X37700000Y-65000000D03*
%TO.P,J3,7*%
%TO.N,SX1262_RESET*%
X40240000Y-65000000D03*
%TO.P,J3,8*%
%TO.N,SX1262_BUSY*%
X42780000Y-65000000D03*
%TO.P,J3,9*%
%TO.N,SX1262_DIO1*%
X45320000Y-65000000D03*
%TD*%
D21*
%TO.P,USB1,SH*%
%TO.N,N/C*%
X62895000Y-54320000D03*
D22*
X67075000Y-54320000D03*
D21*
X62895000Y-45680000D03*
D22*
X67075000Y-45680000D03*
%TD*%
D23*
%TO.N,3V3*%
X36525000Y-138589600D03*
X68461100Y-89766000D03*
X65250000Y-11764100D03*
X38348600Y-51928200D03*
X26114900Y-59662100D03*
X58496900Y-79805000D03*
X45344900Y-143254200D03*
X56198100Y-14311900D03*
X60411900Y-67319800D03*
%TO.N,GND*%
X20858300Y-40186100D03*
X48912500Y-68790300D03*
X43475000Y-58589300D03*
X62018800Y-68372100D03*
X38026800Y-39965100D03*
X60712500Y-53200000D03*
%TO.N,CC1101_CS*%
X35495900Y-46317400D03*
%TO.N,SPI_MOSI*%
X8427900Y-66822900D03*
X58474800Y-80905000D03*
%TO.N,SPI_MISO*%
X58489100Y-76270800D03*
X9250000Y-66770600D03*
%TO.N,SPI_SCK*%
X12079900Y-69503800D03*
%TO.N,CC1101_GDO0*%
X35495900Y-52667400D03*
%TO.N,KEY_D6*%
X25950000Y-106822400D03*
%TO.N,KEY_D5*%
X12925600Y-105576100D03*
%TO.N,KEY_R4*%
X24993400Y-128404900D03*
X11950000Y-127183600D03*
%TO.N,KEY_D13*%
X11950000Y-130803600D03*
%TO.N,KEY_D8*%
X54918300Y-106076700D03*
%TO.N,U3_PROG*%
X46192800Y-140926000D03*
X26233800Y-143755700D03*
%TO.N,I2C_SCL*%
X12750000Y-70130000D03*
X23555000Y-59394200D03*
%TO.N,VBUS5V*%
X61240500Y-52200500D03*
X61218700Y-47813100D03*
X40525000Y-58424700D03*
%TO.N,KEY_D12*%
X54911000Y-118009300D03*
%TO.N,BOOST_SW*%
X59400000Y-149091200D03*
X36352000Y-148246800D03*
%TO.N,VBAT*%
X42463600Y-144650800D03*
X33612500Y-149199200D03*
X56600000Y-148770500D03*
X25693200Y-138751800D03*
%TO.N,MODEM_5V*%
X67525000Y-147908500D03*
X57087500Y-141207700D03*
X40322900Y-149399200D03*
%TO.N,KEY_D7*%
X40833400Y-106616800D03*
%TO.N,KEY_D16*%
X54902100Y-130000400D03*
%TO.N,KEY_D14*%
X26672000Y-130803600D03*
%TO.N,LTE_TX*%
X39652700Y-42255800D03*
%TO.N,LTE_RX*%
X38418600Y-42921900D03*
%TO.N,LTE_PWRKEY*%
X38006600Y-44732400D03*
%TO.N,LTE_RI*%
X35478600Y-43619500D03*
%TO.N,KEY_D9*%
X11950000Y-118812300D03*
%TO.N,CAM_D0*%
X60214800Y-14324400D03*
X20501700Y-49700000D03*
%TO.N,CAM_D1*%
X60850400Y-14823400D03*
X20504100Y-50942600D03*
%TO.N,CAM_D4*%
X24825000Y-56237300D03*
X62278600Y-11994000D03*
%TO.N,KEY_D15*%
X40912400Y-130419000D03*
%TO.N,SX1262_RESET*%
X22285000Y-58751900D03*
%TO.N,SX1262_BUSY*%
X31175000Y-58783000D03*
%TO.N,SX1262_DIO1*%
X32445000Y-58763600D03*
%TO.N,SD_CS*%
X11250000Y-69320200D03*
X33715000Y-59065400D03*
%TO.N,KEY_D10*%
X26532900Y-118802900D03*
%TO.N,KEY_D11*%
X40886100Y-118531100D03*
%TO.N,DW01A_OD*%
X37695700Y-146034400D03*
X8862500Y-146244100D03*
%TO.N,KEY_R1*%
X25776200Y-91186600D03*
X39950000Y-91193100D03*
X52970600Y-91972300D03*
%TO.N,KEY_D4*%
X53950000Y-94837700D03*
%TO.N,KEY_D2*%
X25950000Y-94803900D03*
%TO.N,KEY_D1*%
X11950000Y-94832700D03*
%TO.N,KEY_D3*%
X39950000Y-94810900D03*
%TO.N,KEY_C4*%
X58801700Y-110459900D03*
X58801700Y-100792100D03*
%TD*%
%TO.N,3V3*%
D24*
X64713400Y-11227500D02*
X59038400Y-11227500D01*
X36525000Y-138589600D02*
X41189600Y-143254200D01*
X38657800Y-57418300D02*
X41239500Y-60000000D01*
X40927100Y-138589600D02*
X36525000Y-138589600D01*
X26114900Y-59662100D02*
X28866300Y-56910700D01*
X44488700Y-135028000D02*
X40927100Y-138589600D01*
X56198100Y-14067800D02*
X56198100Y-14311900D01*
X57038300Y-13227600D02*
X56198100Y-14067800D01*
X65250000Y-11764100D02*
X64713400Y-11227500D01*
X68457900Y-92392700D02*
X68457900Y-89766000D01*
X50000000Y-120000000D02*
X50000000Y-119198300D01*
X49453800Y-4727400D02*
X50258300Y-5531900D01*
X37151600Y-56478900D02*
X38657800Y-56478900D01*
X62644700Y-68045700D02*
X61918800Y-67319800D01*
X38657800Y-56478900D02*
X38657800Y-57418300D01*
X50000000Y-120000000D02*
X44488700Y-125511300D01*
X58496900Y-79805000D02*
X68457900Y-89766000D01*
X68457900Y-89766000D02*
X68461100Y-89766000D01*
X38348600Y-51928200D02*
X38657800Y-52237400D01*
X11848300Y-78000000D02*
X18848300Y-85000000D01*
X20000000Y-85000000D02*
X18848300Y-85000000D01*
X41189600Y-143254200D02*
X45344900Y-143254200D01*
X59917800Y-71324200D02*
X62644700Y-68597300D01*
X58496900Y-79805000D02*
X59917800Y-78384100D01*
X50000000Y-119198300D02*
X56000000Y-113198300D01*
X50258300Y-6447700D02*
X57038300Y-13227600D01*
X45062600Y-4727400D02*
X49453800Y-4727400D01*
X56000000Y-104850600D02*
X68457900Y-92392700D01*
X43840000Y-5950000D02*
X45062600Y-4727400D01*
X59038400Y-11227500D02*
X57038300Y-13227600D01*
X50258300Y-5531900D02*
X50258300Y-6447700D01*
X62644700Y-68597300D02*
X62644700Y-68045700D01*
X57319800Y-67319800D02*
X60411900Y-67319800D01*
X61918800Y-67319800D02*
X60411900Y-67319800D01*
X44488700Y-125511300D02*
X44488700Y-135028000D01*
X8000000Y-78000000D02*
X11848300Y-78000000D01*
X36719800Y-56910700D02*
X37151600Y-56478900D01*
X38657800Y-52237400D02*
X38657800Y-56478900D01*
X59917800Y-78384100D02*
X59917800Y-71324200D01*
X28866300Y-56910700D02*
X36719800Y-56910700D01*
X56000000Y-113198300D02*
X56000000Y-104850600D01*
X50000000Y-60000000D02*
X57319800Y-67319800D01*
X41239500Y-60000000D02*
X50000000Y-60000000D01*
%TO.N,GND*%
X54117000Y-117366300D02*
X67826300Y-117366300D01*
X49330700Y-68372100D02*
X62018800Y-68372100D01*
X50000000Y-57460000D02*
X48870700Y-58589300D01*
X34008300Y-64686200D02*
X34008300Y-65528300D01*
X33121500Y-63799400D02*
X34008300Y-64686200D01*
X25800000Y-45127800D02*
X20858300Y-40186100D01*
X67826300Y-117366300D02*
X68000000Y-117540000D01*
X27900000Y-48160000D02*
X27200000Y-47460000D01*
X13611700Y-86151700D02*
X8000000Y-80540000D01*
X37270300Y-68790300D02*
X48912500Y-68790300D01*
X27200000Y-46060000D02*
X33294900Y-39965100D01*
X27900000Y-48160000D02*
X27200000Y-48860000D01*
X27900000Y-46760000D02*
X27200000Y-46060000D01*
X21388300Y-86151700D02*
X13611700Y-86151700D01*
X26500000Y-46760000D02*
X25800000Y-47460000D01*
X28740600Y-63799400D02*
X33121500Y-63799400D01*
X26500000Y-46760000D02*
X25800000Y-46060000D01*
X25800000Y-46060000D02*
X25800000Y-45127800D01*
X27200000Y-46060000D02*
X26500000Y-46760000D01*
X25800000Y-47460000D02*
X25100000Y-46760000D01*
X50000000Y-121270000D02*
X50213300Y-121270000D01*
X61176700Y-53200000D02*
X60712500Y-53200000D01*
X65430000Y-44050000D02*
X65430000Y-48946700D01*
X65430000Y-44050000D02*
X67970000Y-44050000D01*
X27200000Y-48860000D02*
X26500000Y-48160000D01*
X48912500Y-68790300D02*
X49330700Y-68372100D01*
X25800000Y-48860000D02*
X25100000Y-48160000D01*
X25100000Y-48160000D02*
X25800000Y-47460000D01*
X27540000Y-65000000D02*
X28740600Y-63799400D01*
X56452500Y-57460000D02*
X60712500Y-53200000D01*
X33294900Y-39965100D02*
X38026800Y-39965100D01*
X34008300Y-65528300D02*
X37270300Y-68790300D01*
X48870700Y-58589300D02*
X43475000Y-58589300D01*
X50213300Y-121270000D02*
X54117000Y-117366300D01*
X50000000Y-57460000D02*
X56452500Y-57460000D01*
X22540000Y-85000000D02*
X21388300Y-86151700D01*
X65430000Y-48946700D02*
X61176700Y-53200000D01*
%TO.N,CC1101_CS*%
X25573600Y-52582300D02*
X29231000Y-52582300D01*
X6438300Y-81518300D02*
X6438300Y-71717600D01*
X6438300Y-71717600D02*
X25573600Y-52582300D01*
X29231000Y-52582300D02*
X35495900Y-46317400D01*
X8000000Y-83080000D02*
X6438300Y-81518300D01*
%TO.N,SPI_MOSI*%
X55401100Y-72287700D02*
X59114400Y-76001000D01*
X59114400Y-76001000D02*
X59114400Y-77068300D01*
X5634900Y-83254900D02*
X8000000Y-85620000D01*
X8427900Y-66822900D02*
X5634900Y-69615900D01*
X59114400Y-77068300D02*
X57888900Y-78293800D01*
X5634900Y-69615900D02*
X5634900Y-83254900D01*
X57888900Y-80319100D02*
X58474800Y-80905000D01*
X32620000Y-65000000D02*
X39907700Y-72287700D01*
X57888900Y-78293800D02*
X57888900Y-80319100D01*
X39907700Y-72287700D02*
X55401100Y-72287700D01*
%TO.N,SPI_MISO*%
X30080000Y-65000000D02*
X37769400Y-72689400D01*
X9172900Y-85074100D02*
X9172900Y-86987100D01*
X6036600Y-82794500D02*
X7473800Y-84231700D01*
X6036600Y-70969400D02*
X6036600Y-82794500D01*
X9250000Y-66770600D02*
X9250000Y-67756000D01*
X7473800Y-84231700D02*
X8330500Y-84231700D01*
X54907700Y-72689400D02*
X58489100Y-76270800D01*
X8330500Y-84231700D02*
X9172900Y-85074100D01*
X37769400Y-72689400D02*
X54907700Y-72689400D01*
X9250000Y-67756000D02*
X6036600Y-70969400D01*
X9172900Y-86987100D02*
X8000000Y-88160000D01*
%TO.N,SPI_SCK*%
X35160000Y-65000000D02*
X33557700Y-63397700D01*
X33557700Y-63397700D02*
X18186000Y-63397700D01*
X18186000Y-63397700D02*
X12079900Y-69503800D01*
%TO.N,CC1101_GDO0*%
X28034800Y-56171600D02*
X28034800Y-55917600D01*
X29485100Y-54467300D02*
X33696000Y-54467300D01*
X6840000Y-81021900D02*
X6840000Y-71950700D01*
X8000000Y-93240000D02*
X9624600Y-91615400D01*
X9624600Y-91615400D02*
X9624600Y-83075800D01*
X7746400Y-81928300D02*
X6840000Y-81021900D01*
X9624600Y-83075800D02*
X8477100Y-81928300D01*
X28034800Y-55917600D02*
X29485100Y-54467300D01*
X21914400Y-56876300D02*
X27330100Y-56876300D01*
X27330100Y-56876300D02*
X28034800Y-56171600D01*
X8477100Y-81928300D02*
X7746400Y-81928300D01*
X33696000Y-54467300D02*
X35495900Y-52667400D01*
X6840000Y-71950700D02*
X21914400Y-56876300D01*
%TO.N,KEY_D6*%
X26350000Y-107222400D02*
X26350000Y-110500000D01*
X25950000Y-106822400D02*
X26350000Y-107222400D01*
%TO.N,KEY_D5*%
X12350000Y-106151700D02*
X12350000Y-110500000D01*
X12925600Y-105576100D02*
X12350000Y-106151700D01*
%TO.N,KEY_R4*%
X13171300Y-128404900D02*
X11950000Y-127183600D01*
X24993400Y-128404900D02*
X13171300Y-128404900D01*
%TO.N,KEY_D13*%
X12350000Y-134500000D02*
X12350000Y-131203600D01*
X12350000Y-131203600D02*
X11950000Y-130803600D01*
%TO.N,KEY_D8*%
X54350000Y-106645000D02*
X54350000Y-110500000D01*
X54918300Y-106076700D02*
X54350000Y-106645000D01*
%TO.N,U3_PROG*%
X46192800Y-143286700D02*
X45622300Y-143857200D01*
X27582100Y-148693900D02*
X26378100Y-147489900D01*
X46192800Y-140926000D02*
X46192800Y-143286700D01*
X26378100Y-143900000D02*
X26233800Y-143755700D01*
X27664700Y-148693900D02*
X27582100Y-148693900D01*
X26378100Y-147489900D02*
X26378100Y-143900000D01*
X45622300Y-143857200D02*
X32501400Y-143857200D01*
X32501400Y-143857200D02*
X27664700Y-148693900D01*
%TO.N,I2C_SDA*%
X25080000Y-87650800D02*
X25080000Y-85000000D01*
X8000000Y-115080000D02*
X11124100Y-111955900D01*
X11124100Y-111955900D02*
X11124100Y-101606700D01*
X11124100Y-101606700D02*
X25080000Y-87650800D01*
%TO.N,I2C_SCL*%
X11140400Y-70130000D02*
X10628000Y-69617600D01*
X12750000Y-70130000D02*
X11140400Y-70130000D01*
X10628000Y-69083400D02*
X20317200Y-59394200D01*
X20317200Y-59394200D02*
X23555000Y-59394200D01*
X27620000Y-85000000D02*
X12750000Y-70130000D01*
X10628000Y-69617600D02*
X10628000Y-69083400D01*
%TO.N,VBUS5V*%
X40525000Y-58424700D02*
X46749200Y-52200500D01*
X61218700Y-52200500D02*
X61218700Y-47813100D01*
X61218700Y-52200500D02*
X61240500Y-52200500D01*
X46749200Y-52200500D02*
X61218700Y-52200500D01*
%TO.N,KEY_D12*%
X54911000Y-118009300D02*
X54350000Y-118570300D01*
X54350000Y-118570300D02*
X54350000Y-122500000D01*
%TO.N,BOOST_SW*%
X58467200Y-150024000D02*
X59400000Y-149091200D01*
X36352000Y-148246800D02*
X38129200Y-150024000D01*
X38129200Y-150024000D02*
X58467200Y-150024000D01*
%TO.N,VBAT*%
X49148600Y-144650800D02*
X49148600Y-123391400D01*
X25622400Y-138822600D02*
X25622400Y-147302200D01*
X49148600Y-144650800D02*
X52480300Y-144650800D01*
X25622400Y-147302200D02*
X27519400Y-149199200D01*
X27519400Y-149199200D02*
X33612500Y-149199200D01*
X25693200Y-138751800D02*
X25622400Y-138822600D01*
X49148600Y-123391400D02*
X50000000Y-122540000D01*
X52480300Y-144650800D02*
X56600000Y-148770500D01*
X49148600Y-144650800D02*
X42463600Y-144650800D01*
%TO.N,MODEM_5V*%
X56829400Y-149399200D02*
X40322900Y-149399200D01*
X69151700Y-129143500D02*
X69151700Y-117015400D01*
X68000000Y-115000000D02*
X68000000Y-116151700D01*
X61054200Y-145174400D02*
X56829400Y-149399200D01*
X69151700Y-117015400D02*
X68288000Y-116151700D01*
X68288000Y-116151700D02*
X68000000Y-116151700D01*
X57087500Y-141207700D02*
X69151700Y-129143500D01*
X61054200Y-145174400D02*
X63788300Y-147908500D01*
X63788300Y-147908500D02*
X67525000Y-147908500D01*
X57087500Y-141207700D02*
X61054200Y-145174400D01*
X66700000Y-5950000D02*
X64160000Y-5950000D01*
%TO.N,KEY_D7*%
X40350000Y-107100200D02*
X40350000Y-110500000D01*
X40833400Y-106616800D02*
X40350000Y-107100200D01*
%TO.N,KEY_D16*%
X54350000Y-130552500D02*
X54350000Y-134500000D01*
X54902100Y-130000400D02*
X54350000Y-130552500D01*
%TO.N,KEY_D14*%
X26672000Y-130803600D02*
X26350000Y-131125600D01*
X26350000Y-131125600D02*
X26350000Y-134500000D01*
%TO.N,LTE_TX*%
X50935800Y-42255800D02*
X52730000Y-44050000D01*
X39652700Y-42255800D02*
X50935800Y-42255800D01*
%TO.N,LTE_RX*%
X55270000Y-44050000D02*
X52439600Y-41219600D01*
X39837800Y-41219600D02*
X38575800Y-42481600D01*
X38575800Y-42764700D02*
X38418600Y-42921900D01*
X38575800Y-42481600D02*
X38575800Y-42764700D01*
X52439600Y-41219600D02*
X39837800Y-41219600D01*
%TO.N,LTE_PWRKEY*%
X38532500Y-45258300D02*
X38006600Y-44732400D01*
X60350000Y-44050000D02*
X59141700Y-45258300D01*
X59141700Y-45258300D02*
X38532500Y-45258300D01*
%TO.N,LTE_RI*%
X39149500Y-39948600D02*
X35478600Y-43619500D01*
X48920000Y-5950000D02*
X52352500Y-9382500D01*
X52352500Y-38374600D02*
X50778500Y-39948600D01*
X50778500Y-39948600D02*
X39149500Y-39948600D01*
X52352500Y-9382500D02*
X52352500Y-38374600D01*
%TO.N,KEY_D9*%
X12350000Y-119212300D02*
X12350000Y-122500000D01*
X11950000Y-118812300D02*
X12350000Y-119212300D01*
%TO.N,CAM_D0*%
X36504100Y-43444900D02*
X36504100Y-43417300D01*
X50961400Y-40350300D02*
X60214800Y-31096900D01*
X60214800Y-31096900D02*
X60214800Y-14324400D01*
X30249000Y-49700000D02*
X36504100Y-43444900D01*
X20501700Y-49700000D02*
X30249000Y-49700000D01*
X39571100Y-40350300D02*
X50961400Y-40350300D01*
X36504100Y-43417300D02*
X39571100Y-40350300D01*
%TO.N,CAM_D1*%
X37376600Y-43112900D02*
X37376600Y-43209800D01*
X39712800Y-40776600D02*
X38174100Y-42315300D01*
X38174100Y-42315400D02*
X37376600Y-43112900D01*
X29643800Y-50942600D02*
X20504100Y-50942600D01*
X51168800Y-40776600D02*
X39712800Y-40776600D01*
X38174100Y-42315300D02*
X38174100Y-42315400D01*
X60850400Y-14823400D02*
X60850400Y-31095000D01*
X60850400Y-31095000D02*
X51168800Y-40776600D01*
X37376600Y-43209800D02*
X29643800Y-50942600D01*
%TO.N,CAM_D4*%
X61633100Y-44522400D02*
X61633100Y-18501200D01*
X64866900Y-14021900D02*
X62839000Y-11994000D01*
X25062300Y-56474600D02*
X27163700Y-56474600D01*
X61633100Y-18501200D02*
X64866900Y-15267400D01*
X54864400Y-51291100D02*
X61633100Y-44522400D01*
X27633100Y-55751300D02*
X32093300Y-51291100D01*
X64866900Y-15267400D02*
X64866900Y-14021900D01*
X62839000Y-11994000D02*
X62278600Y-11994000D01*
X27163700Y-56474600D02*
X27633100Y-56005200D01*
X24825000Y-56237300D02*
X25062300Y-56474600D01*
X27633100Y-56005200D02*
X27633100Y-55751300D01*
X32093300Y-51291100D02*
X54864400Y-51291100D01*
%TO.N,KEY_D15*%
X40350000Y-130981400D02*
X40350000Y-134500000D01*
X40912400Y-130419000D02*
X40350000Y-130981400D01*
%TO.N,SX1262_RESET*%
X40240000Y-65000000D02*
X37834300Y-62594300D01*
X28196300Y-62594300D02*
X24353900Y-58751900D01*
X24353900Y-58751900D02*
X22285000Y-58751900D01*
X37834300Y-62594300D02*
X28196300Y-62594300D01*
%TO.N,SX1262_BUSY*%
X42780000Y-65000000D02*
X39856700Y-62076700D01*
X39856700Y-62076700D02*
X34468700Y-62076700D01*
X34468700Y-62076700D02*
X31175000Y-58783000D01*
%TO.N,SX1262_DIO1*%
X40523000Y-60203000D02*
X45320000Y-65000000D01*
X35758000Y-60203000D02*
X40523000Y-60203000D01*
X34015200Y-58460200D02*
X35758000Y-60203000D01*
X32445000Y-58763600D02*
X32748400Y-58460200D01*
X32748400Y-58460200D02*
X34015200Y-58460200D01*
%TO.N,SD_CS*%
X34799800Y-62996000D02*
X17574200Y-62996000D01*
X33715000Y-59065400D02*
X35454200Y-60804600D01*
X37188400Y-66183200D02*
X36430000Y-65424800D01*
X43931700Y-65533200D02*
X43281700Y-66183200D01*
X40286600Y-60804600D02*
X43931700Y-64449700D01*
X43931700Y-64449700D02*
X43931700Y-65533200D01*
X17574200Y-62996000D02*
X11250000Y-69320200D01*
X35454200Y-60804600D02*
X40286600Y-60804600D01*
X36430000Y-65424800D02*
X36430000Y-64626200D01*
X36430000Y-64626200D02*
X34799800Y-62996000D01*
X43281700Y-66183200D02*
X37188400Y-66183200D01*
%TO.N,KEY_D10*%
X26350000Y-118985800D02*
X26350000Y-122500000D01*
X26532900Y-118802900D02*
X26350000Y-118985800D01*
%TO.N,KEY_D11*%
X40886100Y-118531100D02*
X40350000Y-119067200D01*
X40350000Y-119067200D02*
X40350000Y-122500000D01*
%TO.N,DW01A_OD*%
X37695700Y-146034400D02*
X33898200Y-149831900D01*
X33898200Y-149831900D02*
X12450300Y-149831900D01*
X12450300Y-149831900D02*
X8862500Y-146244100D01*
%TO.N,KEY_R1*%
X25776200Y-91186600D02*
X39943500Y-91186600D01*
X39943500Y-91186600D02*
X39950000Y-91193100D01*
X39950000Y-91193100D02*
X52191400Y-91193100D01*
X52191400Y-91193100D02*
X52970600Y-91972300D01*
%TO.N,KEY_D4*%
X54350000Y-95237700D02*
X54350000Y-98500000D01*
X53950000Y-94837700D02*
X54350000Y-95237700D01*
%TO.N,KEY_D2*%
X26350000Y-95203900D02*
X26350000Y-98500000D01*
X25950000Y-94803900D02*
X26350000Y-95203900D01*
%TO.N,KEY_D1*%
X12350000Y-95232700D02*
X12350000Y-98500000D01*
X11950000Y-94832700D02*
X12350000Y-95232700D01*
%TO.N,KEY_D3*%
X40350000Y-95210900D02*
X40350000Y-98500000D01*
X39950000Y-94810900D02*
X40350000Y-95210900D01*
%TO.N,KEY_C3*%
X43650000Y-122500000D02*
X43650000Y-134500000D01*
X43650000Y-98500000D02*
X43650000Y-110500000D01*
X43650000Y-110500000D02*
X43650000Y-122500000D01*
%TO.N,KEY_C1*%
X15650000Y-110500000D02*
X15650000Y-98500000D01*
X15650000Y-122500000D02*
X15650000Y-110500000D01*
%TO.N,KEY_C4*%
X57650000Y-134500000D02*
X57650000Y-122500000D01*
X57650000Y-99640400D02*
X58801700Y-100792100D01*
X58761600Y-110500000D02*
X58801700Y-110459900D01*
X57650000Y-110500000D02*
X58761600Y-110500000D01*
X57650000Y-98500000D02*
X57650000Y-99640400D01*
%TO.N,KEY_C2*%
X29650000Y-110500000D02*
X29650000Y-122500000D01*
X29650000Y-110500000D02*
X29650000Y-98500000D01*
X29650000Y-134500000D02*
X29650000Y-122500000D01*
%TD*%
M02*
