M48
; DRILL file KiCad 10.0.6 date 2026-09-13T19:24:56
; FORMAT={-:-/ absolute / metric / decimal}
; #@! TF.CreationDate,2026-09-13T19:24:56-05:00
; #@! TF.GenerationSoftware,Kicad,Pcbnew,10.0.6
; #@! TF.FileFunction,MixedPlating,1,2
FMAT,2
METRIC
; #@! TA.AperFunction,Plated,PTH,ComponentDrill
T1C0.200
; #@! TA.AperFunction,Plated,PTH,ViaDrill
T2C0.300
; #@! TA.AperFunction,Plated,PTH,ComponentDrill
T3C0.600
; #@! TA.AperFunction,Plated,PTH,ComponentDrill
T4C0.650
; #@! TA.AperFunction,Plated,PTH,ComponentDrill
T5C0.900
; #@! TA.AperFunction,Plated,PTH,ComponentDrill
T6C1.000
; #@! TA.AperFunction,Plated,PTH,ComponentDrill
T7C1.500
; #@! TA.AperFunction,NonPlated,NPTH,ComponentDrill
T8C0.650
; #@! TA.AperFunction,NonPlated,NPTH,ComponentDrill
T9C2.200
%
G90
G05
T1
X25.1Y-46.76
X25.1Y-48.16
X25.8Y-46.06
X25.8Y-47.46
X25.8Y-48.86
X26.5Y-46.76
X26.5Y-48.16
X27.2Y-46.06
X27.2Y-47.46
X27.2Y-48.86
X27.9Y-46.76
X27.9Y-48.16
T2
X8.428Y-66.823
X8.862Y-146.244
X9.25Y-66.771
X11.25Y-69.32
X11.95Y-94.833
X11.95Y-118.812
X11.95Y-127.184
X11.95Y-130.804
X12.08Y-69.504
X12.75Y-70.13
X12.926Y-105.576
X20.502Y-49.7
X20.504Y-50.943
X20.858Y-40.186
X22.285Y-58.752
X23.555Y-59.394
X24.825Y-56.237
X24.993Y-128.405
X25.693Y-138.752
X25.776Y-91.187
X25.95Y-94.804
X25.95Y-106.822
X26.115Y-59.662
X26.234Y-143.756
X26.533Y-118.803
X26.672Y-130.804
X31.175Y-58.783
X32.445Y-58.764
X33.612Y-149.199
X33.715Y-59.065
X35.479Y-43.619
X35.496Y-46.317
X35.496Y-52.667
X36.352Y-148.247
X36.525Y-138.59
X37.696Y-146.034
X38.007Y-44.732
X38.027Y-39.965
X38.349Y-51.928
X38.419Y-42.922
X39.653Y-42.256
X39.95Y-91.193
X39.95Y-94.811
X40.323Y-149.399
X40.525Y-58.425
X40.833Y-106.617
X40.886Y-118.531
X40.912Y-130.419
X42.464Y-144.651
X43.475Y-58.589
X45.345Y-143.254
X46.193Y-140.926
X48.912Y-68.79
X52.971Y-91.972
X53.95Y-94.838
X54.902Y-130.0
X54.911Y-118.009
X54.918Y-106.077
X56.198Y-14.312
X56.6Y-148.77
X57.087Y-141.208
X58.475Y-80.905
X58.489Y-76.271
X58.497Y-79.805
X58.802Y-100.792
X58.802Y-110.46
X59.4Y-149.091
X60.215Y-14.324
X60.412Y-67.32
X60.712Y-53.2
X60.85Y-14.823
X61.219Y-47.813
X61.24Y-52.2
X62.019Y-68.372
X62.279Y-11.994
X65.25Y-11.764
X67.525Y-147.909
X68.461Y-89.766
T4
X50.0Y-120.0
X50.0Y-121.27
X50.0Y-122.54
X50.0Y-123.81
T5
X40.0Y-75.0
X42.0Y-75.0
X44.0Y-75.0
X50.0Y-54.92
X50.0Y-57.46
X50.0Y-60.0
T6
X8.0Y-78.0
X8.0Y-80.54
X8.0Y-83.08
X8.0Y-85.62
X8.0Y-88.16
X8.0Y-90.7
X8.0Y-93.24
X8.0Y-95.78
X8.0Y-110.0
X8.0Y-112.54
X8.0Y-115.08
X8.0Y-117.62
X20.0Y-85.0
X22.54Y-85.0
X25.0Y-65.0
X25.08Y-85.0
X27.54Y-65.0
X27.62Y-85.0
X30.08Y-65.0
X30.16Y-85.0
X32.62Y-65.0
X35.16Y-65.0
X37.7Y-65.0
X40.03Y-44.05
X40.24Y-65.0
X41.3Y-5.95
X42.57Y-44.05
X42.78Y-65.0
X43.84Y-5.95
X45.11Y-44.05
X45.32Y-65.0
X46.38Y-5.95
X47.65Y-44.05
X48.92Y-5.95
X50.19Y-44.05
X51.46Y-5.95
X52.73Y-44.05
X54.0Y-5.95
X55.27Y-44.05
X56.54Y-5.95
X57.81Y-44.05
X59.08Y-5.95
X60.35Y-44.05
X61.62Y-5.95
X62.89Y-44.05
X64.16Y-5.95
X65.43Y-44.05
X66.7Y-5.95
X67.97Y-44.05
X68.0Y-115.0
X68.0Y-117.54
X68.0Y-120.08
X68.0Y-122.62
X68.0Y-125.16
T7
X37.9Y-75.0
X46.1Y-75.0
T8
X63.395Y-47.11
X63.395Y-52.89
T9
X6.0Y-6.0
X6.0Y-154.0
X70.0Y-6.0
X70.0Y-154.0
T3
X62.345Y-45.68G85X63.445Y-45.68
G05
X62.345Y-54.32G85X63.445Y-54.32
G05
X66.675Y-45.68G85X67.475Y-45.68
G05
X66.675Y-54.32G85X67.475Y-54.32
G05
M30
