%TF.GenerationSoftware,KiCad,Pcbnew,10.0.6*%
%TF.CreationDate,2026-09-13T19:24:56-05:00*%
%TF.ProjectId,owasso1,6f776173-736f-4312-9e6b-696361645f70,rev?*%
%TF.SameCoordinates,Original*%
%TF.FileFunction,OtherDrawing,Comment*%
%FSLAX46Y46*%
G04 Gerber Fmt 4.6, Leading zero omitted, Abs format (unit mm)*
G04 Created by KiCad (PCBNEW 10.0.6) date 2026-09-13 19:24:56*
%MOMM*%
%LPD*%
G01*
G04 APERTURE LIST*
%ADD10C,0.100000*%
G04 APERTURE END LIST*
D10*
X69326109Y-51714285D02*
X68826109Y-51714285D01*
X68826109Y-51714285D02*
X68826109Y-51523809D01*
X68826109Y-51523809D02*
X68849919Y-51476190D01*
X68849919Y-51476190D02*
X68873728Y-51452380D01*
X68873728Y-51452380D02*
X68921347Y-51428571D01*
X68921347Y-51428571D02*
X68992776Y-51428571D01*
X68992776Y-51428571D02*
X69040395Y-51452380D01*
X69040395Y-51452380D02*
X69064204Y-51476190D01*
X69064204Y-51476190D02*
X69088014Y-51523809D01*
X69088014Y-51523809D02*
X69088014Y-51714285D01*
X69278490Y-50928571D02*
X69302300Y-50952380D01*
X69302300Y-50952380D02*
X69326109Y-51023809D01*
X69326109Y-51023809D02*
X69326109Y-51071428D01*
X69326109Y-51071428D02*
X69302300Y-51142856D01*
X69302300Y-51142856D02*
X69254680Y-51190475D01*
X69254680Y-51190475D02*
X69207061Y-51214285D01*
X69207061Y-51214285D02*
X69111823Y-51238094D01*
X69111823Y-51238094D02*
X69040395Y-51238094D01*
X69040395Y-51238094D02*
X68945157Y-51214285D01*
X68945157Y-51214285D02*
X68897538Y-51190475D01*
X68897538Y-51190475D02*
X68849919Y-51142856D01*
X68849919Y-51142856D02*
X68826109Y-51071428D01*
X68826109Y-51071428D02*
X68826109Y-51023809D01*
X68826109Y-51023809D02*
X68849919Y-50952380D01*
X68849919Y-50952380D02*
X68873728Y-50928571D01*
X69064204Y-50547618D02*
X69088014Y-50476190D01*
X69088014Y-50476190D02*
X69111823Y-50452380D01*
X69111823Y-50452380D02*
X69159442Y-50428571D01*
X69159442Y-50428571D02*
X69230871Y-50428571D01*
X69230871Y-50428571D02*
X69278490Y-50452380D01*
X69278490Y-50452380D02*
X69302300Y-50476190D01*
X69302300Y-50476190D02*
X69326109Y-50523809D01*
X69326109Y-50523809D02*
X69326109Y-50714285D01*
X69326109Y-50714285D02*
X68826109Y-50714285D01*
X68826109Y-50714285D02*
X68826109Y-50547618D01*
X68826109Y-50547618D02*
X68849919Y-50499999D01*
X68849919Y-50499999D02*
X68873728Y-50476190D01*
X68873728Y-50476190D02*
X68921347Y-50452380D01*
X68921347Y-50452380D02*
X68968966Y-50452380D01*
X68968966Y-50452380D02*
X69016585Y-50476190D01*
X69016585Y-50476190D02*
X69040395Y-50499999D01*
X69040395Y-50499999D02*
X69064204Y-50547618D01*
X69064204Y-50547618D02*
X69064204Y-50714285D01*
X69064204Y-49833333D02*
X69064204Y-49666666D01*
X69326109Y-49595238D02*
X69326109Y-49833333D01*
X69326109Y-49833333D02*
X68826109Y-49833333D01*
X68826109Y-49833333D02*
X68826109Y-49595238D01*
X69326109Y-49166666D02*
X68826109Y-49166666D01*
X69302300Y-49166666D02*
X69326109Y-49214285D01*
X69326109Y-49214285D02*
X69326109Y-49309523D01*
X69326109Y-49309523D02*
X69302300Y-49357142D01*
X69302300Y-49357142D02*
X69278490Y-49380952D01*
X69278490Y-49380952D02*
X69230871Y-49404761D01*
X69230871Y-49404761D02*
X69088014Y-49404761D01*
X69088014Y-49404761D02*
X69040395Y-49380952D01*
X69040395Y-49380952D02*
X69016585Y-49357142D01*
X69016585Y-49357142D02*
X68992776Y-49309523D01*
X68992776Y-49309523D02*
X68992776Y-49214285D01*
X68992776Y-49214285D02*
X69016585Y-49166666D01*
X68992776Y-48714285D02*
X69397538Y-48714285D01*
X69397538Y-48714285D02*
X69445157Y-48738095D01*
X69445157Y-48738095D02*
X69468966Y-48761904D01*
X69468966Y-48761904D02*
X69492776Y-48809523D01*
X69492776Y-48809523D02*
X69492776Y-48880952D01*
X69492776Y-48880952D02*
X69468966Y-48928571D01*
X69302300Y-48714285D02*
X69326109Y-48761904D01*
X69326109Y-48761904D02*
X69326109Y-48857142D01*
X69326109Y-48857142D02*
X69302300Y-48904761D01*
X69302300Y-48904761D02*
X69278490Y-48928571D01*
X69278490Y-48928571D02*
X69230871Y-48952380D01*
X69230871Y-48952380D02*
X69088014Y-48952380D01*
X69088014Y-48952380D02*
X69040395Y-48928571D01*
X69040395Y-48928571D02*
X69016585Y-48904761D01*
X69016585Y-48904761D02*
X68992776Y-48857142D01*
X68992776Y-48857142D02*
X68992776Y-48761904D01*
X68992776Y-48761904D02*
X69016585Y-48714285D01*
X69302300Y-48285714D02*
X69326109Y-48333333D01*
X69326109Y-48333333D02*
X69326109Y-48428571D01*
X69326109Y-48428571D02*
X69302300Y-48476190D01*
X69302300Y-48476190D02*
X69254680Y-48499999D01*
X69254680Y-48499999D02*
X69064204Y-48499999D01*
X69064204Y-48499999D02*
X69016585Y-48476190D01*
X69016585Y-48476190D02*
X68992776Y-48428571D01*
X68992776Y-48428571D02*
X68992776Y-48333333D01*
X68992776Y-48333333D02*
X69016585Y-48285714D01*
X69016585Y-48285714D02*
X69064204Y-48261904D01*
X69064204Y-48261904D02*
X69111823Y-48261904D01*
X69111823Y-48261904D02*
X69159442Y-48499999D01*
%TO.C,USB1*%
X69675000Y-45000000D02*
X69675000Y-55000000D01*
%TD*%
M02*
