%TF.GenerationSoftware,KiCad,Pcbnew,10.0.6*%
%TF.CreationDate,2026-09-13T19:24:56-05:00*%
%TF.ProjectId,owasso1,6f776173-736f-4312-9e6b-696361645f70,rev?*%
%TF.SameCoordinates,Original*%
%TF.FileFunction,Legend,Top*%
%TF.FilePolarity,Positive*%
%FSLAX46Y46*%
G04 Gerber Fmt 4.6, Leading zero omitted, Abs format (unit mm)*
G04 Created by KiCad (PCBNEW 10.0.6) date 2026-09-13 19:24:56*
%MOMM*%
%LPD*%
G01*
G04 APERTURE LIST*
%ADD10C,0.150000*%
%ADD11C,0.120000*%
G04 APERTURE END LIST*
D10*
X7666666Y-75074819D02*
X7666666Y-75789104D01*
X7666666Y-75789104D02*
X7619047Y-75931961D01*
X7619047Y-75931961D02*
X7523809Y-76027200D01*
X7523809Y-76027200D02*
X7380952Y-76074819D01*
X7380952Y-76074819D02*
X7285714Y-76074819D01*
X8095238Y-75170057D02*
X8142857Y-75122438D01*
X8142857Y-75122438D02*
X8238095Y-75074819D01*
X8238095Y-75074819D02*
X8476190Y-75074819D01*
X8476190Y-75074819D02*
X8571428Y-75122438D01*
X8571428Y-75122438D02*
X8619047Y-75170057D01*
X8619047Y-75170057D02*
X8666666Y-75265295D01*
X8666666Y-75265295D02*
X8666666Y-75360533D01*
X8666666Y-75360533D02*
X8619047Y-75503390D01*
X8619047Y-75503390D02*
X8047619Y-76074819D01*
X8047619Y-76074819D02*
X8666666Y-76074819D01*
X5238095Y-3304819D02*
X5238095Y-2304819D01*
X5238095Y-2781009D02*
X5809523Y-2781009D01*
X5809523Y-3304819D02*
X5809523Y-2304819D01*
X6809523Y-3304819D02*
X6238095Y-3304819D01*
X6523809Y-3304819D02*
X6523809Y-2304819D01*
X6523809Y-2304819D02*
X6428571Y-2447676D01*
X6428571Y-2447676D02*
X6333333Y-2542914D01*
X6333333Y-2542914D02*
X6238095Y-2590533D01*
X26666667Y-102957200D02*
X26809524Y-103004819D01*
X26809524Y-103004819D02*
X27047619Y-103004819D01*
X27047619Y-103004819D02*
X27142857Y-102957200D01*
X27142857Y-102957200D02*
X27190476Y-102909580D01*
X27190476Y-102909580D02*
X27238095Y-102814342D01*
X27238095Y-102814342D02*
X27238095Y-102719104D01*
X27238095Y-102719104D02*
X27190476Y-102623866D01*
X27190476Y-102623866D02*
X27142857Y-102576247D01*
X27142857Y-102576247D02*
X27047619Y-102528628D01*
X27047619Y-102528628D02*
X26857143Y-102481009D01*
X26857143Y-102481009D02*
X26761905Y-102433390D01*
X26761905Y-102433390D02*
X26714286Y-102385771D01*
X26714286Y-102385771D02*
X26666667Y-102290533D01*
X26666667Y-102290533D02*
X26666667Y-102195295D01*
X26666667Y-102195295D02*
X26714286Y-102100057D01*
X26714286Y-102100057D02*
X26761905Y-102052438D01*
X26761905Y-102052438D02*
X26857143Y-102004819D01*
X26857143Y-102004819D02*
X27095238Y-102004819D01*
X27095238Y-102004819D02*
X27238095Y-102052438D01*
X27571429Y-102004819D02*
X27809524Y-103004819D01*
X27809524Y-103004819D02*
X28000000Y-102290533D01*
X28000000Y-102290533D02*
X28190476Y-103004819D01*
X28190476Y-103004819D02*
X28428572Y-102004819D01*
X28714286Y-102004819D02*
X29380952Y-102004819D01*
X29380952Y-102004819D02*
X28952381Y-103004819D01*
X12666667Y-102957200D02*
X12809524Y-103004819D01*
X12809524Y-103004819D02*
X13047619Y-103004819D01*
X13047619Y-103004819D02*
X13142857Y-102957200D01*
X13142857Y-102957200D02*
X13190476Y-102909580D01*
X13190476Y-102909580D02*
X13238095Y-102814342D01*
X13238095Y-102814342D02*
X13238095Y-102719104D01*
X13238095Y-102719104D02*
X13190476Y-102623866D01*
X13190476Y-102623866D02*
X13142857Y-102576247D01*
X13142857Y-102576247D02*
X13047619Y-102528628D01*
X13047619Y-102528628D02*
X12857143Y-102481009D01*
X12857143Y-102481009D02*
X12761905Y-102433390D01*
X12761905Y-102433390D02*
X12714286Y-102385771D01*
X12714286Y-102385771D02*
X12666667Y-102290533D01*
X12666667Y-102290533D02*
X12666667Y-102195295D01*
X12666667Y-102195295D02*
X12714286Y-102100057D01*
X12714286Y-102100057D02*
X12761905Y-102052438D01*
X12761905Y-102052438D02*
X12857143Y-102004819D01*
X12857143Y-102004819D02*
X13095238Y-102004819D01*
X13095238Y-102004819D02*
X13238095Y-102052438D01*
X13571429Y-102004819D02*
X13809524Y-103004819D01*
X13809524Y-103004819D02*
X14000000Y-102290533D01*
X14000000Y-102290533D02*
X14190476Y-103004819D01*
X14190476Y-103004819D02*
X14428572Y-102004819D01*
X15238095Y-102004819D02*
X15047619Y-102004819D01*
X15047619Y-102004819D02*
X14952381Y-102052438D01*
X14952381Y-102052438D02*
X14904762Y-102100057D01*
X14904762Y-102100057D02*
X14809524Y-102242914D01*
X14809524Y-102242914D02*
X14761905Y-102433390D01*
X14761905Y-102433390D02*
X14761905Y-102814342D01*
X14761905Y-102814342D02*
X14809524Y-102909580D01*
X14809524Y-102909580D02*
X14857143Y-102957200D01*
X14857143Y-102957200D02*
X14952381Y-103004819D01*
X14952381Y-103004819D02*
X15142857Y-103004819D01*
X15142857Y-103004819D02*
X15238095Y-102957200D01*
X15238095Y-102957200D02*
X15285714Y-102909580D01*
X15285714Y-102909580D02*
X15333333Y-102814342D01*
X15333333Y-102814342D02*
X15333333Y-102576247D01*
X15333333Y-102576247D02*
X15285714Y-102481009D01*
X15285714Y-102481009D02*
X15238095Y-102433390D01*
X15238095Y-102433390D02*
X15142857Y-102385771D01*
X15142857Y-102385771D02*
X14952381Y-102385771D01*
X14952381Y-102385771D02*
X14857143Y-102433390D01*
X14857143Y-102433390D02*
X14809524Y-102481009D01*
X14809524Y-102481009D02*
X14761905Y-102576247D01*
X12190476Y-126957200D02*
X12333333Y-127004819D01*
X12333333Y-127004819D02*
X12571428Y-127004819D01*
X12571428Y-127004819D02*
X12666666Y-126957200D01*
X12666666Y-126957200D02*
X12714285Y-126909580D01*
X12714285Y-126909580D02*
X12761904Y-126814342D01*
X12761904Y-126814342D02*
X12761904Y-126719104D01*
X12761904Y-126719104D02*
X12714285Y-126623866D01*
X12714285Y-126623866D02*
X12666666Y-126576247D01*
X12666666Y-126576247D02*
X12571428Y-126528628D01*
X12571428Y-126528628D02*
X12380952Y-126481009D01*
X12380952Y-126481009D02*
X12285714Y-126433390D01*
X12285714Y-126433390D02*
X12238095Y-126385771D01*
X12238095Y-126385771D02*
X12190476Y-126290533D01*
X12190476Y-126290533D02*
X12190476Y-126195295D01*
X12190476Y-126195295D02*
X12238095Y-126100057D01*
X12238095Y-126100057D02*
X12285714Y-126052438D01*
X12285714Y-126052438D02*
X12380952Y-126004819D01*
X12380952Y-126004819D02*
X12619047Y-126004819D01*
X12619047Y-126004819D02*
X12761904Y-126052438D01*
X13095238Y-126004819D02*
X13333333Y-127004819D01*
X13333333Y-127004819D02*
X13523809Y-126290533D01*
X13523809Y-126290533D02*
X13714285Y-127004819D01*
X13714285Y-127004819D02*
X13952381Y-126004819D01*
X14857142Y-127004819D02*
X14285714Y-127004819D01*
X14571428Y-127004819D02*
X14571428Y-126004819D01*
X14571428Y-126004819D02*
X14476190Y-126147676D01*
X14476190Y-126147676D02*
X14380952Y-126242914D01*
X14380952Y-126242914D02*
X14285714Y-126290533D01*
X15714285Y-126338152D02*
X15714285Y-127004819D01*
X15476190Y-125957200D02*
X15238095Y-126671485D01*
X15238095Y-126671485D02*
X15857142Y-126671485D01*
X54666667Y-102957200D02*
X54809524Y-103004819D01*
X54809524Y-103004819D02*
X55047619Y-103004819D01*
X55047619Y-103004819D02*
X55142857Y-102957200D01*
X55142857Y-102957200D02*
X55190476Y-102909580D01*
X55190476Y-102909580D02*
X55238095Y-102814342D01*
X55238095Y-102814342D02*
X55238095Y-102719104D01*
X55238095Y-102719104D02*
X55190476Y-102623866D01*
X55190476Y-102623866D02*
X55142857Y-102576247D01*
X55142857Y-102576247D02*
X55047619Y-102528628D01*
X55047619Y-102528628D02*
X54857143Y-102481009D01*
X54857143Y-102481009D02*
X54761905Y-102433390D01*
X54761905Y-102433390D02*
X54714286Y-102385771D01*
X54714286Y-102385771D02*
X54666667Y-102290533D01*
X54666667Y-102290533D02*
X54666667Y-102195295D01*
X54666667Y-102195295D02*
X54714286Y-102100057D01*
X54714286Y-102100057D02*
X54761905Y-102052438D01*
X54761905Y-102052438D02*
X54857143Y-102004819D01*
X54857143Y-102004819D02*
X55095238Y-102004819D01*
X55095238Y-102004819D02*
X55238095Y-102052438D01*
X55571429Y-102004819D02*
X55809524Y-103004819D01*
X55809524Y-103004819D02*
X56000000Y-102290533D01*
X56000000Y-102290533D02*
X56190476Y-103004819D01*
X56190476Y-103004819D02*
X56428572Y-102004819D01*
X56857143Y-103004819D02*
X57047619Y-103004819D01*
X57047619Y-103004819D02*
X57142857Y-102957200D01*
X57142857Y-102957200D02*
X57190476Y-102909580D01*
X57190476Y-102909580D02*
X57285714Y-102766723D01*
X57285714Y-102766723D02*
X57333333Y-102576247D01*
X57333333Y-102576247D02*
X57333333Y-102195295D01*
X57333333Y-102195295D02*
X57285714Y-102100057D01*
X57285714Y-102100057D02*
X57238095Y-102052438D01*
X57238095Y-102052438D02*
X57142857Y-102004819D01*
X57142857Y-102004819D02*
X56952381Y-102004819D01*
X56952381Y-102004819D02*
X56857143Y-102052438D01*
X56857143Y-102052438D02*
X56809524Y-102100057D01*
X56809524Y-102100057D02*
X56761905Y-102195295D01*
X56761905Y-102195295D02*
X56761905Y-102433390D01*
X56761905Y-102433390D02*
X56809524Y-102528628D01*
X56809524Y-102528628D02*
X56857143Y-102576247D01*
X56857143Y-102576247D02*
X56952381Y-102623866D01*
X56952381Y-102623866D02*
X57142857Y-102623866D01*
X57142857Y-102623866D02*
X57238095Y-102576247D01*
X57238095Y-102576247D02*
X57285714Y-102528628D01*
X57285714Y-102528628D02*
X57333333Y-102433390D01*
X47833333Y-138804819D02*
X47500000Y-138328628D01*
X47261905Y-138804819D02*
X47261905Y-137804819D01*
X47261905Y-137804819D02*
X47642857Y-137804819D01*
X47642857Y-137804819D02*
X47738095Y-137852438D01*
X47738095Y-137852438D02*
X47785714Y-137900057D01*
X47785714Y-137900057D02*
X47833333Y-137995295D01*
X47833333Y-137995295D02*
X47833333Y-138138152D01*
X47833333Y-138138152D02*
X47785714Y-138233390D01*
X47785714Y-138233390D02*
X47738095Y-138281009D01*
X47738095Y-138281009D02*
X47642857Y-138328628D01*
X47642857Y-138328628D02*
X47261905Y-138328628D01*
X48785714Y-138804819D02*
X48214286Y-138804819D01*
X48500000Y-138804819D02*
X48500000Y-137804819D01*
X48500000Y-137804819D02*
X48404762Y-137947676D01*
X48404762Y-137947676D02*
X48309524Y-138042914D01*
X48309524Y-138042914D02*
X48214286Y-138090533D01*
X7666666Y-107074819D02*
X7666666Y-107789104D01*
X7666666Y-107789104D02*
X7619047Y-107931961D01*
X7619047Y-107931961D02*
X7523809Y-108027200D01*
X7523809Y-108027200D02*
X7380952Y-108074819D01*
X7380952Y-108074819D02*
X7285714Y-108074819D01*
X8571428Y-107408152D02*
X8571428Y-108074819D01*
X8333333Y-107027200D02*
X8095238Y-107741485D01*
X8095238Y-107741485D02*
X8714285Y-107741485D01*
X69238095Y-3304819D02*
X69238095Y-2304819D01*
X69238095Y-2781009D02*
X69809523Y-2781009D01*
X69809523Y-3304819D02*
X69809523Y-2304819D01*
X70238095Y-2400057D02*
X70285714Y-2352438D01*
X70285714Y-2352438D02*
X70380952Y-2304819D01*
X70380952Y-2304819D02*
X70619047Y-2304819D01*
X70619047Y-2304819D02*
X70714285Y-2352438D01*
X70714285Y-2352438D02*
X70761904Y-2400057D01*
X70761904Y-2400057D02*
X70809523Y-2495295D01*
X70809523Y-2495295D02*
X70809523Y-2590533D01*
X70809523Y-2590533D02*
X70761904Y-2733390D01*
X70761904Y-2733390D02*
X70190476Y-3304819D01*
X70190476Y-3304819D02*
X70809523Y-3304819D01*
X41833333Y-58509580D02*
X41785714Y-58557200D01*
X41785714Y-58557200D02*
X41642857Y-58604819D01*
X41642857Y-58604819D02*
X41547619Y-58604819D01*
X41547619Y-58604819D02*
X41404762Y-58557200D01*
X41404762Y-58557200D02*
X41309524Y-58461961D01*
X41309524Y-58461961D02*
X41261905Y-58366723D01*
X41261905Y-58366723D02*
X41214286Y-58176247D01*
X41214286Y-58176247D02*
X41214286Y-58033390D01*
X41214286Y-58033390D02*
X41261905Y-57842914D01*
X41261905Y-57842914D02*
X41309524Y-57747676D01*
X41309524Y-57747676D02*
X41404762Y-57652438D01*
X41404762Y-57652438D02*
X41547619Y-57604819D01*
X41547619Y-57604819D02*
X41642857Y-57604819D01*
X41642857Y-57604819D02*
X41785714Y-57652438D01*
X41785714Y-57652438D02*
X41833333Y-57700057D01*
X42690476Y-57938152D02*
X42690476Y-58604819D01*
X42452381Y-57557200D02*
X42214286Y-58271485D01*
X42214286Y-58271485D02*
X42833333Y-58271485D01*
X54190476Y-114957200D02*
X54333333Y-115004819D01*
X54333333Y-115004819D02*
X54571428Y-115004819D01*
X54571428Y-115004819D02*
X54666666Y-114957200D01*
X54666666Y-114957200D02*
X54714285Y-114909580D01*
X54714285Y-114909580D02*
X54761904Y-114814342D01*
X54761904Y-114814342D02*
X54761904Y-114719104D01*
X54761904Y-114719104D02*
X54714285Y-114623866D01*
X54714285Y-114623866D02*
X54666666Y-114576247D01*
X54666666Y-114576247D02*
X54571428Y-114528628D01*
X54571428Y-114528628D02*
X54380952Y-114481009D01*
X54380952Y-114481009D02*
X54285714Y-114433390D01*
X54285714Y-114433390D02*
X54238095Y-114385771D01*
X54238095Y-114385771D02*
X54190476Y-114290533D01*
X54190476Y-114290533D02*
X54190476Y-114195295D01*
X54190476Y-114195295D02*
X54238095Y-114100057D01*
X54238095Y-114100057D02*
X54285714Y-114052438D01*
X54285714Y-114052438D02*
X54380952Y-114004819D01*
X54380952Y-114004819D02*
X54619047Y-114004819D01*
X54619047Y-114004819D02*
X54761904Y-114052438D01*
X55095238Y-114004819D02*
X55333333Y-115004819D01*
X55333333Y-115004819D02*
X55523809Y-114290533D01*
X55523809Y-114290533D02*
X55714285Y-115004819D01*
X55714285Y-115004819D02*
X55952381Y-114004819D01*
X56857142Y-115004819D02*
X56285714Y-115004819D01*
X56571428Y-115004819D02*
X56571428Y-114004819D01*
X56571428Y-114004819D02*
X56476190Y-114147676D01*
X56476190Y-114147676D02*
X56380952Y-114242914D01*
X56380952Y-114242914D02*
X56285714Y-114290533D01*
X57190476Y-114004819D02*
X57809523Y-114004819D01*
X57809523Y-114004819D02*
X57476190Y-114385771D01*
X57476190Y-114385771D02*
X57619047Y-114385771D01*
X57619047Y-114385771D02*
X57714285Y-114433390D01*
X57714285Y-114433390D02*
X57761904Y-114481009D01*
X57761904Y-114481009D02*
X57809523Y-114576247D01*
X57809523Y-114576247D02*
X57809523Y-114814342D01*
X57809523Y-114814342D02*
X57761904Y-114909580D01*
X57761904Y-114909580D02*
X57714285Y-114957200D01*
X57714285Y-114957200D02*
X57619047Y-115004819D01*
X57619047Y-115004819D02*
X57333333Y-115004819D01*
X57333333Y-115004819D02*
X57238095Y-114957200D01*
X57238095Y-114957200D02*
X57190476Y-114909580D01*
X47833333Y-68804819D02*
X47500000Y-68328628D01*
X47261905Y-68804819D02*
X47261905Y-67804819D01*
X47261905Y-67804819D02*
X47642857Y-67804819D01*
X47642857Y-67804819D02*
X47738095Y-67852438D01*
X47738095Y-67852438D02*
X47785714Y-67900057D01*
X47785714Y-67900057D02*
X47833333Y-67995295D01*
X47833333Y-67995295D02*
X47833333Y-68138152D01*
X47833333Y-68138152D02*
X47785714Y-68233390D01*
X47785714Y-68233390D02*
X47738095Y-68281009D01*
X47738095Y-68281009D02*
X47642857Y-68328628D01*
X47642857Y-68328628D02*
X47261905Y-68328628D01*
X48690476Y-68138152D02*
X48690476Y-68804819D01*
X48452381Y-67757200D02*
X48214286Y-68471485D01*
X48214286Y-68471485D02*
X48833333Y-68471485D01*
X37238095Y-147054819D02*
X37238095Y-147864342D01*
X37238095Y-147864342D02*
X37285714Y-147959580D01*
X37285714Y-147959580D02*
X37333333Y-148007200D01*
X37333333Y-148007200D02*
X37428571Y-148054819D01*
X37428571Y-148054819D02*
X37619047Y-148054819D01*
X37619047Y-148054819D02*
X37714285Y-148007200D01*
X37714285Y-148007200D02*
X37761904Y-147959580D01*
X37761904Y-147959580D02*
X37809523Y-147864342D01*
X37809523Y-147864342D02*
X37809523Y-147054819D01*
X38428571Y-147483390D02*
X38333333Y-147435771D01*
X38333333Y-147435771D02*
X38285714Y-147388152D01*
X38285714Y-147388152D02*
X38238095Y-147292914D01*
X38238095Y-147292914D02*
X38238095Y-147245295D01*
X38238095Y-147245295D02*
X38285714Y-147150057D01*
X38285714Y-147150057D02*
X38333333Y-147102438D01*
X38333333Y-147102438D02*
X38428571Y-147054819D01*
X38428571Y-147054819D02*
X38619047Y-147054819D01*
X38619047Y-147054819D02*
X38714285Y-147102438D01*
X38714285Y-147102438D02*
X38761904Y-147150057D01*
X38761904Y-147150057D02*
X38809523Y-147245295D01*
X38809523Y-147245295D02*
X38809523Y-147292914D01*
X38809523Y-147292914D02*
X38761904Y-147388152D01*
X38761904Y-147388152D02*
X38714285Y-147435771D01*
X38714285Y-147435771D02*
X38619047Y-147483390D01*
X38619047Y-147483390D02*
X38428571Y-147483390D01*
X38428571Y-147483390D02*
X38333333Y-147531009D01*
X38333333Y-147531009D02*
X38285714Y-147578628D01*
X38285714Y-147578628D02*
X38238095Y-147673866D01*
X38238095Y-147673866D02*
X38238095Y-147864342D01*
X38238095Y-147864342D02*
X38285714Y-147959580D01*
X38285714Y-147959580D02*
X38333333Y-148007200D01*
X38333333Y-148007200D02*
X38428571Y-148054819D01*
X38428571Y-148054819D02*
X38619047Y-148054819D01*
X38619047Y-148054819D02*
X38714285Y-148007200D01*
X38714285Y-148007200D02*
X38761904Y-147959580D01*
X38761904Y-147959580D02*
X38809523Y-147864342D01*
X38809523Y-147864342D02*
X38809523Y-147673866D01*
X38809523Y-147673866D02*
X38761904Y-147578628D01*
X38761904Y-147578628D02*
X38714285Y-147531009D01*
X38714285Y-147531009D02*
X38619047Y-147483390D01*
X40666667Y-102957200D02*
X40809524Y-103004819D01*
X40809524Y-103004819D02*
X41047619Y-103004819D01*
X41047619Y-103004819D02*
X41142857Y-102957200D01*
X41142857Y-102957200D02*
X41190476Y-102909580D01*
X41190476Y-102909580D02*
X41238095Y-102814342D01*
X41238095Y-102814342D02*
X41238095Y-102719104D01*
X41238095Y-102719104D02*
X41190476Y-102623866D01*
X41190476Y-102623866D02*
X41142857Y-102576247D01*
X41142857Y-102576247D02*
X41047619Y-102528628D01*
X41047619Y-102528628D02*
X40857143Y-102481009D01*
X40857143Y-102481009D02*
X40761905Y-102433390D01*
X40761905Y-102433390D02*
X40714286Y-102385771D01*
X40714286Y-102385771D02*
X40666667Y-102290533D01*
X40666667Y-102290533D02*
X40666667Y-102195295D01*
X40666667Y-102195295D02*
X40714286Y-102100057D01*
X40714286Y-102100057D02*
X40761905Y-102052438D01*
X40761905Y-102052438D02*
X40857143Y-102004819D01*
X40857143Y-102004819D02*
X41095238Y-102004819D01*
X41095238Y-102004819D02*
X41238095Y-102052438D01*
X41571429Y-102004819D02*
X41809524Y-103004819D01*
X41809524Y-103004819D02*
X42000000Y-102290533D01*
X42000000Y-102290533D02*
X42190476Y-103004819D01*
X42190476Y-103004819D02*
X42428572Y-102004819D01*
X42952381Y-102433390D02*
X42857143Y-102385771D01*
X42857143Y-102385771D02*
X42809524Y-102338152D01*
X42809524Y-102338152D02*
X42761905Y-102242914D01*
X42761905Y-102242914D02*
X42761905Y-102195295D01*
X42761905Y-102195295D02*
X42809524Y-102100057D01*
X42809524Y-102100057D02*
X42857143Y-102052438D01*
X42857143Y-102052438D02*
X42952381Y-102004819D01*
X42952381Y-102004819D02*
X43142857Y-102004819D01*
X43142857Y-102004819D02*
X43238095Y-102052438D01*
X43238095Y-102052438D02*
X43285714Y-102100057D01*
X43285714Y-102100057D02*
X43333333Y-102195295D01*
X43333333Y-102195295D02*
X43333333Y-102242914D01*
X43333333Y-102242914D02*
X43285714Y-102338152D01*
X43285714Y-102338152D02*
X43238095Y-102385771D01*
X43238095Y-102385771D02*
X43142857Y-102433390D01*
X43142857Y-102433390D02*
X42952381Y-102433390D01*
X42952381Y-102433390D02*
X42857143Y-102481009D01*
X42857143Y-102481009D02*
X42809524Y-102528628D01*
X42809524Y-102528628D02*
X42761905Y-102623866D01*
X42761905Y-102623866D02*
X42761905Y-102814342D01*
X42761905Y-102814342D02*
X42809524Y-102909580D01*
X42809524Y-102909580D02*
X42857143Y-102957200D01*
X42857143Y-102957200D02*
X42952381Y-103004819D01*
X42952381Y-103004819D02*
X43142857Y-103004819D01*
X43142857Y-103004819D02*
X43238095Y-102957200D01*
X43238095Y-102957200D02*
X43285714Y-102909580D01*
X43285714Y-102909580D02*
X43333333Y-102814342D01*
X43333333Y-102814342D02*
X43333333Y-102623866D01*
X43333333Y-102623866D02*
X43285714Y-102528628D01*
X43285714Y-102528628D02*
X43238095Y-102481009D01*
X43238095Y-102481009D02*
X43142857Y-102433390D01*
X54190476Y-126957200D02*
X54333333Y-127004819D01*
X54333333Y-127004819D02*
X54571428Y-127004819D01*
X54571428Y-127004819D02*
X54666666Y-126957200D01*
X54666666Y-126957200D02*
X54714285Y-126909580D01*
X54714285Y-126909580D02*
X54761904Y-126814342D01*
X54761904Y-126814342D02*
X54761904Y-126719104D01*
X54761904Y-126719104D02*
X54714285Y-126623866D01*
X54714285Y-126623866D02*
X54666666Y-126576247D01*
X54666666Y-126576247D02*
X54571428Y-126528628D01*
X54571428Y-126528628D02*
X54380952Y-126481009D01*
X54380952Y-126481009D02*
X54285714Y-126433390D01*
X54285714Y-126433390D02*
X54238095Y-126385771D01*
X54238095Y-126385771D02*
X54190476Y-126290533D01*
X54190476Y-126290533D02*
X54190476Y-126195295D01*
X54190476Y-126195295D02*
X54238095Y-126100057D01*
X54238095Y-126100057D02*
X54285714Y-126052438D01*
X54285714Y-126052438D02*
X54380952Y-126004819D01*
X54380952Y-126004819D02*
X54619047Y-126004819D01*
X54619047Y-126004819D02*
X54761904Y-126052438D01*
X55095238Y-126004819D02*
X55333333Y-127004819D01*
X55333333Y-127004819D02*
X55523809Y-126290533D01*
X55523809Y-126290533D02*
X55714285Y-127004819D01*
X55714285Y-127004819D02*
X55952381Y-126004819D01*
X56857142Y-127004819D02*
X56285714Y-127004819D01*
X56571428Y-127004819D02*
X56571428Y-126004819D01*
X56571428Y-126004819D02*
X56476190Y-126147676D01*
X56476190Y-126147676D02*
X56380952Y-126242914D01*
X56380952Y-126242914D02*
X56285714Y-126290533D01*
X57190476Y-126004819D02*
X57857142Y-126004819D01*
X57857142Y-126004819D02*
X57428571Y-127004819D01*
X40066667Y-71807200D02*
X40209524Y-71854819D01*
X40209524Y-71854819D02*
X40447619Y-71854819D01*
X40447619Y-71854819D02*
X40542857Y-71807200D01*
X40542857Y-71807200D02*
X40590476Y-71759580D01*
X40590476Y-71759580D02*
X40638095Y-71664342D01*
X40638095Y-71664342D02*
X40638095Y-71569104D01*
X40638095Y-71569104D02*
X40590476Y-71473866D01*
X40590476Y-71473866D02*
X40542857Y-71426247D01*
X40542857Y-71426247D02*
X40447619Y-71378628D01*
X40447619Y-71378628D02*
X40257143Y-71331009D01*
X40257143Y-71331009D02*
X40161905Y-71283390D01*
X40161905Y-71283390D02*
X40114286Y-71235771D01*
X40114286Y-71235771D02*
X40066667Y-71140533D01*
X40066667Y-71140533D02*
X40066667Y-71045295D01*
X40066667Y-71045295D02*
X40114286Y-70950057D01*
X40114286Y-70950057D02*
X40161905Y-70902438D01*
X40161905Y-70902438D02*
X40257143Y-70854819D01*
X40257143Y-70854819D02*
X40495238Y-70854819D01*
X40495238Y-70854819D02*
X40638095Y-70902438D01*
X40971429Y-70854819D02*
X41209524Y-71854819D01*
X41209524Y-71854819D02*
X41400000Y-71140533D01*
X41400000Y-71140533D02*
X41590476Y-71854819D01*
X41590476Y-71854819D02*
X41828572Y-70854819D01*
X42733333Y-71854819D02*
X42161905Y-71854819D01*
X42447619Y-71854819D02*
X42447619Y-70854819D01*
X42447619Y-70854819D02*
X42352381Y-70997676D01*
X42352381Y-70997676D02*
X42257143Y-71092914D01*
X42257143Y-71092914D02*
X42161905Y-71140533D01*
X26190476Y-126957200D02*
X26333333Y-127004819D01*
X26333333Y-127004819D02*
X26571428Y-127004819D01*
X26571428Y-127004819D02*
X26666666Y-126957200D01*
X26666666Y-126957200D02*
X26714285Y-126909580D01*
X26714285Y-126909580D02*
X26761904Y-126814342D01*
X26761904Y-126814342D02*
X26761904Y-126719104D01*
X26761904Y-126719104D02*
X26714285Y-126623866D01*
X26714285Y-126623866D02*
X26666666Y-126576247D01*
X26666666Y-126576247D02*
X26571428Y-126528628D01*
X26571428Y-126528628D02*
X26380952Y-126481009D01*
X26380952Y-126481009D02*
X26285714Y-126433390D01*
X26285714Y-126433390D02*
X26238095Y-126385771D01*
X26238095Y-126385771D02*
X26190476Y-126290533D01*
X26190476Y-126290533D02*
X26190476Y-126195295D01*
X26190476Y-126195295D02*
X26238095Y-126100057D01*
X26238095Y-126100057D02*
X26285714Y-126052438D01*
X26285714Y-126052438D02*
X26380952Y-126004819D01*
X26380952Y-126004819D02*
X26619047Y-126004819D01*
X26619047Y-126004819D02*
X26761904Y-126052438D01*
X27095238Y-126004819D02*
X27333333Y-127004819D01*
X27333333Y-127004819D02*
X27523809Y-126290533D01*
X27523809Y-126290533D02*
X27714285Y-127004819D01*
X27714285Y-127004819D02*
X27952381Y-126004819D01*
X28857142Y-127004819D02*
X28285714Y-127004819D01*
X28571428Y-127004819D02*
X28571428Y-126004819D01*
X28571428Y-126004819D02*
X28476190Y-126147676D01*
X28476190Y-126147676D02*
X28380952Y-126242914D01*
X28380952Y-126242914D02*
X28285714Y-126290533D01*
X29761904Y-126004819D02*
X29285714Y-126004819D01*
X29285714Y-126004819D02*
X29238095Y-126481009D01*
X29238095Y-126481009D02*
X29285714Y-126433390D01*
X29285714Y-126433390D02*
X29380952Y-126385771D01*
X29380952Y-126385771D02*
X29619047Y-126385771D01*
X29619047Y-126385771D02*
X29714285Y-126433390D01*
X29714285Y-126433390D02*
X29761904Y-126481009D01*
X29761904Y-126481009D02*
X29809523Y-126576247D01*
X29809523Y-126576247D02*
X29809523Y-126814342D01*
X29809523Y-126814342D02*
X29761904Y-126909580D01*
X29761904Y-126909580D02*
X29714285Y-126957200D01*
X29714285Y-126957200D02*
X29619047Y-127004819D01*
X29619047Y-127004819D02*
X29380952Y-127004819D01*
X29380952Y-127004819D02*
X29285714Y-126957200D01*
X29285714Y-126957200D02*
X29238095Y-126909580D01*
X35654819Y-25333333D02*
X36369104Y-25333333D01*
X36369104Y-25333333D02*
X36511961Y-25380952D01*
X36511961Y-25380952D02*
X36607200Y-25476190D01*
X36607200Y-25476190D02*
X36654819Y-25619047D01*
X36654819Y-25619047D02*
X36654819Y-25714285D01*
X36654819Y-24333333D02*
X36654819Y-24904761D01*
X36654819Y-24619047D02*
X35654819Y-24619047D01*
X35654819Y-24619047D02*
X35797676Y-24714285D01*
X35797676Y-24714285D02*
X35892914Y-24809523D01*
X35892914Y-24809523D02*
X35940533Y-24904761D01*
D11*
X37947618Y-6313855D02*
X37490475Y-6313855D01*
X37719047Y-6313855D02*
X37719047Y-5513855D01*
X37719047Y-5513855D02*
X37642856Y-5628140D01*
X37642856Y-5628140D02*
X37566666Y-5704331D01*
X37566666Y-5704331D02*
X37490475Y-5742426D01*
X38709523Y-6313855D02*
X38252380Y-6313855D01*
X38480952Y-6313855D02*
X38480952Y-5513855D01*
X38480952Y-5513855D02*
X38404761Y-5628140D01*
X38404761Y-5628140D02*
X38328571Y-5704331D01*
X38328571Y-5704331D02*
X38252380Y-5742426D01*
X39052381Y-6313855D02*
X39052381Y-5513855D01*
X39052381Y-5513855D02*
X39357143Y-5513855D01*
X39357143Y-5513855D02*
X39433333Y-5551950D01*
X39433333Y-5551950D02*
X39471428Y-5590045D01*
X39471428Y-5590045D02*
X39509524Y-5666236D01*
X39509524Y-5666236D02*
X39509524Y-5780521D01*
X39509524Y-5780521D02*
X39471428Y-5856712D01*
X39471428Y-5856712D02*
X39433333Y-5894807D01*
X39433333Y-5894807D02*
X39357143Y-5932902D01*
X39357143Y-5932902D02*
X39052381Y-5932902D01*
X37947618Y-44413855D02*
X37490475Y-44413855D01*
X37719047Y-44413855D02*
X37719047Y-43613855D01*
X37719047Y-43613855D02*
X37642856Y-43728140D01*
X37642856Y-43728140D02*
X37566666Y-43804331D01*
X37566666Y-43804331D02*
X37490475Y-43842426D01*
X38252380Y-43690045D02*
X38290476Y-43651950D01*
X38290476Y-43651950D02*
X38366666Y-43613855D01*
X38366666Y-43613855D02*
X38557142Y-43613855D01*
X38557142Y-43613855D02*
X38633333Y-43651950D01*
X38633333Y-43651950D02*
X38671428Y-43690045D01*
X38671428Y-43690045D02*
X38709523Y-43766236D01*
X38709523Y-43766236D02*
X38709523Y-43842426D01*
X38709523Y-43842426D02*
X38671428Y-43956712D01*
X38671428Y-43956712D02*
X38214285Y-44413855D01*
X38214285Y-44413855D02*
X38709523Y-44413855D01*
X39052381Y-44413855D02*
X39052381Y-43613855D01*
X39052381Y-43613855D02*
X39357143Y-43613855D01*
X39357143Y-43613855D02*
X39433333Y-43651950D01*
X39433333Y-43651950D02*
X39471428Y-43690045D01*
X39471428Y-43690045D02*
X39509524Y-43766236D01*
X39509524Y-43766236D02*
X39509524Y-43880521D01*
X39509524Y-43880521D02*
X39471428Y-43956712D01*
X39471428Y-43956712D02*
X39433333Y-43994807D01*
X39433333Y-43994807D02*
X39357143Y-44032902D01*
X39357143Y-44032902D02*
X39052381Y-44032902D01*
D10*
X27833333Y-138509580D02*
X27785714Y-138557200D01*
X27785714Y-138557200D02*
X27642857Y-138604819D01*
X27642857Y-138604819D02*
X27547619Y-138604819D01*
X27547619Y-138604819D02*
X27404762Y-138557200D01*
X27404762Y-138557200D02*
X27309524Y-138461961D01*
X27309524Y-138461961D02*
X27261905Y-138366723D01*
X27261905Y-138366723D02*
X27214286Y-138176247D01*
X27214286Y-138176247D02*
X27214286Y-138033390D01*
X27214286Y-138033390D02*
X27261905Y-137842914D01*
X27261905Y-137842914D02*
X27309524Y-137747676D01*
X27309524Y-137747676D02*
X27404762Y-137652438D01*
X27404762Y-137652438D02*
X27547619Y-137604819D01*
X27547619Y-137604819D02*
X27642857Y-137604819D01*
X27642857Y-137604819D02*
X27785714Y-137652438D01*
X27785714Y-137652438D02*
X27833333Y-137700057D01*
X28214286Y-137700057D02*
X28261905Y-137652438D01*
X28261905Y-137652438D02*
X28357143Y-137604819D01*
X28357143Y-137604819D02*
X28595238Y-137604819D01*
X28595238Y-137604819D02*
X28690476Y-137652438D01*
X28690476Y-137652438D02*
X28738095Y-137700057D01*
X28738095Y-137700057D02*
X28785714Y-137795295D01*
X28785714Y-137795295D02*
X28785714Y-137890533D01*
X28785714Y-137890533D02*
X28738095Y-138033390D01*
X28738095Y-138033390D02*
X28166667Y-138604819D01*
X28166667Y-138604819D02*
X28785714Y-138604819D01*
X67666666Y-112074819D02*
X67666666Y-112789104D01*
X67666666Y-112789104D02*
X67619047Y-112931961D01*
X67619047Y-112931961D02*
X67523809Y-113027200D01*
X67523809Y-113027200D02*
X67380952Y-113074819D01*
X67380952Y-113074819D02*
X67285714Y-113074819D01*
X68619047Y-112074819D02*
X68142857Y-112074819D01*
X68142857Y-112074819D02*
X68095238Y-112551009D01*
X68095238Y-112551009D02*
X68142857Y-112503390D01*
X68142857Y-112503390D02*
X68238095Y-112455771D01*
X68238095Y-112455771D02*
X68476190Y-112455771D01*
X68476190Y-112455771D02*
X68571428Y-112503390D01*
X68571428Y-112503390D02*
X68619047Y-112551009D01*
X68619047Y-112551009D02*
X68666666Y-112646247D01*
X68666666Y-112646247D02*
X68666666Y-112884342D01*
X68666666Y-112884342D02*
X68619047Y-112979580D01*
X68619047Y-112979580D02*
X68571428Y-113027200D01*
X68571428Y-113027200D02*
X68476190Y-113074819D01*
X68476190Y-113074819D02*
X68238095Y-113074819D01*
X68238095Y-113074819D02*
X68142857Y-113027200D01*
X68142857Y-113027200D02*
X68095238Y-112979580D01*
X37833333Y-138509580D02*
X37785714Y-138557200D01*
X37785714Y-138557200D02*
X37642857Y-138604819D01*
X37642857Y-138604819D02*
X37547619Y-138604819D01*
X37547619Y-138604819D02*
X37404762Y-138557200D01*
X37404762Y-138557200D02*
X37309524Y-138461961D01*
X37309524Y-138461961D02*
X37261905Y-138366723D01*
X37261905Y-138366723D02*
X37214286Y-138176247D01*
X37214286Y-138176247D02*
X37214286Y-138033390D01*
X37214286Y-138033390D02*
X37261905Y-137842914D01*
X37261905Y-137842914D02*
X37309524Y-137747676D01*
X37309524Y-137747676D02*
X37404762Y-137652438D01*
X37404762Y-137652438D02*
X37547619Y-137604819D01*
X37547619Y-137604819D02*
X37642857Y-137604819D01*
X37642857Y-137604819D02*
X37785714Y-137652438D01*
X37785714Y-137652438D02*
X37833333Y-137700057D01*
X38166667Y-137604819D02*
X38785714Y-137604819D01*
X38785714Y-137604819D02*
X38452381Y-137985771D01*
X38452381Y-137985771D02*
X38595238Y-137985771D01*
X38595238Y-137985771D02*
X38690476Y-138033390D01*
X38690476Y-138033390D02*
X38738095Y-138081009D01*
X38738095Y-138081009D02*
X38785714Y-138176247D01*
X38785714Y-138176247D02*
X38785714Y-138414342D01*
X38785714Y-138414342D02*
X38738095Y-138509580D01*
X38738095Y-138509580D02*
X38690476Y-138557200D01*
X38690476Y-138557200D02*
X38595238Y-138604819D01*
X38595238Y-138604819D02*
X38309524Y-138604819D01*
X38309524Y-138604819D02*
X38214286Y-138557200D01*
X38214286Y-138557200D02*
X38166667Y-138509580D01*
X19190476Y-143554819D02*
X19190476Y-144269104D01*
X19190476Y-144269104D02*
X19142857Y-144411961D01*
X19142857Y-144411961D02*
X19047619Y-144507200D01*
X19047619Y-144507200D02*
X18904762Y-144554819D01*
X18904762Y-144554819D02*
X18809524Y-144554819D01*
X20190476Y-144554819D02*
X19619048Y-144554819D01*
X19904762Y-144554819D02*
X19904762Y-143554819D01*
X19904762Y-143554819D02*
X19809524Y-143697676D01*
X19809524Y-143697676D02*
X19714286Y-143792914D01*
X19714286Y-143792914D02*
X19619048Y-143840533D01*
X20523810Y-143554819D02*
X21142857Y-143554819D01*
X21142857Y-143554819D02*
X20809524Y-143935771D01*
X20809524Y-143935771D02*
X20952381Y-143935771D01*
X20952381Y-143935771D02*
X21047619Y-143983390D01*
X21047619Y-143983390D02*
X21095238Y-144031009D01*
X21095238Y-144031009D02*
X21142857Y-144126247D01*
X21142857Y-144126247D02*
X21142857Y-144364342D01*
X21142857Y-144364342D02*
X21095238Y-144459580D01*
X21095238Y-144459580D02*
X21047619Y-144507200D01*
X21047619Y-144507200D02*
X20952381Y-144554819D01*
X20952381Y-144554819D02*
X20666667Y-144554819D01*
X20666667Y-144554819D02*
X20571429Y-144507200D01*
X20571429Y-144507200D02*
X20523810Y-144459580D01*
X12190476Y-114957200D02*
X12333333Y-115004819D01*
X12333333Y-115004819D02*
X12571428Y-115004819D01*
X12571428Y-115004819D02*
X12666666Y-114957200D01*
X12666666Y-114957200D02*
X12714285Y-114909580D01*
X12714285Y-114909580D02*
X12761904Y-114814342D01*
X12761904Y-114814342D02*
X12761904Y-114719104D01*
X12761904Y-114719104D02*
X12714285Y-114623866D01*
X12714285Y-114623866D02*
X12666666Y-114576247D01*
X12666666Y-114576247D02*
X12571428Y-114528628D01*
X12571428Y-114528628D02*
X12380952Y-114481009D01*
X12380952Y-114481009D02*
X12285714Y-114433390D01*
X12285714Y-114433390D02*
X12238095Y-114385771D01*
X12238095Y-114385771D02*
X12190476Y-114290533D01*
X12190476Y-114290533D02*
X12190476Y-114195295D01*
X12190476Y-114195295D02*
X12238095Y-114100057D01*
X12238095Y-114100057D02*
X12285714Y-114052438D01*
X12285714Y-114052438D02*
X12380952Y-114004819D01*
X12380952Y-114004819D02*
X12619047Y-114004819D01*
X12619047Y-114004819D02*
X12761904Y-114052438D01*
X13095238Y-114004819D02*
X13333333Y-115004819D01*
X13333333Y-115004819D02*
X13523809Y-114290533D01*
X13523809Y-114290533D02*
X13714285Y-115004819D01*
X13714285Y-115004819D02*
X13952381Y-114004819D01*
X14857142Y-115004819D02*
X14285714Y-115004819D01*
X14571428Y-115004819D02*
X14571428Y-114004819D01*
X14571428Y-114004819D02*
X14476190Y-114147676D01*
X14476190Y-114147676D02*
X14380952Y-114242914D01*
X14380952Y-114242914D02*
X14285714Y-114290533D01*
X15476190Y-114004819D02*
X15571428Y-114004819D01*
X15571428Y-114004819D02*
X15666666Y-114052438D01*
X15666666Y-114052438D02*
X15714285Y-114100057D01*
X15714285Y-114100057D02*
X15761904Y-114195295D01*
X15761904Y-114195295D02*
X15809523Y-114385771D01*
X15809523Y-114385771D02*
X15809523Y-114623866D01*
X15809523Y-114623866D02*
X15761904Y-114814342D01*
X15761904Y-114814342D02*
X15714285Y-114909580D01*
X15714285Y-114909580D02*
X15666666Y-114957200D01*
X15666666Y-114957200D02*
X15571428Y-115004819D01*
X15571428Y-115004819D02*
X15476190Y-115004819D01*
X15476190Y-115004819D02*
X15380952Y-114957200D01*
X15380952Y-114957200D02*
X15333333Y-114909580D01*
X15333333Y-114909580D02*
X15285714Y-114814342D01*
X15285714Y-114814342D02*
X15238095Y-114623866D01*
X15238095Y-114623866D02*
X15238095Y-114385771D01*
X15238095Y-114385771D02*
X15285714Y-114195295D01*
X15285714Y-114195295D02*
X15333333Y-114100057D01*
X15333333Y-114100057D02*
X15380952Y-114052438D01*
X15380952Y-114052438D02*
X15476190Y-114004819D01*
X61666666Y-10754819D02*
X61666666Y-11469104D01*
X61666666Y-11469104D02*
X61619047Y-11611961D01*
X61619047Y-11611961D02*
X61523809Y-11707200D01*
X61523809Y-11707200D02*
X61380952Y-11754819D01*
X61380952Y-11754819D02*
X61285714Y-11754819D01*
X62285714Y-11183390D02*
X62190476Y-11135771D01*
X62190476Y-11135771D02*
X62142857Y-11088152D01*
X62142857Y-11088152D02*
X62095238Y-10992914D01*
X62095238Y-10992914D02*
X62095238Y-10945295D01*
X62095238Y-10945295D02*
X62142857Y-10850057D01*
X62142857Y-10850057D02*
X62190476Y-10802438D01*
X62190476Y-10802438D02*
X62285714Y-10754819D01*
X62285714Y-10754819D02*
X62476190Y-10754819D01*
X62476190Y-10754819D02*
X62571428Y-10802438D01*
X62571428Y-10802438D02*
X62619047Y-10850057D01*
X62619047Y-10850057D02*
X62666666Y-10945295D01*
X62666666Y-10945295D02*
X62666666Y-10992914D01*
X62666666Y-10992914D02*
X62619047Y-11088152D01*
X62619047Y-11088152D02*
X62571428Y-11135771D01*
X62571428Y-11135771D02*
X62476190Y-11183390D01*
X62476190Y-11183390D02*
X62285714Y-11183390D01*
X62285714Y-11183390D02*
X62190476Y-11231009D01*
X62190476Y-11231009D02*
X62142857Y-11278628D01*
X62142857Y-11278628D02*
X62095238Y-11373866D01*
X62095238Y-11373866D02*
X62095238Y-11564342D01*
X62095238Y-11564342D02*
X62142857Y-11659580D01*
X62142857Y-11659580D02*
X62190476Y-11707200D01*
X62190476Y-11707200D02*
X62285714Y-11754819D01*
X62285714Y-11754819D02*
X62476190Y-11754819D01*
X62476190Y-11754819D02*
X62571428Y-11707200D01*
X62571428Y-11707200D02*
X62619047Y-11659580D01*
X62619047Y-11659580D02*
X62666666Y-11564342D01*
X62666666Y-11564342D02*
X62666666Y-11373866D01*
X62666666Y-11373866D02*
X62619047Y-11278628D01*
X62619047Y-11278628D02*
X62571428Y-11231009D01*
X62571428Y-11231009D02*
X62476190Y-11183390D01*
X40190476Y-126957200D02*
X40333333Y-127004819D01*
X40333333Y-127004819D02*
X40571428Y-127004819D01*
X40571428Y-127004819D02*
X40666666Y-126957200D01*
X40666666Y-126957200D02*
X40714285Y-126909580D01*
X40714285Y-126909580D02*
X40761904Y-126814342D01*
X40761904Y-126814342D02*
X40761904Y-126719104D01*
X40761904Y-126719104D02*
X40714285Y-126623866D01*
X40714285Y-126623866D02*
X40666666Y-126576247D01*
X40666666Y-126576247D02*
X40571428Y-126528628D01*
X40571428Y-126528628D02*
X40380952Y-126481009D01*
X40380952Y-126481009D02*
X40285714Y-126433390D01*
X40285714Y-126433390D02*
X40238095Y-126385771D01*
X40238095Y-126385771D02*
X40190476Y-126290533D01*
X40190476Y-126290533D02*
X40190476Y-126195295D01*
X40190476Y-126195295D02*
X40238095Y-126100057D01*
X40238095Y-126100057D02*
X40285714Y-126052438D01*
X40285714Y-126052438D02*
X40380952Y-126004819D01*
X40380952Y-126004819D02*
X40619047Y-126004819D01*
X40619047Y-126004819D02*
X40761904Y-126052438D01*
X41095238Y-126004819D02*
X41333333Y-127004819D01*
X41333333Y-127004819D02*
X41523809Y-126290533D01*
X41523809Y-126290533D02*
X41714285Y-127004819D01*
X41714285Y-127004819D02*
X41952381Y-126004819D01*
X42857142Y-127004819D02*
X42285714Y-127004819D01*
X42571428Y-127004819D02*
X42571428Y-126004819D01*
X42571428Y-126004819D02*
X42476190Y-126147676D01*
X42476190Y-126147676D02*
X42380952Y-126242914D01*
X42380952Y-126242914D02*
X42285714Y-126290533D01*
X43714285Y-126004819D02*
X43523809Y-126004819D01*
X43523809Y-126004819D02*
X43428571Y-126052438D01*
X43428571Y-126052438D02*
X43380952Y-126100057D01*
X43380952Y-126100057D02*
X43285714Y-126242914D01*
X43285714Y-126242914D02*
X43238095Y-126433390D01*
X43238095Y-126433390D02*
X43238095Y-126814342D01*
X43238095Y-126814342D02*
X43285714Y-126909580D01*
X43285714Y-126909580D02*
X43333333Y-126957200D01*
X43333333Y-126957200D02*
X43428571Y-127004819D01*
X43428571Y-127004819D02*
X43619047Y-127004819D01*
X43619047Y-127004819D02*
X43714285Y-126957200D01*
X43714285Y-126957200D02*
X43761904Y-126909580D01*
X43761904Y-126909580D02*
X43809523Y-126814342D01*
X43809523Y-126814342D02*
X43809523Y-126576247D01*
X43809523Y-126576247D02*
X43761904Y-126481009D01*
X43761904Y-126481009D02*
X43714285Y-126433390D01*
X43714285Y-126433390D02*
X43619047Y-126385771D01*
X43619047Y-126385771D02*
X43428571Y-126385771D01*
X43428571Y-126385771D02*
X43333333Y-126433390D01*
X43333333Y-126433390D02*
X43285714Y-126481009D01*
X43285714Y-126481009D02*
X43238095Y-126576247D01*
X57833333Y-138804819D02*
X57500000Y-138328628D01*
X57261905Y-138804819D02*
X57261905Y-137804819D01*
X57261905Y-137804819D02*
X57642857Y-137804819D01*
X57642857Y-137804819D02*
X57738095Y-137852438D01*
X57738095Y-137852438D02*
X57785714Y-137900057D01*
X57785714Y-137900057D02*
X57833333Y-137995295D01*
X57833333Y-137995295D02*
X57833333Y-138138152D01*
X57833333Y-138138152D02*
X57785714Y-138233390D01*
X57785714Y-138233390D02*
X57738095Y-138281009D01*
X57738095Y-138281009D02*
X57642857Y-138328628D01*
X57642857Y-138328628D02*
X57261905Y-138328628D01*
X58214286Y-137900057D02*
X58261905Y-137852438D01*
X58261905Y-137852438D02*
X58357143Y-137804819D01*
X58357143Y-137804819D02*
X58595238Y-137804819D01*
X58595238Y-137804819D02*
X58690476Y-137852438D01*
X58690476Y-137852438D02*
X58738095Y-137900057D01*
X58738095Y-137900057D02*
X58785714Y-137995295D01*
X58785714Y-137995295D02*
X58785714Y-138090533D01*
X58785714Y-138090533D02*
X58738095Y-138233390D01*
X58738095Y-138233390D02*
X58166667Y-138804819D01*
X58166667Y-138804819D02*
X58785714Y-138804819D01*
X16954819Y-57161904D02*
X17764342Y-57161904D01*
X17764342Y-57161904D02*
X17859580Y-57114285D01*
X17859580Y-57114285D02*
X17907200Y-57066666D01*
X17907200Y-57066666D02*
X17954819Y-56971428D01*
X17954819Y-56971428D02*
X17954819Y-56780952D01*
X17954819Y-56780952D02*
X17907200Y-56685714D01*
X17907200Y-56685714D02*
X17859580Y-56638095D01*
X17859580Y-56638095D02*
X17764342Y-56590476D01*
X17764342Y-56590476D02*
X16954819Y-56590476D01*
X17954819Y-55590476D02*
X17954819Y-56161904D01*
X17954819Y-55876190D02*
X16954819Y-55876190D01*
X16954819Y-55876190D02*
X17097676Y-55971428D01*
X17097676Y-55971428D02*
X17192914Y-56066666D01*
X17192914Y-56066666D02*
X17240533Y-56161904D01*
X69238095Y-151304819D02*
X69238095Y-150304819D01*
X69238095Y-150781009D02*
X69809523Y-150781009D01*
X69809523Y-151304819D02*
X69809523Y-150304819D01*
X70714285Y-150638152D02*
X70714285Y-151304819D01*
X70476190Y-150257200D02*
X70238095Y-150971485D01*
X70238095Y-150971485D02*
X70857142Y-150971485D01*
X26190476Y-114957200D02*
X26333333Y-115004819D01*
X26333333Y-115004819D02*
X26571428Y-115004819D01*
X26571428Y-115004819D02*
X26666666Y-114957200D01*
X26666666Y-114957200D02*
X26714285Y-114909580D01*
X26714285Y-114909580D02*
X26761904Y-114814342D01*
X26761904Y-114814342D02*
X26761904Y-114719104D01*
X26761904Y-114719104D02*
X26714285Y-114623866D01*
X26714285Y-114623866D02*
X26666666Y-114576247D01*
X26666666Y-114576247D02*
X26571428Y-114528628D01*
X26571428Y-114528628D02*
X26380952Y-114481009D01*
X26380952Y-114481009D02*
X26285714Y-114433390D01*
X26285714Y-114433390D02*
X26238095Y-114385771D01*
X26238095Y-114385771D02*
X26190476Y-114290533D01*
X26190476Y-114290533D02*
X26190476Y-114195295D01*
X26190476Y-114195295D02*
X26238095Y-114100057D01*
X26238095Y-114100057D02*
X26285714Y-114052438D01*
X26285714Y-114052438D02*
X26380952Y-114004819D01*
X26380952Y-114004819D02*
X26619047Y-114004819D01*
X26619047Y-114004819D02*
X26761904Y-114052438D01*
X27095238Y-114004819D02*
X27333333Y-115004819D01*
X27333333Y-115004819D02*
X27523809Y-114290533D01*
X27523809Y-114290533D02*
X27714285Y-115004819D01*
X27714285Y-115004819D02*
X27952381Y-114004819D01*
X28857142Y-115004819D02*
X28285714Y-115004819D01*
X28571428Y-115004819D02*
X28571428Y-114004819D01*
X28571428Y-114004819D02*
X28476190Y-114147676D01*
X28476190Y-114147676D02*
X28380952Y-114242914D01*
X28380952Y-114242914D02*
X28285714Y-114290533D01*
X29809523Y-115004819D02*
X29238095Y-115004819D01*
X29523809Y-115004819D02*
X29523809Y-114004819D01*
X29523809Y-114004819D02*
X29428571Y-114147676D01*
X29428571Y-114147676D02*
X29333333Y-114242914D01*
X29333333Y-114242914D02*
X29238095Y-114290533D01*
X40190476Y-114957200D02*
X40333333Y-115004819D01*
X40333333Y-115004819D02*
X40571428Y-115004819D01*
X40571428Y-115004819D02*
X40666666Y-114957200D01*
X40666666Y-114957200D02*
X40714285Y-114909580D01*
X40714285Y-114909580D02*
X40761904Y-114814342D01*
X40761904Y-114814342D02*
X40761904Y-114719104D01*
X40761904Y-114719104D02*
X40714285Y-114623866D01*
X40714285Y-114623866D02*
X40666666Y-114576247D01*
X40666666Y-114576247D02*
X40571428Y-114528628D01*
X40571428Y-114528628D02*
X40380952Y-114481009D01*
X40380952Y-114481009D02*
X40285714Y-114433390D01*
X40285714Y-114433390D02*
X40238095Y-114385771D01*
X40238095Y-114385771D02*
X40190476Y-114290533D01*
X40190476Y-114290533D02*
X40190476Y-114195295D01*
X40190476Y-114195295D02*
X40238095Y-114100057D01*
X40238095Y-114100057D02*
X40285714Y-114052438D01*
X40285714Y-114052438D02*
X40380952Y-114004819D01*
X40380952Y-114004819D02*
X40619047Y-114004819D01*
X40619047Y-114004819D02*
X40761904Y-114052438D01*
X41095238Y-114004819D02*
X41333333Y-115004819D01*
X41333333Y-115004819D02*
X41523809Y-114290533D01*
X41523809Y-114290533D02*
X41714285Y-115004819D01*
X41714285Y-115004819D02*
X41952381Y-114004819D01*
X42857142Y-115004819D02*
X42285714Y-115004819D01*
X42571428Y-115004819D02*
X42571428Y-114004819D01*
X42571428Y-114004819D02*
X42476190Y-114147676D01*
X42476190Y-114147676D02*
X42380952Y-114242914D01*
X42380952Y-114242914D02*
X42285714Y-114290533D01*
X43238095Y-114100057D02*
X43285714Y-114052438D01*
X43285714Y-114052438D02*
X43380952Y-114004819D01*
X43380952Y-114004819D02*
X43619047Y-114004819D01*
X43619047Y-114004819D02*
X43714285Y-114052438D01*
X43714285Y-114052438D02*
X43761904Y-114100057D01*
X43761904Y-114100057D02*
X43809523Y-114195295D01*
X43809523Y-114195295D02*
X43809523Y-114290533D01*
X43809523Y-114290533D02*
X43761904Y-114433390D01*
X43761904Y-114433390D02*
X43190476Y-115004819D01*
X43190476Y-115004819D02*
X43809523Y-115004819D01*
X57274819Y-80333333D02*
X57989104Y-80333333D01*
X57989104Y-80333333D02*
X58131961Y-80380952D01*
X58131961Y-80380952D02*
X58227200Y-80476190D01*
X58227200Y-80476190D02*
X58274819Y-80619047D01*
X58274819Y-80619047D02*
X58274819Y-80714285D01*
X58274819Y-79809523D02*
X58274819Y-79619047D01*
X58274819Y-79619047D02*
X58227200Y-79523809D01*
X58227200Y-79523809D02*
X58179580Y-79476190D01*
X58179580Y-79476190D02*
X58036723Y-79380952D01*
X58036723Y-79380952D02*
X57846247Y-79333333D01*
X57846247Y-79333333D02*
X57465295Y-79333333D01*
X57465295Y-79333333D02*
X57370057Y-79380952D01*
X57370057Y-79380952D02*
X57322438Y-79428571D01*
X57322438Y-79428571D02*
X57274819Y-79523809D01*
X57274819Y-79523809D02*
X57274819Y-79714285D01*
X57274819Y-79714285D02*
X57322438Y-79809523D01*
X57322438Y-79809523D02*
X57370057Y-79857142D01*
X57370057Y-79857142D02*
X57465295Y-79904761D01*
X57465295Y-79904761D02*
X57703390Y-79904761D01*
X57703390Y-79904761D02*
X57798628Y-79857142D01*
X57798628Y-79857142D02*
X57846247Y-79809523D01*
X57846247Y-79809523D02*
X57893866Y-79714285D01*
X57893866Y-79714285D02*
X57893866Y-79523809D01*
X57893866Y-79523809D02*
X57846247Y-79428571D01*
X57846247Y-79428571D02*
X57798628Y-79380952D01*
X57798628Y-79380952D02*
X57703390Y-79333333D01*
X67833333Y-138804819D02*
X67500000Y-138328628D01*
X67261905Y-138804819D02*
X67261905Y-137804819D01*
X67261905Y-137804819D02*
X67642857Y-137804819D01*
X67642857Y-137804819D02*
X67738095Y-137852438D01*
X67738095Y-137852438D02*
X67785714Y-137900057D01*
X67785714Y-137900057D02*
X67833333Y-137995295D01*
X67833333Y-137995295D02*
X67833333Y-138138152D01*
X67833333Y-138138152D02*
X67785714Y-138233390D01*
X67785714Y-138233390D02*
X67738095Y-138281009D01*
X67738095Y-138281009D02*
X67642857Y-138328628D01*
X67642857Y-138328628D02*
X67261905Y-138328628D01*
X68166667Y-137804819D02*
X68785714Y-137804819D01*
X68785714Y-137804819D02*
X68452381Y-138185771D01*
X68452381Y-138185771D02*
X68595238Y-138185771D01*
X68595238Y-138185771D02*
X68690476Y-138233390D01*
X68690476Y-138233390D02*
X68738095Y-138281009D01*
X68738095Y-138281009D02*
X68785714Y-138376247D01*
X68785714Y-138376247D02*
X68785714Y-138614342D01*
X68785714Y-138614342D02*
X68738095Y-138709580D01*
X68738095Y-138709580D02*
X68690476Y-138757200D01*
X68690476Y-138757200D02*
X68595238Y-138804819D01*
X68595238Y-138804819D02*
X68309524Y-138804819D01*
X68309524Y-138804819D02*
X68214286Y-138757200D01*
X68214286Y-138757200D02*
X68166667Y-138709580D01*
X71995819Y-63142523D02*
X72710104Y-63142523D01*
X72710104Y-63142523D02*
X72852961Y-63190142D01*
X72852961Y-63190142D02*
X72948200Y-63285380D01*
X72948200Y-63285380D02*
X72995819Y-63428237D01*
X72995819Y-63428237D02*
X72995819Y-63523475D01*
X72995819Y-62142523D02*
X72995819Y-62713951D01*
X72995819Y-62428237D02*
X71995819Y-62428237D01*
X71995819Y-62428237D02*
X72138676Y-62523475D01*
X72138676Y-62523475D02*
X72233914Y-62618713D01*
X72233914Y-62618713D02*
X72281533Y-62713951D01*
X71995819Y-61523475D02*
X71995819Y-61428237D01*
X71995819Y-61428237D02*
X72043438Y-61332999D01*
X72043438Y-61332999D02*
X72091057Y-61285380D01*
X72091057Y-61285380D02*
X72186295Y-61237761D01*
X72186295Y-61237761D02*
X72376771Y-61190142D01*
X72376771Y-61190142D02*
X72614866Y-61190142D01*
X72614866Y-61190142D02*
X72805342Y-61237761D01*
X72805342Y-61237761D02*
X72900580Y-61285380D01*
X72900580Y-61285380D02*
X72948200Y-61332999D01*
X72948200Y-61332999D02*
X72995819Y-61428237D01*
X72995819Y-61428237D02*
X72995819Y-61523475D01*
X72995819Y-61523475D02*
X72948200Y-61618713D01*
X72948200Y-61618713D02*
X72900580Y-61666332D01*
X72900580Y-61666332D02*
X72805342Y-61713951D01*
X72805342Y-61713951D02*
X72614866Y-61761570D01*
X72614866Y-61761570D02*
X72376771Y-61761570D01*
X72376771Y-61761570D02*
X72186295Y-61713951D01*
X72186295Y-61713951D02*
X72091057Y-61666332D01*
X72091057Y-61666332D02*
X72043438Y-61618713D01*
X72043438Y-61618713D02*
X71995819Y-61523475D01*
X64261905Y-28804819D02*
X64261905Y-27804819D01*
X64261905Y-27804819D02*
X64500000Y-27804819D01*
X64500000Y-27804819D02*
X64642857Y-27852438D01*
X64642857Y-27852438D02*
X64738095Y-27947676D01*
X64738095Y-27947676D02*
X64785714Y-28042914D01*
X64785714Y-28042914D02*
X64833333Y-28233390D01*
X64833333Y-28233390D02*
X64833333Y-28376247D01*
X64833333Y-28376247D02*
X64785714Y-28566723D01*
X64785714Y-28566723D02*
X64738095Y-28661961D01*
X64738095Y-28661961D02*
X64642857Y-28757200D01*
X64642857Y-28757200D02*
X64500000Y-28804819D01*
X64500000Y-28804819D02*
X64261905Y-28804819D01*
X65785714Y-28804819D02*
X65214286Y-28804819D01*
X65500000Y-28804819D02*
X65500000Y-27804819D01*
X65500000Y-27804819D02*
X65404762Y-27947676D01*
X65404762Y-27947676D02*
X65309524Y-28042914D01*
X65309524Y-28042914D02*
X65214286Y-28090533D01*
X17074819Y-85333333D02*
X17789104Y-85333333D01*
X17789104Y-85333333D02*
X17931961Y-85380952D01*
X17931961Y-85380952D02*
X18027200Y-85476190D01*
X18027200Y-85476190D02*
X18074819Y-85619047D01*
X18074819Y-85619047D02*
X18074819Y-85714285D01*
X17074819Y-84428571D02*
X17074819Y-84619047D01*
X17074819Y-84619047D02*
X17122438Y-84714285D01*
X17122438Y-84714285D02*
X17170057Y-84761904D01*
X17170057Y-84761904D02*
X17312914Y-84857142D01*
X17312914Y-84857142D02*
X17503390Y-84904761D01*
X17503390Y-84904761D02*
X17884342Y-84904761D01*
X17884342Y-84904761D02*
X17979580Y-84857142D01*
X17979580Y-84857142D02*
X18027200Y-84809523D01*
X18027200Y-84809523D02*
X18074819Y-84714285D01*
X18074819Y-84714285D02*
X18074819Y-84523809D01*
X18074819Y-84523809D02*
X18027200Y-84428571D01*
X18027200Y-84428571D02*
X17979580Y-84380952D01*
X17979580Y-84380952D02*
X17884342Y-84333333D01*
X17884342Y-84333333D02*
X17646247Y-84333333D01*
X17646247Y-84333333D02*
X17551009Y-84380952D01*
X17551009Y-84380952D02*
X17503390Y-84428571D01*
X17503390Y-84428571D02*
X17455771Y-84523809D01*
X17455771Y-84523809D02*
X17455771Y-84714285D01*
X17455771Y-84714285D02*
X17503390Y-84809523D01*
X17503390Y-84809523D02*
X17551009Y-84857142D01*
X17551009Y-84857142D02*
X17646247Y-84904761D01*
X49238095Y-117709819D02*
X49238095Y-118519342D01*
X49238095Y-118519342D02*
X49285714Y-118614580D01*
X49285714Y-118614580D02*
X49333333Y-118662200D01*
X49333333Y-118662200D02*
X49428571Y-118709819D01*
X49428571Y-118709819D02*
X49619047Y-118709819D01*
X49619047Y-118709819D02*
X49714285Y-118662200D01*
X49714285Y-118662200D02*
X49761904Y-118614580D01*
X49761904Y-118614580D02*
X49809523Y-118519342D01*
X49809523Y-118519342D02*
X49809523Y-117709819D01*
X50714285Y-117709819D02*
X50523809Y-117709819D01*
X50523809Y-117709819D02*
X50428571Y-117757438D01*
X50428571Y-117757438D02*
X50380952Y-117805057D01*
X50380952Y-117805057D02*
X50285714Y-117947914D01*
X50285714Y-117947914D02*
X50238095Y-118138390D01*
X50238095Y-118138390D02*
X50238095Y-118519342D01*
X50238095Y-118519342D02*
X50285714Y-118614580D01*
X50285714Y-118614580D02*
X50333333Y-118662200D01*
X50333333Y-118662200D02*
X50428571Y-118709819D01*
X50428571Y-118709819D02*
X50619047Y-118709819D01*
X50619047Y-118709819D02*
X50714285Y-118662200D01*
X50714285Y-118662200D02*
X50761904Y-118614580D01*
X50761904Y-118614580D02*
X50809523Y-118519342D01*
X50809523Y-118519342D02*
X50809523Y-118281247D01*
X50809523Y-118281247D02*
X50761904Y-118186009D01*
X50761904Y-118186009D02*
X50714285Y-118138390D01*
X50714285Y-118138390D02*
X50619047Y-118090771D01*
X50619047Y-118090771D02*
X50428571Y-118090771D01*
X50428571Y-118090771D02*
X50333333Y-118138390D01*
X50333333Y-118138390D02*
X50285714Y-118186009D01*
X50285714Y-118186009D02*
X50238095Y-118281247D01*
X57833333Y-53804819D02*
X57500000Y-53328628D01*
X57261905Y-53804819D02*
X57261905Y-52804819D01*
X57261905Y-52804819D02*
X57642857Y-52804819D01*
X57642857Y-52804819D02*
X57738095Y-52852438D01*
X57738095Y-52852438D02*
X57785714Y-52900057D01*
X57785714Y-52900057D02*
X57833333Y-52995295D01*
X57833333Y-52995295D02*
X57833333Y-53138152D01*
X57833333Y-53138152D02*
X57785714Y-53233390D01*
X57785714Y-53233390D02*
X57738095Y-53281009D01*
X57738095Y-53281009D02*
X57642857Y-53328628D01*
X57642857Y-53328628D02*
X57261905Y-53328628D01*
X58738095Y-52804819D02*
X58261905Y-52804819D01*
X58261905Y-52804819D02*
X58214286Y-53281009D01*
X58214286Y-53281009D02*
X58261905Y-53233390D01*
X58261905Y-53233390D02*
X58357143Y-53185771D01*
X58357143Y-53185771D02*
X58595238Y-53185771D01*
X58595238Y-53185771D02*
X58690476Y-53233390D01*
X58690476Y-53233390D02*
X58738095Y-53281009D01*
X58738095Y-53281009D02*
X58785714Y-53376247D01*
X58785714Y-53376247D02*
X58785714Y-53614342D01*
X58785714Y-53614342D02*
X58738095Y-53709580D01*
X58738095Y-53709580D02*
X58690476Y-53757200D01*
X58690476Y-53757200D02*
X58595238Y-53804819D01*
X58595238Y-53804819D02*
X58357143Y-53804819D01*
X58357143Y-53804819D02*
X58261905Y-53757200D01*
X58261905Y-53757200D02*
X58214286Y-53709580D01*
X47554819Y-58161904D02*
X48364342Y-58161904D01*
X48364342Y-58161904D02*
X48459580Y-58114285D01*
X48459580Y-58114285D02*
X48507200Y-58066666D01*
X48507200Y-58066666D02*
X48554819Y-57971428D01*
X48554819Y-57971428D02*
X48554819Y-57780952D01*
X48554819Y-57780952D02*
X48507200Y-57685714D01*
X48507200Y-57685714D02*
X48459580Y-57638095D01*
X48459580Y-57638095D02*
X48364342Y-57590476D01*
X48364342Y-57590476D02*
X47554819Y-57590476D01*
X47554819Y-57209523D02*
X47554819Y-56542857D01*
X47554819Y-56542857D02*
X48554819Y-56971428D01*
X5238095Y-151304819D02*
X5238095Y-150304819D01*
X5238095Y-150781009D02*
X5809523Y-150781009D01*
X5809523Y-151304819D02*
X5809523Y-150304819D01*
X6190476Y-150304819D02*
X6809523Y-150304819D01*
X6809523Y-150304819D02*
X6476190Y-150685771D01*
X6476190Y-150685771D02*
X6619047Y-150685771D01*
X6619047Y-150685771D02*
X6714285Y-150733390D01*
X6714285Y-150733390D02*
X6761904Y-150781009D01*
X6761904Y-150781009D02*
X6809523Y-150876247D01*
X6809523Y-150876247D02*
X6809523Y-151114342D01*
X6809523Y-151114342D02*
X6761904Y-151209580D01*
X6761904Y-151209580D02*
X6714285Y-151257200D01*
X6714285Y-151257200D02*
X6619047Y-151304819D01*
X6619047Y-151304819D02*
X6333333Y-151304819D01*
X6333333Y-151304819D02*
X6238095Y-151257200D01*
X6238095Y-151257200D02*
X6190476Y-151209580D01*
X9904761Y-146150057D02*
X9809523Y-146102438D01*
X9809523Y-146102438D02*
X9714285Y-146007200D01*
X9714285Y-146007200D02*
X9571428Y-145864342D01*
X9571428Y-145864342D02*
X9476190Y-145816723D01*
X9476190Y-145816723D02*
X9380952Y-145816723D01*
X9428571Y-146054819D02*
X9333333Y-146007200D01*
X9333333Y-146007200D02*
X9238095Y-145911961D01*
X9238095Y-145911961D02*
X9190476Y-145721485D01*
X9190476Y-145721485D02*
X9190476Y-145388152D01*
X9190476Y-145388152D02*
X9238095Y-145197676D01*
X9238095Y-145197676D02*
X9333333Y-145102438D01*
X9333333Y-145102438D02*
X9428571Y-145054819D01*
X9428571Y-145054819D02*
X9619047Y-145054819D01*
X9619047Y-145054819D02*
X9714285Y-145102438D01*
X9714285Y-145102438D02*
X9809523Y-145197676D01*
X9809523Y-145197676D02*
X9857142Y-145388152D01*
X9857142Y-145388152D02*
X9857142Y-145721485D01*
X9857142Y-145721485D02*
X9809523Y-145911961D01*
X9809523Y-145911961D02*
X9714285Y-146007200D01*
X9714285Y-146007200D02*
X9619047Y-146054819D01*
X9619047Y-146054819D02*
X9428571Y-146054819D01*
X10809523Y-146054819D02*
X10238095Y-146054819D01*
X10523809Y-146054819D02*
X10523809Y-145054819D01*
X10523809Y-145054819D02*
X10428571Y-145197676D01*
X10428571Y-145197676D02*
X10333333Y-145292914D01*
X10333333Y-145292914D02*
X10238095Y-145340533D01*
X54666667Y-90957200D02*
X54809524Y-91004819D01*
X54809524Y-91004819D02*
X55047619Y-91004819D01*
X55047619Y-91004819D02*
X55142857Y-90957200D01*
X55142857Y-90957200D02*
X55190476Y-90909580D01*
X55190476Y-90909580D02*
X55238095Y-90814342D01*
X55238095Y-90814342D02*
X55238095Y-90719104D01*
X55238095Y-90719104D02*
X55190476Y-90623866D01*
X55190476Y-90623866D02*
X55142857Y-90576247D01*
X55142857Y-90576247D02*
X55047619Y-90528628D01*
X55047619Y-90528628D02*
X54857143Y-90481009D01*
X54857143Y-90481009D02*
X54761905Y-90433390D01*
X54761905Y-90433390D02*
X54714286Y-90385771D01*
X54714286Y-90385771D02*
X54666667Y-90290533D01*
X54666667Y-90290533D02*
X54666667Y-90195295D01*
X54666667Y-90195295D02*
X54714286Y-90100057D01*
X54714286Y-90100057D02*
X54761905Y-90052438D01*
X54761905Y-90052438D02*
X54857143Y-90004819D01*
X54857143Y-90004819D02*
X55095238Y-90004819D01*
X55095238Y-90004819D02*
X55238095Y-90052438D01*
X55571429Y-90004819D02*
X55809524Y-91004819D01*
X55809524Y-91004819D02*
X56000000Y-90290533D01*
X56000000Y-90290533D02*
X56190476Y-91004819D01*
X56190476Y-91004819D02*
X56428572Y-90004819D01*
X57285714Y-90004819D02*
X56809524Y-90004819D01*
X56809524Y-90004819D02*
X56761905Y-90481009D01*
X56761905Y-90481009D02*
X56809524Y-90433390D01*
X56809524Y-90433390D02*
X56904762Y-90385771D01*
X56904762Y-90385771D02*
X57142857Y-90385771D01*
X57142857Y-90385771D02*
X57238095Y-90433390D01*
X57238095Y-90433390D02*
X57285714Y-90481009D01*
X57285714Y-90481009D02*
X57333333Y-90576247D01*
X57333333Y-90576247D02*
X57333333Y-90814342D01*
X57333333Y-90814342D02*
X57285714Y-90909580D01*
X57285714Y-90909580D02*
X57238095Y-90957200D01*
X57238095Y-90957200D02*
X57142857Y-91004819D01*
X57142857Y-91004819D02*
X56904762Y-91004819D01*
X56904762Y-91004819D02*
X56809524Y-90957200D01*
X56809524Y-90957200D02*
X56761905Y-90909580D01*
X57833333Y-149174819D02*
X57357143Y-149174819D01*
X57357143Y-149174819D02*
X57357143Y-148174819D01*
X58690476Y-149174819D02*
X58119048Y-149174819D01*
X58404762Y-149174819D02*
X58404762Y-148174819D01*
X58404762Y-148174819D02*
X58309524Y-148317676D01*
X58309524Y-148317676D02*
X58214286Y-148412914D01*
X58214286Y-148412914D02*
X58119048Y-148460533D01*
X68833333Y-148509580D02*
X68785714Y-148557200D01*
X68785714Y-148557200D02*
X68642857Y-148604819D01*
X68642857Y-148604819D02*
X68547619Y-148604819D01*
X68547619Y-148604819D02*
X68404762Y-148557200D01*
X68404762Y-148557200D02*
X68309524Y-148461961D01*
X68309524Y-148461961D02*
X68261905Y-148366723D01*
X68261905Y-148366723D02*
X68214286Y-148176247D01*
X68214286Y-148176247D02*
X68214286Y-148033390D01*
X68214286Y-148033390D02*
X68261905Y-147842914D01*
X68261905Y-147842914D02*
X68309524Y-147747676D01*
X68309524Y-147747676D02*
X68404762Y-147652438D01*
X68404762Y-147652438D02*
X68547619Y-147604819D01*
X68547619Y-147604819D02*
X68642857Y-147604819D01*
X68642857Y-147604819D02*
X68785714Y-147652438D01*
X68785714Y-147652438D02*
X68833333Y-147700057D01*
X69785714Y-148604819D02*
X69214286Y-148604819D01*
X69500000Y-148604819D02*
X69500000Y-147604819D01*
X69500000Y-147604819D02*
X69404762Y-147747676D01*
X69404762Y-147747676D02*
X69309524Y-147842914D01*
X69309524Y-147842914D02*
X69214286Y-147890533D01*
X22074819Y-65333333D02*
X22789104Y-65333333D01*
X22789104Y-65333333D02*
X22931961Y-65380952D01*
X22931961Y-65380952D02*
X23027200Y-65476190D01*
X23027200Y-65476190D02*
X23074819Y-65619047D01*
X23074819Y-65619047D02*
X23074819Y-65714285D01*
X22074819Y-64952380D02*
X22074819Y-64333333D01*
X22074819Y-64333333D02*
X22455771Y-64666666D01*
X22455771Y-64666666D02*
X22455771Y-64523809D01*
X22455771Y-64523809D02*
X22503390Y-64428571D01*
X22503390Y-64428571D02*
X22551009Y-64380952D01*
X22551009Y-64380952D02*
X22646247Y-64333333D01*
X22646247Y-64333333D02*
X22884342Y-64333333D01*
X22884342Y-64333333D02*
X22979580Y-64380952D01*
X22979580Y-64380952D02*
X23027200Y-64428571D01*
X23027200Y-64428571D02*
X23074819Y-64523809D01*
X23074819Y-64523809D02*
X23074819Y-64809523D01*
X23074819Y-64809523D02*
X23027200Y-64904761D01*
X23027200Y-64904761D02*
X22979580Y-64952380D01*
X26666667Y-90957200D02*
X26809524Y-91004819D01*
X26809524Y-91004819D02*
X27047619Y-91004819D01*
X27047619Y-91004819D02*
X27142857Y-90957200D01*
X27142857Y-90957200D02*
X27190476Y-90909580D01*
X27190476Y-90909580D02*
X27238095Y-90814342D01*
X27238095Y-90814342D02*
X27238095Y-90719104D01*
X27238095Y-90719104D02*
X27190476Y-90623866D01*
X27190476Y-90623866D02*
X27142857Y-90576247D01*
X27142857Y-90576247D02*
X27047619Y-90528628D01*
X27047619Y-90528628D02*
X26857143Y-90481009D01*
X26857143Y-90481009D02*
X26761905Y-90433390D01*
X26761905Y-90433390D02*
X26714286Y-90385771D01*
X26714286Y-90385771D02*
X26666667Y-90290533D01*
X26666667Y-90290533D02*
X26666667Y-90195295D01*
X26666667Y-90195295D02*
X26714286Y-90100057D01*
X26714286Y-90100057D02*
X26761905Y-90052438D01*
X26761905Y-90052438D02*
X26857143Y-90004819D01*
X26857143Y-90004819D02*
X27095238Y-90004819D01*
X27095238Y-90004819D02*
X27238095Y-90052438D01*
X27571429Y-90004819D02*
X27809524Y-91004819D01*
X27809524Y-91004819D02*
X28000000Y-90290533D01*
X28000000Y-90290533D02*
X28190476Y-91004819D01*
X28190476Y-91004819D02*
X28428572Y-90004819D01*
X28714286Y-90004819D02*
X29333333Y-90004819D01*
X29333333Y-90004819D02*
X29000000Y-90385771D01*
X29000000Y-90385771D02*
X29142857Y-90385771D01*
X29142857Y-90385771D02*
X29238095Y-90433390D01*
X29238095Y-90433390D02*
X29285714Y-90481009D01*
X29285714Y-90481009D02*
X29333333Y-90576247D01*
X29333333Y-90576247D02*
X29333333Y-90814342D01*
X29333333Y-90814342D02*
X29285714Y-90909580D01*
X29285714Y-90909580D02*
X29238095Y-90957200D01*
X29238095Y-90957200D02*
X29142857Y-91004819D01*
X29142857Y-91004819D02*
X28857143Y-91004819D01*
X28857143Y-91004819D02*
X28761905Y-90957200D01*
X28761905Y-90957200D02*
X28714286Y-90909580D01*
X29238095Y-141054819D02*
X29238095Y-141864342D01*
X29238095Y-141864342D02*
X29285714Y-141959580D01*
X29285714Y-141959580D02*
X29333333Y-142007200D01*
X29333333Y-142007200D02*
X29428571Y-142054819D01*
X29428571Y-142054819D02*
X29619047Y-142054819D01*
X29619047Y-142054819D02*
X29714285Y-142007200D01*
X29714285Y-142007200D02*
X29761904Y-141959580D01*
X29761904Y-141959580D02*
X29809523Y-141864342D01*
X29809523Y-141864342D02*
X29809523Y-141054819D01*
X30190476Y-141054819D02*
X30809523Y-141054819D01*
X30809523Y-141054819D02*
X30476190Y-141435771D01*
X30476190Y-141435771D02*
X30619047Y-141435771D01*
X30619047Y-141435771D02*
X30714285Y-141483390D01*
X30714285Y-141483390D02*
X30761904Y-141531009D01*
X30761904Y-141531009D02*
X30809523Y-141626247D01*
X30809523Y-141626247D02*
X30809523Y-141864342D01*
X30809523Y-141864342D02*
X30761904Y-141959580D01*
X30761904Y-141959580D02*
X30714285Y-142007200D01*
X30714285Y-142007200D02*
X30619047Y-142054819D01*
X30619047Y-142054819D02*
X30333333Y-142054819D01*
X30333333Y-142054819D02*
X30238095Y-142007200D01*
X30238095Y-142007200D02*
X30190476Y-141959580D01*
X10666666Y-65754819D02*
X10666666Y-66469104D01*
X10666666Y-66469104D02*
X10619047Y-66611961D01*
X10619047Y-66611961D02*
X10523809Y-66707200D01*
X10523809Y-66707200D02*
X10380952Y-66754819D01*
X10380952Y-66754819D02*
X10285714Y-66754819D01*
X11047619Y-65754819D02*
X11714285Y-65754819D01*
X11714285Y-65754819D02*
X11285714Y-66754819D01*
X62785714Y-146454819D02*
X62785714Y-145454819D01*
X62785714Y-145454819D02*
X63023809Y-145454819D01*
X63023809Y-145454819D02*
X63166666Y-145502438D01*
X63166666Y-145502438D02*
X63261904Y-145597676D01*
X63261904Y-145597676D02*
X63309523Y-145692914D01*
X63309523Y-145692914D02*
X63357142Y-145883390D01*
X63357142Y-145883390D02*
X63357142Y-146026247D01*
X63357142Y-146026247D02*
X63309523Y-146216723D01*
X63309523Y-146216723D02*
X63261904Y-146311961D01*
X63261904Y-146311961D02*
X63166666Y-146407200D01*
X63166666Y-146407200D02*
X63023809Y-146454819D01*
X63023809Y-146454819D02*
X62785714Y-146454819D01*
X64309523Y-146454819D02*
X63738095Y-146454819D01*
X64023809Y-146454819D02*
X64023809Y-145454819D01*
X64023809Y-145454819D02*
X63928571Y-145597676D01*
X63928571Y-145597676D02*
X63833333Y-145692914D01*
X63833333Y-145692914D02*
X63738095Y-145740533D01*
X64880952Y-145883390D02*
X64785714Y-145835771D01*
X64785714Y-145835771D02*
X64738095Y-145788152D01*
X64738095Y-145788152D02*
X64690476Y-145692914D01*
X64690476Y-145692914D02*
X64690476Y-145645295D01*
X64690476Y-145645295D02*
X64738095Y-145550057D01*
X64738095Y-145550057D02*
X64785714Y-145502438D01*
X64785714Y-145502438D02*
X64880952Y-145454819D01*
X64880952Y-145454819D02*
X65071428Y-145454819D01*
X65071428Y-145454819D02*
X65166666Y-145502438D01*
X65166666Y-145502438D02*
X65214285Y-145550057D01*
X65214285Y-145550057D02*
X65261904Y-145645295D01*
X65261904Y-145645295D02*
X65261904Y-145692914D01*
X65261904Y-145692914D02*
X65214285Y-145788152D01*
X65214285Y-145788152D02*
X65166666Y-145835771D01*
X65166666Y-145835771D02*
X65071428Y-145883390D01*
X65071428Y-145883390D02*
X64880952Y-145883390D01*
X64880952Y-145883390D02*
X64785714Y-145931009D01*
X64785714Y-145931009D02*
X64738095Y-145978628D01*
X64738095Y-145978628D02*
X64690476Y-146073866D01*
X64690476Y-146073866D02*
X64690476Y-146264342D01*
X64690476Y-146264342D02*
X64738095Y-146359580D01*
X64738095Y-146359580D02*
X64785714Y-146407200D01*
X64785714Y-146407200D02*
X64880952Y-146454819D01*
X64880952Y-146454819D02*
X65071428Y-146454819D01*
X65071428Y-146454819D02*
X65166666Y-146407200D01*
X65166666Y-146407200D02*
X65214285Y-146359580D01*
X65214285Y-146359580D02*
X65261904Y-146264342D01*
X65261904Y-146264342D02*
X65261904Y-146073866D01*
X65261904Y-146073866D02*
X65214285Y-145978628D01*
X65214285Y-145978628D02*
X65166666Y-145931009D01*
X65166666Y-145931009D02*
X65071428Y-145883390D01*
X39238095Y-142054819D02*
X39238095Y-142864342D01*
X39238095Y-142864342D02*
X39285714Y-142959580D01*
X39285714Y-142959580D02*
X39333333Y-143007200D01*
X39333333Y-143007200D02*
X39428571Y-143054819D01*
X39428571Y-143054819D02*
X39619047Y-143054819D01*
X39619047Y-143054819D02*
X39714285Y-143007200D01*
X39714285Y-143007200D02*
X39761904Y-142959580D01*
X39761904Y-142959580D02*
X39809523Y-142864342D01*
X39809523Y-142864342D02*
X39809523Y-142054819D01*
X40714285Y-142388152D02*
X40714285Y-143054819D01*
X40476190Y-142007200D02*
X40238095Y-142721485D01*
X40238095Y-142721485D02*
X40857142Y-142721485D01*
X12666667Y-90957200D02*
X12809524Y-91004819D01*
X12809524Y-91004819D02*
X13047619Y-91004819D01*
X13047619Y-91004819D02*
X13142857Y-90957200D01*
X13142857Y-90957200D02*
X13190476Y-90909580D01*
X13190476Y-90909580D02*
X13238095Y-90814342D01*
X13238095Y-90814342D02*
X13238095Y-90719104D01*
X13238095Y-90719104D02*
X13190476Y-90623866D01*
X13190476Y-90623866D02*
X13142857Y-90576247D01*
X13142857Y-90576247D02*
X13047619Y-90528628D01*
X13047619Y-90528628D02*
X12857143Y-90481009D01*
X12857143Y-90481009D02*
X12761905Y-90433390D01*
X12761905Y-90433390D02*
X12714286Y-90385771D01*
X12714286Y-90385771D02*
X12666667Y-90290533D01*
X12666667Y-90290533D02*
X12666667Y-90195295D01*
X12666667Y-90195295D02*
X12714286Y-90100057D01*
X12714286Y-90100057D02*
X12761905Y-90052438D01*
X12761905Y-90052438D02*
X12857143Y-90004819D01*
X12857143Y-90004819D02*
X13095238Y-90004819D01*
X13095238Y-90004819D02*
X13238095Y-90052438D01*
X13571429Y-90004819D02*
X13809524Y-91004819D01*
X13809524Y-91004819D02*
X14000000Y-90290533D01*
X14000000Y-90290533D02*
X14190476Y-91004819D01*
X14190476Y-91004819D02*
X14428572Y-90004819D01*
X14761905Y-90100057D02*
X14809524Y-90052438D01*
X14809524Y-90052438D02*
X14904762Y-90004819D01*
X14904762Y-90004819D02*
X15142857Y-90004819D01*
X15142857Y-90004819D02*
X15238095Y-90052438D01*
X15238095Y-90052438D02*
X15285714Y-90100057D01*
X15285714Y-90100057D02*
X15333333Y-90195295D01*
X15333333Y-90195295D02*
X15333333Y-90290533D01*
X15333333Y-90290533D02*
X15285714Y-90433390D01*
X15285714Y-90433390D02*
X14714286Y-91004819D01*
X14714286Y-91004819D02*
X15333333Y-91004819D01*
X44238095Y-142054819D02*
X44238095Y-142864342D01*
X44238095Y-142864342D02*
X44285714Y-142959580D01*
X44285714Y-142959580D02*
X44333333Y-143007200D01*
X44333333Y-143007200D02*
X44428571Y-143054819D01*
X44428571Y-143054819D02*
X44619047Y-143054819D01*
X44619047Y-143054819D02*
X44714285Y-143007200D01*
X44714285Y-143007200D02*
X44761904Y-142959580D01*
X44761904Y-142959580D02*
X44809523Y-142864342D01*
X44809523Y-142864342D02*
X44809523Y-142054819D01*
X45761904Y-142054819D02*
X45285714Y-142054819D01*
X45285714Y-142054819D02*
X45238095Y-142531009D01*
X45238095Y-142531009D02*
X45285714Y-142483390D01*
X45285714Y-142483390D02*
X45380952Y-142435771D01*
X45380952Y-142435771D02*
X45619047Y-142435771D01*
X45619047Y-142435771D02*
X45714285Y-142483390D01*
X45714285Y-142483390D02*
X45761904Y-142531009D01*
X45761904Y-142531009D02*
X45809523Y-142626247D01*
X45809523Y-142626247D02*
X45809523Y-142864342D01*
X45809523Y-142864342D02*
X45761904Y-142959580D01*
X45761904Y-142959580D02*
X45714285Y-143007200D01*
X45714285Y-143007200D02*
X45619047Y-143054819D01*
X45619047Y-143054819D02*
X45380952Y-143054819D01*
X45380952Y-143054819D02*
X45285714Y-143007200D01*
X45285714Y-143007200D02*
X45238095Y-142959580D01*
X59954819Y-51738094D02*
X60764342Y-51738094D01*
X60764342Y-51738094D02*
X60859580Y-51690475D01*
X60859580Y-51690475D02*
X60907200Y-51642856D01*
X60907200Y-51642856D02*
X60954819Y-51547618D01*
X60954819Y-51547618D02*
X60954819Y-51357142D01*
X60954819Y-51357142D02*
X60907200Y-51261904D01*
X60907200Y-51261904D02*
X60859580Y-51214285D01*
X60859580Y-51214285D02*
X60764342Y-51166666D01*
X60764342Y-51166666D02*
X59954819Y-51166666D01*
X60907200Y-50738094D02*
X60954819Y-50595237D01*
X60954819Y-50595237D02*
X60954819Y-50357142D01*
X60954819Y-50357142D02*
X60907200Y-50261904D01*
X60907200Y-50261904D02*
X60859580Y-50214285D01*
X60859580Y-50214285D02*
X60764342Y-50166666D01*
X60764342Y-50166666D02*
X60669104Y-50166666D01*
X60669104Y-50166666D02*
X60573866Y-50214285D01*
X60573866Y-50214285D02*
X60526247Y-50261904D01*
X60526247Y-50261904D02*
X60478628Y-50357142D01*
X60478628Y-50357142D02*
X60431009Y-50547618D01*
X60431009Y-50547618D02*
X60383390Y-50642856D01*
X60383390Y-50642856D02*
X60335771Y-50690475D01*
X60335771Y-50690475D02*
X60240533Y-50738094D01*
X60240533Y-50738094D02*
X60145295Y-50738094D01*
X60145295Y-50738094D02*
X60050057Y-50690475D01*
X60050057Y-50690475D02*
X60002438Y-50642856D01*
X60002438Y-50642856D02*
X59954819Y-50547618D01*
X59954819Y-50547618D02*
X59954819Y-50309523D01*
X59954819Y-50309523D02*
X60002438Y-50166666D01*
X60431009Y-49404761D02*
X60478628Y-49261904D01*
X60478628Y-49261904D02*
X60526247Y-49214285D01*
X60526247Y-49214285D02*
X60621485Y-49166666D01*
X60621485Y-49166666D02*
X60764342Y-49166666D01*
X60764342Y-49166666D02*
X60859580Y-49214285D01*
X60859580Y-49214285D02*
X60907200Y-49261904D01*
X60907200Y-49261904D02*
X60954819Y-49357142D01*
X60954819Y-49357142D02*
X60954819Y-49738094D01*
X60954819Y-49738094D02*
X59954819Y-49738094D01*
X59954819Y-49738094D02*
X59954819Y-49404761D01*
X59954819Y-49404761D02*
X60002438Y-49309523D01*
X60002438Y-49309523D02*
X60050057Y-49261904D01*
X60050057Y-49261904D02*
X60145295Y-49214285D01*
X60145295Y-49214285D02*
X60240533Y-49214285D01*
X60240533Y-49214285D02*
X60335771Y-49261904D01*
X60335771Y-49261904D02*
X60383390Y-49309523D01*
X60383390Y-49309523D02*
X60431009Y-49404761D01*
X60431009Y-49404761D02*
X60431009Y-49738094D01*
X60954819Y-48214285D02*
X60954819Y-48785713D01*
X60954819Y-48499999D02*
X59954819Y-48499999D01*
X59954819Y-48499999D02*
X60097676Y-48595237D01*
X60097676Y-48595237D02*
X60192914Y-48690475D01*
X60192914Y-48690475D02*
X60240533Y-48785713D01*
X40666667Y-90957200D02*
X40809524Y-91004819D01*
X40809524Y-91004819D02*
X41047619Y-91004819D01*
X41047619Y-91004819D02*
X41142857Y-90957200D01*
X41142857Y-90957200D02*
X41190476Y-90909580D01*
X41190476Y-90909580D02*
X41238095Y-90814342D01*
X41238095Y-90814342D02*
X41238095Y-90719104D01*
X41238095Y-90719104D02*
X41190476Y-90623866D01*
X41190476Y-90623866D02*
X41142857Y-90576247D01*
X41142857Y-90576247D02*
X41047619Y-90528628D01*
X41047619Y-90528628D02*
X40857143Y-90481009D01*
X40857143Y-90481009D02*
X40761905Y-90433390D01*
X40761905Y-90433390D02*
X40714286Y-90385771D01*
X40714286Y-90385771D02*
X40666667Y-90290533D01*
X40666667Y-90290533D02*
X40666667Y-90195295D01*
X40666667Y-90195295D02*
X40714286Y-90100057D01*
X40714286Y-90100057D02*
X40761905Y-90052438D01*
X40761905Y-90052438D02*
X40857143Y-90004819D01*
X40857143Y-90004819D02*
X41095238Y-90004819D01*
X41095238Y-90004819D02*
X41238095Y-90052438D01*
X41571429Y-90004819D02*
X41809524Y-91004819D01*
X41809524Y-91004819D02*
X42000000Y-90290533D01*
X42000000Y-90290533D02*
X42190476Y-91004819D01*
X42190476Y-91004819D02*
X42428572Y-90004819D01*
X43238095Y-90338152D02*
X43238095Y-91004819D01*
X43000000Y-89957200D02*
X42761905Y-90671485D01*
X42761905Y-90671485D02*
X43380952Y-90671485D01*
X40785714Y-132954819D02*
X40785714Y-131954819D01*
X40785714Y-131954819D02*
X41023809Y-131954819D01*
X41023809Y-131954819D02*
X41166666Y-132002438D01*
X41166666Y-132002438D02*
X41261904Y-132097676D01*
X41261904Y-132097676D02*
X41309523Y-132192914D01*
X41309523Y-132192914D02*
X41357142Y-132383390D01*
X41357142Y-132383390D02*
X41357142Y-132526247D01*
X41357142Y-132526247D02*
X41309523Y-132716723D01*
X41309523Y-132716723D02*
X41261904Y-132811961D01*
X41261904Y-132811961D02*
X41166666Y-132907200D01*
X41166666Y-132907200D02*
X41023809Y-132954819D01*
X41023809Y-132954819D02*
X40785714Y-132954819D01*
X42309523Y-132954819D02*
X41738095Y-132954819D01*
X42023809Y-132954819D02*
X42023809Y-131954819D01*
X42023809Y-131954819D02*
X41928571Y-132097676D01*
X41928571Y-132097676D02*
X41833333Y-132192914D01*
X41833333Y-132192914D02*
X41738095Y-132240533D01*
X43166666Y-131954819D02*
X42976190Y-131954819D01*
X42976190Y-131954819D02*
X42880952Y-132002438D01*
X42880952Y-132002438D02*
X42833333Y-132050057D01*
X42833333Y-132050057D02*
X42738095Y-132192914D01*
X42738095Y-132192914D02*
X42690476Y-132383390D01*
X42690476Y-132383390D02*
X42690476Y-132764342D01*
X42690476Y-132764342D02*
X42738095Y-132859580D01*
X42738095Y-132859580D02*
X42785714Y-132907200D01*
X42785714Y-132907200D02*
X42880952Y-132954819D01*
X42880952Y-132954819D02*
X43071428Y-132954819D01*
X43071428Y-132954819D02*
X43166666Y-132907200D01*
X43166666Y-132907200D02*
X43214285Y-132859580D01*
X43214285Y-132859580D02*
X43261904Y-132764342D01*
X43261904Y-132764342D02*
X43261904Y-132526247D01*
X43261904Y-132526247D02*
X43214285Y-132431009D01*
X43214285Y-132431009D02*
X43166666Y-132383390D01*
X43166666Y-132383390D02*
X43071428Y-132335771D01*
X43071428Y-132335771D02*
X42880952Y-132335771D01*
X42880952Y-132335771D02*
X42785714Y-132383390D01*
X42785714Y-132383390D02*
X42738095Y-132431009D01*
X42738095Y-132431009D02*
X42690476Y-132526247D01*
X12785714Y-132954819D02*
X12785714Y-131954819D01*
X12785714Y-131954819D02*
X13023809Y-131954819D01*
X13023809Y-131954819D02*
X13166666Y-132002438D01*
X13166666Y-132002438D02*
X13261904Y-132097676D01*
X13261904Y-132097676D02*
X13309523Y-132192914D01*
X13309523Y-132192914D02*
X13357142Y-132383390D01*
X13357142Y-132383390D02*
X13357142Y-132526247D01*
X13357142Y-132526247D02*
X13309523Y-132716723D01*
X13309523Y-132716723D02*
X13261904Y-132811961D01*
X13261904Y-132811961D02*
X13166666Y-132907200D01*
X13166666Y-132907200D02*
X13023809Y-132954819D01*
X13023809Y-132954819D02*
X12785714Y-132954819D01*
X14309523Y-132954819D02*
X13738095Y-132954819D01*
X14023809Y-132954819D02*
X14023809Y-131954819D01*
X14023809Y-131954819D02*
X13928571Y-132097676D01*
X13928571Y-132097676D02*
X13833333Y-132192914D01*
X13833333Y-132192914D02*
X13738095Y-132240533D01*
X15166666Y-132288152D02*
X15166666Y-132954819D01*
X14928571Y-131907200D02*
X14690476Y-132621485D01*
X14690476Y-132621485D02*
X15309523Y-132621485D01*
X55261905Y-108954819D02*
X55261905Y-107954819D01*
X55261905Y-107954819D02*
X55500000Y-107954819D01*
X55500000Y-107954819D02*
X55642857Y-108002438D01*
X55642857Y-108002438D02*
X55738095Y-108097676D01*
X55738095Y-108097676D02*
X55785714Y-108192914D01*
X55785714Y-108192914D02*
X55833333Y-108383390D01*
X55833333Y-108383390D02*
X55833333Y-108526247D01*
X55833333Y-108526247D02*
X55785714Y-108716723D01*
X55785714Y-108716723D02*
X55738095Y-108811961D01*
X55738095Y-108811961D02*
X55642857Y-108907200D01*
X55642857Y-108907200D02*
X55500000Y-108954819D01*
X55500000Y-108954819D02*
X55261905Y-108954819D01*
X56309524Y-108954819D02*
X56500000Y-108954819D01*
X56500000Y-108954819D02*
X56595238Y-108907200D01*
X56595238Y-108907200D02*
X56642857Y-108859580D01*
X56642857Y-108859580D02*
X56738095Y-108716723D01*
X56738095Y-108716723D02*
X56785714Y-108526247D01*
X56785714Y-108526247D02*
X56785714Y-108145295D01*
X56785714Y-108145295D02*
X56738095Y-108050057D01*
X56738095Y-108050057D02*
X56690476Y-108002438D01*
X56690476Y-108002438D02*
X56595238Y-107954819D01*
X56595238Y-107954819D02*
X56404762Y-107954819D01*
X56404762Y-107954819D02*
X56309524Y-108002438D01*
X56309524Y-108002438D02*
X56261905Y-108050057D01*
X56261905Y-108050057D02*
X56214286Y-108145295D01*
X56214286Y-108145295D02*
X56214286Y-108383390D01*
X56214286Y-108383390D02*
X56261905Y-108478628D01*
X56261905Y-108478628D02*
X56309524Y-108526247D01*
X56309524Y-108526247D02*
X56404762Y-108573866D01*
X56404762Y-108573866D02*
X56595238Y-108573866D01*
X56595238Y-108573866D02*
X56690476Y-108526247D01*
X56690476Y-108526247D02*
X56738095Y-108478628D01*
X56738095Y-108478628D02*
X56785714Y-108383390D01*
X26785714Y-120954819D02*
X26785714Y-119954819D01*
X26785714Y-119954819D02*
X27023809Y-119954819D01*
X27023809Y-119954819D02*
X27166666Y-120002438D01*
X27166666Y-120002438D02*
X27261904Y-120097676D01*
X27261904Y-120097676D02*
X27309523Y-120192914D01*
X27309523Y-120192914D02*
X27357142Y-120383390D01*
X27357142Y-120383390D02*
X27357142Y-120526247D01*
X27357142Y-120526247D02*
X27309523Y-120716723D01*
X27309523Y-120716723D02*
X27261904Y-120811961D01*
X27261904Y-120811961D02*
X27166666Y-120907200D01*
X27166666Y-120907200D02*
X27023809Y-120954819D01*
X27023809Y-120954819D02*
X26785714Y-120954819D01*
X28309523Y-120954819D02*
X27738095Y-120954819D01*
X28023809Y-120954819D02*
X28023809Y-119954819D01*
X28023809Y-119954819D02*
X27928571Y-120097676D01*
X27928571Y-120097676D02*
X27833333Y-120192914D01*
X27833333Y-120192914D02*
X27738095Y-120240533D01*
X29261904Y-120954819D02*
X28690476Y-120954819D01*
X28976190Y-120954819D02*
X28976190Y-119954819D01*
X28976190Y-119954819D02*
X28880952Y-120097676D01*
X28880952Y-120097676D02*
X28785714Y-120192914D01*
X28785714Y-120192914D02*
X28690476Y-120240533D01*
X13261905Y-96954819D02*
X13261905Y-95954819D01*
X13261905Y-95954819D02*
X13500000Y-95954819D01*
X13500000Y-95954819D02*
X13642857Y-96002438D01*
X13642857Y-96002438D02*
X13738095Y-96097676D01*
X13738095Y-96097676D02*
X13785714Y-96192914D01*
X13785714Y-96192914D02*
X13833333Y-96383390D01*
X13833333Y-96383390D02*
X13833333Y-96526247D01*
X13833333Y-96526247D02*
X13785714Y-96716723D01*
X13785714Y-96716723D02*
X13738095Y-96811961D01*
X13738095Y-96811961D02*
X13642857Y-96907200D01*
X13642857Y-96907200D02*
X13500000Y-96954819D01*
X13500000Y-96954819D02*
X13261905Y-96954819D01*
X14214286Y-96050057D02*
X14261905Y-96002438D01*
X14261905Y-96002438D02*
X14357143Y-95954819D01*
X14357143Y-95954819D02*
X14595238Y-95954819D01*
X14595238Y-95954819D02*
X14690476Y-96002438D01*
X14690476Y-96002438D02*
X14738095Y-96050057D01*
X14738095Y-96050057D02*
X14785714Y-96145295D01*
X14785714Y-96145295D02*
X14785714Y-96240533D01*
X14785714Y-96240533D02*
X14738095Y-96383390D01*
X14738095Y-96383390D02*
X14166667Y-96954819D01*
X14166667Y-96954819D02*
X14785714Y-96954819D01*
X40785714Y-120954819D02*
X40785714Y-119954819D01*
X40785714Y-119954819D02*
X41023809Y-119954819D01*
X41023809Y-119954819D02*
X41166666Y-120002438D01*
X41166666Y-120002438D02*
X41261904Y-120097676D01*
X41261904Y-120097676D02*
X41309523Y-120192914D01*
X41309523Y-120192914D02*
X41357142Y-120383390D01*
X41357142Y-120383390D02*
X41357142Y-120526247D01*
X41357142Y-120526247D02*
X41309523Y-120716723D01*
X41309523Y-120716723D02*
X41261904Y-120811961D01*
X41261904Y-120811961D02*
X41166666Y-120907200D01*
X41166666Y-120907200D02*
X41023809Y-120954819D01*
X41023809Y-120954819D02*
X40785714Y-120954819D01*
X42309523Y-120954819D02*
X41738095Y-120954819D01*
X42023809Y-120954819D02*
X42023809Y-119954819D01*
X42023809Y-119954819D02*
X41928571Y-120097676D01*
X41928571Y-120097676D02*
X41833333Y-120192914D01*
X41833333Y-120192914D02*
X41738095Y-120240533D01*
X42690476Y-120050057D02*
X42738095Y-120002438D01*
X42738095Y-120002438D02*
X42833333Y-119954819D01*
X42833333Y-119954819D02*
X43071428Y-119954819D01*
X43071428Y-119954819D02*
X43166666Y-120002438D01*
X43166666Y-120002438D02*
X43214285Y-120050057D01*
X43214285Y-120050057D02*
X43261904Y-120145295D01*
X43261904Y-120145295D02*
X43261904Y-120240533D01*
X43261904Y-120240533D02*
X43214285Y-120383390D01*
X43214285Y-120383390D02*
X42642857Y-120954819D01*
X42642857Y-120954819D02*
X43261904Y-120954819D01*
X12785714Y-120954819D02*
X12785714Y-119954819D01*
X12785714Y-119954819D02*
X13023809Y-119954819D01*
X13023809Y-119954819D02*
X13166666Y-120002438D01*
X13166666Y-120002438D02*
X13261904Y-120097676D01*
X13261904Y-120097676D02*
X13309523Y-120192914D01*
X13309523Y-120192914D02*
X13357142Y-120383390D01*
X13357142Y-120383390D02*
X13357142Y-120526247D01*
X13357142Y-120526247D02*
X13309523Y-120716723D01*
X13309523Y-120716723D02*
X13261904Y-120811961D01*
X13261904Y-120811961D02*
X13166666Y-120907200D01*
X13166666Y-120907200D02*
X13023809Y-120954819D01*
X13023809Y-120954819D02*
X12785714Y-120954819D01*
X14309523Y-120954819D02*
X13738095Y-120954819D01*
X14023809Y-120954819D02*
X14023809Y-119954819D01*
X14023809Y-119954819D02*
X13928571Y-120097676D01*
X13928571Y-120097676D02*
X13833333Y-120192914D01*
X13833333Y-120192914D02*
X13738095Y-120240533D01*
X14928571Y-119954819D02*
X15023809Y-119954819D01*
X15023809Y-119954819D02*
X15119047Y-120002438D01*
X15119047Y-120002438D02*
X15166666Y-120050057D01*
X15166666Y-120050057D02*
X15214285Y-120145295D01*
X15214285Y-120145295D02*
X15261904Y-120335771D01*
X15261904Y-120335771D02*
X15261904Y-120573866D01*
X15261904Y-120573866D02*
X15214285Y-120764342D01*
X15214285Y-120764342D02*
X15166666Y-120859580D01*
X15166666Y-120859580D02*
X15119047Y-120907200D01*
X15119047Y-120907200D02*
X15023809Y-120954819D01*
X15023809Y-120954819D02*
X14928571Y-120954819D01*
X14928571Y-120954819D02*
X14833333Y-120907200D01*
X14833333Y-120907200D02*
X14785714Y-120859580D01*
X14785714Y-120859580D02*
X14738095Y-120764342D01*
X14738095Y-120764342D02*
X14690476Y-120573866D01*
X14690476Y-120573866D02*
X14690476Y-120335771D01*
X14690476Y-120335771D02*
X14738095Y-120145295D01*
X14738095Y-120145295D02*
X14785714Y-120050057D01*
X14785714Y-120050057D02*
X14833333Y-120002438D01*
X14833333Y-120002438D02*
X14928571Y-119954819D01*
X55261905Y-96954819D02*
X55261905Y-95954819D01*
X55261905Y-95954819D02*
X55500000Y-95954819D01*
X55500000Y-95954819D02*
X55642857Y-96002438D01*
X55642857Y-96002438D02*
X55738095Y-96097676D01*
X55738095Y-96097676D02*
X55785714Y-96192914D01*
X55785714Y-96192914D02*
X55833333Y-96383390D01*
X55833333Y-96383390D02*
X55833333Y-96526247D01*
X55833333Y-96526247D02*
X55785714Y-96716723D01*
X55785714Y-96716723D02*
X55738095Y-96811961D01*
X55738095Y-96811961D02*
X55642857Y-96907200D01*
X55642857Y-96907200D02*
X55500000Y-96954819D01*
X55500000Y-96954819D02*
X55261905Y-96954819D01*
X56738095Y-95954819D02*
X56261905Y-95954819D01*
X56261905Y-95954819D02*
X56214286Y-96431009D01*
X56214286Y-96431009D02*
X56261905Y-96383390D01*
X56261905Y-96383390D02*
X56357143Y-96335771D01*
X56357143Y-96335771D02*
X56595238Y-96335771D01*
X56595238Y-96335771D02*
X56690476Y-96383390D01*
X56690476Y-96383390D02*
X56738095Y-96431009D01*
X56738095Y-96431009D02*
X56785714Y-96526247D01*
X56785714Y-96526247D02*
X56785714Y-96764342D01*
X56785714Y-96764342D02*
X56738095Y-96859580D01*
X56738095Y-96859580D02*
X56690476Y-96907200D01*
X56690476Y-96907200D02*
X56595238Y-96954819D01*
X56595238Y-96954819D02*
X56357143Y-96954819D01*
X56357143Y-96954819D02*
X56261905Y-96907200D01*
X56261905Y-96907200D02*
X56214286Y-96859580D01*
X26785714Y-132954819D02*
X26785714Y-131954819D01*
X26785714Y-131954819D02*
X27023809Y-131954819D01*
X27023809Y-131954819D02*
X27166666Y-132002438D01*
X27166666Y-132002438D02*
X27261904Y-132097676D01*
X27261904Y-132097676D02*
X27309523Y-132192914D01*
X27309523Y-132192914D02*
X27357142Y-132383390D01*
X27357142Y-132383390D02*
X27357142Y-132526247D01*
X27357142Y-132526247D02*
X27309523Y-132716723D01*
X27309523Y-132716723D02*
X27261904Y-132811961D01*
X27261904Y-132811961D02*
X27166666Y-132907200D01*
X27166666Y-132907200D02*
X27023809Y-132954819D01*
X27023809Y-132954819D02*
X26785714Y-132954819D01*
X28309523Y-132954819D02*
X27738095Y-132954819D01*
X28023809Y-132954819D02*
X28023809Y-131954819D01*
X28023809Y-131954819D02*
X27928571Y-132097676D01*
X27928571Y-132097676D02*
X27833333Y-132192914D01*
X27833333Y-132192914D02*
X27738095Y-132240533D01*
X29214285Y-131954819D02*
X28738095Y-131954819D01*
X28738095Y-131954819D02*
X28690476Y-132431009D01*
X28690476Y-132431009D02*
X28738095Y-132383390D01*
X28738095Y-132383390D02*
X28833333Y-132335771D01*
X28833333Y-132335771D02*
X29071428Y-132335771D01*
X29071428Y-132335771D02*
X29166666Y-132383390D01*
X29166666Y-132383390D02*
X29214285Y-132431009D01*
X29214285Y-132431009D02*
X29261904Y-132526247D01*
X29261904Y-132526247D02*
X29261904Y-132764342D01*
X29261904Y-132764342D02*
X29214285Y-132859580D01*
X29214285Y-132859580D02*
X29166666Y-132907200D01*
X29166666Y-132907200D02*
X29071428Y-132954819D01*
X29071428Y-132954819D02*
X28833333Y-132954819D01*
X28833333Y-132954819D02*
X28738095Y-132907200D01*
X28738095Y-132907200D02*
X28690476Y-132859580D01*
X27261905Y-108954819D02*
X27261905Y-107954819D01*
X27261905Y-107954819D02*
X27500000Y-107954819D01*
X27500000Y-107954819D02*
X27642857Y-108002438D01*
X27642857Y-108002438D02*
X27738095Y-108097676D01*
X27738095Y-108097676D02*
X27785714Y-108192914D01*
X27785714Y-108192914D02*
X27833333Y-108383390D01*
X27833333Y-108383390D02*
X27833333Y-108526247D01*
X27833333Y-108526247D02*
X27785714Y-108716723D01*
X27785714Y-108716723D02*
X27738095Y-108811961D01*
X27738095Y-108811961D02*
X27642857Y-108907200D01*
X27642857Y-108907200D02*
X27500000Y-108954819D01*
X27500000Y-108954819D02*
X27261905Y-108954819D01*
X28166667Y-107954819D02*
X28833333Y-107954819D01*
X28833333Y-107954819D02*
X28404762Y-108954819D01*
X54785714Y-132954819D02*
X54785714Y-131954819D01*
X54785714Y-131954819D02*
X55023809Y-131954819D01*
X55023809Y-131954819D02*
X55166666Y-132002438D01*
X55166666Y-132002438D02*
X55261904Y-132097676D01*
X55261904Y-132097676D02*
X55309523Y-132192914D01*
X55309523Y-132192914D02*
X55357142Y-132383390D01*
X55357142Y-132383390D02*
X55357142Y-132526247D01*
X55357142Y-132526247D02*
X55309523Y-132716723D01*
X55309523Y-132716723D02*
X55261904Y-132811961D01*
X55261904Y-132811961D02*
X55166666Y-132907200D01*
X55166666Y-132907200D02*
X55023809Y-132954819D01*
X55023809Y-132954819D02*
X54785714Y-132954819D01*
X56309523Y-132954819D02*
X55738095Y-132954819D01*
X56023809Y-132954819D02*
X56023809Y-131954819D01*
X56023809Y-131954819D02*
X55928571Y-132097676D01*
X55928571Y-132097676D02*
X55833333Y-132192914D01*
X55833333Y-132192914D02*
X55738095Y-132240533D01*
X56642857Y-131954819D02*
X57309523Y-131954819D01*
X57309523Y-131954819D02*
X56880952Y-132954819D01*
X41261905Y-108954819D02*
X41261905Y-107954819D01*
X41261905Y-107954819D02*
X41500000Y-107954819D01*
X41500000Y-107954819D02*
X41642857Y-108002438D01*
X41642857Y-108002438D02*
X41738095Y-108097676D01*
X41738095Y-108097676D02*
X41785714Y-108192914D01*
X41785714Y-108192914D02*
X41833333Y-108383390D01*
X41833333Y-108383390D02*
X41833333Y-108526247D01*
X41833333Y-108526247D02*
X41785714Y-108716723D01*
X41785714Y-108716723D02*
X41738095Y-108811961D01*
X41738095Y-108811961D02*
X41642857Y-108907200D01*
X41642857Y-108907200D02*
X41500000Y-108954819D01*
X41500000Y-108954819D02*
X41261905Y-108954819D01*
X42404762Y-108383390D02*
X42309524Y-108335771D01*
X42309524Y-108335771D02*
X42261905Y-108288152D01*
X42261905Y-108288152D02*
X42214286Y-108192914D01*
X42214286Y-108192914D02*
X42214286Y-108145295D01*
X42214286Y-108145295D02*
X42261905Y-108050057D01*
X42261905Y-108050057D02*
X42309524Y-108002438D01*
X42309524Y-108002438D02*
X42404762Y-107954819D01*
X42404762Y-107954819D02*
X42595238Y-107954819D01*
X42595238Y-107954819D02*
X42690476Y-108002438D01*
X42690476Y-108002438D02*
X42738095Y-108050057D01*
X42738095Y-108050057D02*
X42785714Y-108145295D01*
X42785714Y-108145295D02*
X42785714Y-108192914D01*
X42785714Y-108192914D02*
X42738095Y-108288152D01*
X42738095Y-108288152D02*
X42690476Y-108335771D01*
X42690476Y-108335771D02*
X42595238Y-108383390D01*
X42595238Y-108383390D02*
X42404762Y-108383390D01*
X42404762Y-108383390D02*
X42309524Y-108431009D01*
X42309524Y-108431009D02*
X42261905Y-108478628D01*
X42261905Y-108478628D02*
X42214286Y-108573866D01*
X42214286Y-108573866D02*
X42214286Y-108764342D01*
X42214286Y-108764342D02*
X42261905Y-108859580D01*
X42261905Y-108859580D02*
X42309524Y-108907200D01*
X42309524Y-108907200D02*
X42404762Y-108954819D01*
X42404762Y-108954819D02*
X42595238Y-108954819D01*
X42595238Y-108954819D02*
X42690476Y-108907200D01*
X42690476Y-108907200D02*
X42738095Y-108859580D01*
X42738095Y-108859580D02*
X42785714Y-108764342D01*
X42785714Y-108764342D02*
X42785714Y-108573866D01*
X42785714Y-108573866D02*
X42738095Y-108478628D01*
X42738095Y-108478628D02*
X42690476Y-108431009D01*
X42690476Y-108431009D02*
X42595238Y-108383390D01*
X13261905Y-108954819D02*
X13261905Y-107954819D01*
X13261905Y-107954819D02*
X13500000Y-107954819D01*
X13500000Y-107954819D02*
X13642857Y-108002438D01*
X13642857Y-108002438D02*
X13738095Y-108097676D01*
X13738095Y-108097676D02*
X13785714Y-108192914D01*
X13785714Y-108192914D02*
X13833333Y-108383390D01*
X13833333Y-108383390D02*
X13833333Y-108526247D01*
X13833333Y-108526247D02*
X13785714Y-108716723D01*
X13785714Y-108716723D02*
X13738095Y-108811961D01*
X13738095Y-108811961D02*
X13642857Y-108907200D01*
X13642857Y-108907200D02*
X13500000Y-108954819D01*
X13500000Y-108954819D02*
X13261905Y-108954819D01*
X14690476Y-107954819D02*
X14500000Y-107954819D01*
X14500000Y-107954819D02*
X14404762Y-108002438D01*
X14404762Y-108002438D02*
X14357143Y-108050057D01*
X14357143Y-108050057D02*
X14261905Y-108192914D01*
X14261905Y-108192914D02*
X14214286Y-108383390D01*
X14214286Y-108383390D02*
X14214286Y-108764342D01*
X14214286Y-108764342D02*
X14261905Y-108859580D01*
X14261905Y-108859580D02*
X14309524Y-108907200D01*
X14309524Y-108907200D02*
X14404762Y-108954819D01*
X14404762Y-108954819D02*
X14595238Y-108954819D01*
X14595238Y-108954819D02*
X14690476Y-108907200D01*
X14690476Y-108907200D02*
X14738095Y-108859580D01*
X14738095Y-108859580D02*
X14785714Y-108764342D01*
X14785714Y-108764342D02*
X14785714Y-108526247D01*
X14785714Y-108526247D02*
X14738095Y-108431009D01*
X14738095Y-108431009D02*
X14690476Y-108383390D01*
X14690476Y-108383390D02*
X14595238Y-108335771D01*
X14595238Y-108335771D02*
X14404762Y-108335771D01*
X14404762Y-108335771D02*
X14309524Y-108383390D01*
X14309524Y-108383390D02*
X14261905Y-108431009D01*
X14261905Y-108431009D02*
X14214286Y-108526247D01*
X65238095Y-88354819D02*
X65238095Y-89164342D01*
X65238095Y-89164342D02*
X65285714Y-89259580D01*
X65285714Y-89259580D02*
X65333333Y-89307200D01*
X65333333Y-89307200D02*
X65428571Y-89354819D01*
X65428571Y-89354819D02*
X65619047Y-89354819D01*
X65619047Y-89354819D02*
X65714285Y-89307200D01*
X65714285Y-89307200D02*
X65761904Y-89259580D01*
X65761904Y-89259580D02*
X65809523Y-89164342D01*
X65809523Y-89164342D02*
X65809523Y-88354819D01*
X66238095Y-88450057D02*
X66285714Y-88402438D01*
X66285714Y-88402438D02*
X66380952Y-88354819D01*
X66380952Y-88354819D02*
X66619047Y-88354819D01*
X66619047Y-88354819D02*
X66714285Y-88402438D01*
X66714285Y-88402438D02*
X66761904Y-88450057D01*
X66761904Y-88450057D02*
X66809523Y-88545295D01*
X66809523Y-88545295D02*
X66809523Y-88640533D01*
X66809523Y-88640533D02*
X66761904Y-88783390D01*
X66761904Y-88783390D02*
X66190476Y-89354819D01*
X66190476Y-89354819D02*
X66809523Y-89354819D01*
X54785714Y-120954819D02*
X54785714Y-119954819D01*
X54785714Y-119954819D02*
X55023809Y-119954819D01*
X55023809Y-119954819D02*
X55166666Y-120002438D01*
X55166666Y-120002438D02*
X55261904Y-120097676D01*
X55261904Y-120097676D02*
X55309523Y-120192914D01*
X55309523Y-120192914D02*
X55357142Y-120383390D01*
X55357142Y-120383390D02*
X55357142Y-120526247D01*
X55357142Y-120526247D02*
X55309523Y-120716723D01*
X55309523Y-120716723D02*
X55261904Y-120811961D01*
X55261904Y-120811961D02*
X55166666Y-120907200D01*
X55166666Y-120907200D02*
X55023809Y-120954819D01*
X55023809Y-120954819D02*
X54785714Y-120954819D01*
X56309523Y-120954819D02*
X55738095Y-120954819D01*
X56023809Y-120954819D02*
X56023809Y-119954819D01*
X56023809Y-119954819D02*
X55928571Y-120097676D01*
X55928571Y-120097676D02*
X55833333Y-120192914D01*
X55833333Y-120192914D02*
X55738095Y-120240533D01*
X56642857Y-119954819D02*
X57261904Y-119954819D01*
X57261904Y-119954819D02*
X56928571Y-120335771D01*
X56928571Y-120335771D02*
X57071428Y-120335771D01*
X57071428Y-120335771D02*
X57166666Y-120383390D01*
X57166666Y-120383390D02*
X57214285Y-120431009D01*
X57214285Y-120431009D02*
X57261904Y-120526247D01*
X57261904Y-120526247D02*
X57261904Y-120764342D01*
X57261904Y-120764342D02*
X57214285Y-120859580D01*
X57214285Y-120859580D02*
X57166666Y-120907200D01*
X57166666Y-120907200D02*
X57071428Y-120954819D01*
X57071428Y-120954819D02*
X56785714Y-120954819D01*
X56785714Y-120954819D02*
X56690476Y-120907200D01*
X56690476Y-120907200D02*
X56642857Y-120859580D01*
X41261905Y-96954819D02*
X41261905Y-95954819D01*
X41261905Y-95954819D02*
X41500000Y-95954819D01*
X41500000Y-95954819D02*
X41642857Y-96002438D01*
X41642857Y-96002438D02*
X41738095Y-96097676D01*
X41738095Y-96097676D02*
X41785714Y-96192914D01*
X41785714Y-96192914D02*
X41833333Y-96383390D01*
X41833333Y-96383390D02*
X41833333Y-96526247D01*
X41833333Y-96526247D02*
X41785714Y-96716723D01*
X41785714Y-96716723D02*
X41738095Y-96811961D01*
X41738095Y-96811961D02*
X41642857Y-96907200D01*
X41642857Y-96907200D02*
X41500000Y-96954819D01*
X41500000Y-96954819D02*
X41261905Y-96954819D01*
X42690476Y-96288152D02*
X42690476Y-96954819D01*
X42452381Y-95907200D02*
X42214286Y-96621485D01*
X42214286Y-96621485D02*
X42833333Y-96621485D01*
X27261905Y-96954819D02*
X27261905Y-95954819D01*
X27261905Y-95954819D02*
X27500000Y-95954819D01*
X27500000Y-95954819D02*
X27642857Y-96002438D01*
X27642857Y-96002438D02*
X27738095Y-96097676D01*
X27738095Y-96097676D02*
X27785714Y-96192914D01*
X27785714Y-96192914D02*
X27833333Y-96383390D01*
X27833333Y-96383390D02*
X27833333Y-96526247D01*
X27833333Y-96526247D02*
X27785714Y-96716723D01*
X27785714Y-96716723D02*
X27738095Y-96811961D01*
X27738095Y-96811961D02*
X27642857Y-96907200D01*
X27642857Y-96907200D02*
X27500000Y-96954819D01*
X27500000Y-96954819D02*
X27261905Y-96954819D01*
X28166667Y-95954819D02*
X28785714Y-95954819D01*
X28785714Y-95954819D02*
X28452381Y-96335771D01*
X28452381Y-96335771D02*
X28595238Y-96335771D01*
X28595238Y-96335771D02*
X28690476Y-96383390D01*
X28690476Y-96383390D02*
X28738095Y-96431009D01*
X28738095Y-96431009D02*
X28785714Y-96526247D01*
X28785714Y-96526247D02*
X28785714Y-96764342D01*
X28785714Y-96764342D02*
X28738095Y-96859580D01*
X28738095Y-96859580D02*
X28690476Y-96907200D01*
X28690476Y-96907200D02*
X28595238Y-96954819D01*
X28595238Y-96954819D02*
X28309524Y-96954819D01*
X28309524Y-96954819D02*
X28214286Y-96907200D01*
X28214286Y-96907200D02*
X28166667Y-96859580D01*
%TO.C,J2*%
D11*
X6620000Y-76620000D02*
X8000000Y-76620000D01*
X6620000Y-78000000D02*
X6620000Y-76620000D01*
X6620000Y-79270000D02*
X6620000Y-97160000D01*
X6620000Y-79270000D02*
X9380000Y-79270000D01*
X6620000Y-97160000D02*
X9380000Y-97160000D01*
X9380000Y-79270000D02*
X9380000Y-97160000D01*
%TO.C,SW7*%
X25800000Y-105050000D02*
X25800000Y-104950000D01*
X25800000Y-106550000D02*
X30200000Y-106550000D01*
X30200000Y-103450000D02*
X25800000Y-103450000D01*
X30200000Y-105050000D02*
X30200000Y-104950000D01*
%TO.C,SW6*%
X11800000Y-105050000D02*
X11800000Y-104950000D01*
X11800000Y-106550000D02*
X16200000Y-106550000D01*
X16200000Y-103450000D02*
X11800000Y-103450000D01*
X16200000Y-105050000D02*
X16200000Y-104950000D01*
%TO.C,SW14*%
X11800000Y-129050000D02*
X11800000Y-128950000D01*
X11800000Y-130550000D02*
X16200000Y-130550000D01*
X16200000Y-127450000D02*
X11800000Y-127450000D01*
X16200000Y-129050000D02*
X16200000Y-128950000D01*
%TO.C,SW9*%
X53800000Y-105050000D02*
X53800000Y-104950000D01*
X53800000Y-106550000D02*
X58200000Y-106550000D01*
X58200000Y-103450000D02*
X53800000Y-103450000D01*
X58200000Y-105050000D02*
X58200000Y-104950000D01*
%TO.C,R1*%
X47772936Y-139265000D02*
X48227064Y-139265000D01*
X47772936Y-140735000D02*
X48227064Y-140735000D01*
%TO.C,J4*%
X6620000Y-108620000D02*
X8000000Y-108620000D01*
X6620000Y-110000000D02*
X6620000Y-108620000D01*
X6620000Y-111270000D02*
X6620000Y-119000000D01*
X6620000Y-111270000D02*
X9380000Y-111270000D01*
X6620000Y-119000000D02*
X9380000Y-119000000D01*
X9380000Y-111270000D02*
X9380000Y-119000000D01*
%TO.C,C4*%
X41288748Y-59090000D02*
X42711252Y-59090000D01*
X41288748Y-60910000D02*
X42711252Y-60910000D01*
%TO.C,SW13*%
X53800000Y-117050000D02*
X53800000Y-116950000D01*
X53800000Y-118550000D02*
X58200000Y-118550000D01*
X58200000Y-115450000D02*
X53800000Y-115450000D01*
X58200000Y-117050000D02*
X58200000Y-116950000D01*
%TO.C,R4*%
X47772936Y-69265000D02*
X48227064Y-69265000D01*
X47772936Y-70735000D02*
X48227064Y-70735000D01*
%TO.C,U8*%
X37090000Y-148440000D02*
X38910000Y-148440000D01*
X37090000Y-148490000D02*
X37090000Y-148440000D01*
X37090000Y-151560000D02*
X37090000Y-151510000D01*
X38910000Y-148440000D02*
X38910000Y-148490000D01*
X38910000Y-151510000D02*
X38910000Y-151560000D01*
X38910000Y-151560000D02*
X37090000Y-151560000D01*
X36550000Y-148490000D02*
X36310000Y-148160000D01*
X36790000Y-148160000D01*
X36550000Y-148490000D01*
G36*
X36550000Y-148490000D02*
G01*
X36310000Y-148160000D01*
X36790000Y-148160000D01*
X36550000Y-148490000D01*
G37*
%TO.C,SW8*%
X39800000Y-105050000D02*
X39800000Y-104950000D01*
X39800000Y-106550000D02*
X44200000Y-106550000D01*
X44200000Y-103450000D02*
X39800000Y-103450000D01*
X44200000Y-105050000D02*
X44200000Y-104950000D01*
%TO.C,SW17*%
X53800000Y-129050000D02*
X53800000Y-128950000D01*
X53800000Y-130550000D02*
X58200000Y-130550000D01*
X58200000Y-127450000D02*
X53800000Y-127450000D01*
X58200000Y-129050000D02*
X58200000Y-128950000D01*
%TO.C,SW1*%
X37700000Y-72700000D02*
X46300000Y-72700000D01*
X37700000Y-77300000D02*
X39900000Y-77300000D01*
X44000000Y-77300000D02*
X46300000Y-77300000D01*
%TO.C,SW15*%
X25800000Y-129050000D02*
X25800000Y-128950000D01*
X25800000Y-130550000D02*
X30200000Y-130550000D01*
X30200000Y-127450000D02*
X25800000Y-127450000D01*
X30200000Y-129050000D02*
X30200000Y-128950000D01*
%TO.C,J1*%
D10*
X37500000Y-3500000D02*
X70500000Y-3500000D01*
X70500000Y-46500000D01*
X37500000Y-46500000D01*
X37500000Y-3500000D01*
%TO.C,C2*%
D11*
X27288748Y-139090000D02*
X28711252Y-139090000D01*
X27288748Y-140910000D02*
X28711252Y-140910000D01*
%TO.C,J5*%
X66620000Y-113620000D02*
X68000000Y-113620000D01*
X66620000Y-115000000D02*
X66620000Y-113620000D01*
X66620000Y-116270000D02*
X66620000Y-126540000D01*
X66620000Y-116270000D02*
X69380000Y-116270000D01*
X66620000Y-126540000D02*
X69380000Y-126540000D01*
X69380000Y-116270000D02*
X69380000Y-126540000D01*
%TO.C,C3*%
X37288748Y-139090000D02*
X38711252Y-139090000D01*
X37288748Y-140910000D02*
X38711252Y-140910000D01*
%TO.C,J13*%
X17015000Y-146290000D02*
X18815000Y-146290000D01*
X17015000Y-147740000D02*
X17015000Y-146290000D01*
X18285000Y-150560000D02*
X21715000Y-150560000D01*
X18815000Y-146290000D02*
X18815000Y-145300000D01*
X22985000Y-146290000D02*
X21185000Y-146290000D01*
X22985000Y-147740000D02*
X22985000Y-146290000D01*
%TO.C,SW10*%
X11800000Y-117050000D02*
X11800000Y-116950000D01*
X11800000Y-118550000D02*
X16200000Y-118550000D01*
X16200000Y-115450000D02*
X11800000Y-115450000D01*
X16200000Y-117050000D02*
X16200000Y-116950000D01*
%TO.C,J8*%
X54350000Y-13700000D02*
X54350000Y-15040000D01*
X54350000Y-17760000D02*
X54350000Y-19500000D01*
X54350000Y-19500000D02*
X69650000Y-19500000D01*
X55840000Y-13700000D02*
X54350000Y-13700000D01*
X55840000Y-13700000D02*
X55840000Y-12500000D01*
X68160000Y-13700000D02*
X69650000Y-13700000D01*
X69650000Y-13700000D02*
X69650000Y-15040000D01*
X69650000Y-19500000D02*
X69650000Y-17760000D01*
%TO.C,SW16*%
X39800000Y-129050000D02*
X39800000Y-128950000D01*
X39800000Y-130550000D02*
X44200000Y-130550000D01*
X44200000Y-127450000D02*
X39800000Y-127450000D01*
X44200000Y-129050000D02*
X44200000Y-128950000D01*
%TO.C,R2*%
X57772936Y-139265000D02*
X58227064Y-139265000D01*
X57772936Y-140735000D02*
X58227064Y-140735000D01*
%TO.C,U1*%
X18800000Y-32100000D02*
X18800000Y-38300000D01*
X18800000Y-32100000D02*
X37200000Y-32100000D01*
X18800000Y-56950000D02*
X18800000Y-57950000D01*
X18800000Y-57950000D02*
X20300000Y-57950000D01*
X37200000Y-32100000D02*
X37200000Y-38300000D01*
X37200000Y-57950000D02*
X35700000Y-57950000D01*
X37200000Y-57950000D02*
X37200000Y-56950000D01*
X18800000Y-38975000D02*
X18300000Y-38975000D01*
X18800000Y-38475000D01*
X18800000Y-38975000D01*
G36*
X18800000Y-38975000D02*
G01*
X18300000Y-38975000D01*
X18800000Y-38475000D01*
X18800000Y-38975000D01*
G37*
%TO.C,SW11*%
X25800000Y-117050000D02*
X25800000Y-116950000D01*
X25800000Y-118550000D02*
X30200000Y-118550000D01*
X30200000Y-115450000D02*
X25800000Y-115450000D01*
X30200000Y-117050000D02*
X30200000Y-116950000D01*
%TO.C,SW12*%
X39800000Y-117050000D02*
X39800000Y-116950000D01*
X39800000Y-118550000D02*
X44200000Y-118550000D01*
X44200000Y-115450000D02*
X39800000Y-115450000D01*
X44200000Y-117050000D02*
X44200000Y-116950000D01*
%TO.C,J9*%
X59180000Y-84590000D02*
X59180000Y-83730000D01*
X60550000Y-86070000D02*
X65000000Y-86070000D01*
X66400000Y-86070000D02*
X68700000Y-86070000D01*
X70100000Y-86070000D02*
X70820000Y-86070000D01*
X70820000Y-73890000D02*
X61000000Y-73890000D01*
X70820000Y-75120000D02*
X70820000Y-73890000D01*
X70820000Y-81090000D02*
X70820000Y-77420000D01*
X70820000Y-86070000D02*
X70820000Y-83390000D01*
%TO.C,R3*%
X67772936Y-139265000D02*
X68227064Y-139265000D01*
X67772936Y-140735000D02*
X68227064Y-140735000D01*
%TO.C,J10*%
X56729500Y-60180000D02*
X56729500Y-71794500D01*
X56729500Y-60180000D02*
X57237500Y-60180000D01*
X57237500Y-71794500D02*
X56729500Y-71794500D01*
X60476000Y-60174000D02*
X62571500Y-60174000D01*
X62571500Y-71794500D02*
X60476000Y-71794500D01*
X64815000Y-60174000D02*
X71015000Y-60174000D01*
X67461000Y-71794500D02*
X64815000Y-71794500D01*
X71015000Y-60174000D02*
X71015000Y-61952000D01*
X71015000Y-68048000D02*
X71015000Y-69000500D01*
X71017000Y-63603000D02*
X71015000Y-66397000D01*
X71461500Y-69000500D02*
X71017000Y-69000500D01*
X71461500Y-69000500D02*
X71461500Y-71794500D01*
X71461500Y-71794500D02*
X70191500Y-71794500D01*
%TO.C,D1*%
X63315000Y-29040000D02*
X63315000Y-30960000D01*
X63315000Y-30960000D02*
X66000000Y-30960000D01*
X66000000Y-29040000D02*
X63315000Y-29040000D01*
%TO.C,J6*%
X18620000Y-86380000D02*
X18620000Y-85000000D01*
X20000000Y-86380000D02*
X18620000Y-86380000D01*
X21270000Y-83620000D02*
X31540000Y-83620000D01*
X21270000Y-86380000D02*
X21270000Y-83620000D01*
X21270000Y-86380000D02*
X31540000Y-86380000D01*
X31540000Y-86380000D02*
X31540000Y-83620000D01*
%TO.C,U6*%
X48840000Y-119190000D02*
X50000000Y-119190000D01*
X48840000Y-120000000D02*
X48840000Y-119190000D01*
X48840000Y-120810000D02*
X48840000Y-124555000D01*
X48840000Y-120810000D02*
X49333292Y-120810000D01*
X48840000Y-124555000D02*
X49682077Y-124555000D01*
X50317923Y-124555000D02*
X51160000Y-124555000D01*
X50666708Y-120810000D02*
X51160000Y-120810000D01*
X51160000Y-120810000D02*
X51160000Y-124555000D01*
%TO.C,R5*%
X57772936Y-54265000D02*
X58227064Y-54265000D01*
X57772936Y-55735000D02*
X58227064Y-55735000D01*
%TO.C,U7*%
X48840000Y-54700000D02*
X48840000Y-57460000D01*
X51400000Y-54900000D02*
X51200000Y-54900000D01*
X51400000Y-60100000D02*
X51200000Y-60100000D01*
X51400000Y-54900000D02*
G75*
G02*
X51400000Y-60100000I0J-2600000D01*
G01*
%TO.C,Q1*%
X9090000Y-146440000D02*
X10910000Y-146440000D01*
X9090000Y-146490000D02*
X9090000Y-146440000D01*
X9090000Y-149560000D02*
X9090000Y-149510000D01*
X10910000Y-146440000D02*
X10910000Y-146490000D01*
X10910000Y-149510000D02*
X10910000Y-149560000D01*
X10910000Y-149560000D02*
X9090000Y-149560000D01*
X8550000Y-146490000D02*
X8310000Y-146160000D01*
X8790000Y-146160000D01*
X8550000Y-146490000D01*
G36*
X8550000Y-146490000D02*
G01*
X8310000Y-146160000D01*
X8790000Y-146160000D01*
X8550000Y-146490000D01*
G37*
%TO.C,SW5*%
X53800000Y-93050000D02*
X53800000Y-92950000D01*
X53800000Y-94550000D02*
X58200000Y-94550000D01*
X58200000Y-91450000D02*
X53800000Y-91450000D01*
X58200000Y-93050000D02*
X58200000Y-92950000D01*
%TO.C,L1*%
X57397936Y-149640000D02*
X58602064Y-149640000D01*
X57397936Y-152360000D02*
X58602064Y-152360000D01*
%TO.C,C1*%
X68288748Y-149090000D02*
X69711252Y-149090000D01*
X68288748Y-150910000D02*
X69711252Y-150910000D01*
%TO.C,J3*%
X23620000Y-66380000D02*
X23620000Y-65000000D01*
X25000000Y-66380000D02*
X23620000Y-66380000D01*
X26270000Y-63620000D02*
X46700000Y-63620000D01*
X26270000Y-66380000D02*
X26270000Y-63620000D01*
X26270000Y-66380000D02*
X46700000Y-66380000D01*
X46700000Y-66380000D02*
X46700000Y-63620000D01*
%TO.C,SW3*%
X25800000Y-93050000D02*
X25800000Y-92950000D01*
X25800000Y-94550000D02*
X30200000Y-94550000D01*
X30200000Y-91450000D02*
X25800000Y-91450000D01*
X30200000Y-93050000D02*
X30200000Y-92950000D01*
%TO.C,U3*%
X27940000Y-142440000D02*
X32060000Y-142440000D01*
X27940000Y-142535000D02*
X27940000Y-142440000D01*
X27940000Y-147560000D02*
X27940000Y-147465000D01*
X32060000Y-142440000D02*
X32060000Y-142535000D01*
X32060000Y-147465000D02*
X32060000Y-147560000D01*
X32060000Y-147560000D02*
X27940000Y-147560000D01*
X27400000Y-142530000D02*
X27160000Y-142200000D01*
X27640000Y-142200000D01*
X27400000Y-142530000D01*
G36*
X27400000Y-142530000D02*
G01*
X27160000Y-142200000D01*
X27640000Y-142200000D01*
X27400000Y-142530000D01*
G37*
%TO.C,J7*%
X4850000Y-68700000D02*
X4850000Y-70040000D01*
X4850000Y-72760000D02*
X4850000Y-74500000D01*
X4850000Y-74500000D02*
X17150000Y-74500000D01*
X6340000Y-68700000D02*
X4850000Y-68700000D01*
X6340000Y-68700000D02*
X6340000Y-67500000D01*
X15660000Y-68700000D02*
X17150000Y-68700000D01*
X17150000Y-68700000D02*
X17150000Y-70040000D01*
X17150000Y-74500000D02*
X17150000Y-72760000D01*
%TO.C,D18*%
X61640000Y-147000000D02*
X61640000Y-149000000D01*
X61640000Y-147000000D02*
X65650000Y-147000000D01*
X61640000Y-149000000D02*
X65650000Y-149000000D01*
%TO.C,U4*%
X39090000Y-143440000D02*
X40910000Y-143440000D01*
X39090000Y-143490000D02*
X39090000Y-143440000D01*
X39090000Y-146560000D02*
X39090000Y-146510000D01*
X40910000Y-143440000D02*
X40910000Y-143490000D01*
X40910000Y-146510000D02*
X40910000Y-146560000D01*
X40910000Y-146560000D02*
X39090000Y-146560000D01*
X38550000Y-143490000D02*
X38310000Y-143160000D01*
X38790000Y-143160000D01*
X38550000Y-143490000D01*
G36*
X38550000Y-143490000D02*
G01*
X38310000Y-143160000D01*
X38790000Y-143160000D01*
X38550000Y-143490000D01*
G37*
%TO.C,SW2*%
X11800000Y-93050000D02*
X11800000Y-92950000D01*
X11800000Y-94550000D02*
X16200000Y-94550000D01*
X16200000Y-91450000D02*
X11800000Y-91450000D01*
X16200000Y-93050000D02*
X16200000Y-92950000D01*
%TO.C,U5*%
X44090000Y-143440000D02*
X45910000Y-143440000D01*
X44090000Y-143490000D02*
X44090000Y-143440000D01*
X44090000Y-146560000D02*
X44090000Y-146510000D01*
X45910000Y-143440000D02*
X45910000Y-143490000D01*
X45910000Y-144610000D02*
X45910000Y-145390000D01*
X45910000Y-146510000D02*
X45910000Y-146560000D01*
X45910000Y-146560000D02*
X44090000Y-146560000D01*
X43550000Y-143490000D02*
X43310000Y-143160000D01*
X43790000Y-143160000D01*
X43550000Y-143490000D01*
G36*
X43550000Y-143490000D02*
G01*
X43310000Y-143160000D01*
X43790000Y-143160000D01*
X43550000Y-143490000D01*
G37*
%TO.C,USB1*%
X65900000Y-45330000D02*
X64200000Y-45330000D01*
X65900000Y-54670000D02*
X64200000Y-54670000D01*
%TO.C,SW4*%
X39800000Y-93050000D02*
X39800000Y-92950000D01*
X39800000Y-94550000D02*
X44200000Y-94550000D01*
X44200000Y-91450000D02*
X39800000Y-91450000D01*
X44200000Y-93050000D02*
X44200000Y-92950000D01*
%TO.C,D16*%
X39640000Y-133500000D02*
X39640000Y-135500000D01*
X39640000Y-133500000D02*
X43650000Y-133500000D01*
X39640000Y-135500000D02*
X43650000Y-135500000D01*
%TO.C,D14*%
X11640000Y-133500000D02*
X11640000Y-135500000D01*
X11640000Y-133500000D02*
X15650000Y-133500000D01*
X11640000Y-135500000D02*
X15650000Y-135500000D01*
%TO.C,D9*%
X53640000Y-109500000D02*
X53640000Y-111500000D01*
X53640000Y-109500000D02*
X57650000Y-109500000D01*
X53640000Y-111500000D02*
X57650000Y-111500000D01*
%TO.C,D11*%
X25640000Y-121500000D02*
X25640000Y-123500000D01*
X25640000Y-121500000D02*
X29650000Y-121500000D01*
X25640000Y-123500000D02*
X29650000Y-123500000D01*
%TO.C,D2*%
X11640000Y-97500000D02*
X11640000Y-99500000D01*
X11640000Y-97500000D02*
X15650000Y-97500000D01*
X11640000Y-99500000D02*
X15650000Y-99500000D01*
%TO.C,D12*%
X39640000Y-121500000D02*
X39640000Y-123500000D01*
X39640000Y-121500000D02*
X43650000Y-121500000D01*
X39640000Y-123500000D02*
X43650000Y-123500000D01*
%TO.C,D10*%
X11640000Y-121500000D02*
X11640000Y-123500000D01*
X11640000Y-121500000D02*
X15650000Y-121500000D01*
X11640000Y-123500000D02*
X15650000Y-123500000D01*
%TO.C,D5*%
X53640000Y-97500000D02*
X53640000Y-99500000D01*
X53640000Y-97500000D02*
X57650000Y-97500000D01*
X53640000Y-99500000D02*
X57650000Y-99500000D01*
%TO.C,D15*%
X25640000Y-133500000D02*
X25640000Y-135500000D01*
X25640000Y-133500000D02*
X29650000Y-133500000D01*
X25640000Y-135500000D02*
X29650000Y-135500000D01*
%TO.C,D7*%
X25640000Y-109500000D02*
X25640000Y-111500000D01*
X25640000Y-109500000D02*
X29650000Y-109500000D01*
X25640000Y-111500000D02*
X29650000Y-111500000D01*
%TO.C,D17*%
X53640000Y-133500000D02*
X53640000Y-135500000D01*
X53640000Y-133500000D02*
X57650000Y-133500000D01*
X53640000Y-135500000D02*
X57650000Y-135500000D01*
%TO.C,D8*%
X39640000Y-109500000D02*
X39640000Y-111500000D01*
X39640000Y-109500000D02*
X43650000Y-109500000D01*
X39640000Y-111500000D02*
X43650000Y-111500000D01*
%TO.C,D6*%
X11640000Y-109500000D02*
X11640000Y-111500000D01*
X11640000Y-109500000D02*
X15650000Y-109500000D01*
X11640000Y-111500000D02*
X15650000Y-111500000D01*
%TO.C,U2*%
X63615000Y-89740000D02*
X68385000Y-89740000D01*
X63615000Y-90020000D02*
X63615000Y-89740000D01*
X63615000Y-100260000D02*
X63615000Y-99980000D01*
X68385000Y-89740000D02*
X68385000Y-90020000D01*
X68385000Y-99980000D02*
X68385000Y-100260000D01*
X68385000Y-100260000D02*
X63615000Y-100260000D01*
X62750000Y-90010000D02*
X62410000Y-89540000D01*
X63090000Y-89540000D01*
X62750000Y-90010000D01*
G36*
X62750000Y-90010000D02*
G01*
X62410000Y-89540000D01*
X63090000Y-89540000D01*
X62750000Y-90010000D01*
G37*
%TO.C,D13*%
X53640000Y-121500000D02*
X53640000Y-123500000D01*
X53640000Y-121500000D02*
X57650000Y-121500000D01*
X53640000Y-123500000D02*
X57650000Y-123500000D01*
%TO.C,D4*%
X39640000Y-97500000D02*
X39640000Y-99500000D01*
X39640000Y-97500000D02*
X43650000Y-97500000D01*
X39640000Y-99500000D02*
X43650000Y-99500000D01*
%TO.C,D3*%
X25640000Y-97500000D02*
X25640000Y-99500000D01*
X25640000Y-97500000D02*
X29650000Y-97500000D01*
X25640000Y-99500000D02*
X29650000Y-99500000D01*
%TD*%
M02*
