%TF.GenerationSoftware,KiCad,Pcbnew,10.0.6*%
%TF.CreationDate,2026-09-13T19:24:56-05:00*%
%TF.ProjectId,owasso1,6f776173-736f-4312-9e6b-696361645f70,rev?*%
%TF.SameCoordinates,Original*%
%TF.FileFunction,Other,User*%
%FSLAX46Y46*%
G04 Gerber Fmt 4.6, Leading zero omitted, Abs format (unit mm)*
G04 Created by KiCad (PCBNEW 10.0.6) date 2026-09-13 19:24:56*
%MOMM*%
%LPD*%
G01*
G04 APERTURE LIST*
%ADD10C,0.050000*%
G04 APERTURE END LIST*
%TO.C,J2*%
D10*
X6230000Y-76230000D02*
X9770000Y-76230000D01*
X9770000Y-97550000D01*
X6230000Y-97550000D01*
X6230000Y-76230000D01*
%TO.C,H1*%
X8450000Y-6000000D02*
G75*
G02*
X3550000Y-6000000I-2450000J0D01*
G01*
X3550000Y-6000000D02*
G75*
G02*
X8450000Y-6000000I2450000J0D01*
G01*
%TO.C,SW7*%
X25200000Y-103200000D02*
X30800000Y-103200000D01*
X25200000Y-106800000D02*
X25200000Y-103200000D01*
X30800000Y-103200000D02*
X30800000Y-106800000D01*
X30800000Y-106800000D02*
X25200000Y-106800000D01*
%TO.C,SW6*%
X11200000Y-103200000D02*
X16800000Y-103200000D01*
X11200000Y-106800000D02*
X11200000Y-103200000D01*
X16800000Y-103200000D02*
X16800000Y-106800000D01*
X16800000Y-106800000D02*
X11200000Y-106800000D01*
%TO.C,SW14*%
X11200000Y-127200000D02*
X16800000Y-127200000D01*
X11200000Y-130800000D02*
X11200000Y-127200000D01*
X16800000Y-127200000D02*
X16800000Y-130800000D01*
X16800000Y-130800000D02*
X11200000Y-130800000D01*
%TO.C,SW9*%
X53200000Y-103200000D02*
X58800000Y-103200000D01*
X53200000Y-106800000D02*
X53200000Y-103200000D01*
X58800000Y-103200000D02*
X58800000Y-106800000D01*
X58800000Y-106800000D02*
X53200000Y-106800000D01*
%TO.C,R1*%
X46320000Y-139050000D02*
X49680000Y-139050000D01*
X49680000Y-140950000D01*
X46320000Y-140950000D01*
X46320000Y-139050000D01*
%TO.C,J4*%
X6230000Y-108230000D02*
X9770000Y-108230000D01*
X9770000Y-119390000D01*
X6230000Y-119390000D01*
X6230000Y-108230000D01*
%TO.C,H2*%
X72450000Y-6000000D02*
G75*
G02*
X67550000Y-6000000I-2450000J0D01*
G01*
X67550000Y-6000000D02*
G75*
G02*
X72450000Y-6000000I2450000J0D01*
G01*
%TO.C,C4*%
X39700000Y-58850000D02*
X44300000Y-58850000D01*
X44300000Y-61150000D01*
X39700000Y-61150000D01*
X39700000Y-58850000D01*
%TO.C,SW13*%
X53200000Y-115200000D02*
X58800000Y-115200000D01*
X53200000Y-118800000D02*
X53200000Y-115200000D01*
X58800000Y-115200000D02*
X58800000Y-118800000D01*
X58800000Y-118800000D02*
X53200000Y-118800000D01*
%TO.C,R4*%
X46320000Y-69050000D02*
X49680000Y-69050000D01*
X49680000Y-70950000D01*
X46320000Y-70950000D01*
X46320000Y-69050000D01*
%TO.C,U8*%
X35950000Y-148500000D02*
X36950000Y-148500000D01*
X35950000Y-151500000D02*
X35950000Y-148500000D01*
X36950000Y-148300000D02*
X39050000Y-148300000D01*
X36950000Y-148500000D02*
X36950000Y-148300000D01*
X36950000Y-151500000D02*
X35950000Y-151500000D01*
X36950000Y-151700000D02*
X36950000Y-151500000D01*
X39050000Y-148300000D02*
X39050000Y-148500000D01*
X39050000Y-148500000D02*
X40050000Y-148500000D01*
X39050000Y-151500000D02*
X39050000Y-151700000D01*
X39050000Y-151700000D02*
X36950000Y-151700000D01*
X40050000Y-148500000D02*
X40050000Y-151500000D01*
X40050000Y-151500000D02*
X39050000Y-151500000D01*
%TO.C,SW8*%
X39200000Y-103200000D02*
X44800000Y-103200000D01*
X39200000Y-106800000D02*
X39200000Y-103200000D01*
X44800000Y-103200000D02*
X44800000Y-106800000D01*
X44800000Y-106800000D02*
X39200000Y-106800000D01*
%TO.C,SW17*%
X53200000Y-127200000D02*
X58800000Y-127200000D01*
X53200000Y-130800000D02*
X53200000Y-127200000D01*
X58800000Y-127200000D02*
X58800000Y-130800000D01*
X58800000Y-130800000D02*
X53200000Y-130800000D01*
%TO.C,SW1*%
X36300000Y-72300000D02*
X47700000Y-72300000D01*
X36300000Y-81700000D02*
X36300000Y-72300000D01*
X47700000Y-72300000D02*
X47700000Y-81700000D01*
X47700000Y-81700000D02*
X36300000Y-81700000D01*
%TO.C,SW15*%
X25200000Y-127200000D02*
X30800000Y-127200000D01*
X25200000Y-130800000D02*
X25200000Y-127200000D01*
X30800000Y-127200000D02*
X30800000Y-130800000D01*
X30800000Y-130800000D02*
X25200000Y-130800000D01*
%TO.C,C2*%
X25700000Y-138850000D02*
X30300000Y-138850000D01*
X30300000Y-141150000D01*
X25700000Y-141150000D01*
X25700000Y-138850000D01*
%TO.C,J5*%
X66230000Y-113230000D02*
X69770000Y-113230000D01*
X69770000Y-126930000D01*
X66230000Y-126930000D01*
X66230000Y-113230000D01*
%TO.C,C3*%
X35700000Y-138850000D02*
X40300000Y-138850000D01*
X40300000Y-141150000D01*
X35700000Y-141150000D01*
X35700000Y-138850000D01*
%TO.C,J13*%
X16520000Y-147500000D02*
X16620000Y-147500000D01*
X16520000Y-151200000D02*
X16520000Y-147500000D01*
X16620000Y-145900000D02*
X18570000Y-145900000D01*
X16620000Y-147500000D02*
X16620000Y-145900000D01*
X18530000Y-150950000D02*
X18530000Y-151200000D01*
X18530000Y-151200000D02*
X16520000Y-151200000D01*
X18570000Y-144800000D02*
X21430000Y-144800000D01*
X18570000Y-145900000D02*
X18570000Y-144800000D01*
X21430000Y-144800000D02*
X21430000Y-145900000D01*
X21430000Y-145900000D02*
X23380000Y-145900000D01*
X21470000Y-150950000D02*
X18530000Y-150950000D01*
X21470000Y-151200000D02*
X21470000Y-150950000D01*
X23380000Y-145900000D02*
X23380000Y-147500000D01*
X23380000Y-147500000D02*
X23480000Y-147500000D01*
X23480000Y-147500000D02*
X23480000Y-151200000D01*
X23480000Y-151200000D02*
X21470000Y-151200000D01*
%TO.C,SW10*%
X11200000Y-115200000D02*
X16800000Y-115200000D01*
X11200000Y-118800000D02*
X11200000Y-115200000D01*
X16800000Y-115200000D02*
X16800000Y-118800000D01*
X16800000Y-118800000D02*
X11200000Y-118800000D01*
%TO.C,J8*%
X52950000Y-12000000D02*
X71050000Y-12000000D01*
X71050000Y-19900000D01*
X52950000Y-19900000D01*
X52950000Y-12000000D01*
%TO.C,SW16*%
X39200000Y-127200000D02*
X44800000Y-127200000D01*
X39200000Y-130800000D02*
X39200000Y-127200000D01*
X44800000Y-127200000D02*
X44800000Y-130800000D01*
X44800000Y-130800000D02*
X39200000Y-130800000D01*
%TO.C,R2*%
X56320000Y-139050000D02*
X59680000Y-139050000D01*
X59680000Y-140950000D01*
X56320000Y-140950000D01*
X56320000Y-139050000D01*
%TO.C,U1*%
X4000000Y-17250000D02*
X4000000Y-38250000D01*
X4000000Y-38250000D02*
X18250000Y-38250000D01*
X18250000Y-58450000D02*
X18250000Y-38250000D01*
X18250000Y-58450000D02*
X37750000Y-58450000D01*
X37750000Y-38250000D02*
X37750000Y-58450000D01*
X37750000Y-38250000D02*
X52000000Y-38250000D01*
X52000000Y-17250000D02*
X4000000Y-17250000D01*
X52000000Y-38250000D02*
X52000000Y-17250000D01*
%TO.C,H4*%
X72450000Y-154000000D02*
G75*
G02*
X67550000Y-154000000I-2450000J0D01*
G01*
X67550000Y-154000000D02*
G75*
G02*
X72450000Y-154000000I2450000J0D01*
G01*
%TO.C,SW11*%
X25200000Y-115200000D02*
X30800000Y-115200000D01*
X25200000Y-118800000D02*
X25200000Y-115200000D01*
X30800000Y-115200000D02*
X30800000Y-118800000D01*
X30800000Y-118800000D02*
X25200000Y-118800000D01*
%TO.C,SW12*%
X39200000Y-115200000D02*
X44800000Y-115200000D01*
X39200000Y-118800000D02*
X39200000Y-115200000D01*
X44800000Y-115200000D02*
X44800000Y-118800000D01*
X44800000Y-118800000D02*
X39200000Y-118800000D01*
%TO.C,J9*%
X58500000Y-73160000D02*
X71550000Y-73160000D01*
X58500000Y-86840000D02*
X58500000Y-73160000D01*
X71550000Y-73160000D02*
X71550000Y-86840000D01*
X71550000Y-86840000D02*
X58500000Y-86840000D01*
%TO.C,R3*%
X66320000Y-139050000D02*
X69680000Y-139050000D01*
X69680000Y-140950000D01*
X66320000Y-140950000D01*
X66320000Y-139050000D01*
%TO.C,J10*%
X56540000Y-59980000D02*
X56540000Y-71980000D01*
X56540000Y-71980000D02*
X71690000Y-71980000D01*
X71690000Y-59980000D02*
X56540000Y-59980000D01*
X71690000Y-71980000D02*
X71690000Y-59980000D01*
%TO.C,D1*%
X63320000Y-29050000D02*
X66680000Y-29050000D01*
X66680000Y-30950000D01*
X63320000Y-30950000D01*
X63320000Y-29050000D01*
%TO.C,J6*%
X18230000Y-83230000D02*
X31930000Y-83230000D01*
X31930000Y-86770000D01*
X18230000Y-86770000D01*
X18230000Y-83230000D01*
%TO.C,U6*%
X48450000Y-118860000D02*
X51550000Y-118860000D01*
X51550000Y-124950000D01*
X48450000Y-124950000D01*
X48450000Y-118860000D01*
%TO.C,R5*%
X56320000Y-54050000D02*
X59680000Y-54050000D01*
X59680000Y-55950000D01*
X56320000Y-55950000D01*
X56320000Y-54050000D01*
%TO.C,U7*%
X48700000Y-61150000D02*
X48700000Y-53770000D01*
X48700000Y-61150000D02*
X54150000Y-61150000D01*
X54150000Y-53770000D02*
X48700000Y-53770000D01*
X54150000Y-53770000D02*
X54150000Y-61150000D01*
%TO.C,H3*%
X8450000Y-154000000D02*
G75*
G02*
X3550000Y-154000000I-2450000J0D01*
G01*
X3550000Y-154000000D02*
G75*
G02*
X8450000Y-154000000I2450000J0D01*
G01*
%TO.C,Q1*%
X7950000Y-146500000D02*
X8950000Y-146500000D01*
X7950000Y-149500000D02*
X7950000Y-146500000D01*
X8950000Y-146300000D02*
X11050000Y-146300000D01*
X8950000Y-146500000D02*
X8950000Y-146300000D01*
X8950000Y-149500000D02*
X7950000Y-149500000D01*
X8950000Y-149700000D02*
X8950000Y-149500000D01*
X11050000Y-146300000D02*
X11050000Y-146500000D01*
X11050000Y-146500000D02*
X12050000Y-146500000D01*
X11050000Y-149500000D02*
X11050000Y-149700000D01*
X11050000Y-149700000D02*
X8950000Y-149700000D01*
X12050000Y-146500000D02*
X12050000Y-149500000D01*
X12050000Y-149500000D02*
X11050000Y-149500000D01*
%TO.C,SW5*%
X53200000Y-91200000D02*
X58800000Y-91200000D01*
X53200000Y-94800000D02*
X53200000Y-91200000D01*
X58800000Y-91200000D02*
X58800000Y-94800000D01*
X58800000Y-94800000D02*
X53200000Y-94800000D01*
%TO.C,L1*%
X55720000Y-149420000D02*
X60280000Y-149420000D01*
X60280000Y-152580000D01*
X55720000Y-152580000D01*
X55720000Y-149420000D01*
%TO.C,C1*%
X66700000Y-148850000D02*
X71300000Y-148850000D01*
X71300000Y-151150000D01*
X66700000Y-151150000D01*
X66700000Y-148850000D01*
%TO.C,J3*%
X23230000Y-63230000D02*
X47090000Y-63230000D01*
X47090000Y-66770000D01*
X23230000Y-66770000D01*
X23230000Y-63230000D01*
%TO.C,SW3*%
X25200000Y-91200000D02*
X30800000Y-91200000D01*
X25200000Y-94800000D02*
X25200000Y-91200000D01*
X30800000Y-91200000D02*
X30800000Y-94800000D01*
X30800000Y-94800000D02*
X25200000Y-94800000D01*
%TO.C,U3*%
X26300000Y-142540000D02*
X27800000Y-142540000D01*
X26300000Y-147460000D02*
X26300000Y-142540000D01*
X27800000Y-142300000D02*
X32200000Y-142300000D01*
X27800000Y-142540000D02*
X27800000Y-142300000D01*
X27800000Y-147460000D02*
X26300000Y-147460000D01*
X27800000Y-147700000D02*
X27800000Y-147460000D01*
X32200000Y-142300000D02*
X32200000Y-142540000D01*
X32200000Y-142540000D02*
X33700000Y-142540000D01*
X32200000Y-147460000D02*
X32200000Y-147700000D01*
X32200000Y-147700000D02*
X27800000Y-147700000D01*
X33700000Y-142540000D02*
X33700000Y-147460000D01*
X33700000Y-147460000D02*
X32200000Y-147460000D01*
%TO.C,J7*%
X3450000Y-67000000D02*
X18550000Y-67000000D01*
X18550000Y-74900000D01*
X3450000Y-74900000D01*
X3450000Y-67000000D01*
%TO.C,D18*%
X61650000Y-146850000D02*
X61650000Y-149150000D01*
X61650000Y-146850000D02*
X66350000Y-146850000D01*
X66350000Y-146850000D02*
X66350000Y-149150000D01*
X66350000Y-149150000D02*
X61650000Y-149150000D01*
%TO.C,U4*%
X37950000Y-143500000D02*
X38950000Y-143500000D01*
X37950000Y-146500000D02*
X37950000Y-143500000D01*
X38950000Y-143300000D02*
X41050000Y-143300000D01*
X38950000Y-143500000D02*
X38950000Y-143300000D01*
X38950000Y-146500000D02*
X37950000Y-146500000D01*
X38950000Y-146700000D02*
X38950000Y-146500000D01*
X41050000Y-143300000D02*
X41050000Y-143500000D01*
X41050000Y-143500000D02*
X42050000Y-143500000D01*
X41050000Y-146500000D02*
X41050000Y-146700000D01*
X41050000Y-146700000D02*
X38950000Y-146700000D01*
X42050000Y-143500000D02*
X42050000Y-146500000D01*
X42050000Y-146500000D02*
X41050000Y-146500000D01*
%TO.C,SW2*%
X11200000Y-91200000D02*
X16800000Y-91200000D01*
X11200000Y-94800000D02*
X11200000Y-91200000D01*
X16800000Y-91200000D02*
X16800000Y-94800000D01*
X16800000Y-94800000D02*
X11200000Y-94800000D01*
%TO.C,U5*%
X42950000Y-143500000D02*
X43950000Y-143500000D01*
X42950000Y-146500000D02*
X42950000Y-143500000D01*
X43950000Y-143300000D02*
X46050000Y-143300000D01*
X43950000Y-143500000D02*
X43950000Y-143300000D01*
X43950000Y-146500000D02*
X42950000Y-146500000D01*
X43950000Y-146700000D02*
X43950000Y-146500000D01*
X46050000Y-143300000D02*
X46050000Y-143500000D01*
X46050000Y-143500000D02*
X47050000Y-143500000D01*
X46050000Y-144610000D02*
X46050000Y-145390000D01*
X46050000Y-145390000D02*
X47050000Y-145390000D01*
X46050000Y-146500000D02*
X46050000Y-146700000D01*
X46050000Y-146700000D02*
X43950000Y-146700000D01*
X47050000Y-143500000D02*
X47050000Y-144610000D01*
X47050000Y-144610000D02*
X46050000Y-144610000D01*
X47050000Y-145390000D02*
X47050000Y-146500000D01*
X47050000Y-146500000D02*
X46050000Y-146500000D01*
%TO.C,USB1*%
X61240000Y-44680000D02*
X70180000Y-44680000D01*
X70180000Y-55320000D01*
X61240000Y-55320000D01*
X61240000Y-44680000D01*
%TO.C,SW4*%
X39200000Y-91200000D02*
X44800000Y-91200000D01*
X39200000Y-94800000D02*
X39200000Y-91200000D01*
X44800000Y-91200000D02*
X44800000Y-94800000D01*
X44800000Y-94800000D02*
X39200000Y-94800000D01*
%TO.C,D16*%
X39650000Y-133350000D02*
X39650000Y-135650000D01*
X39650000Y-133350000D02*
X44350000Y-133350000D01*
X44350000Y-133350000D02*
X44350000Y-135650000D01*
X44350000Y-135650000D02*
X39650000Y-135650000D01*
%TO.C,D14*%
X11650000Y-133350000D02*
X11650000Y-135650000D01*
X11650000Y-133350000D02*
X16350000Y-133350000D01*
X16350000Y-133350000D02*
X16350000Y-135650000D01*
X16350000Y-135650000D02*
X11650000Y-135650000D01*
%TO.C,D9*%
X53650000Y-109350000D02*
X53650000Y-111650000D01*
X53650000Y-109350000D02*
X58350000Y-109350000D01*
X58350000Y-109350000D02*
X58350000Y-111650000D01*
X58350000Y-111650000D02*
X53650000Y-111650000D01*
%TO.C,D11*%
X25650000Y-121350000D02*
X25650000Y-123650000D01*
X25650000Y-121350000D02*
X30350000Y-121350000D01*
X30350000Y-121350000D02*
X30350000Y-123650000D01*
X30350000Y-123650000D02*
X25650000Y-123650000D01*
%TO.C,D2*%
X11650000Y-97350000D02*
X11650000Y-99650000D01*
X11650000Y-97350000D02*
X16350000Y-97350000D01*
X16350000Y-97350000D02*
X16350000Y-99650000D01*
X16350000Y-99650000D02*
X11650000Y-99650000D01*
%TO.C,D12*%
X39650000Y-121350000D02*
X39650000Y-123650000D01*
X39650000Y-121350000D02*
X44350000Y-121350000D01*
X44350000Y-121350000D02*
X44350000Y-123650000D01*
X44350000Y-123650000D02*
X39650000Y-123650000D01*
%TO.C,D10*%
X11650000Y-121350000D02*
X11650000Y-123650000D01*
X11650000Y-121350000D02*
X16350000Y-121350000D01*
X16350000Y-121350000D02*
X16350000Y-123650000D01*
X16350000Y-123650000D02*
X11650000Y-123650000D01*
%TO.C,D5*%
X53650000Y-97350000D02*
X53650000Y-99650000D01*
X53650000Y-97350000D02*
X58350000Y-97350000D01*
X58350000Y-97350000D02*
X58350000Y-99650000D01*
X58350000Y-99650000D02*
X53650000Y-99650000D01*
%TO.C,D15*%
X25650000Y-133350000D02*
X25650000Y-135650000D01*
X25650000Y-133350000D02*
X30350000Y-133350000D01*
X30350000Y-133350000D02*
X30350000Y-135650000D01*
X30350000Y-135650000D02*
X25650000Y-135650000D01*
%TO.C,D7*%
X25650000Y-109350000D02*
X25650000Y-111650000D01*
X25650000Y-109350000D02*
X30350000Y-109350000D01*
X30350000Y-109350000D02*
X30350000Y-111650000D01*
X30350000Y-111650000D02*
X25650000Y-111650000D01*
%TO.C,D17*%
X53650000Y-133350000D02*
X53650000Y-135650000D01*
X53650000Y-133350000D02*
X58350000Y-133350000D01*
X58350000Y-133350000D02*
X58350000Y-135650000D01*
X58350000Y-135650000D02*
X53650000Y-135650000D01*
%TO.C,D8*%
X39650000Y-109350000D02*
X39650000Y-111650000D01*
X39650000Y-109350000D02*
X44350000Y-109350000D01*
X44350000Y-109350000D02*
X44350000Y-111650000D01*
X44350000Y-111650000D02*
X39650000Y-111650000D01*
%TO.C,D6*%
X11650000Y-109350000D02*
X11650000Y-111650000D01*
X11650000Y-109350000D02*
X16350000Y-109350000D01*
X16350000Y-109350000D02*
X16350000Y-111650000D01*
X16350000Y-111650000D02*
X11650000Y-111650000D01*
%TO.C,U2*%
X61700000Y-90030000D02*
X63470000Y-90030000D01*
X61700000Y-99970000D02*
X61700000Y-90030000D01*
X63470000Y-89600000D02*
X68530000Y-89600000D01*
X63470000Y-90030000D02*
X63470000Y-89600000D01*
X63470000Y-99970000D02*
X61700000Y-99970000D01*
X63470000Y-100400000D02*
X63470000Y-99970000D01*
X68530000Y-89600000D02*
X68530000Y-90030000D01*
X68530000Y-90030000D02*
X70300000Y-90030000D01*
X68530000Y-99970000D02*
X68530000Y-100400000D01*
X68530000Y-100400000D02*
X63470000Y-100400000D01*
X70300000Y-90030000D02*
X70300000Y-99970000D01*
X70300000Y-99970000D02*
X68530000Y-99970000D01*
%TO.C,D13*%
X53650000Y-121350000D02*
X53650000Y-123650000D01*
X53650000Y-121350000D02*
X58350000Y-121350000D01*
X58350000Y-121350000D02*
X58350000Y-123650000D01*
X58350000Y-123650000D02*
X53650000Y-123650000D01*
%TO.C,D4*%
X39650000Y-97350000D02*
X39650000Y-99650000D01*
X39650000Y-97350000D02*
X44350000Y-97350000D01*
X44350000Y-97350000D02*
X44350000Y-99650000D01*
X44350000Y-99650000D02*
X39650000Y-99650000D01*
%TO.C,D3*%
X25650000Y-97350000D02*
X25650000Y-99650000D01*
X25650000Y-97350000D02*
X30350000Y-97350000D01*
X30350000Y-97350000D02*
X30350000Y-99650000D01*
X30350000Y-99650000D02*
X25650000Y-99650000D01*
%TD*%
M02*
