solid OpenSCAD_Model
  facet normal 0 0 -1
    outer loop
      vertex 24.25 24.35 24.7
      vertex -24.25 24.35 24.7
      vertex -24.25 60.65 24.7
    endloop
  endfacet
  facet normal 0 0 -1
    outer loop
      vertex 24.25 24.35 24.7
      vertex -24.25 60.65 24.7
      vertex 24.25 60.65 24.7
    endloop
  endfacet
  facet normal 0 0 1
    outer loop
      vertex -24.25 60.65 25.2
      vertex -24.25 24.35 25.2
      vertex 24.25 24.35 25.2
    endloop
  endfacet
  facet normal 0 0 1
    outer loop
      vertex 24.25 60.65 25.2
      vertex -24.25 60.65 25.2
      vertex 24.25 24.35 25.2
    endloop
  endfacet
  facet normal 0 -1 0
    outer loop
      vertex 24.25 24.35 24.7
      vertex -24.25 24.35 25.2
      vertex -24.25 24.35 24.7
    endloop
  endfacet
  facet normal 0 -1 0
    outer loop
      vertex 24.25 24.35 24.7
      vertex 24.25 24.35 25.2
      vertex -24.25 24.35 25.2
    endloop
  endfacet
  facet normal 1 0 0
    outer loop
      vertex 24.25 60.65 24.7
      vertex 24.25 24.35 25.2
      vertex 24.25 24.35 24.7
    endloop
  endfacet
  facet normal 1 0 -0
    outer loop
      vertex 24.25 60.65 24.7
      vertex 24.25 60.65 25.2
      vertex 24.25 24.35 25.2
    endloop
  endfacet
  facet normal 0 1 0
    outer loop
      vertex -24.25 60.65 24.7
      vertex 24.25 60.65 25.2
      vertex 24.25 60.65 24.7
    endloop
  endfacet
  facet normal 0 1 0
    outer loop
      vertex -24.25 60.65 24.7
      vertex -24.25 60.65 25.2
      vertex 24.25 60.65 25.2
    endloop
  endfacet
  facet normal -1 0 0
    outer loop
      vertex -24.25 24.35 24.7
      vertex -24.25 60.65 25.2
      vertex -24.25 60.65 24.7
    endloop
  endfacet
  facet normal -1 0 0
    outer loop
      vertex -24.25 24.35 24.7
      vertex -24.25 24.35 25.2
      vertex -24.25 60.65 25.2
    endloop
  endfacet
endsolid OpenSCAD_Model
